<?xml version="1.0" standalone="no"?>
<!DOCTYPE svg PUBLIC "-//W3C//DTD SVG 20010904//EN"
 "http://www.w3.org/TR/2001/REC-SVG-20010904/DTD/svg10.dtd">
<svg version="1.0" xmlns="http://www.w3.org/2000/svg"
 width="1046.000000pt" height="553.000000pt" viewBox="0 0 1046.000000 553.000000"
 preserveAspectRatio="xMidYMid meet">

<g transform="translate(0.000000,553.000000) scale(0.100000,-0.100000)"
fill="#000000" stroke="none">
<path d="M828 5523 c12 -2 30 -2 40 0 9 3 -1 5 -23 4 -22 0 -30 -2 -17 -4z"/>
<path d="M480 4910 l0 -290 260 0 260 0 0 129 0 128 73 7 c85 8 108 9 113 3 3
-2 7 -159 11 -349 l6 -345 -69 -6 c-38 -4 -84 -7 -101 -7 l-33 0 0 125 0 125
-260 0 -260 0 0 -285 0 -285 260 0 260 0 0 129 0 129 95 7 c53 4 98 6 100 4 2
-2 7 -152 11 -332 l7 -327 -111 0 -112 0 0 105 0 105 -255 0 -255 0 0 -275 0
-275 255 0 255 0 0 141 0 141 130 -3 c74 -2 133 1 138 6 5 6 5 138 1 295 -4
157 -10 520 -13 808 l-5 522 82 0 c45 0 721 -11 1502 -25 781 -14 1430 -25
1443 -25 l22 0 0 -319 0 -319 -582 -6 c-321 -3 -838 -9 -1150 -12 l-568 -6 0
246 0 246 -275 0 -275 0 0 -865 0 -865 275 0 275 0 0 594 0 594 568 6 c312 3
829 9 1150 12 l582 6 0 -131 0 -131 445 0 445 0 0 -895 0 -895 -455 0 -455 0
0 -365 0 -365 440 0 440 0 0 -175 0 -175 -440 0 -440 0 0 -230 0 -230 915 0
915 0 0 230 0 230 -447 2 -448 3 -3 172 -2 173 437 2 438 3 3 118 c1 64 5 117
8 117 3 0 88 -55 187 -123 100 -68 337 -228 527 -357 190 -128 351 -239 359
-246 10 -9 14 -51 15 -176 l1 -163 313 -3 312 -2 0 350 0 350 -313 0 -313 0
-3 -142 c-1 -78 -3 -143 -5 -145 -1 -1 -72 45 -157 103 -85 58 -161 109 -169
112 -15 6 -662 441 -727 489 l-33 24 0 209 0 210 -422 2 -423 3 -3 892 -2 893
417 2 418 3 3 283 2 282 274 0 c150 0 631 3 1069 7 l797 6 0 -246 0 -247 800
0 800 0 0 525 0 525 -800 0 -800 0 0 -253 0 -254 -802 -6 c-442 -4 -923 -7
-1070 -7 l-268 0 0 230 0 230 -890 0 -890 0 0 -41 0 -42 -262 7 c-145 3 -828
15 -1518 27 -838 13 -1262 23 -1277 31 -34 17 -43 2 -43 -76 l0 -73 -46 -7
c-26 -3 -69 -6 -95 -6 l-49 0 0 130 0 130 -260 0 -260 0 0 -290z m470 0 l0
-240 -210 0 -210 0 0 240 0 240 210 0 210 0 0 -240z m8810 -250 l0 -470 -750
0 -750 0 0 470 0 470 750 0 750 0 0 -470z m-3750 -80 l0 -490 -835 0 -835 0 0
490 0 490 835 0 835 0 0 -490z m-4070 -625 l0 -815 -225 0 -225 0 0 815 0 815
225 0 225 0 0 -815z m-990 190 l0 -235 -210 0 -210 0 0 235 0 235 210 0 210 0
0 -235z m-11 -670 c0 -148 -1 -154 -19 -145 -10 6 -32 10 -49 10 l-31 0 0 -65
0 -65 34 0 c19 0 42 7 50 16 15 14 16 13 16 -15 l0 -31 -205 0 -205 0 0 225 0
225 205 0 205 0 -1 -155z m-31 -167 c27 -27 7 -78 -30 -78 -15 0 -18 8 -18 45
0 37 3 45 18 45 10 0 23 -5 30 -12z m5121 -1418 l0 -310 -417 -1 c-353 0
-1261 0 -1284 1 -5 0 -8 139 -8 310 l0 310 855 0 854 0 0 -310z m1721 -850 l0
-300 -260 0 -260 0 0 125 0 124 38 6 c67 12 72 15 72 45 0 20 -6 31 -20 35
-27 9 -27 39 1 32 13 -3 19 -1 16 6 -2 7 -17 12 -33 12 -24 0 -30 -5 -32 -27
-3 -22 2 -30 22 -40 14 -6 26 -15 26 -20 0 -18 -30 -19 -59 -2 l-31 18 0 143
0 143 260 0 260 0 0 -300z m-1702 -97 l-3 -178 -862 -3 -863 -2 0 180 0 180
865 0 865 0 -2 -177z"/>
<path d="M630 5015 c0 -37 4 -65 10 -65 6 0 10 9 10 19 0 32 17 33 38 4 22
-31 44 -24 24 7 -9 15 -9 26 0 44 15 34 -4 56 -48 56 l-34 0 0 -65z m58 22 c2
-12 -3 -17 -17 -17 -15 0 -21 6 -21 21 0 25 33 22 38 -4z"/>
<path d="M630 4765 l0 -65 35 0 c19 0 35 5 35 10 0 6 -12 10 -26 10 -25 0 -26
2 -22 55 2 39 -1 55 -9 55 -9 0 -13 -20 -13 -65z"/>
<path d="M710 4765 l0 -65 40 0 c22 0 40 5 40 10 0 6 -11 10 -25 10 -18 0 -25
5 -25 20 0 13 7 20 20 20 11 0 20 5 20 10 0 6 -9 10 -20 10 -11 0 -20 7 -20
15 0 9 9 15 25 15 14 0 25 5 25 10 0 6 -18 10 -40 10 l-40 0 0 -65z"/>
<path d="M820 4765 l0 -65 33 0 c42 0 67 26 67 68 0 40 -23 62 -66 62 l-34 0
0 -65z m68 33 c27 -27 7 -78 -30 -78 -15 0 -18 8 -18 45 0 37 3 45 18 45 10 0
23 -5 30 -12z"/>
<path d="M9056 4872 c-3 -5 -18 -45 -35 -90 -21 -59 -26 -82 -17 -82 8 0 25
34 40 76 15 41 30 82 33 90 5 15 -12 20 -21 6z"/>
<path d="M8431 4795 l2 -65 31 0 c47 0 76 25 76 65 0 45 -22 65 -71 65 l-40 0
2 -65z m80 24 c15 -29 -3 -69 -31 -69 -17 0 -20 7 -20 45 0 38 3 45 20 45 10
0 24 -10 31 -21z"/>
<path d="M8570 4795 c0 -37 4 -65 10 -65 6 0 10 14 10 30 0 25 4 30 25 30 21
0 25 -5 25 -30 0 -20 5 -30 15 -30 12 0 15 14 15 65 0 51 -3 65 -15 65 -9 0
-15 -9 -15 -25 0 -20 -5 -25 -25 -25 -20 0 -25 5 -25 25 0 14 -4 25 -10 25 -6
0 -10 -28 -10 -65z"/>
<path d="M8690 4850 c0 -5 7 -10 15 -10 12 0 15 -13 15 -55 0 -42 3 -55 15
-55 12 0 15 13 15 55 0 41 4 55 14 55 8 0 18 5 21 10 4 6 -13 10 -44 10 -28 0
-51 -4 -51 -10z"/>
<path d="M8805 4851 c-3 -5 5 -11 17 -13 31 -4 32 -21 3 -56 -35 -41 -32 -52
15 -52 22 0 40 5 40 10 0 6 -12 10 -26 10 l-26 0 26 31 c28 32 29 38 20 63 -7
17 -59 22 -69 7z"/>
<path d="M8905 4851 c-4 -7 4 -11 19 -11 33 0 33 -20 1 -58 -35 -41 -32 -52
15 -52 22 0 40 5 40 10 0 6 -12 10 -26 10 l-26 0 27 31 c35 42 30 73 -12 77
-17 2 -34 -2 -38 -7z"/>
<path d="M9100 4795 l0 -65 35 0 c43 0 75 29 75 68 0 38 -28 62 -73 62 l-37 0
0 -65z m79 27 c12 -23 -7 -65 -32 -70 -14 -3 -17 4 -17 42 0 39 3 46 20 46 10
0 24 -8 29 -18z"/>
<path d="M9239 4835 c0 -14 -1 -38 -1 -55 0 -46 1 -50 12 -50 6 0 10 14 10 30
0 25 4 30 25 30 21 0 25 -5 25 -30 0 -20 5 -30 15 -30 12 0 15 14 15 65 0 51
-3 65 -15 65 -9 0 -15 -9 -15 -25 0 -20 -5 -25 -25 -25 -20 0 -25 5 -25 25 0
14 -4 25 -10 25 -5 0 -10 -11 -11 -25z"/>
<path d="M9355 4850 c3 -5 13 -10 21 -10 10 0 14 -14 14 -55 0 -42 3 -55 15
-55 12 0 15 13 15 55 0 42 3 55 15 55 8 0 15 5 15 10 0 6 -23 10 -51 10 -31 0
-48 -4 -44 -10z"/>
<path d="M9483 4853 c-7 -2 -13 -9 -13 -14 0 -4 7 -6 15 -3 12 5 15 -3 15 -40
0 -34 -4 -46 -15 -46 -8 0 -15 -4 -15 -10 0 -5 18 -10 40 -10 22 0 40 5 40 10
0 6 -7 10 -15 10 -12 0 -15 13 -15 55 0 55 -5 61 -37 48z"/>
<path d="M9585 4850 c-3 -5 -1 -10 4 -10 6 0 11 -20 11 -45 0 -33 -4 -45 -15
-45 -8 0 -15 -4 -15 -10 0 -5 18 -10 40 -10 22 0 40 5 40 10 0 6 -4 10 -10 10
-5 0 -10 25 -10 55 0 48 -3 55 -19 55 -11 0 -23 -4 -26 -10z"/>
<path d="M8452 4548 c-30 -84 -34 -116 -13 -92 11 12 61 151 61 170 0 36 -18
7 -48 -78z"/>
<path d="M8527 4613 c-4 -3 -7 -33 -7 -65 0 -65 12 -78 59 -62 23 9 26 15 26
59 1 28 -3 56 -8 63 -10 13 -59 17 -70 5z m51 -31 c2 -7 -3 -12 -12 -12 -9 0
-16 7 -16 16 0 17 22 14 28 -4z m10 -61 c-5 -24 -38 -27 -38 -3 0 10 3 21 6
25 11 11 35 -5 32 -22z"/>
<path d="M8640 4548 c0 -76 16 -86 22 -13 l3 40 16 -45 c9 -25 22 -45 29 -45
7 0 20 20 29 45 l16 45 3 -40 c6 -73 22 -63 22 13 0 59 -3 72 -16 72 -9 0 -22
-17 -31 -40 -19 -47 -28 -50 -38 -13 -8 34 -23 53 -41 53 -11 0 -14 -18 -14
-72z"/>
<path d="M8814 4606 c-3 -7 -4 -38 -2 -67 l3 -54 38 -3 c21 -2 37 1 37 7 0 6
-11 11 -25 11 -20 0 -25 5 -25 25 0 18 5 25 20 25 11 0 20 5 20 10 0 6 -9 10
-20 10 -11 0 -20 7 -20 15 0 9 9 15 25 15 14 0 25 5 25 10 0 15 -70 12 -76 -4z"/>
<path d="M8923 4613 c-21 -8 -14 -23 9 -20 32 3 34 -25 3 -61 -35 -41 -32 -52
15 -52 22 0 40 5 40 10 0 6 -9 10 -20 10 -11 0 -20 3 -20 6 0 3 9 17 20 31 40
51 10 100 -47 76z"/>
<path d="M9025 4606 c-17 -13 -18 -18 -7 -35 10 -17 10 -25 0 -41 -10 -16 -10
-23 5 -37 25 -25 73 -7 69 27 -1 14 -3 41 -5 60 -2 40 -28 51 -62 26z m45 -27
c0 -5 -7 -9 -15 -9 -15 0 -20 12 -9 23 8 8 24 -1 24 -14z m-5 -49 c11 -17 -5
-32 -21 -19 -7 6 -11 15 -8 20 7 12 21 11 29 -1z"/>
<path d="M9126 4598 c-9 -12 -16 -34 -16 -48 0 -30 25 -70 45 -70 26 0 45 31
45 74 0 65 -42 90 -74 44z m54 -48 c0 -28 -21 -55 -33 -43 -4 3 -7 23 -7 43 0
20 3 40 7 43 12 12 33 -15 33 -43z"/>
<path d="M4592 4603 c2 -79 6 -98 18 -98 10 0 16 13 18 43 2 23 6 42 10 42 16
-1 31 -17 45 -52 9 -21 23 -38 31 -38 21 0 20 18 -3 63 -16 31 -16 38 -5 48
21 17 17 66 -5 79 -11 5 -40 10 -66 10 l-46 0 3 -97z m83 42 c0 -13 -8 -21
-22 -23 -19 -3 -23 1 -23 23 0 22 4 26 23 23 14 -2 22 -10 22 -23z"/>
<path d="M4764 4687 c-3 -8 -4 -52 -2 -98 2 -67 6 -84 18 -84 9 0 17 13 20 35
4 30 10 35 40 41 94 19 73 119 -25 119 -29 0 -48 -5 -51 -13z m81 -47 c0 -18
-6 -26 -22 -28 -20 -3 -23 1 -23 28 0 27 3 31 23 28 16 -2 22 -10 22 -28z"/>
<path d="M5002 4603 c2 -79 6 -98 18 -98 10 0 16 12 18 38 3 33 6 37 31 37 34
0 61 28 61 62 0 38 -29 58 -84 58 l-47 0 3 -97z m83 37 c0 -18 -6 -26 -22 -28
-20 -3 -23 1 -23 28 0 27 3 31 23 28 16 -2 22 -10 22 -28z"/>
<path d="M5162 4603 c2 -79 6 -98 18 -98 12 0 16 19 18 98 3 92 2 97 -18 97
-20 0 -21 -5 -18 -97z"/>
<path d="M5271 4674 c-27 -22 -31 -32 -31 -72 1 -54 14 -77 55 -92 33 -13 85
3 85 26 0 17 -1 17 -35 4 -34 -13 -65 17 -65 63 0 49 31 75 71 60 23 -9 29 -9
29 3 0 16 -31 34 -59 34 -11 0 -33 -12 -50 -26z"/>
<path d="M5433 4676 c-24 -21 -28 -32 -28 -75 0 -66 27 -96 86 -96 56 0 89 38
89 101 0 85 -83 125 -147 70z m91 -22 c19 -18 21 -85 4 -102 -19 -19 -66 -15
-78 7 -34 65 27 143 74 95z"/>
<path d="M5698 4689 c-27 -15 -22 -30 7 -23 24 6 55 -9 55 -26 0 -4 -18 -31
-41 -59 -53 -67 -48 -81 31 -81 47 0 60 3 60 15 0 14 -24 20 -57 16 -22 -3
-14 20 17 56 51 57 35 114 -32 113 -13 0 -31 -5 -40 -11z"/>
<path d="M1503 4664 c-4 -11 2 -23 18 -35 l24 -18 -25 -10 -25 -10 26 0 c35
-1 45 24 19 46 -24 21 -26 38 -4 29 8 -3 12 -2 9 4 -10 16 -35 12 -42 -6z"/>
<path d="M1574 4646 c-12 -30 0 -51 31 -53 20 -1 23 0 8 4 -29 6 -30 23 -2 23
14 0 19 5 17 18 -4 22 -46 29 -54 8z m41 -6 c3 -5 -1 -10 -9 -10 -9 0 -16 5
-16 10 0 6 4 10 9 10 6 0 13 -4 16 -10z"/>
<path d="M1650 4624 c0 -41 17 -45 22 -6 4 36 21 34 30 -4 6 -28 6 -27 5 6 -2
31 -5 35 -29 36 -25 1 -28 -2 -28 -32z"/>
<path d="M1740 4650 c12 -8 13 -13 3 -30 -17 -27 -16 -30 10 -30 14 0 18 3 10
8 -10 6 -10 12 2 28 21 28 19 34 -12 34 -22 0 -25 -2 -13 -10z"/>
<path d="M1801 4646 c-21 -26 -9 -51 24 -51 27 0 30 3 30 30 0 23 -5 31 -21
33 -11 2 -26 -4 -33 -12z m39 -21 c0 -16 -6 -25 -15 -25 -15 0 -21 31 -8 43
13 14 23 6 23 -18z"/>
<path d="M1880 4623 c0 -18 5 -33 10 -33 6 0 10 13 10 29 0 16 6 31 13 34 6 3
2 4 -10 4 -19 -1 -23 -7 -23 -34z"/>
<path d="M1725 4490 c3 -5 8 -10 11 -10 2 0 4 5 4 10 0 6 -5 10 -11 10 -5 0
-7 -4 -4 -10z"/>
<path d="M1810 4486 c0 -8 -10 -16 -22 -18 -18 -2 -23 -10 -23 -33 0 -27 4
-30 33 -33 l32 -3 0 50 c0 28 -4 51 -10 51 -5 0 -10 -6 -10 -14z m-5 -51 c0
-10 -6 -20 -12 -22 -8 -3 -13 5 -13 22 0 17 5 25 13 23 6 -3 12 -13 12 -23z"/>
<path d="M1850 4489 c0 -5 5 -7 10 -4 6 3 10 8 10 11 0 2 -4 4 -10 4 -5 0 -10
-5 -10 -11z"/>
<path d="M1502 4454 c4 -43 29 -65 56 -48 18 12 30 84 13 84 -5 0 -11 -17 -13
-37 -2 -26 -8 -38 -18 -38 -10 0 -16 12 -18 38 -2 20 -8 37 -13 37 -6 0 -9
-16 -7 -36z"/>
<path d="M1600 4435 c0 -19 5 -35 10 -35 6 0 10 14 10 30 0 17 5 30 10 30 6 0
10 -13 10 -30 0 -36 17 -40 22 -5 4 36 22 36 29 0 6 -29 7 -29 8 8 l1 37 -50
0 -50 0 0 -35z"/>
<path d="M1733 4435 c0 -22 2 -30 4 -17 2 12 2 30 0 40 -3 9 -5 -1 -4 -23z"/>
<path d="M1850 4435 c0 -19 5 -35 10 -35 6 0 10 16 10 35 0 19 -4 35 -10 35
-5 0 -10 -16 -10 -35z"/>
<path d="M1898 4433 c7 -3 16 -2 19 1 4 3 -2 6 -13 5 -11 0 -14 -3 -6 -6z"/>
<path d="M1528 4298 c-7 -20 6 -71 18 -75 7 -2 9 8 6 27 -3 19 0 30 8 30 7 0
6 5 -4 15 -18 18 -23 19 -28 3z"/>
<path d="M1652 4268 c2 -34 7 -43 23 -45 11 -2 14 0 8 3 -16 7 -17 54 -2 54 6
0 4 7 -5 15 -23 23 -27 18 -24 -27z"/>
<path d="M1585 4281 c-3 -7 0 -8 9 -5 9 3 16 2 16 -4 0 -5 -7 -12 -15 -16 -25
-9 -18 -36 11 -36 23 0 25 3 22 32 -3 33 -29 50 -43 29z m25 -41 c0 -5 -5 -10
-11 -10 -5 0 -7 5 -4 10 3 6 8 10 11 10 2 0 4 -4 4 -10z"/>
<path d="M1710 4275 c-20 -24 -8 -50 25 -52 20 -1 23 0 8 4 -31 6 -29 23 2 23
27 0 32 9 13 28 -16 16 -33 15 -48 -3z m40 -5 c0 -5 -7 -10 -15 -10 -8 0 -15
5 -15 10 0 6 7 10 15 10 8 0 15 -4 15 -10z"/>
<path d="M645 4306 c-14 -14 -25 -34 -25 -46 0 -31 35 -60 75 -60 28 0 36 4
41 24 3 14 3 30 -1 35 -8 14 -55 14 -55 1 0 -5 7 -10 15 -10 8 0 15 -7 15 -15
0 -18 -31 -20 -48 -3 -17 17 -15 53 3 68 8 7 26 10 40 7 16 -3 24 0 22 7 -7
23 -56 18 -82 -8z"/>
<path d="M630 4020 l0 -60 38 1 c30 2 32 3 10 6 -27 4 -28 7 -28 59 0 30 -4
54 -10 54 -6 0 -10 -27 -10 -60z"/>
<path d="M710 4020 l0 -60 43 1 c29 2 34 3 15 6 -34 5 -41 43 -8 43 11 0 20 5
20 10 0 6 -9 10 -20 10 -11 0 -20 7 -20 15 0 9 9 15 25 15 14 0 25 5 25 10 0
6 -18 10 -40 10 l-40 0 0 -60z"/>
<path d="M818 4020 l-3 -60 46 0 c51 0 59 9 59 60 0 38 -24 60 -65 60 l-33 0
-4 -60z m70 28 c27 -27 7 -78 -30 -78 -15 0 -18 8 -18 45 0 37 3 45 18 45 10
0 23 -5 30 -12z"/>
<path d="M641 3578 c0 -7 8 -35 18 -63 12 -34 24 -51 37 -53 16 -2 24 9 41 63
17 52 18 65 7 65 -8 0 -18 -19 -25 -45 -6 -25 -15 -45 -20 -45 -5 0 -14 20
-21 45 -7 25 -18 45 -25 45 -7 0 -13 -6 -12 -12z"/>
<path d="M650 3276 l0 -66 35 0 c19 0 35 5 35 10 0 6 -10 10 -22 10 -21 0 -23
5 -23 52 0 32 -5 53 -12 55 -10 4 -13 -13 -13 -61z"/>
<path d="M733 3275 l0 -65 38 0 c22 0 39 5 39 10 0 6 -11 10 -25 10 -18 0 -25
5 -25 20 0 13 7 20 20 20 11 0 20 5 20 10 0 6 -9 10 -20 10 -11 0 -20 7 -20
15 0 9 9 15 25 15 14 0 25 5 25 10 0 6 -17 10 -38 10 l-38 0 -1 -65z"/>
<path d="M5044 1967 c-10 -26 0 -130 14 -135 9 -3 12 15 12 67 0 65 -13 100
-26 68z"/>
<path d="M4537 1963 c-11 -10 -8 -133 3 -133 6 0 10 18 10 39 0 56 15 59 30 6
7 -25 18 -45 25 -45 7 0 19 21 26 48 l14 47 5 -44 c3 -25 11 -46 18 -49 14 -4
18 123 3 132 -13 8 -41 -4 -41 -18 -1 -6 -7 -24 -14 -41 l-13 -30 -13 40 c-15
47 -36 66 -53 48z"/>
<path d="M4880 1945 c0 -20 -5 -25 -24 -25 -34 0 -52 -25 -40 -58 8 -23 15
-27 47 -27 l37 -1 0 68 c0 39 -4 68 -10 68 -5 0 -10 -11 -10 -25z m-5 -70 c0
-28 -29 -25 -33 3 -3 19 0 23 15 20 10 -2 18 -12 18 -23z"/>
<path d="M5156 1963 c-10 -10 -7 -133 3 -133 6 0 11 21 13 48 l3 47 16 -45 c9
-25 22 -45 29 -45 7 0 20 20 29 45 l16 45 3 -47 c5 -75 23 -57 20 19 -4 80
-21 94 -45 34 -9 -23 -20 -41 -24 -41 -4 0 -13 15 -19 34 -11 33 -32 51 -44
39z"/>
<path d="M5350 1957 c-51 -26 -32 -127 24 -127 40 0 66 28 66 70 0 29 -6 43
-22 54 -27 19 -35 19 -68 3z m64 -43 c8 -32 -9 -64 -35 -64 -34 0 -47 71 -16
91 17 12 45 -3 51 -27z"/>
<path d="M5478 1959 c-26 -15 -22 -44 9 -67 29 -21 24 -47 -9 -39 -12 4 -18 1
-15 -6 6 -19 43 -20 61 -2 22 22 20 32 -10 60 -26 24 -25 49 1 38 8 -3 15 -1
15 5 0 5 -7 13 -16 16 -19 7 -15 8 -36 -5z"/>
<path d="M5567 1963 c-11 -10 -8 -133 3 -133 6 0 10 11 10 25 0 18 5 25 19 25
29 0 35 18 9 22 -33 4 -35 34 -3 42 14 4 23 11 20 16 -7 11 -48 13 -58 3z"/>
<path d="M5657 1963 c-4 -3 -7 -35 -7 -70 l0 -63 34 0 c19 0 38 5 41 10 4 6
-5 10 -19 10 -33 0 -36 34 -3 45 l22 8 -23 4 c-24 5 -28 37 -4 39 6 1 17 2 23
3 5 0 7 6 4 11 -7 11 -58 14 -68 3z"/>
<path d="M5745 1959 c-4 -6 2 -13 14 -16 18 -5 21 -13 21 -59 0 -30 5 -54 10
-54 6 0 10 24 10 54 0 46 3 56 20 61 11 4 18 11 15 16 -8 13 -82 11 -90 -2z"/>
<path d="M4712 1908 c-16 -16 -15 -53 2 -68 36 -29 92 13 75 58 -9 25 -56 31
-77 10z m56 -30 c-4 -27 -33 -36 -42 -13 -8 22 1 35 25 35 15 0 20 -6 17 -22z"/>
<path d="M4930 1886 c0 -40 14 -53 58 -53 31 0 32 2 32 44 0 32 -4 43 -15 43
-10 0 -15 -10 -15 -29 0 -17 -5 -33 -11 -37 -15 -9 -30 16 -26 44 3 14 -1 22
-9 22 -9 0 -14 -12 -14 -34z"/>
<path d="M7360 1056 c0 -41 15 -55 58 -54 31 1 32 2 32 45 0 32 -4 43 -12 40
-7 -2 -12 -10 -10 -17 5 -21 -9 -50 -24 -50 -9 0 -14 11 -14 35 0 24 -5 35
-15 35 -10 0 -15 -10 -15 -34z"/>
<path d="M7474 1045 c-1 -32 2 -45 12 -45 9 0 14 11 14 30 0 18 6 33 15 36 25
10 17 24 -13 24 -25 0 -27 -3 -28 -45z"/>
<path d="M7550 1080 c-13 -9 -10 -14 15 -35 l30 -25 -29 0 c-22 0 -27 -3 -19
-11 15 -15 63 -3 63 15 0 7 -10 21 -22 29 l-23 16 23 0 c13 1 20 5 17 11 -8
13 -36 13 -55 0z"/>
<path d="M7635 1080 c-4 -6 6 -11 22 -11 21 -1 23 -3 8 -6 -11 -3 -26 -12 -32
-21 -18 -22 2 -42 43 -42 32 0 34 2 34 33 0 18 -5 38 -12 45 -15 15 -54 16
-63 2z m45 -50 c0 -5 -7 -10 -15 -10 -8 0 -15 5 -15 10 0 6 7 10 15 10 8 0 15
-4 15 -10z"/>
<path d="M5190 1016 c0 -19 -6 -25 -26 -28 -34 -4 -49 -27 -40 -61 6 -24 11
-27 46 -27 l40 0 0 70 c0 40 -4 70 -10 70 -5 0 -10 -11 -10 -24z m-3 -62 c7
-20 -11 -38 -31 -31 -9 4 -12 13 -9 26 6 25 31 28 40 5z"/>
<path d="M4470 966 c0 -52 3 -66 15 -66 9 0 15 9 15 24 0 18 6 26 21 28 12 2
27 11 33 21 17 26 -4 51 -48 55 l-36 3 0 -65z m60 24 c0 -11 -7 -20 -15 -20
-8 0 -15 9 -15 20 0 11 7 20 15 20 8 0 15 -9 15 -20z"/>
<path d="M4591 976 c-7 -8 -11 -27 -9 -43 6 -51 88 -41 88 11 0 42 -53 63 -79
32z m57 -29 c4 -20 -25 -34 -40 -19 -15 15 -1 44 19 40 10 -2 19 -11 21 -21z"/>
<path d="M4690 943 c0 -32 4 -43 15 -43 10 0 15 11 15 35 0 24 5 35 15 35 10
0 15 -11 15 -35 0 -26 4 -35 16 -35 12 0 15 7 12 24 -3 14 -2 30 2 37 12 19
30 0 30 -32 0 -16 5 -29 11 -29 6 0 9 17 7 43 l-3 42 -67 1 -68 0 0 -43z"/>
<path d="M4860 923 c0 -35 4 -63 10 -63 6 0 10 9 10 20 0 14 7 20 23 20 29 0
47 18 47 46 0 29 -19 43 -58 42 l-32 -1 0 -64z m58 19 c2 -14 -2 -22 -12 -22
-19 0 -28 14 -20 35 9 21 28 14 32 -13z"/>
<path d="M4975 980 c-4 -6 6 -10 22 -11 28 -1 28 -1 3 -8 -18 -5 -25 -14 -25
-31 0 -22 5 -25 38 -28 36 -3 37 -2 37 30 0 19 -5 39 -12 46 -15 15 -54 16
-63 2z m45 -50 c0 -5 -7 -10 -16 -10 -8 0 -12 5 -9 10 3 6 10 10 16 10 5 0 9
-4 9 -10z"/>
<path d="M5246 974 c-19 -18 -21 -45 -4 -62 15 -15 64 -16 73 -2 4 6 -7 10
-24 10 -17 0 -31 5 -31 10 0 6 14 10 30 10 31 0 39 17 18 38 -17 17 -44 15
-62 -4z m41 -10 c-3 -3 -12 -4 -19 -1 -8 3 -5 6 6 6 11 1 17 -2 13 -5z"/>
<path d="M5395 980 c-4 -6 6 -10 22 -11 28 -1 28 -1 3 -8 -18 -5 -25 -14 -25
-31 0 -22 5 -25 38 -28 36 -3 37 -2 37 30 0 19 -5 39 -12 46 -15 15 -54 16
-63 2z m45 -50 c0 -5 -7 -10 -16 -10 -8 0 -12 5 -9 10 3 6 10 10 16 10 5 0 9
-4 9 -10z"/>
<path d="M5498 978 c-7 -18 5 -118 13 -118 5 0 9 9 9 19 0 14 8 21 28 23 24 3
27 7 27 43 0 39 0 40 -37 40 -21 1 -39 -3 -40 -7z m59 -24 c8 -21 -13 -42 -28
-27 -13 13 -5 43 11 43 6 0 13 -7 17 -16z"/>
<path d="M5615 981 c-4 -7 5 -12 22 -12 22 -1 24 -3 6 -6 -56 -11 -55 -63 2
-63 l36 0 -3 43 c-3 37 -6 42 -30 45 -14 2 -29 -2 -33 -7z m45 -51 c0 -5 -7
-10 -15 -10 -8 0 -15 5 -15 10 0 6 7 10 15 10 8 0 15 -4 15 -10z"/>
</g>
</svg>
