<?xml version="1.0" standalone="no"?>
<!DOCTYPE svg PUBLIC "-//W3C//DTD SVG 20010904//EN"
 "http://www.w3.org/TR/2001/REC-SVG-20010904/DTD/svg10.dtd">
<svg version="1.0" xmlns="http://www.w3.org/2000/svg"
 width="3840.000000pt" height="2043.000000pt" viewBox="0 0 3840.000000 2043.000000"
 preserveAspectRatio="xMidYMid meet">

<g transform="translate(0.000000,2043.000000) scale(0.100000,-0.100000)"
fill="#000000" stroke="none">
<path d="M188 18645 c-2 -877 -1 -1600 0 -1605 3 -7 3171 -10 9473 -10 l9469
0 0 -315 0 -315 30 0 30 0 0 315 0 315 9469 0 9469 0 6 183 c8 229 7 2786 -1
2925 l-6 102 -18968 0 -18969 0 -2 -1595z m37892 -10 l0 -1555 -18920 0
-18920 0 0 1555 0 1555 18920 0 18920 0 0 -1555z"/>
<path d="M18550 20077 c-31 -15 -49 -61 -34 -85 14 -22 48 -39 101 -52 81 -20
75 -85 -7 -85 -34 0 -47 6 -64 28 -24 29 -46 36 -46 13 0 -31 44 -67 87 -73
56 -7 98 11 114 49 20 48 -3 78 -76 101 -33 10 -66 24 -74 32 -13 12 -12 17 4
35 25 28 71 26 99 -5 23 -25 46 -33 46 -16 0 55 -88 89 -150 58z"/>
<path d="M18787 20009 c-28 -16 -49 -74 -41 -115 13 -71 100 -99 151 -48 21
21 23 28 12 35 -9 5 -21 1 -34 -11 -26 -24 -58 -26 -79 -4 -34 33 -20 44 54
44 69 0 70 1 70 26 0 57 -82 102 -133 73z m81 -31 c26 -26 13 -38 -38 -38 -52
0 -60 8 -34 34 18 19 55 21 72 4z"/>
<path d="M18960 19920 c0 -82 3 -100 15 -100 12 0 15 13 15 58 0 78 8 101 36
108 42 11 54 -11 54 -92 0 -59 3 -74 15 -74 24 0 21 161 -3 183 -21 19 -54 22
-83 7 -13 -7 -19 -7 -19 0 0 5 -7 10 -15 10 -12 0 -15 -18 -15 -100z"/>
<path d="M19182 20004 c-46 -32 -20 -82 53 -99 35 -8 48 -24 33 -42 -16 -20
-66 -16 -78 7 -6 11 -16 17 -25 14 -20 -8 -2 -41 30 -56 33 -15 92 -2 106 23
21 40 4 67 -56 85 -40 13 -55 22 -53 33 4 22 66 27 74 7 8 -20 34 -21 34 -2 0
20 -39 46 -70 46 -14 0 -36 -7 -48 -16z"/>
<path d="M19385 20008 c-34 -19 -44 -41 -45 -89 0 -60 22 -89 75 -96 76 -10
124 63 91 141 -22 52 -74 71 -121 44z m79 -34 c9 -9 16 -32 16 -54 0 -44 -20
-70 -55 -70 -28 0 -55 34 -55 70 0 58 58 91 94 54z"/>
<path d="M19550 19920 c0 -93 1 -100 20 -100 18 0 20 7 20 75 0 62 3 76 19 84
10 6 21 7 25 3 9 -8 27 19 20 30 -8 13 -36 9 -56 -9 -17 -15 -18 -15 -18 0 0
10 -7 17 -15 17 -12 0 -15 -18 -15 -100z"/>
<path d="M19692 20004 c-25 -17 -29 -56 -8 -73 8 -6 33 -17 57 -24 33 -10 44
-18 44 -32 0 -32 -63 -34 -86 -3 -17 22 -18 22 -25 4 -10 -26 28 -56 70 -56
48 0 78 25 74 63 -3 28 -9 33 -58 52 -63 24 -73 48 -22 53 22 2 34 -2 38 -12
8 -20 34 -21 34 -2 0 20 -39 46 -70 46 -14 0 -36 -7 -48 -16z"/>
<path d="M1110 18640 l0 -620 2905 0 2905 0 0 620 0 620 -2905 0 -2905 0 0
-620z m5760 0 l0 -570 -2855 0 -2855 0 0 570 0 570 2855 0 2855 0 0 -570z"/>
<path d="M1563 18775 c0 -11 12 -15 44 -15 l43 0 0 -120 c0 -99 3 -120 15
-120 12 0 15 22 17 118 l3 117 43 3 c28 2 42 8 42 18 0 11 -20 14 -103 14 -86
0 -104 -3 -104 -15z"/>
<path d="M3666 18659 c-34 -116 -39 -156 -20 -136 7 7 73 236 74 255 0 6 -4
12 -9 12 -4 0 -25 -59 -45 -131z"/>
<path d="M3760 18655 c0 -113 2 -135 15 -135 12 0 15 13 15 55 l0 55 50 0 c63
0 97 16 109 51 13 39 -3 83 -35 98 -14 6 -54 11 -89 11 l-65 0 0 -135z m148
93 c19 -19 15 -66 -7 -78 -11 -5 -40 -10 -65 -10 l-46 0 0 50 0 50 53 0 c29 0
58 -5 65 -12z"/>
<path d="M5374 18776 c-35 -15 -51 -55 -35 -85 10 -18 21 -23 105 -52 54 -19
68 -44 37 -70 -35 -29 -78 -25 -111 11 -34 36 -54 39 -45 8 23 -79 173 -89
200 -14 16 46 -9 76 -85 100 -44 14 -66 27 -68 39 -10 49 72 66 106 22 20 -25
42 -33 42 -16 0 23 -15 43 -41 56 -34 18 -64 18 -105 1z"/>
<path d="M3027 18773 c-4 -3 -7 -16 -7 -29 0 -12 -6 -25 -12 -28 -10 -5 -10
-7 0 -12 8 -4 12 -31 12 -83 0 -82 9 -101 47 -101 28 0 31 26 3 33 -17 4 -20
14 -20 71 0 50 4 68 15 72 8 4 15 10 15 15 0 5 -7 9 -15 9 -10 0 -15 10 -15
30 0 29 -9 38 -23 23z"/>
<path d="M1783 18696 c-24 -21 -28 -32 -28 -76 0 -44 4 -55 28 -76 36 -31 78
-31 114 1 23 20 25 26 13 34 -10 7 -18 4 -28 -10 -20 -29 -72 -22 -89 11 l-12
25 72 5 c39 3 71 8 70 13 -2 4 -3 16 -3 27 0 31 -44 70 -79 70 -17 0 -42 -10
-58 -24z m95 -18 c26 -26 13 -38 -38 -38 -34 0 -50 4 -50 13 0 21 22 37 50 37
14 0 31 -5 38 -12z"/>
<path d="M1970 18620 c0 -82 3 -100 15 -100 12 0 15 15 15 74 0 80 11 100 52
94 22 -3 23 -8 26 -85 2 -65 6 -83 17 -83 12 0 15 15 15 68 0 78 14 106 51
100 23 -3 24 -7 27 -85 2 -65 6 -83 17 -83 12 0 15 18 15 90 0 88 -1 91 -26
102 -22 10 -31 9 -56 -5 -28 -16 -32 -16 -48 -2 -21 19 -50 19 -78 -1 -20 -14
-22 -14 -22 0 0 9 -4 16 -10 16 -6 0 -10 -40 -10 -100z"/>
<path d="M2280 18585 c0 -113 2 -135 15 -135 11 0 15 12 15 44 l0 44 30 -11
c25 -10 34 -8 57 9 34 26 49 73 37 115 -5 18 -22 41 -37 53 -24 18 -31 19 -60
8 -21 -8 -33 -9 -35 -2 -2 5 -8 10 -13 10 -5 0 -9 -60 -9 -135z m114 83 c32
-46 8 -118 -39 -118 -49 0 -71 82 -34 127 17 20 56 16 73 -9z"/>
<path d="M2500 18692 c-84 -84 21 -224 114 -151 14 11 26 25 26 30 0 14 -26
11 -40 -6 -19 -23 -66 -19 -84 7 -9 12 -16 26 -16 30 0 5 32 8 70 8 l70 0 0
29 c0 40 -28 71 -72 78 -32 5 -41 1 -68 -25z m104 -24 c15 -24 5 -30 -53 -26
l-52 3 17 23 c19 27 71 27 88 0z"/>
<path d="M2689 18703 c-2 -10 -3 -55 -1 -100 3 -59 7 -83 16 -83 9 0 14 21 15
73 2 74 16 102 47 90 9 -3 14 2 14 16 0 26 -26 28 -52 4 -17 -15 -18 -15 -18
0 0 22 -17 22 -21 0z"/>
<path d="M2843 18710 c-27 -11 -51 -50 -30 -50 8 0 20 7 27 16 9 10 26 14 49
12 28 -2 37 -8 39 -25 3 -19 -3 -22 -45 -29 -55 -7 -83 -27 -83 -59 0 -45 49
-66 104 -45 16 6 27 6 31 0 4 -6 12 -10 18 -10 9 0 11 24 9 85 -3 73 -6 87
-25 100 -24 17 -60 18 -94 5z m87 -106 c0 -8 -5 -24 -10 -35 -13 -24 -78 -27
-87 -3 -8 20 8 34 49 44 48 11 48 11 48 -6z"/>
<path d="M3115 18698 c-3 -13 -3 -50 -1 -82 2 -47 8 -63 26 -78 27 -22 49 -23
78 -2 20 14 22 14 22 0 0 -9 7 -16 15 -16 12 0 15 18 15 100 0 82 -3 100 -15
100 -12 0 -15 -14 -15 -63 0 -72 -18 -107 -56 -107 -32 0 -42 27 -43 123 -1
49 -17 64 -26 25z"/>
<path d="M3320 18620 c0 -82 3 -100 15 -100 12 0 15 14 15 63 0 68 19 110 48
105 22 -4 22 26 1 30 -9 2 -24 -4 -33 -13 -14 -15 -16 -15 -16 -1 0 9 -7 16
-15 16 -12 0 -15 -18 -15 -100z"/>
<path d="M3483 18710 c-29 -12 -45 -45 -45 -92 1 -53 24 -86 66 -93 39 -8 96
17 96 40 0 19 -24 19 -40 0 -18 -22 -67 -19 -80 4 -19 36 -12 41 61 41 l72 0
-7 33 c-11 59 -67 90 -123 67z m85 -47 c14 -23 14 -23 -42 -23 -39 0 -56 4
-56 13 0 41 72 48 98 10z"/>
<path d="M4000 18620 c0 -82 3 -100 15 -100 12 0 15 14 15 69 0 72 17 108 45
97 8 -3 16 1 18 9 12 28 -26 34 -55 8 -17 -15 -18 -15 -18 0 0 10 -4 17 -10
17 -6 0 -10 -40 -10 -100z"/>
<path d="M4140 18692 c-84 -84 21 -224 114 -151 14 11 26 25 26 30 0 14 -26
11 -40 -6 -19 -23 -66 -19 -84 7 -9 12 -16 26 -16 30 0 5 32 8 70 8 l70 0 0
29 c0 40 -28 71 -72 78 -32 5 -41 1 -68 -25z m104 -24 c15 -24 5 -30 -53 -26
l-52 3 17 23 c19 27 71 27 88 0z"/>
<path d="M4342 18704 c-47 -33 -19 -83 55 -99 37 -7 46 -16 37 -39 -8 -22 -70
-21 -82 0 -5 9 -18 14 -28 12 -17 -3 -17 -6 8 -31 42 -42 122 -30 134 20 9 33
-17 58 -72 72 -34 9 -45 16 -42 29 5 24 58 29 75 6 11 -14 15 -15 26 -5 10 10
7 16 -12 32 -28 23 -69 25 -99 3z"/>
<path d="M4533 18710 c-46 -19 -40 -71 10 -90 73 -27 78 -30 75 -48 -4 -23
-60 -29 -78 -8 -12 15 -40 22 -40 10 0 -40 69 -65 117 -42 23 11 28 20 28 48
0 32 -3 35 -55 55 -32 12 -55 27 -55 35 0 21 53 25 74 6 18 -16 31 -12 31 9 0
14 -43 35 -68 34 -9 0 -27 -4 -39 -9z"/>
<path d="M4693 18705 c-3 -9 -3 -46 0 -82 4 -53 9 -71 27 -85 27 -22 49 -23
78 -2 20 14 22 14 22 0 0 -9 7 -16 15 -16 12 0 15 18 15 100 0 82 -3 100 -15
100 -12 0 -15 -14 -15 -63 0 -72 -18 -107 -56 -107 -32 0 -46 37 -42 113 2 41
-1 57 -10 57 -7 0 -15 -7 -19 -15z"/>
<path d="M4900 18620 c0 -82 3 -100 15 -100 12 0 15 14 15 69 0 72 17 108 46
97 18 -7 29 13 15 27 -7 7 -18 7 -36 -1 -15 -7 -25 -8 -25 -2 0 6 -7 10 -15
10 -12 0 -15 -18 -15 -100z"/>
<path d="M5060 18708 c-81 -43 -51 -188 39 -188 28 0 81 33 81 51 0 15 -26 10
-40 -7 -20 -23 -72 -14 -87 16 l-12 25 72 5 c39 3 71 8 70 13 -2 4 -3 16 -3
26 0 49 -71 84 -120 59z m78 -30 c26 -26 13 -38 -38 -38 -34 0 -50 4 -50 13 0
21 22 37 50 37 14 0 31 -5 38 -12z"/>
<path d="M5613 18710 c-45 -18 -62 -105 -29 -154 30 -46 135 -41 144 7 4 21
-21 23 -38 2 -18 -22 -67 -19 -80 4 -19 36 -12 41 61 41 l72 0 -7 33 c-11 59
-67 90 -123 67z m85 -47 c14 -23 14 -23 -42 -23 -39 0 -56 4 -56 13 0 41 72
48 98 10z"/>
<path d="M5780 18620 c0 -82 3 -100 15 -100 12 0 15 14 15 69 0 79 15 104 59
99 25 -3 26 -5 29 -85 2 -66 6 -83 18 -83 12 0 14 15 12 87 -3 84 -4 88 -31
103 -25 14 -30 13 -57 -2 -25 -14 -30 -15 -30 -3 0 8 -7 15 -15 15 -12 0 -15
-18 -15 -100z"/>
<path d="M6002 18704 c-47 -33 -19 -83 55 -99 37 -7 46 -16 37 -39 -8 -21 -62
-21 -85 0 -31 28 -46 10 -17 -19 42 -42 122 -30 134 20 9 33 -17 58 -72 72
-34 9 -45 16 -42 29 5 24 58 29 75 6 11 -14 15 -15 26 -5 10 10 7 16 -12 32
-28 23 -69 25 -99 3z"/>
<path d="M6204 18708 c-60 -28 -58 -149 3 -177 57 -26 108 -1 122 60 20 89
-49 154 -125 117z m86 -37 c5 -11 10 -34 10 -51 0 -47 -16 -70 -50 -70 -16 0
-36 7 -44 16 -21 20 -20 83 1 106 22 24 69 24 83 -1z"/>
<path d="M6378 18643 c-4 -97 0 -123 17 -123 10 0 14 18 14 71 0 76 12 103 42
94 14 -5 19 -1 19 14 0 26 -26 28 -52 4 -17 -15 -18 -15 -18 0 0 10 -4 17 -9
17 -5 0 -11 -35 -13 -77z"/>
<path d="M8190 18640 l0 -620 1800 0 1800 0 0 598 c0 328 -3 607 -6 620 l-6
22 -1794 0 -1794 0 0 -620z m3544 545 c8 -31 7 -1080 -1 -1101 -4 -12 -235
-14 -1749 -14 l-1744 0 0 570 0 570 1744 0 1744 0 6 -25z"/>
<path d="M8660 18655 c0 -128 1 -135 20 -135 18 0 20 7 20 65 l0 66 68 -3 67
-3 -3 -33 c-5 -46 7 -92 24 -92 11 0 14 25 14 135 0 111 -3 135 -14 135 -11 0
-16 -15 -18 -52 l-3 -53 -67 -3 -68 -3 0 56 c0 48 -2 55 -20 55 -19 0 -20 -7
-20 -135z"/>
<path d="M9440 18770 c0 -11 7 -20 15 -20 8 0 15 9 15 20 0 11 -7 20 -15 20
-8 0 -15 -9 -15 -20z"/>
<path d="M9640 18745 c0 -44 -1 -44 -24 -34 -56 26 -106 -20 -106 -96 0 -27 8
-44 29 -66 31 -31 51 -35 82 -19 13 7 19 7 19 0 0 -5 7 -10 15 -10 13 0 15 22
15 135 0 113 -2 135 -15 135 -11 0 -15 -12 -15 -45z m-12 -67 c7 -7 12 -33 12
-58 0 -51 -13 -70 -46 -70 -46 0 -73 89 -38 124 18 19 55 21 72 4z"/>
<path d="M9730 18769 c0 -24 23 -21 28 4 2 10 -3 17 -12 17 -10 0 -16 -9 -16
-21z"/>
<path d="M10250 18783 c-82 -33 -59 -120 37 -138 55 -10 73 -23 73 -51 0 -52
-109 -59 -132 -8 -12 26 -38 33 -38 10 0 -32 45 -68 90 -72 77 -8 129 38 108
96 -9 28 -25 37 -108 62 -38 11 -45 17 -45 38 0 46 100 54 112 10 3 -11 14
-20 24 -20 25 0 24 13 -4 45 -22 27 -84 42 -117 28z"/>
<path d="M9817 18773 c-4 -3 -7 -16 -7 -29 0 -12 -6 -25 -12 -28 -10 -5 -10
-7 0 -12 8 -4 12 -31 12 -83 0 -82 9 -101 47 -101 28 0 30 16 3 30 -17 9 -20
21 -20 76 0 48 4 66 15 70 8 4 15 10 15 15 0 5 -7 9 -15 9 -10 0 -15 10 -15
30 0 29 -9 38 -23 23z"/>
<path d="M8926 18698 c-9 -35 -7 -104 4 -132 15 -40 55 -54 91 -34 24 14 29
15 29 3 0 -8 7 -15 15 -15 12 0 15 18 15 100 0 82 -3 100 -15 100 -12 0 -15
-14 -15 -63 0 -76 -19 -110 -58 -105 -25 3 -27 7 -30 53 -5 104 -21 146 -36
93z"/>
<path d="M9130 18620 c0 -82 3 -100 15 -100 12 0 15 14 15 68 0 78 14 106 51
100 23 -3 24 -7 27 -85 2 -65 6 -83 17 -83 12 0 15 14 15 63 0 67 18 107 49
107 32 0 41 -22 41 -97 0 -58 3 -73 15 -73 12 0 15 16 15 80 0 67 -3 83 -20
100 -24 24 -48 25 -78 4 -20 -14 -24 -14 -38 0 -20 20 -44 20 -72 0 -20 -14
-22 -14 -22 0 0 9 -7 16 -15 16 -12 0 -15 -18 -15 -100z"/>
<path d="M9440 18620 c0 -82 3 -100 15 -100 12 0 15 18 15 100 0 82 -3 100
-15 100 -12 0 -15 -18 -15 -100z"/>
<path d="M9730 18620 c0 -82 3 -100 15 -100 12 0 15 18 15 100 0 82 -3 100
-15 100 -12 0 -15 -18 -15 -100z"/>
<path d="M9921 18638 c17 -46 33 -90 36 -99 7 -25 -15 -59 -37 -59 -13 0 -18
-5 -14 -15 7 -18 24 -19 47 -2 13 9 107 232 107 253 0 2 -6 4 -14 4 -8 0 -25
-31 -42 -76 l-27 -76 -27 74 c-17 46 -33 74 -43 76 -14 3 -12 -9 14 -80z"/>
<path d="M10460 18692 c-84 -84 21 -224 114 -151 14 11 26 25 26 30 0 14 -26
11 -40 -6 -19 -23 -66 -19 -84 7 -9 12 -16 26 -16 30 0 5 32 8 70 8 l70 0 0
29 c0 40 -28 71 -72 78 -32 5 -41 1 -68 -25z m104 -24 c15 -24 5 -30 -53 -26
l-52 3 17 23 c19 27 71 27 88 0z"/>
<path d="M10650 18620 c0 -82 3 -100 15 -100 12 0 15 15 15 73 0 77 9 97 45
97 36 0 45 -20 45 -97 0 -58 3 -73 15 -73 12 0 15 16 15 80 0 67 -3 83 -20
100 -24 24 -57 26 -88 4 -20 -14 -22 -14 -22 0 0 9 -4 16 -10 16 -6 0 -10 -40
-10 -100z"/>
<path d="M10860 18700 c-37 -37 -23 -64 46 -88 36 -13 49 -23 49 -37 0 -26
-56 -33 -75 -11 -13 17 -40 22 -40 8 0 -41 83 -66 125 -38 21 14 26 24 23 49
-3 28 -9 33 -58 52 -32 12 -55 27 -55 35 0 21 53 25 74 6 18 -16 31 -12 31 9
0 15 -43 35 -75 35 -14 0 -34 -9 -45 -20z"/>
<path d="M11063 18705 c-32 -23 -47 -77 -33 -120 23 -69 90 -86 141 -36 79 79
-18 219 -108 156z m91 -37 c34 -48 8 -118 -43 -118 -37 0 -54 21 -54 70 0 22
6 46 13 55 19 23 66 19 84 -7z"/>
<path d="M11240 18620 c0 -82 3 -100 15 -100 12 0 15 14 15 69 0 72 17 108 46
97 18 -7 29 13 15 27 -7 7 -18 7 -36 -1 -15 -7 -25 -8 -25 -2 0 6 -7 10 -15
10 -12 0 -15 -18 -15 -100z"/>
<path d="M13050 18640 l0 -620 1360 0 1360 0 0 620 0 620 -1360 0 -1360 0 0
-620z m2670 0 l0 -570 -1310 0 -1310 0 0 563 c0 310 3 567 7 570 3 4 593 7
1310 7 l1303 0 0 -570z"/>
<path d="M13583 18776 c-40 -18 -63 -62 -63 -121 0 -88 54 -142 132 -132 45 6
63 19 84 59 14 26 13 28 -6 28 -11 0 -20 -4 -20 -10 0 -19 -44 -50 -71 -50
-15 0 -41 11 -56 24 -25 21 -28 31 -28 81 0 50 3 60 28 81 37 32 81 31 111 -1
42 -45 64 -27 23 20 -27 32 -88 42 -134 21z"/>
<path d="M13853 18775 c-34 -15 -58 -51 -68 -105 -10 -55 29 -121 82 -139 90
-32 163 23 163 122 0 62 -20 100 -64 121 -41 19 -70 20 -113 1z m113 -38 c20
-18 28 -35 32 -75 4 -47 2 -54 -26 -82 -41 -40 -83 -41 -123 -1 -24 24 -29 38
-29 76 0 88 84 135 146 82z"/>
<path d="M14219 18775 c-30 -16 -44 -56 -30 -84 10 -18 21 -23 105 -52 54 -19
68 -44 37 -70 -35 -29 -78 -25 -111 11 -15 17 -33 30 -39 30 -14 0 -14 -5 4
-39 35 -69 174 -64 191 6 12 45 -14 75 -80 94 -33 10 -66 25 -74 33 -14 14
-14 17 3 36 26 29 78 27 103 -5 20 -25 42 -33 42 -16 0 57 -89 90 -151 56z"/>
<path d="M14460 18707 c-47 -24 -57 -125 -15 -166 23 -24 103 -22 121 3 8 11
14 23 14 28 0 14 -27 9 -40 -7 -18 -22 -67 -19 -80 4 -19 36 -12 41 61 41 l72
0 -7 33 c-7 37 -48 77 -79 77 -12 0 -33 -6 -47 -13z m88 -44 c14 -23 14 -23
-42 -23 -39 0 -56 4 -56 13 0 41 72 48 98 10z"/>
<path d="M14630 18620 c0 -82 3 -100 15 -100 12 0 15 14 15 68 0 81 13 105 55
100 l30 -3 3 -82 c2 -66 6 -83 18 -83 12 0 14 15 12 87 -3 84 -4 88 -31 103
-25 14 -30 13 -57 -2 -25 -14 -30 -15 -30 -3 0 8 -7 15 -15 15 -12 0 -15 -18
-15 -100z"/>
<path d="M14852 18704 c-24 -17 -29 -56 -9 -71 6 -6 30 -16 52 -23 50 -15 57
-22 49 -43 -8 -23 -70 -23 -82 -1 -5 9 -18 14 -28 12 -17 -3 -17 -6 8 -31 34
-34 77 -35 114 -4 22 19 26 29 20 50 -5 22 -16 29 -62 43 -41 12 -54 20 -52
32 4 23 58 29 73 9 8 -11 16 -13 26 -6 12 8 10 13 -10 29 -28 24 -68 26 -99 4z"/>
<path d="M15039 18691 c-23 -24 -29 -38 -29 -73 1 -68 43 -105 106 -93 42 7
65 40 66 93 0 49 -16 80 -48 92 -42 16 -64 12 -95 -19z m99 -13 c15 -15 16
-82 2 -109 -13 -24 -57 -25 -82 -2 -23 20 -24 80 -1 105 18 20 63 24 81 6z"/>
<path d="M15225 18620 c0 -85 2 -100 16 -100 13 0 17 13 18 72 2 72 12 98 37
98 8 0 14 7 14 15 0 20 -19 19 -42 -2 -17 -15 -18 -15 -18 0 0 10 -6 17 -12
17 -10 0 -13 -27 -13 -100z"/>
<path d="M17040 18640 l0 -620 1550 0 1550 0 0 620 0 620 -1550 0 -1550 0 0
-620z m3050 0 l0 -570 -1500 0 -1500 0 0 570 0 570 1500 0 1500 0 0 -570z"/>
<path d="M17510 18655 c0 -112 3 -135 15 -135 11 0 15 21 17 108 l3 107 69
-107 c47 -75 74 -108 87 -108 18 0 19 9 19 135 0 113 -2 135 -15 135 -12 0
-15 -18 -15 -100 0 -55 -3 -100 -7 -100 -5 0 -37 45 -73 100 -91 142 -100 139
-100 -35z"/>
<path d="M17980 18770 c0 -11 7 -20 15 -20 8 0 15 9 15 20 0 11 -7 20 -15 20
-8 0 -15 -9 -15 -20z"/>
<path d="M18610 18783 c-31 -12 -50 -37 -50 -64 0 -36 21 -56 73 -69 85 -21
97 -33 81 -74 -14 -37 -121 -26 -131 14 -7 25 -33 26 -33 2 0 -45 76 -83 135
-68 37 9 65 42 65 75 0 37 -18 51 -94 76 -53 17 -61 23 -61 45 0 46 100 54
112 10 3 -11 12 -20 19 -20 20 0 17 34 -5 54 -20 19 -85 30 -111 19z"/>
<path d="M17795 18697 c-20 -16 -28 -35 -32 -69 -5 -42 -3 -50 25 -78 38 -37
80 -40 119 -6 24 21 28 32 28 76 0 44 -4 55 -28 76 -35 30 -78 31 -112 1z m96
-23 c7 -9 14 -33 14 -54 0 -47 -19 -70 -56 -70 -32 0 -59 31 -59 70 0 59 67
94 101 54z"/>
<path d="M17980 18620 c0 -82 3 -100 15 -100 12 0 15 18 15 100 0 82 -3 100
-15 100 -12 0 -15 -18 -15 -100z"/>
<path d="M18083 18710 c-46 -19 -40 -71 10 -90 73 -27 78 -30 75 -48 -4 -23
-60 -29 -78 -8 -7 9 -19 16 -26 16 -26 0 -12 -30 23 -49 54 -28 116 1 111 52
-3 28 -9 34 -51 48 -54 18 -72 32 -63 48 10 16 62 13 76 -4 17 -21 30 -19 30
5 0 33 -59 49 -107 30z"/>
<path d="M18283 18710 c-45 -18 -62 -105 -29 -154 30 -46 135 -41 144 7 4 21
-21 23 -38 2 -18 -22 -67 -19 -80 4 -19 36 -12 41 61 41 l72 0 -7 33 c-11 59
-67 90 -123 67z m85 -47 c14 -23 14 -23 -42 -23 -39 0 -56 4 -56 13 0 41 72
48 98 10z"/>
<path d="M18835 18708 c-11 -6 -25 -19 -32 -27 -13 -17 -17 -88 -7 -116 10
-26 62 -48 100 -40 38 7 72 44 51 57 -7 5 -17 0 -26 -12 -25 -37 -101 -17
-101 26 0 11 16 14 70 14 69 0 70 1 70 26 0 32 -50 84 -82 84 -13 0 -32 -6
-43 -12z m79 -34 c27 -26 18 -34 -39 -34 -30 0 -55 4 -55 9 0 18 31 41 55 41
13 0 31 -7 39 -16z"/>
<path d="M19000 18620 c0 -82 3 -100 15 -100 12 0 15 14 15 63 0 72 18 107 56
107 31 0 44 -32 44 -111 0 -46 3 -59 15 -59 12 0 15 14 15 64 0 87 -14 123
-51 131 -20 5 -38 1 -54 -9 -22 -15 -25 -15 -25 -1 0 8 -7 15 -15 15 -12 0
-15 -18 -15 -100z"/>
<path d="M19220 18700 c-37 -37 -21 -68 47 -91 35 -11 48 -21 48 -35 0 -25
-72 -34 -81 -10 -8 22 -36 20 -32 -1 9 -47 115 -56 139 -12 21 41 4 67 -57 85
-41 12 -54 20 -52 32 4 23 55 28 78 7 14 -12 20 -13 26 -4 10 18 -32 49 -67
49 -16 0 -38 -9 -49 -20z"/>
<path d="M19413 18696 c-24 -21 -28 -32 -28 -76 0 -44 4 -55 28 -76 16 -13 41
-24 57 -24 16 0 41 11 57 24 24 21 28 32 28 76 0 44 -4 55 -28 76 -16 13 -41
24 -57 24 -16 0 -41 -11 -57 -24z m98 -22 c7 -9 14 -33 14 -54 0 -47 -19 -70
-56 -70 -32 0 -59 31 -59 70 0 59 67 94 101 54z"/>
<path d="M19600 18620 c0 -82 3 -100 15 -100 12 0 15 14 15 69 0 72 17 108 46
97 9 -3 14 2 14 14 0 25 -27 26 -52 3 -17 -15 -18 -15 -18 0 0 10 -4 17 -10
17 -6 0 -10 -40 -10 -100z"/>
<path d="M21410 18640 l0 -620 1340 0 1340 0 -2 618 -3 617 -1337 3 -1338 2 0
-620z m2625 0 l0 -565 -1287 -3 -1288 -2 0 570 0 570 1288 -2 1287 -3 0 -565z"/>
<path d="M21890 18680 c0 -96 2 -112 20 -130 39 -39 120 -38 156 1 16 17 20
40 22 130 3 94 2 109 -12 109 -13 0 -16 -14 -16 -84 0 -85 -11 -134 -33 -148
-20 -13 -61 -9 -85 8 -20 14 -22 23 -22 120 0 86 -3 104 -15 104 -12 0 -15
-19 -15 -110z"/>
<path d="M22130 18783 c0 -4 22 -64 48 -133 38 -98 52 -125 67 -125 14 0 29
27 66 125 54 141 54 140 35 140 -8 0 -23 -23 -34 -52 -10 -29 -29 -81 -42
-116 -12 -34 -25 -61 -27 -58 -3 2 -22 53 -43 113 -25 70 -43 109 -54 111 -9
2 -16 0 -16 -5z"/>
<path d="M22550 18783 c-82 -33 -59 -120 37 -138 55 -10 73 -23 73 -51 0 -52
-109 -59 -132 -8 -12 26 -38 33 -38 10 0 -8 11 -28 24 -43 21 -24 31 -28 79
-28 67 0 97 22 97 71 0 41 -19 61 -73 74 -67 17 -87 28 -87 49 0 44 78 55 114
16 42 -45 64 -27 23 20 -22 27 -84 42 -117 28z"/>
<path d="M22780 18707 c-81 -41 -51 -187 39 -187 28 0 81 33 81 51 0 15 -26
10 -40 -7 -20 -23 -72 -14 -87 16 l-12 25 67 3 c37 2 71 7 75 11 15 15 -20 81
-48 91 -34 13 -45 12 -75 -3z m78 -29 c26 -26 13 -38 -38 -38 -34 0 -50 4 -50
13 0 21 22 37 50 37 14 0 31 -5 38 -12z"/>
<path d="M22950 18621 c0 -83 3 -101 15 -101 12 0 15 15 15 73 0 77 9 97 45
97 36 0 45 -20 45 -97 0 -58 3 -73 15 -73 12 0 15 16 15 84 0 76 -2 86 -22
100 -29 20 -58 20 -86 0 -14 -10 -22 -11 -20 -3 2 6 -3 14 -9 16 -10 4 -13
-20 -13 -96z"/>
<path d="M23173 18705 c-13 -9 -23 -27 -23 -40 0 -25 33 -55 60 -55 9 0 26 -7
38 -16 18 -13 21 -19 11 -30 -15 -18 -63 -18 -79 1 -14 17 -40 20 -40 6 0 -18
53 -51 82 -51 28 0 78 38 78 60 0 19 -39 49 -79 60 -30 8 -41 16 -41 30 0 16
7 20 35 20 22 0 37 -6 44 -17 7 -13 13 -15 20 -7 17 16 -9 44 -49 50 -23 3
-42 0 -57 -11z"/>
<path d="M23372 18710 c-54 -22 -64 -131 -15 -170 60 -47 143 0 143 80 0 33
-6 48 -29 71 -30 30 -58 35 -99 19z m82 -42 c34 -48 8 -118 -43 -118 -37 0
-54 21 -54 70 0 22 6 46 13 55 19 23 66 19 84 -7z"/>
<path d="M23540 18620 c0 -82 3 -100 15 -100 12 0 15 14 15 68 0 76 8 94 41
97 13 1 25 7 27 13 6 18 -28 27 -49 13 -12 -7 -19 -7 -19 -1 0 5 -7 10 -15 10
-12 0 -15 -18 -15 -100z"/>
<path d="M25350 18640 l0 -620 1465 0 1465 0 0 604 c0 332 -3 611 -6 620 -6
15 -144 16 -1465 16 l-1459 0 0 -620z m2878 30 c1 -294 0 -550 -3 -567 l-6
-33 -1409 0 -1410 0 0 563 c0 310 3 567 7 570 3 4 639 6 1412 5 l1406 -3 3
-535z"/>
<path d="M25830 18655 l0 -137 76 4 c71 3 78 6 105 36 26 29 29 40 29 97 0 57
-3 68 -29 97 -27 30 -34 33 -105 36 l-76 4 0 -137z m157 79 c23 -23 25 -31 21
-86 -6 -77 -27 -98 -99 -98 l-49 0 0 105 0 105 50 0 c41 0 56 -5 77 -26z"/>
<path d="M26740 18783 c-82 -33 -59 -120 37 -138 55 -10 73 -23 73 -50 0 -56
-118 -59 -135 -3 -7 21 -35 25 -35 4 0 -8 11 -28 24 -43 21 -24 31 -28 80 -28
43 0 60 5 77 22 45 44 18 105 -55 123 -66 17 -86 28 -86 49 0 44 78 55 114 16
42 -45 64 -27 23 20 -22 27 -84 42 -117 28z"/>
<path d="M26497 18773 c-4 -3 -7 -17 -7 -30 0 -14 -6 -23 -15 -23 -8 0 -15 -4
-15 -9 0 -5 7 -11 15 -15 12 -4 15 -23 15 -85 0 -63 3 -80 16 -85 27 -10 44
-7 44 9 0 8 -7 15 -15 15 -12 0 -15 15 -15 75 0 60 3 75 15 75 8 0 15 5 15 10
0 6 -7 10 -15 10 -10 0 -15 10 -15 30 0 29 -9 38 -23 23z"/>
<path d="M26090 18640 c0 -67 3 -83 20 -100 24 -24 57 -26 88 -4 20 14 22 14
22 0 0 -9 5 -16 10 -16 6 0 10 40 10 100 0 82 -3 100 -15 100 -12 0 -15 -15
-15 -73 0 -77 -9 -97 -45 -97 -36 0 -45 20 -45 97 0 58 -3 73 -15 73 -12 0
-15 -16 -15 -80z"/>
<path d="M26312 18704 c-24 -17 -29 -56 -9 -71 6 -6 30 -16 52 -23 50 -15 57
-22 49 -43 -8 -23 -70 -23 -82 -1 -5 9 -18 14 -28 12 -17 -3 -17 -6 8 -31 42
-42 122 -30 134 20 9 33 -17 58 -72 72 -34 9 -45 16 -42 29 5 24 58 29 75 6
11 -14 15 -15 26 -5 10 10 7 16 -12 32 -28 23 -69 25 -99 3z"/>
<path d="M26950 18692 c-42 -42 -42 -101 -1 -143 37 -37 79 -38 118 -4 23 20
25 26 13 34 -10 7 -18 4 -28 -10 -18 -27 -67 -25 -86 3 -9 12 -16 26 -16 30 0
5 32 8 70 8 l70 0 0 29 c0 40 -28 71 -72 78 -32 5 -41 1 -68 -25z m104 -24
c15 -24 5 -30 -53 -26 l-52 3 17 23 c19 27 71 27 88 0z"/>
<path d="M27140 18620 c0 -82 3 -100 15 -100 12 0 15 15 15 73 0 77 9 97 45
97 36 0 45 -20 45 -97 0 -58 3 -73 15 -73 12 0 15 16 15 80 0 67 -3 83 -20
100 -24 24 -57 26 -88 4 -20 -14 -22 -14 -22 0 0 9 -4 16 -10 16 -6 0 -10 -40
-10 -100z"/>
<path d="M27363 18710 c-46 -19 -40 -71 10 -90 73 -27 78 -30 75 -48 -4 -23
-68 -30 -80 -8 -9 16 -38 22 -38 8 0 -41 83 -66 125 -38 21 14 26 24 23 49 -3
28 -8 34 -51 48 -54 18 -72 32 -63 48 10 16 62 13 76 -4 10 -12 16 -13 24 -5
8 8 5 17 -13 31 -25 20 -52 23 -88 9z"/>
<path d="M27553 18705 c-32 -23 -47 -77 -33 -120 23 -69 90 -86 141 -36 79 79
-18 219 -108 156z m91 -37 c34 -48 8 -118 -43 -118 -16 0 -35 7 -42 16 -17 20
-16 88 1 109 19 23 66 19 84 -7z"/>
<path d="M27730 18620 c0 -82 3 -100 15 -100 12 0 15 14 15 69 0 72 17 108 45
97 8 -3 16 2 19 10 8 20 -17 28 -43 14 -14 -7 -21 -7 -21 0 0 5 -7 10 -15 10
-12 0 -15 -18 -15 -100z"/>
<path d="M29540 18640 l0 -620 1400 0 1400 0 0 620 0 620 -1400 0 -1400 0 0
-620z m2750 0 l0 -570 -1350 0 -1350 0 0 563 c0 310 3 567 7 570 3 4 611 7
1350 7 l1343 0 0 -570z"/>
<path d="M30020 18655 c0 -113 2 -135 15 -135 12 0 15 13 15 60 l0 60 66 0
c48 0 65 3 62 13 -3 7 -28 13 -66 15 l-62 3 0 44 0 45 75 0 c62 0 73 2 69 15
-5 12 -25 15 -90 15 l-84 0 0 -135z"/>
<path d="M30240 18770 c0 -11 7 -20 15 -20 8 0 15 9 15 20 0 11 -7 20 -15 20
-8 0 -15 -9 -15 -20z"/>
<path d="M30789 18775 c-28 -15 -43 -52 -33 -80 8 -20 49 -41 96 -50 47 -9 76
-39 62 -63 -27 -43 -109 -39 -129 6 -5 12 -18 22 -27 22 -22 0 -22 -3 -3 -40
33 -65 167 -62 189 3 17 47 -8 78 -79 100 -33 10 -66 24 -74 32 -13 12 -12 17
4 35 26 29 78 27 103 -5 20 -25 42 -33 42 -16 0 57 -89 90 -151 56z"/>
<path d="M30240 18620 c0 -82 3 -100 15 -100 12 0 15 18 15 100 0 82 -3 100
-15 100 -12 0 -15 -18 -15 -100z"/>
<path d="M30320 18620 c0 -82 3 -100 15 -100 12 0 15 14 15 69 0 72 17 108 46
97 18 -7 29 13 15 27 -7 7 -18 7 -36 -1 -15 -7 -25 -8 -25 -2 0 6 -7 10 -15
10 -12 0 -15 -18 -15 -100z"/>
<path d="M30463 18696 c-24 -21 -28 -32 -28 -76 0 -44 4 -55 28 -76 15 -13 41
-24 56 -24 28 0 81 33 81 51 0 15 -26 10 -40 -7 -20 -23 -72 -14 -87 16 l-12
25 67 3 c37 2 71 7 75 11 12 12 -18 78 -41 90 -33 18 -69 13 -99 -13z m95 -18
c26 -26 13 -38 -38 -38 -34 0 -50 4 -50 13 0 21 22 37 50 37 14 0 31 -5 38
-12z"/>
<path d="M31034 18708 c-37 -17 -57 -93 -38 -143 10 -26 62 -48 100 -40 38 7
72 44 51 57 -7 5 -17 0 -26 -12 -17 -25 -62 -26 -84 -2 -31 34 -21 42 53 42
69 0 70 1 70 26 0 33 -51 84 -82 83 -13 0 -33 -5 -44 -11z m80 -34 c27 -26 18
-34 -39 -34 -30 0 -55 4 -55 9 0 18 31 41 55 41 13 0 31 -7 39 -16z"/>
<path d="M31200 18620 c0 -82 3 -100 15 -100 12 0 15 14 15 63 0 72 18 107 56
107 31 0 44 -32 44 -111 0 -46 3 -59 15 -59 12 0 15 14 15 64 0 87 -14 123
-51 131 -20 5 -38 1 -54 -9 -22 -15 -25 -15 -25 -1 0 8 -7 15 -15 15 -12 0
-15 -18 -15 -100z"/>
<path d="M31420 18700 c-37 -37 -21 -68 47 -91 35 -11 48 -21 48 -35 0 -25
-72 -34 -81 -10 -8 22 -36 20 -32 -1 9 -47 115 -56 139 -12 21 41 4 67 -57 85
-41 12 -54 20 -52 32 4 23 55 28 78 7 14 -12 20 -13 26 -4 10 18 -32 49 -67
49 -16 0 -38 -9 -49 -20z"/>
<path d="M31613 18696 c-24 -21 -28 -32 -28 -76 0 -44 4 -55 28 -76 16 -13 41
-24 57 -24 16 0 41 11 57 24 24 21 28 32 28 76 0 44 -4 55 -28 76 -16 13 -41
24 -57 24 -16 0 -41 -11 -57 -24z m98 -22 c7 -9 14 -33 14 -54 0 -47 -19 -70
-56 -70 -32 0 -59 31 -59 70 0 59 67 94 101 54z"/>
<path d="M31800 18620 c0 -82 3 -100 15 -100 12 0 15 15 15 75 0 71 2 76 25
87 25 11 35 38 13 38 -6 0 -20 -7 -30 -17 -17 -15 -18 -15 -18 0 0 10 -4 17
-10 17 -6 0 -10 -40 -10 -100z"/>
<path d="M33610 18640 l0 -620 1800 0 1800 0 0 620 0 620 -1800 0 -1800 0 0
-620z m3550 0 l0 -570 -1750 0 -1750 0 0 570 0 570 1750 0 1750 0 0 -570z"/>
<path d="M34090 18656 c0 -114 2 -136 15 -136 12 0 15 13 15 60 l0 60 34 0
c36 0 70 -31 102 -91 8 -17 23 -29 34 -29 28 0 25 8 -20 68 -44 58 -46 62 -27
62 40 0 61 76 33 116 -12 16 -29 20 -100 23 l-86 3 0 -136z m158 92 c17 -17
15 -44 -4 -62 -10 -11 -34 -16 -70 -16 l-54 0 0 45 0 45 58 0 c32 0 63 -5 70
-12z"/>
<path d="M34751 18655 c-1 -114 1 -135 14 -135 13 0 15 22 15 135 0 111 -3
135 -14 135 -12 0 -15 -25 -15 -135z"/>
<path d="M34943 18775 c0 -11 12 -15 44 -15 l43 0 0 -120 c0 -99 3 -120 15
-120 12 0 15 22 17 118 l3 117 43 3 c28 2 42 8 42 18 0 11 -20 14 -103 14 -86
0 -104 -3 -104 -15z"/>
<path d="M35170 18770 c0 -11 7 -20 15 -20 8 0 15 9 15 20 0 11 -7 20 -15 20
-8 0 -15 -9 -15 -20z"/>
<path d="M35933 18775 c-77 -33 -96 -144 -37 -214 46 -55 149 -50 179 9 18 35
18 40 4 40 -6 0 -24 -13 -39 -30 -36 -38 -81 -40 -115 -5 -21 20 -25 34 -25
80 0 46 4 60 25 80 33 34 86 34 113 0 11 -14 27 -25 36 -25 24 0 -1 48 -35 66
-35 17 -65 17 -106 -1z"/>
<path d="M36131 18661 c-1 -83 3 -132 10 -136 5 -4 13 -5 15 -2 3 3 6 64 7
136 2 116 0 131 -15 131 -14 0 -17 -16 -17 -129z"/>
<path d="M36610 18655 c0 -111 3 -135 14 -135 11 0 16 14 18 47 2 25 8 48 13
50 6 2 24 -19 40 -47 18 -30 37 -50 48 -50 16 0 15 5 -8 43 -52 84 -52 84 -15
122 29 30 31 35 14 35 -10 0 -36 -19 -56 -42 l-37 -43 -1 78 c0 62 -3 77 -15
77 -13 0 -15 -22 -15 -135z"/>
<path d="M34383 18710 c-12 -5 -27 -19 -34 -31 -16 -31 -13 -96 5 -124 27 -42
111 -42 138 -1 19 28 -3 36 -28 11 -22 -22 -71 -19 -84 4 -19 36 -12 41 61 41
l72 0 -7 33 c-11 59 -67 90 -123 67z m85 -47 c14 -23 14 -23 -42 -23 -39 0
-56 4 -56 13 0 41 72 48 98 10z"/>
<path d="M34580 18707 c-28 -14 -40 -47 -17 -47 8 0 18 7 21 16 4 11 17 14 43
12 30 -2 39 -8 41 -25 3 -18 -3 -22 -40 -28 -58 -9 -88 -30 -88 -60 0 -44 64
-69 113 -44 16 9 22 9 25 0 2 -6 9 -11 15 -11 9 0 11 24 9 83 -3 68 -7 85 -24
100 -24 20 -63 22 -98 4z m90 -110 c0 -32 -18 -47 -57 -47 -35 0 -54 23 -35
42 8 8 53 23 85 27 4 1 7 -9 7 -22z"/>
<path d="M35170 18620 c0 -82 3 -100 15 -100 12 0 15 18 15 100 0 82 -3 100
-15 100 -12 0 -15 -18 -15 -100z"/>
<path d="M35260 18620 c0 -82 3 -100 15 -100 12 0 15 15 15 73 0 78 9 97 46
97 28 0 34 -17 34 -101 0 -55 3 -69 15 -69 12 0 15 15 15 74 0 80 11 100 52
94 22 -3 23 -8 26 -85 2 -65 6 -83 17 -83 12 0 15 17 15 83 0 69 -3 87 -18
100 -22 21 -52 22 -77 3 -16 -11 -23 -11 -47 3 -26 15 -30 15 -58 -1 -25 -14
-30 -15 -30 -3 0 8 -4 15 -10 15 -6 0 -10 -40 -10 -100z"/>
<path d="M35580 18692 c-42 -42 -42 -101 -1 -143 37 -37 79 -38 118 -4 23 20
25 26 13 34 -10 7 -18 4 -28 -10 -18 -27 -67 -25 -86 3 -9 12 -16 26 -16 30 0
5 32 8 70 8 l70 0 0 29 c0 40 -28 71 -72 78 -32 5 -41 1 -68 -25z m100 -23
c15 -28 11 -31 -49 -27 -51 3 -51 3 -36 26 21 29 70 30 85 1z"/>
<path d="M36253 18710 c-30 -12 -43 -41 -43 -92 0 -55 21 -85 64 -93 38 -8 90
14 100 40 10 28 6 99 -7 116 -27 35 -71 46 -114 29z m79 -37 c23 -20 24 -80 1
-105 -22 -24 -69 -24 -83 1 -15 29 -12 87 6 105 20 21 53 20 76 -1z"/>
<path d="M36445 18698 c-24 -21 -29 -33 -29 -77 -1 -46 3 -56 27 -77 31 -26
54 -30 90 -13 30 14 55 59 32 59 -8 0 -19 -9 -25 -20 -13 -25 -62 -27 -81 -4
-7 9 -14 33 -14 54 0 21 7 45 14 54 17 20 70 21 77 1 6 -16 34 -21 34 -7 0 21
-28 43 -61 48 -28 5 -41 1 -64 -18z"/>
<path d="M34826 18615 c4 -10 20 -15 50 -15 32 0 44 4 44 15 0 11 -12 15 -50
15 -40 0 -48 -3 -44 -15z"/>
<path d="M18560 16135 c0 -113 2 -135 15 -135 13 0 15 22 15 135 0 113 -2 135
-15 135 -13 0 -15 -22 -15 -135z"/>
<path d="M18676 16249 c-27 -21 -36 -59 -13 -59 7 0 17 10 22 23 12 27 65 36
84 13 22 -26 5 -60 -64 -128 -89 -89 -87 -98 20 -98 69 0 85 3 85 15 0 12 -13
15 -60 15 -33 0 -60 3 -60 6 0 3 27 31 60 62 52 50 60 62 60 94 0 43 -36 78
-80 78 -15 0 -39 -9 -54 -21z"/>
<path d="M18924 16260 c-82 -33 -96 -173 -23 -234 52 -44 138 -29 169 29 12
23 12 27 0 35 -11 7 -18 2 -28 -15 -24 -47 -79 -58 -122 -25 -22 17 -25 26
-25 85 0 58 3 69 24 86 33 27 77 24 107 -6 34 -35 58 -34 42 1 -21 45 -89 66
-144 44z"/>
<path d="M19137 16139 c-21 -72 -35 -134 -32 -137 12 -12 25 18 55 127 18 63
34 120 37 128 3 7 -1 13 -9 13 -10 0 -26 -42 -51 -131z"/>
<path d="M19280 16263 c-30 -11 -50 -37 -50 -64 0 -36 21 -56 73 -69 76 -19
89 -28 85 -57 -2 -21 -10 -30 -35 -37 -39 -11 -89 7 -98 35 -4 10 -13 19 -21
19 -25 0 -15 -37 17 -64 74 -62 202 -6 169 74 -12 28 -35 41 -125 68 -22 6
-30 15 -30 33 0 45 101 53 112 9 3 -11 14 -20 24 -20 22 0 23 1 8 33 -18 39
-80 58 -129 40z"/>
<path d="M19480 16135 c0 -113 2 -135 15 -135 12 0 15 13 15 55 l0 55 50 0
c27 0 60 5 74 11 53 25 57 110 5 136 -13 7 -54 13 -91 13 l-68 0 0 -135z m141
95 c11 -6 19 -21 19 -35 0 -38 -25 -55 -81 -55 l-49 0 0 50 0 50 46 0 c25 0
54 -5 65 -10z"/>
<path d="M19730 16135 c0 -113 2 -135 15 -135 13 0 15 22 15 135 0 113 -2 135
-15 135 -13 0 -15 -22 -15 -135z"/>
<path d="M19130 15530 l0 -320 -4710 0 -4710 0 0 -5580 0 -5580 1105 0 1104 0
3 -582 c3 -580 3 -583 26 -632 12 -27 22 -50 22 -52 0 -2 -353 -4 -785 -4
l-785 0 0 -1275 0 -1275 9470 0 9470 0 0 1275 0 1275 -1290 0 -1290 0 0 635 0
635 1215 0 1215 0 0 5580 0 5580 -5000 0 -5000 0 0 320 0 320 -30 0 -30 0 0
-320z m0 -453 c0 -71 -3 -84 -20 -95 -12 -7 -20 -8 -20 -2 0 5 -7 10 -15 10
-11 0 -15 -11 -15 -40 0 -38 -2 -40 -30 -40 -16 0 -30 -3 -30 -6 0 -9 154
-263 160 -264 3 0 14 16 25 36 11 20 29 43 41 51 12 7 29 35 39 61 10 26 27
62 37 80 11 18 18 36 15 39 -4 3 0 21 8 40 18 43 18 43 0 43 -8 0 -22 -18 -31
-40 -20 -50 -59 -57 -74 -12 -6 15 -15 35 -20 44 -6 10 -10 54 -10 98 l0 80
4975 0 4975 0 0 -5530 0 -5530 -1190 0 -1190 0 0 305 0 305 750 0 750 0 0 615
0 615 -1530 0 -1530 0 0 -615 0 -615 749 0 749 0 7 -62 c3 -35 5 -171 3 -303
l-3 -240 -1822 -3 -1823 -2 0 305 0 305 370 0 370 0 0 615 0 615 -765 0 -765
0 0 -615 0 -615 368 -2 367 -3 3 -302 2 -303 -2815 0 -2815 0 2 303 3 302 723
3 722 2 0 615 0 615 -1475 0 -1475 0 3 -612 2 -613 723 -3 722 -2 0 -305 0
-305 -2677 0 -2678 0 2 233 c1 127 2 265 2 305 l1 72 495 0 495 0 0 615 0 615
-1020 0 -1020 0 0 -615 0 -615 495 0 495 0 0 -305 0 -305 -1080 0 -1080 0 0
5530 0 5530 4685 0 4685 0 0 -83z m0 -147 c0 -11 -7 -20 -15 -20 -15 0 -21 21
-8 33 12 13 23 7 23 -13z m-6210 -9605 l0 -565 -970 0 -970 0 0 565 0 565 970
0 970 0 0 -565z m5860 0 l0 -565 -1425 0 -1424 0 -1 565 0 565 1425 0 1425 0
0 -565z m4970 0 l0 -565 -715 0 -715 0 0 565 0 565 715 0 715 0 0 -565z m4460
0 l0 -565 -1480 0 -1480 0 0 565 0 565 1480 0 1480 0 0 -565z m-10877 -1877
c3 -332 8 -618 12 -635 l7 -33 -2649 0 -2650 0 -21 23 c-51 54 -51 58 -52 608
0 283 -1 542 0 577 l0 62 2674 0 2675 0 4 -602z m5677 46 c0 -367 -4 -570 -11
-598 -6 -24 -24 -60 -41 -80 l-29 -36 -2762 2 -2762 3 -8 45 c-10 50 -22 1183
-13 1206 5 12 391 14 2816 14 l2810 0 0 -556z m3694 504 c8 -68 8 -1181 0
-1202 -6 -15 -178 -16 -1850 -16 -1014 0 -1844 1 -1844 3 0 2 10 23 23 48 22
44 22 45 25 632 l3 587 1818 0 1818 0 7 -52z m-14623 -1287 c24 -11 186 -49
359 -86 300 -63 539 -114 1785 -379 297 -63 765 -163 1040 -221 275 -58 531
-113 569 -122 l68 -15 -6 -34 c-3 -19 -9 -50 -12 -69 l-6 -34 143 50 c79 28
146 53 149 56 5 6 -210 213 -221 213 -4 0 -12 -29 -19 -65 -10 -53 -16 -65
-29 -61 -9 2 -178 39 -376 81 -198 42 -443 94 -545 115 -102 22 -556 118
-1010 214 -1341 284 -1438 304 -1600 340 l-155 34 2574 -1 2574 -2 23 -85 c12
-47 31 -109 43 -139 11 -30 19 -56 18 -57 -1 -1 -31 -13 -66 -26 l-65 -24 125
-97 c68 -53 126 -97 129 -97 6 0 61 303 56 308 -2 1 -28 -6 -57 -18 -30 -11
-59 -20 -65 -20 -10 0 -84 218 -84 248 0 9 544 12 2688 11 l2687 -1 -240 -59
c-469 -115 -2769 -669 -2781 -669 -6 0 -17 29 -25 64 l-14 64 -115 -108 c-63
-60 -112 -111 -110 -113 9 -8 293 -97 297 -93 2 2 -3 32 -12 66 -9 34 -15 63
-13 65 2 1 84 21 183 45 99 23 403 96 675 162 272 65 671 161 885 213 1155
278 1348 326 1384 345 40 20 48 20 1921 20 l1881 0 -2 -125 -1 -125 -70 0
c-40 0 -68 -4 -66 -9 9 -28 154 -260 160 -258 4 1 43 61 87 132 l78 130 -68 3
-69 3 0 124 0 125 1265 0 1265 0 0 -1225 0 -1225 -9420 0 -9420 0 0 1225 0
1225 794 0 c758 0 795 -1 837 -19z"/>
<path d="M17670 14926 c0 -129 1 -136 20 -136 18 0 20 7 20 61 l0 60 38 -3
c33 -3 41 -9 75 -60 25 -38 45 -58 58 -58 18 0 19 2 5 29 -9 16 -27 42 -41 59
-28 34 -31 42 -12 42 40 0 61 76 33 116 -12 16 -29 20 -105 22 l-91 4 0 -136z
m164 88 c20 -19 20 -24 0 -52 -12 -18 -25 -22 -70 -22 l-54 0 0 45 0 45 54 0
c36 0 60 -5 70 -16z"/>
<path d="M18530 14925 c0 -113 2 -135 15 -135 8 0 15 4 15 9 0 5 13 4 29 -2
57 -21 101 24 101 104 0 67 -57 107 -111 79 -17 -10 -19 -7 -19 35 0 33 -4 45
-15 45 -13 0 -15 -22 -15 -135z m114 13 c9 -12 16 -34 16 -48 0 -54 -55 -91
-88 -58 -15 15 -16 82 -2 109 14 26 55 24 74 -3z"/>
<path d="M19470 14925 c0 -128 1 -135 20 -135 18 0 20 7 20 55 l0 55 54 0 c71
0 106 26 106 78 0 65 -28 82 -129 82 l-71 0 0 -135z m154 89 c39 -39 1 -84
-71 -84 l-43 0 0 50 0 50 49 0 c32 0 55 -6 65 -16z"/>
<path d="M19720 15040 c0 -11 7 -20 15 -20 8 0 15 9 15 20 0 11 -7 20 -15 20
-8 0 -15 -9 -15 -20z"/>
<path d="M19910 14925 c0 -113 2 -135 15 -135 12 0 15 13 15 55 l0 55 49 0
c67 0 95 13 110 49 16 38 3 81 -30 98 -13 7 -54 13 -91 13 l-68 0 0 -135z
m141 95 c11 -6 19 -21 19 -35 0 -38 -25 -55 -81 -55 l-49 0 0 50 0 50 46 0
c25 0 54 -5 65 -10z"/>
<path d="M20150 15040 c0 -11 7 -20 15 -20 8 0 15 9 15 20 0 11 -7 20 -15 20
-8 0 -15 -9 -15 -20z"/>
<path d="M20752 15053 c-11 -4 -42 -54 -42 -68 0 -16 37 -2 45 18 19 42 95 27
95 -19 0 -8 -31 -48 -70 -89 -38 -41 -70 -81 -70 -89 0 -13 15 -16 85 -16 69
0 85 3 85 15 0 12 -13 15 -60 15 -33 0 -60 4 -60 9 0 5 21 26 46 47 76 62 93
116 49 159 -23 24 -69 32 -103 18z"/>
<path d="M20915 15032 c3 -16 19 -76 34 -133 22 -84 31 -104 46 -104 15 0 24
22 50 115 l31 114 18 -64 c44 -163 47 -170 64 -170 13 0 24 28 50 128 37 144
37 142 18 142 -9 0 -23 -37 -42 -112 -15 -62 -30 -104 -32 -93 -2 11 -15 62
-29 113 -23 82 -28 93 -47 90 -18 -3 -26 -20 -51 -112 -16 -59 -31 -102 -34
-95 -2 8 -14 57 -25 109 -17 74 -25 96 -40 98 -15 3 -17 -1 -11 -26z"/>
<path d="M17965 14978 c-34 -19 -47 -48 -21 -48 7 0 19 7 26 15 16 19 64 19
80 0 18 -21 5 -32 -46 -40 -47 -7 -84 -33 -84 -60 0 -43 74 -70 121 -45 13 7
19 7 19 0 0 -5 8 -10 18 -10 15 0 16 9 12 86 -4 70 -9 88 -24 100 -24 17 -73
18 -101 2z m95 -101 c0 -7 -7 -23 -16 -35 -18 -26 -71 -31 -81 -6 -8 20 8 34
49 44 47 11 48 11 48 -3z"/>
<path d="M18151 14971 c-38 -38 -23 -69 46 -92 35 -11 48 -21 48 -35 0 -29
-58 -32 -78 -3 -14 20 -37 19 -37 -2 0 -21 41 -49 73 -49 46 0 77 24 77 61 0
30 -3 33 -92 68 -19 7 -26 15 -22 26 8 20 53 19 76 -2 12 -11 22 -13 28 -7 18
18 -13 45 -57 51 -33 4 -45 1 -62 -16z"/>
<path d="M18320 14855 c0 -113 2 -135 15 -135 11 0 15 12 15 45 0 42 2 45 19
35 31 -16 58 -12 88 14 24 21 28 32 28 76 0 44 -4 55 -28 76 -31 26 -66 31
-86 12 -11 -10 -14 -10 -18 0 -3 6 -11 12 -19 12 -11 0 -14 -25 -14 -135z
m118 93 c7 -7 12 -33 12 -58 0 -51 -13 -70 -46 -70 -27 0 -54 35 -54 70 0 54
55 91 88 58z"/>
<path d="M18753 14966 c-24 -21 -28 -32 -28 -76 0 -44 4 -55 28 -76 15 -13 39
-24 52 -24 53 0 99 40 75 64 -7 7 -15 3 -26 -12 -27 -39 -94 -24 -94 20 0 16
9 18 71 18 l72 0 -7 33 c-8 40 -48 77 -86 77 -16 0 -41 -11 -57 -24z m95 -18
c26 -26 13 -38 -38 -38 -34 0 -50 4 -50 13 0 21 22 37 50 37 14 0 31 -5 38
-12z"/>
<path d="M18940 14890 c0 -82 3 -100 15 -100 12 0 15 14 15 69 0 72 16 106 44
95 7 -3 16 2 20 11 8 21 -21 32 -45 16 -12 -7 -19 -7 -19 -1 0 5 -7 10 -15 10
-12 0 -15 -18 -15 -100z"/>
<path d="M19720 14890 c0 -82 3 -100 15 -100 12 0 15 18 15 100 0 82 -3 100
-15 100 -12 0 -15 -18 -15 -100z"/>
<path d="M20150 14890 c0 -82 3 -100 15 -100 12 0 15 18 15 100 0 82 -3 100
-15 100 -12 0 -15 -18 -15 -100z"/>
<path d="M20264 14978 c-40 -19 -56 -90 -33 -141 12 -27 47 -47 83 -47 23 0
66 37 66 58 0 19 -24 14 -38 -8 -27 -44 -92 -9 -92 50 0 58 65 94 92 51 6 -10
18 -17 25 -14 18 7 16 20 -7 43 -21 21 -62 25 -96 8z"/>
<path d="M20429 14961 c-85 -86 27 -225 118 -147 24 21 28 32 28 76 0 44 -4
55 -28 76 -39 33 -81 31 -118 -5z m99 -13 c7 -7 12 -33 12 -58 0 -53 -13 -70
-51 -70 -35 0 -54 24 -54 70 0 21 7 45 14 54 16 19 62 21 79 4z"/>
<path d="M17317 14554 c-4 -4 -7 -283 -7 -621 l0 -613 910 0 910 0 0 -455 0
-455 -70 0 -69 0 82 -135 c45 -74 84 -135 87 -135 6 0 160 253 160 263 0 4
-29 7 -65 7 l-65 0 0 455 0 455 910 0 910 0 0 614 0 613 -802 6 c-1177 9
-2883 9 -2891 1z m3641 -616 l2 -568 -1800 0 -1800 0 0 563 c0 310 3 566 6
569 3 4 812 5 1797 5 l1792 -2 3 -567z"/>
<path d="M17790 13955 c0 -113 2 -135 15 -135 13 0 15 22 15 135 0 113 -2 135
-15 135 -13 0 -15 -22 -15 -135z"/>
<path d="M17906 14069 c-27 -21 -36 -59 -13 -59 7 0 17 10 22 23 11 25 58 35
81 16 29 -24 16 -58 -45 -117 -52 -50 -81 -89 -81 -106 0 -3 38 -6 85 -6 69 0
85 3 85 15 0 12 -13 15 -60 15 -33 0 -60 3 -60 6 0 3 27 32 60 64 51 49 60 63
60 93 0 42 -37 77 -80 77 -15 0 -39 -9 -54 -21z"/>
<path d="M18150 14072 c-72 -36 -90 -145 -34 -212 46 -54 149 -49 179 10 18
35 18 40 4 40 -6 0 -24 -13 -39 -30 -36 -38 -81 -40 -115 -5 -21 20 -25 34
-25 80 0 46 4 60 25 80 32 33 78 33 111 0 14 -14 31 -25 39 -25 23 0 -4 49
-36 66 -37 19 -67 18 -109 -4z"/>
<path d="M18407 14083 c-4 -7 -24 -77 -62 -215 -10 -38 -11 -48 -1 -48 7 0 26
51 46 123 18 67 35 128 38 135 4 13 -14 17 -21 5z"/>
<path d="M18500 14077 c-13 -7 -29 -24 -34 -39 -14 -40 12 -73 71 -87 52 -13
93 -36 93 -51 0 -19 -40 -50 -65 -50 -35 0 -74 20 -80 42 -7 21 -35 25 -35 4
0 -8 11 -28 24 -43 21 -25 31 -28 81 -28 50 0 60 3 81 28 47 54 23 94 -72 122
-74 21 -89 39 -58 69 24 24 71 20 100 -9 26 -26 44 -32 44 -14 0 52 -90 86
-150 56z"/>
<path d="M18710 13955 c0 -113 2 -135 15 -135 12 0 15 13 15 55 l0 55 50 0
c63 0 97 16 109 51 13 39 -4 88 -36 100 -13 5 -53 9 -89 9 l-64 0 0 -135z
m148 93 c19 -19 15 -66 -7 -78 -11 -5 -40 -10 -65 -10 l-46 0 0 50 0 50 53 0
c29 0 58 -5 65 -12z"/>
<path d="M18960 13955 c0 -113 2 -135 15 -135 13 0 15 22 15 135 0 113 -2 135
-15 135 -13 0 -15 -22 -15 -135z"/>
<path d="M19170 13955 c0 -113 2 -135 15 -135 13 0 15 22 15 135 0 113 -2 135
-15 135 -13 0 -15 -22 -15 -135z"/>
<path d="M19918 14079 c-10 -5 -18 -21 -18 -34 0 -25 -11 -30 -53 -25 -10 1
-25 -4 -33 -10 -10 -9 -14 -9 -14 -1 0 6 -7 11 -15 11 -12 0 -15 -18 -15 -100
0 -82 3 -100 15 -100 12 0 15 14 15 69 0 72 17 108 46 97 7 -3 16 -1 19 4 4 6
13 10 21 10 11 0 14 -18 14 -90 0 -73 3 -90 15 -90 12 0 15 17 15 90 0 83 1
90 20 90 11 0 20 5 20 10 0 6 -9 10 -21 10 -28 0 -21 34 9 38 29 4 29 32 0 32
-13 0 -31 -5 -40 -11z"/>
<path d="M19477 14073 c-4 -3 -7 -16 -7 -29 0 -12 -6 -24 -12 -27 -10 -4 -10
-7 0 -18 7 -8 12 -41 12 -84 0 -42 5 -76 12 -83 17 -17 48 -15 48 3 0 8 -7 15
-15 15 -12 0 -15 15 -15 75 0 60 3 75 15 75 8 0 15 5 15 10 0 6 -7 10 -15 10
-10 0 -15 10 -15 30 0 29 -9 38 -23 23z"/>
<path d="M19260 13920 c0 -82 3 -100 15 -100 12 0 15 15 15 73 0 77 9 97 45
97 36 0 45 -20 45 -97 0 -58 3 -73 15 -73 12 0 15 16 15 80 0 67 -3 83 -20
100 -23 23 -51 25 -83 9 -16 -9 -22 -9 -25 0 -2 6 -8 11 -13 11 -5 0 -9 -45
-9 -100z"/>
<path d="M19603 14010 c-29 -12 -44 -42 -45 -90 -1 -53 23 -87 66 -95 39 -8
96 17 96 40 0 19 -17 19 -36 0 -22 -22 -71 -19 -84 4 -19 36 -12 41 61 41 l72
0 -7 33 c-11 59 -67 90 -123 67z m85 -47 c14 -23 14 -23 -42 -23 -60 0 -62 1
-45 31 14 27 66 22 87 -8z"/>
<path d="M20016 13999 c-14 -11 -26 -25 -26 -30 0 -14 26 -11 40 6 16 19 64
19 80 0 18 -21 5 -33 -45 -40 -57 -9 -77 -25 -77 -60 0 -48 54 -70 105 -44 16
9 22 9 25 0 2 -6 11 -11 20 -11 15 0 16 10 12 86 -4 70 -9 88 -24 100 -28 20
-79 17 -110 -7z m104 -90 c0 -39 -51 -74 -82 -57 -28 14 -22 47 10 54 15 3 32
7 37 9 21 7 35 5 35 -6z"/>
<path d="M20218 13990 c-28 -28 -30 -36 -25 -78 6 -52 41 -92 81 -92 28 0 76
36 76 56 0 21 -23 17 -38 -6 -27 -44 -92 -9 -92 50 0 56 59 92 90 55 14 -17
40 -20 40 -6 0 17 -52 51 -77 51 -14 0 -38 -13 -55 -30z"/>
<path d="M20423 14010 c-12 -5 -27 -18 -33 -30 -17 -31 -15 -96 3 -124 30 -45
115 -43 145 4 10 17 10 20 -7 20 -10 0 -24 -7 -31 -15 -18 -22 -67 -19 -80 4
-19 36 -12 41 61 41 l72 0 -7 33 c-11 59 -67 90 -123 67z m85 -47 c14 -23 14
-23 -42 -23 -39 0 -56 4 -56 13 0 41 72 48 98 10z"/>
<path d="M17360 11565 c0 -267 -2 -485 -3 -485 -2 0 -163 -34 -358 -75 -195
-42 -448 -96 -564 -120 -115 -25 -444 -95 -730 -155 -786 -168 -815 -174
-1175 -250 -184 -39 -441 -93 -570 -120 -129 -27 -471 -99 -760 -160 -289 -62
-653 -138 -809 -171 -156 -33 -303 -69 -327 -81 -49 -23 -96 -71 -121 -126
-16 -34 -18 -90 -21 -605 l-3 -568 28 3 28 3 5 565 c3 389 9 573 16 590 19 41
63 78 118 98 28 11 152 41 276 66 124 26 329 69 455 96 127 27 541 115 920
195 380 80 839 178 1020 216 182 39 456 97 610 129 154 32 548 116 875 185
968 205 1063 225 1077 225 10 0 13 -24 13 -100 l0 -100 183 0 182 -1 -50 -23
c-27 -13 -331 -151 -675 -306 -344 -155 -636 -288 -650 -296 -23 -12 -21 -13
33 -14 56 0 92 15 710 294 359 162 680 306 714 320 l62 26 730 0 730 0 26 -82
c146 -462 171 -550 205 -718 46 -231 52 -312 57 -852 l5 -518 24 0 24 0 0 475
c0 714 -22 863 -211 1457 -38 120 -69 222 -69 228 0 7 213 10 625 10 l625 0
102 -39 c57 -22 254 -98 438 -171 184 -73 619 -244 965 -380 347 -136 657
-261 690 -278 73 -37 116 -80 147 -147 l23 -50 3 -552 3 -553 24 0 25 0 0 538
c0 596 -2 615 -63 701 -65 89 -16 68 -1052 476 -812 321 -1130 447 -1135 452
-3 3 2 4 10 3 8 -1 43 -2 78 -1 l62 1 0 110 c0 61 4 110 8 110 7 0 1699 -340
3132 -629 300 -60 970 -196 1489 -300 520 -105 960 -196 978 -202 46 -15 90
-54 116 -103 22 -41 22 -45 25 -596 l2 -555 26 -3 25 -3 -3 568 -3 568 -24 48
c-26 53 -68 92 -126 118 -43 19 -71 25 -1215 254 -421 85 -1100 222 -1510 305
-410 83 -945 191 -1190 240 -892 179 -1695 341 -1712 346 -17 5 -18 37 -18
480 l0 474 -1800 0 -1800 0 0 -485z m3550 -130 l0 -565 -1750 0 -1750 0 0 565
0 565 1750 0 1750 0 0 -565z"/>
<path d="M17840 11456 l0 -136 59 0 c77 0 106 12 132 52 31 50 23 148 -14 186
-24 23 -37 27 -102 30 l-75 4 0 -136z m149 85 c27 -27 36 -84 22 -132 -14 -46
-34 -59 -95 -59 l-46 0 0 105 0 105 50 0 c36 0 55 -5 69 -19z"/>
<path d="M18720 11455 c0 -113 2 -135 15 -135 12 0 15 13 15 55 l0 55 44 0
c93 0 138 42 115 109 -13 37 -46 51 -124 51 l-65 0 0 -135z m141 95 c12 -7 19
-21 19 -40 0 -36 -23 -50 -84 -50 l-46 0 0 50 0 50 46 0 c25 0 54 -5 65 -10z"/>
<path d="M20050 11569 c0 -24 23 -21 28 4 2 10 -3 17 -12 17 -10 0 -16 -9 -16
-21z"/>
<path d="M18317 11573 c-4 -3 -7 -16 -7 -29 0 -12 -8 -25 -17 -29 -17 -6 -17
-7 0 -16 14 -8 17 -24 17 -82 0 -44 5 -78 12 -85 17 -17 48 -15 48 3 0 8 -7
15 -15 15 -12 0 -15 15 -15 75 0 60 3 75 15 75 8 0 15 5 15 10 0 6 -7 10 -15
10 -10 0 -15 10 -15 30 0 29 -9 38 -23 23z"/>
<path d="M18133 11510 c-27 -11 -51 -50 -30 -50 8 0 20 7 27 16 20 24 84 15
88 -12 3 -19 -3 -23 -45 -29 -55 -8 -83 -28 -83 -60 0 -45 49 -66 104 -45 16
6 27 6 31 0 4 -6 12 -10 18 -10 9 0 11 24 9 85 -3 73 -6 87 -25 100 -24 17
-60 18 -94 5z m87 -109 c0 -28 -27 -51 -61 -51 -58 0 -46 55 14 63 18 2 35 5
40 5 4 1 7 -7 7 -17z"/>
<path d="M18426 11499 c-14 -11 -26 -25 -26 -30 0 -14 26 -11 40 6 15 18 61
20 78 3 23 -23 12 -36 -37 -43 -62 -8 -83 -24 -83 -60 0 -48 47 -68 106 -45
16 6 27 6 31 0 4 -6 12 -10 18 -10 9 0 11 23 7 86 -4 70 -9 88 -24 100 -28 20
-79 17 -110 -7z m104 -92 c0 -7 -7 -23 -16 -35 -22 -31 -77 -28 -82 5 -3 17 3
24 25 29 15 3 33 7 38 9 22 7 35 4 35 -8z"/>
<path d="M18960 11420 c0 -82 3 -100 15 -100 12 0 15 14 15 69 0 72 17 108 46
97 18 -7 29 13 15 27 -7 7 -18 7 -36 -1 -15 -7 -25 -8 -25 -2 0 6 -7 10 -15
10 -12 0 -15 -18 -15 -100z"/>
<path d="M19104 11497 c-25 -22 -29 -32 -29 -77 0 -44 4 -55 28 -76 16 -13 41
-24 57 -24 16 0 41 11 57 24 24 21 28 32 28 75 0 60 -22 89 -76 97 -29 5 -41
1 -65 -19z m97 -23 c7 -9 14 -33 14 -54 0 -47 -19 -70 -56 -70 -32 0 -59 31
-59 70 0 59 67 94 101 54z"/>
<path d="M19321 11506 c-29 -16 -39 -38 -40 -83 -2 -61 35 -103 90 -103 21 0
69 42 69 60 0 17 -25 11 -38 -10 -16 -27 -68 -27 -82 -1 -15 29 -12 87 6 105
20 20 53 20 75 0 31 -28 46 -10 17 19 -30 30 -60 34 -97 13z"/>
<path d="M19512 11510 c-30 -13 -55 -74 -47 -116 7 -39 47 -74 85 -74 27 0 80
33 80 51 0 15 -26 10 -40 -7 -20 -23 -72 -14 -87 16 l-12 25 67 3 c37 2 71 7
75 11 12 12 -18 78 -41 90 -24 13 -49 13 -80 1z m76 -32 c26 -26 13 -38 -38
-38 -34 0 -50 4 -50 13 0 21 22 37 50 37 14 0 31 -5 38 -12z"/>
<path d="M19690 11500 c-37 -37 -21 -68 47 -91 35 -11 48 -21 48 -35 0 -25
-72 -34 -81 -10 -8 22 -36 20 -32 -1 9 -47 115 -56 139 -12 19 37 3 67 -44 80
-48 14 -72 32 -63 48 10 16 62 13 76 -4 10 -12 16 -13 24 -5 8 8 5 17 -13 31
-30 25 -76 24 -101 -1z"/>
<path d="M19882 11504 c-24 -17 -29 -56 -9 -72 7 -6 31 -17 53 -24 28 -9 39
-19 39 -33 0 -26 -55 -34 -75 -11 -14 17 -40 22 -40 7 0 -17 52 -51 77 -51 52
0 93 43 73 79 -5 11 -32 27 -60 36 -37 12 -50 22 -50 36 0 15 7 19 31 19 18 0
37 -7 43 -15 7 -9 16 -12 25 -6 11 7 9 13 -8 30 -25 25 -68 27 -99 5z"/>
<path d="M20050 11420 c0 -82 3 -100 15 -100 12 0 15 18 15 100 0 82 -3 100
-15 100 -12 0 -15 -18 -15 -100z"/>
<path d="M20130 11420 c0 -82 3 -100 15 -100 12 0 15 15 15 73 0 77 9 97 45
97 36 0 45 -20 45 -97 0 -58 3 -73 15 -73 12 0 15 16 15 84 0 76 -2 86 -22
100 -12 9 -32 16 -43 16 -11 0 -31 -7 -43 -16 -20 -14 -22 -14 -22 0 0 9 -4
16 -10 16 -6 0 -10 -40 -10 -100z"/>
<path d="M20355 11497 c-20 -16 -28 -35 -32 -69 -5 -42 -3 -50 25 -78 33 -32
51 -36 84 -19 26 14 34 5 20 -26 -13 -28 -57 -34 -92 -13 -29 18 -39 -1 -11
-23 43 -35 113 -17 131 34 5 16 10 72 10 123 0 74 -3 94 -14 94 -8 0 -16 -5
-18 -11 -3 -9 -9 -9 -25 0 -32 16 -49 14 -78 -12z m89 -29 c32 -46 8 -118 -39
-118 -28 0 -55 34 -55 70 0 36 27 70 55 70 13 0 31 -10 39 -22z"/>
<path d="M14833 10049 c-7 -7 -13 -23 -13 -36 0 -14 -6 -23 -15 -23 -8 0 -15
-5 -15 -10 0 -6 7 -13 15 -16 11 -5 15 -23 15 -78 0 -77 9 -96 47 -96 28 0 30
16 3 30 -17 9 -20 21 -20 75 0 51 3 65 15 65 8 0 15 7 15 15 0 8 -6 15 -14 15
-10 0 -16 13 -18 36 -2 28 -5 33 -15 23z"/>
<path d="M16210 10015 c0 -42 -2 -45 -19 -35 -74 39 -148 -58 -106 -140 21
-41 57 -57 96 -43 16 6 29 7 29 2 0 -5 7 -9 15 -9 13 0 15 22 15 135 0 113 -2
135 -15 135 -11 0 -15 -12 -15 -45z m-16 -77 c32 -46 8 -118 -39 -118 -14 0
-29 8 -35 19 -14 27 -13 94 2 109 19 19 55 14 72 -10z"/>
<path d="M16290 10040 c0 -11 7 -20 15 -20 8 0 15 9 15 20 0 11 -7 20 -15 20
-8 0 -15 -9 -15 -20z"/>
<path d="M14640 9970 c-37 -37 -21 -68 47 -91 35 -11 48 -21 48 -35 0 -28 -60
-32 -76 -6 -12 19 -39 20 -39 1 0 -21 42 -49 73 -49 46 0 77 24 77 61 0 30 -3
32 -93 68 -16 6 -27 17 -25 24 7 18 63 21 78 3 17 -22 30 -20 30 4 0 40 -86
54 -120 20z"/>
<path d="M14933 9966 c-24 -21 -28 -32 -28 -76 0 -44 4 -55 28 -76 63 -54 147
-11 147 76 0 87 -84 130 -147 76z m101 -28 c46 -66 -24 -157 -78 -102 -19 18
-22 94 -4 112 20 20 65 14 82 -10z"/>
<path d="M15120 9890 c0 -82 3 -100 15 -100 12 0 15 13 15 58 0 81 7 100 38
104 35 4 44 38 10 38 -13 0 -29 -5 -36 -12 -9 -9 -12 -9 -12 0 0 7 -7 12 -15
12 -12 0 -15 -18 -15 -100z"/>
<path d="M15263 9966 c-24 -21 -28 -32 -28 -76 0 -44 4 -55 28 -76 15 -13 39
-24 52 -24 53 0 99 40 75 64 -7 7 -15 3 -26 -12 -27 -39 -94 -24 -94 20 0 16
9 18 71 18 l72 0 -7 33 c-8 40 -48 77 -86 77 -16 0 -41 -11 -57 -24z m95 -18
c26 -26 13 -38 -38 -38 -34 0 -50 4 -50 13 0 21 22 37 50 37 14 0 31 -5 38
-12z"/>
<path d="M15550 9890 c0 -79 3 -100 14 -100 10 0 15 19 18 74 4 82 7 88 40 90
32 1 38 36 6 36 -13 0 -29 -5 -36 -12 -9 -9 -12 -9 -12 0 0 7 -7 12 -15 12
-12 0 -15 -18 -15 -100z"/>
<path d="M15707 9979 c-28 -16 -49 -74 -41 -115 13 -71 100 -99 151 -48 21 21
23 28 12 35 -9 5 -21 1 -34 -11 -26 -24 -58 -26 -79 -4 -34 33 -20 44 54 44
69 0 70 1 70 26 0 57 -82 102 -133 73z m91 -46 c14 -23 14 -23 -42 -23 -60 0
-62 1 -45 31 14 27 66 22 87 -8z"/>
<path d="M15892 9963 c-24 -24 -25 -28 -9 -31 10 -2 24 4 31 13 18 25 80 17
84 -11 3 -19 -3 -23 -45 -29 -55 -8 -83 -28 -83 -60 0 -46 63 -70 113 -44 16
9 22 9 25 0 2 -6 11 -11 19 -11 12 0 14 7 9 31 -3 17 -6 55 -6 85 0 65 -16 84
-71 84 -30 0 -47 -7 -67 -27z m108 -89 c0 -8 -5 -24 -10 -35 -14 -25 -75 -27
-84 -2 -9 21 4 33 46 43 48 11 48 11 48 -6z"/>
<path d="M16290 9890 c0 -82 3 -100 15 -100 12 0 15 18 15 100 0 82 -3 100
-15 100 -12 0 -15 -18 -15 -100z"/>
<path d="M16370 9890 c0 -82 3 -100 15 -100 12 0 15 14 15 69 0 79 15 104 59
99 25 -3 26 -5 29 -85 2 -65 6 -83 17 -83 12 0 15 17 15 83 0 69 -3 87 -18
100 -21 19 -54 22 -83 7 -13 -7 -19 -7 -19 0 0 5 -7 10 -15 10 -12 0 -15 -18
-15 -100z"/>
<path d="M16603 9975 c-52 -36 -46 -144 9 -174 22 -13 33 -13 58 -4 26 10 30
9 30 -6 0 -9 -5 -22 -12 -29 -14 -14 -78 -16 -78 -3 0 5 -9 11 -20 14 -27 7
-26 -18 2 -37 31 -22 80 -20 112 5 25 20 26 23 26 135 0 95 -3 114 -15 114 -8
0 -15 -5 -15 -10 0 -7 -6 -7 -19 0 -27 14 -53 13 -78 -5z m81 -31 c18 -18 21
-76 6 -105 -7 -12 -21 -19 -40 -19 -35 0 -50 23 -50 74 0 38 21 66 50 66 10 0
26 -7 34 -16z"/>
<path d="M16804 9980 c-52 -21 -29 -80 41 -103 28 -10 40 -20 40 -33 0 -28
-58 -32 -77 -5 -9 12 -19 17 -27 12 -22 -14 5 -49 43 -57 45 -8 73 2 92 32 15
22 15 26 1 48 -10 14 -33 28 -62 35 -35 9 -46 16 -43 29 4 22 51 28 68 8 14
-18 40 -21 40 -6 0 6 -9 19 -20 30 -21 21 -60 25 -96 10z"/>
<path d="M15750 9490 l0 -139 -70 -3 -70 -3 75 -125 c42 -69 79 -128 83 -132
6 -6 162 240 162 256 0 3 -29 6 -65 6 l-65 0 0 140 0 140 -25 0 -25 0 0 -140z"/>
<path d="M13997 8993 c-4 -3 -7 -282 -7 -620 l0 -613 880 0 880 0 0 -315 0
-315 25 0 25 0 0 315 0 315 875 0 875 0 0 620 0 620 -1773 0 c-976 0 -1777 -3
-1780 -7z m3503 -613 l0 -570 -1730 0 -1730 0 0 563 c0 310 3 567 7 570 3 4
782 7 1730 7 l1723 0 0 -570z"/>
<path d="M14470 8395 c0 -113 2 -135 15 -135 12 0 15 20 16 113 l1 112 37
-110 c24 -71 43 -111 53 -113 12 -2 24 21 48 95 18 54 36 102 41 108 5 5 9
-36 9 -98 0 -88 3 -107 15 -107 13 0 15 22 15 135 l0 135 -24 0 c-22 0 -27
-10 -56 -97 -18 -54 -36 -104 -40 -112 -5 -9 -21 26 -45 98 -33 101 -39 111
-61 111 l-24 0 0 -135z"/>
<path d="M14770 8510 c0 -11 7 -20 15 -20 8 0 15 9 15 20 0 11 -7 20 -15 20
-8 0 -15 -9 -15 -20z"/>
<path d="M15410 8517 c-13 -7 -29 -24 -34 -39 -14 -40 12 -72 71 -88 54 -14
93 -35 93 -50 0 -21 -41 -50 -71 -50 -22 0 -40 9 -59 30 -47 51 -73 28 -27
-25 41 -49 138 -43 173 9 33 51 -2 95 -89 111 -37 7 -67 27 -67 45 0 5 7 16
16 24 24 24 71 20 100 -9 27 -27 44 -32 44 -12 -2 50 -92 83 -150 54z"/>
<path d="M15620 8395 l0 -137 75 4 c66 3 78 7 102 31 26 25 28 34 28 102 0 68
-2 77 -28 102 -24 24 -36 28 -102 31 l-75 4 0 -137z m135 99 c41 -16 58 -109
30 -163 -17 -34 -33 -41 -91 -41 l-44 0 0 105 0 105 44 0 c24 0 52 -3 61 -6z"/>
<path d="M15980 8395 l0 -135 85 0 c69 0 85 3 85 15 0 12 -14 15 -65 15 l-65
0 0 120 c0 113 -1 120 -20 120 -19 0 -20 -7 -20 -135z"/>
<path d="M14770 8360 c0 -82 3 -100 15 -100 12 0 15 18 15 100 0 82 -3 100
-15 100 -12 0 -15 -18 -15 -100z"/>
<path d="M14893 8450 c-30 -12 -43 -41 -43 -95 0 -57 32 -95 80 -95 30 0 80
37 80 60 0 17 -25 11 -38 -10 -14 -22 -61 -27 -80 -8 -15 15 -16 82 -2 109 13
23 68 26 76 4 8 -19 34 -20 34 -1 0 19 -39 46 -65 45 -11 0 -30 -4 -42 -9z"/>
<path d="M15040 8360 c0 -82 3 -100 15 -100 12 0 15 14 15 69 0 72 17 108 45
97 8 -3 16 1 18 9 12 28 -26 34 -55 8 -17 -15 -18 -15 -18 0 0 10 -4 17 -10
17 -6 0 -10 -40 -10 -100z"/>
<path d="M15184 8437 c-25 -22 -29 -32 -29 -77 0 -44 4 -55 28 -76 16 -13 41
-24 57 -24 16 0 41 11 57 24 24 21 28 32 28 75 0 60 -22 89 -76 97 -29 5 -41
1 -65 -19z m96 -22 c17 -21 18 -89 1 -109 -34 -40 -101 -5 -101 54 0 58 67 95
100 55z"/>
<path d="M16225 8448 c-34 -18 -45 -40 -45 -88 0 -57 21 -87 64 -95 38 -8 90
14 100 40 10 28 6 99 -7 116 -28 36 -75 48 -112 27z m77 -35 c23 -20 24 -80 1
-105 -22 -24 -69 -24 -83 1 -15 29 -12 87 6 105 20 21 53 20 76 -1z"/>
<path d="M16415 8438 c-48 -43 -43 -129 11 -164 22 -15 31 -16 57 -6 38 14 44
9 29 -23 -13 -28 -57 -34 -92 -13 -29 18 -39 -1 -11 -23 43 -35 113 -17 131
34 5 16 10 72 10 123 0 74 -3 94 -14 94 -8 0 -16 -5 -18 -11 -3 -9 -9 -9 -25
0 -31 16 -49 14 -78 -11z m89 -30 c32 -46 8 -118 -39 -118 -28 0 -55 34 -55
70 0 36 27 70 55 70 13 0 31 -10 39 -22z"/>
<path d="M16615 8435 c-20 -19 -25 -34 -25 -75 0 -41 5 -56 25 -75 26 -27 54
-31 86 -15 16 9 19 7 19 -8 0 -10 -5 -23 -12 -30 -15 -15 -70 -16 -85 -1 -6 6
-16 10 -22 8 -24 -8 15 -40 56 -46 35 -5 45 -2 67 20 25 25 26 31 26 137 0 91
-3 110 -15 110 -8 0 -15 -5 -15 -10 0 -7 -6 -7 -19 0 -32 16 -60 12 -86 -15z
m95 -24 c14 -27 13 -94 -2 -109 -7 -7 -24 -12 -38 -12 -36 0 -50 17 -50 63 0
54 15 77 50 77 19 0 33 -7 40 -19z"/>
<path d="M16840 8447 c-34 -17 -52 -55 -46 -101 9 -73 84 -109 139 -66 15 12
27 26 27 31 0 15 -26 10 -40 -7 -20 -23 -72 -14 -87 16 l-12 25 72 5 c39 3 71
8 70 13 -2 4 -3 16 -3 27 0 28 -44 70 -72 70 -13 0 -34 -6 -48 -13z m78 -29
c26 -26 13 -38 -38 -38 -34 0 -50 4 -50 13 0 21 22 37 50 37 14 0 31 -5 38
-12z"/>
<path d="M17010 8360 c0 -82 3 -100 15 -100 12 0 15 15 15 75 0 64 3 76 20 85
11 6 25 8 30 5 6 -3 10 3 10 14 0 26 -26 28 -52 4 -17 -15 -18 -15 -18 0 0 10
-4 17 -10 17 -6 0 -10 -40 -10 -100z"/>
<path d="M10820 8395 c0 -110 3 -135 14 -135 8 0 16 6 19 13 4 10 7 10 18 0
38 -36 107 7 116 73 10 78 -43 133 -103 105 -23 -10 -24 -10 -24 34 0 38 -3
45 -20 45 -19 0 -20 -7 -20 -135z m121 19 c7 -9 14 -33 14 -54 0 -44 -19 -70
-50 -70 -31 0 -50 26 -50 70 0 44 19 70 50 70 12 0 29 -7 36 -16z"/>
<path d="M11360 8485 c0 -42 -2 -45 -19 -35 -30 15 -56 12 -84 -10 -76 -60
-14 -206 74 -173 16 6 29 7 29 2 0 -5 7 -9 15 -9 13 0 15 22 15 135 0 113 -2
135 -15 135 -11 0 -15 -12 -15 -45z m-16 -77 c32 -45 8 -118 -38 -118 -33 0
-46 19 -46 70 0 25 5 51 12 58 19 19 55 14 72 -10z"/>
<path d="M11750 8510 c0 -11 7 -20 15 -20 8 0 15 9 15 20 0 11 -7 20 -15 20
-8 0 -15 -9 -15 -20z"/>
<path d="M12670 8395 c0 -113 2 -135 15 -135 13 0 15 22 15 135 0 113 -2 135
-15 135 -13 0 -15 -22 -15 -135z"/>
<path d="M12750 8510 c0 -11 7 -20 15 -20 8 0 15 9 15 20 0 11 -7 20 -15 20
-8 0 -15 -9 -15 -20z"/>
<path d="M18660 8395 c0 -113 2 -135 15 -135 12 0 15 14 15 66 0 76 12 104 43
104 38 0 47 -19 47 -97 0 -58 3 -73 15 -73 24 0 21 161 -3 183 -21 19 -54 22
-83 7 -17 -10 -19 -7 -19 35 0 33 -4 45 -15 45 -13 0 -15 -22 -15 -135z"/>
<path d="M19970 8395 c0 -113 2 -135 15 -135 13 0 15 22 15 135 0 113 -2 135
-15 135 -13 0 -15 -22 -15 -135z"/>
<path d="M20280 8510 c0 -11 7 -20 15 -20 8 0 15 9 15 20 0 11 -7 20 -15 20
-8 0 -15 -9 -15 -20z"/>
<path d="M21510 8395 c0 -113 2 -135 15 -135 12 0 15 14 15 63 0 72 18 107 55
107 34 0 40 -15 40 -95 0 -60 3 -70 19 -73 17 -4 18 3 15 83 -3 72 -7 89 -23
101 -23 16 -72 19 -81 4 -14 -23 -25 -7 -25 35 0 33 -4 45 -15 45 -13 0 -15
-22 -15 -135z"/>
<path d="M21720 8510 c0 -11 7 -20 15 -20 8 0 15 9 15 20 0 11 -7 20 -15 20
-8 0 -15 -9 -15 -20z"/>
<path d="M22000 8395 c0 -128 1 -135 20 -135 18 0 20 7 20 73 0 78 9 97 47 97
31 0 43 -28 43 -104 0 -52 3 -66 15 -66 12 0 15 16 15 80 0 67 -3 83 -20 100
-22 22 -51 26 -81 10 -17 -10 -19 -7 -19 35 0 38 -3 45 -20 45 -19 0 -20 -7
-20 -135z"/>
<path d="M23150 8413 c-18 -65 -35 -126 -38 -135 -2 -11 1 -18 9 -18 9 0 26
42 48 123 18 67 35 128 38 135 3 6 -2 12 -9 12 -10 0 -25 -39 -48 -117z"/>
<path d="M23230 8395 c0 -128 1 -135 20 -135 18 0 20 7 20 73 0 78 9 97 47 97
31 0 43 -28 43 -104 0 -52 3 -66 15 -66 12 0 15 16 15 80 0 67 -3 83 -20 100
-22 22 -51 26 -81 10 -17 -10 -19 -7 -19 35 0 38 -3 45 -20 45 -19 0 -20 -7
-20 -135z"/>
<path d="M23950 8510 c0 -11 7 -20 15 -20 8 0 15 9 15 20 0 11 -7 20 -15 20
-8 0 -15 -9 -15 -20z"/>
<path d="M24150 8483 c0 -37 -3 -44 -12 -35 -18 18 -62 14 -86 -8 -27 -25 -36
-60 -28 -105 11 -57 80 -95 115 -62 11 10 14 10 18 0 3 -7 11 -13 19 -13 11 0
14 25 14 135 0 128 -1 135 -20 135 -17 0 -20 -7 -20 -47z m-9 -69 c7 -9 14
-33 14 -54 0 -44 -19 -70 -50 -70 -31 0 -50 26 -50 70 0 44 19 70 50 70 12 0
29 -7 36 -16z"/>
<path d="M24240 8510 c0 -11 7 -20 15 -20 8 0 15 9 15 20 0 11 -7 20 -15 20
-8 0 -15 -9 -15 -20z"/>
<path d="M25902 8513 c5 -26 38 -29 38 -4 0 15 -6 21 -21 21 -14 0 -19 -5 -17
-17z"/>
<path d="M26090 8510 c0 -11 7 -20 15 -20 8 0 15 9 15 20 0 11 -7 20 -15 20
-8 0 -15 -9 -15 -20z"/>
<path d="M26560 8395 c0 -113 2 -135 15 -135 13 0 15 22 15 135 0 113 -2 135
-15 135 -13 0 -15 -22 -15 -135z"/>
<path d="M26772 8518 c-7 -7 -12 -18 -12 -24 0 -7 -8 -20 -17 -30 -13 -13 -14
-19 -5 -22 8 -2 12 -31 12 -93 0 -82 1 -89 20 -89 18 0 20 7 20 85 0 69 3 85
15 85 8 0 15 7 15 15 0 8 -7 15 -15 15 -24 0 -18 38 7 42 12 2 23 9 26 16 5
16 -50 16 -66 0z"/>
<path d="M26850 8510 c0 -11 7 -20 15 -20 8 0 15 9 15 20 0 11 -7 20 -15 20
-8 0 -15 -9 -15 -20z"/>
<path d="M27291 8463 c-59 -202 -59 -203 -46 -203 8 0 16 8 19 18 69 238 72
252 56 252 -5 0 -18 -30 -29 -67z"/>
<path d="M27430 8523 c-84 -31 -102 -171 -30 -235 44 -40 110 -39 151 1 28 28
39 61 20 61 -5 0 -23 -13 -39 -30 -62 -62 -142 -20 -142 75 0 91 79 137 136
80 26 -26 54 -33 54 -14 0 6 -13 24 -29 40 -23 22 -38 29 -68 28 -21 0 -45 -3
-53 -6z"/>
<path d="M27682 8510 c-107 -66 -62 -249 61 -250 75 0 127 55 127 135 0 57
-23 100 -66 120 -44 20 -83 19 -122 -5z m110 -21 c45 -24 57 -111 22 -166 -27
-42 -107 -39 -141 6 -16 20 -17 92 -2 125 19 40 78 58 121 35z"/>
<path d="M12847 8513 c-4 -3 -7 -17 -7 -30 0 -12 -4 -23 -10 -23 -5 0 -10 -7
-10 -15 0 -8 5 -15 10 -15 6 0 10 -31 10 -73 0 -78 9 -97 47 -97 28 0 31 26 3
33 -17 4 -20 14 -20 71 0 51 3 66 14 66 24 0 30 21 7 27 -15 4 -21 13 -21 34
0 28 -9 37 -23 22z"/>
<path d="M20187 8513 c-4 -3 -7 -17 -7 -30 0 -12 -4 -23 -10 -23 -5 0 -10 -7
-10 -15 0 -8 5 -15 10 -15 6 0 10 -31 10 -73 0 -78 9 -97 47 -97 28 0 31 26 3
33 -17 4 -20 14 -20 71 0 50 3 66 14 66 8 0 16 7 20 15 4 10 -1 15 -14 15 -16
0 -20 7 -20 30 0 29 -9 38 -23 23z"/>
<path d="M22327 8513 c-4 -3 -7 -17 -7 -30 0 -14 -6 -23 -15 -23 -8 0 -15 -5
-15 -10 0 -6 7 -13 15 -16 11 -5 15 -23 15 -79 0 -79 11 -99 52 -93 l23 3 -22
20 c-19 16 -23 30 -23 82 0 49 3 63 15 63 8 0 15 7 15 15 0 8 -7 15 -15 15
-10 0 -15 10 -15 30 0 29 -9 38 -23 23z"/>
<path d="M24337 8513 c-4 -3 -7 -15 -7 -25 0 -10 -7 -21 -15 -24 -8 -4 -15
-12 -15 -20 0 -8 7 -14 15 -14 12 0 15 -15 15 -79 0 -63 3 -80 16 -85 27 -10
44 -7 44 9 0 8 -7 15 -15 15 -12 0 -15 14 -15 70 0 56 3 70 15 70 8 0 15 7 15
15 0 8 -7 15 -15 15 -10 0 -15 10 -15 30 0 29 -9 38 -23 23z"/>
<path d="M25997 8513 c-4 -3 -7 -17 -7 -30 0 -12 -4 -23 -10 -23 -5 0 -10 -7
-10 -15 0 -8 5 -15 10 -15 6 0 10 -29 10 -66 0 -36 5 -74 10 -85 13 -23 60
-26 60 -4 0 8 -6 15 -14 15 -19 0 -26 22 -26 85 0 44 3 53 20 58 23 6 27 27 5
27 -10 0 -15 10 -15 30 0 28 -17 40 -33 23z"/>
<path d="M11052 8444 c-12 -8 -22 -22 -22 -30 0 -19 26 -18 34 2 4 11 17 14
43 12 30 -2 39 -8 41 -24 3 -19 -3 -23 -45 -29 -55 -8 -83 -28 -83 -60 0 -46
63 -70 113 -44 16 9 22 9 25 0 2 -6 10 -11 17 -11 19 0 8 159 -13 183 -19 22
-80 23 -110 1z m88 -140 c-17 -20 -76 -18 -84 3 -9 22 6 35 51 42 32 6 39 4
41 -12 2 -10 -2 -25 -8 -33z"/>
<path d="M11560 8440 c-11 -11 -20 -24 -20 -30 0 -15 26 -12 40 6 20 23 74 15
78 -12 3 -19 -3 -23 -45 -29 -26 -4 -56 -14 -65 -22 -23 -21 -23 -56 0 -76 22
-20 82 -22 101 -4 11 10 14 10 18 0 3 -7 12 -13 21 -13 26 0 14 167 -13 186
-28 21 -91 18 -115 -6z m89 -136 c-19 -23 -73 -14 -77 13 -3 22 3 26 63 35 24
4 33 -26 14 -48z"/>
<path d="M11750 8360 c0 -82 3 -100 15 -100 12 0 15 18 15 100 0 82 -3 100
-15 100 -12 0 -15 -18 -15 -100z"/>
<path d="M11830 8360 c0 -79 3 -100 14 -100 10 0 15 19 18 74 4 82 7 88 40 90
32 1 38 36 6 36 -13 0 -29 -5 -36 -12 -9 -9 -12 -9 -12 0 0 7 -7 12 -15 12
-12 0 -15 -18 -15 -100z"/>
<path d="M12077 8440 c-76 -60 -14 -206 74 -173 l29 11 0 -44 c0 -32 4 -44 15
-44 13 0 15 22 15 135 0 113 -2 135 -15 135 -8 0 -15 -5 -15 -10 0 -7 -6 -7
-19 0 -29 15 -55 12 -84 -10z m87 -32 c32 -46 8 -118 -39 -118 -14 0 -29 8
-35 19 -14 27 -13 94 2 109 19 19 55 14 72 -10z"/>
<path d="M12262 8373 c3 -83 4 -88 30 -102 22 -13 33 -13 58 -4 17 6 32 7 36
2 16 -27 24 1 24 91 0 82 -3 100 -15 100 -12 0 -15 -14 -15 -69 0 -73 -14
-101 -49 -101 -32 0 -41 22 -41 97 0 59 -3 73 -15 73 -13 0 -15 -14 -13 -87z"/>
<path d="M12486 8439 c-14 -11 -26 -25 -26 -30 0 -14 26 -11 40 6 16 19 64 19
80 0 18 -21 5 -33 -47 -41 -47 -7 -83 -32 -83 -59 0 -43 74 -70 121 -45 13 7
19 7 19 0 0 -5 8 -10 18 -10 15 0 16 9 12 86 -4 70 -9 88 -24 100 -28 20 -79
17 -110 -7z m104 -92 c0 -7 -7 -23 -16 -35 -18 -26 -71 -31 -81 -6 -8 20 8 34
49 44 47 11 48 11 48 -3z"/>
<path d="M12750 8360 c0 -82 3 -100 15 -100 12 0 15 18 15 100 0 82 -3 100
-15 100 -12 0 -15 -18 -15 -100z"/>
<path d="M12925 8443 c42 -106 64 -179 60 -194 -4 -11 -17 -22 -31 -25 -27 -7
-27 -27 0 -32 29 -6 44 16 84 121 55 142 56 147 38 147 -9 0 -23 -22 -35 -57
-38 -103 -35 -102 -61 -19 -19 60 -28 76 -43 76 -14 0 -17 -4 -12 -17z"/>
<path d="M18488 8448 c-41 -34 -21 -78 47 -101 28 -10 40 -20 40 -33 0 -28
-58 -32 -77 -5 -17 23 -42 13 -32 -13 15 -38 88 -47 128 -15 48 37 27 78 -51
98 -32 9 -43 17 -43 31 0 26 45 27 72 3 29 -26 46 -1 19 26 -24 24 -78 28
-103 9z"/>
<path d="M18879 8431 c-85 -86 27 -225 118 -147 24 21 28 32 28 76 0 44 -4 55
-28 76 -39 33 -81 31 -118 -5z m102 -17 c17 -20 16 -88 -1 -109 -16 -20 -64
-19 -81 1 -7 9 -14 33 -14 54 0 21 7 45 14 54 17 21 65 21 82 0z"/>
<path d="M19060 8403 c10 -32 23 -77 29 -100 9 -31 17 -43 30 -43 15 0 22 15
36 70 9 39 18 70 20 70 2 0 11 -31 20 -70 25 -101 44 -96 78 19 31 103 32 111
13 111 -8 0 -20 -26 -32 -70 -10 -38 -20 -67 -23 -64 -3 3 -13 33 -22 67 -12
49 -19 62 -34 62 -15 0 -22 -14 -36 -68 -9 -38 -19 -70 -21 -73 -3 -2 -12 30
-22 71 -14 59 -22 75 -36 75 -17 0 -17 -2 0 -57z"/>
<path d="M19431 8360 c-2 -95 -1 -100 19 -100 18 0 20 6 20 75 0 62 3 76 19
84 10 6 21 7 25 3 9 -8 27 19 20 30 -8 13 -42 9 -58 -8 -15 -14 -16 -14 -16 0
0 9 -6 16 -14 16 -10 0 -14 -23 -15 -100z"/>
<path d="M19594 8448 c-56 -27 -59 -134 -5 -175 27 -21 77 -15 108 11 23 21
26 27 15 38 -12 11 -16 9 -29 -9 -21 -30 -67 -31 -87 -1 -9 12 -16 26 -16 30
0 5 32 8 70 8 l70 0 0 30 c0 61 -67 97 -126 68z m86 -39 c15 -28 11 -31 -49
-27 -51 3 -51 3 -36 26 21 29 70 30 85 1z"/>
<path d="M19795 8448 c-34 -19 -47 -48 -21 -48 7 0 19 7 26 15 16 19 64 19 80
0 18 -21 5 -33 -47 -41 -47 -7 -83 -32 -83 -59 0 -43 74 -70 121 -45 13 7 19
7 19 0 0 -5 8 -10 18 -10 15 0 17 9 14 85 -3 73 -6 87 -25 100 -25 18 -74 19
-102 3z m88 -116 c-11 -31 -25 -42 -55 -42 -31 0 -48 24 -30 42 11 11 73 27
84 21 4 -2 4 -11 1 -21z"/>
<path d="M20280 8360 c0 -82 3 -100 15 -100 12 0 15 18 15 100 0 82 -3 100
-15 100 -12 0 -15 -18 -15 -100z"/>
<path d="M20360 8360 c0 -82 3 -100 15 -100 12 0 15 14 15 69 0 76 15 105 54
99 19 -3 21 -10 24 -85 2 -62 6 -83 16 -83 10 0 15 21 18 76 4 79 14 97 53 92
18 -3 20 -12 23 -85 3 -76 5 -83 23 -83 20 0 21 5 18 86 -3 71 -7 88 -23 100
-26 19 -55 18 -78 -3 -17 -15 -19 -15 -36 0 -21 19 -45 21 -73 7 -13 -7 -19
-7 -19 0 0 5 -7 10 -15 10 -12 0 -15 -18 -15 -100z"/>
<path d="M20693 8445 c-33 -23 -47 -86 -29 -129 16 -40 42 -56 86 -56 38 0 92
47 69 61 -9 5 -21 1 -34 -11 -26 -24 -58 -26 -79 -4 -34 33 -20 44 55 44 l72
0 -7 33 c-12 64 -83 97 -133 62z m85 -27 c26 -26 13 -38 -38 -38 -54 0 -55 1
-40 31 12 22 59 26 78 7z"/>
<path d="M21720 8360 c0 -82 3 -100 15 -100 12 0 15 18 15 100 0 82 -3 100
-15 100 -12 0 -15 -18 -15 -100z"/>
<path d="M21815 8435 c-18 -17 -25 -35 -25 -64 0 -84 41 -126 101 -104 25 10
29 9 29 -6 0 -40 -51 -54 -94 -25 -32 20 -43 1 -16 -26 33 -33 119 -21 136 19
3 9 8 64 10 124 4 88 2 107 -10 107 -8 0 -16 -5 -18 -11 -3 -9 -9 -9 -25 0
-34 17 -62 13 -88 -14z m94 -19 c16 -19 17 -92 1 -111 -31 -37 -90 -1 -90 55
0 55 59 92 89 56z"/>
<path d="M22444 8445 c-35 -24 -49 -70 -35 -116 15 -51 49 -73 99 -66 43 7 87
49 57 55 -9 2 -24 -3 -34 -12 -23 -21 -54 -20 -74 2 -31 34 -21 42 53 42 69 0
70 1 70 26 0 35 -50 84 -87 84 -16 0 -38 -7 -49 -15z m94 -42 c14 -23 14 -23
-42 -23 -60 0 -62 1 -45 31 14 27 66 22 87 -8z"/>
<path d="M22620 8360 c0 -82 3 -100 15 -100 12 0 15 14 15 69 0 76 15 105 54
99 19 -3 21 -10 24 -85 3 -75 5 -83 22 -83 18 0 20 7 20 73 0 75 9 97 42 97
26 0 38 -32 38 -104 0 -52 3 -66 15 -66 22 0 21 147 -1 178 -17 25 -50 29 -80
8 -17 -12 -22 -12 -39 0 -23 17 -57 18 -74 2 -11 -10 -14 -10 -18 0 -3 6 -11
12 -19 12 -11 0 -14 -20 -14 -100z"/>
<path d="M22930 8325 c0 -113 2 -135 15 -135 11 0 15 12 15 44 l0 44 29 -11
c57 -21 101 24 101 104 0 67 -57 107 -111 79 -13 -7 -19 -7 -19 0 0 5 -7 10
-15 10 -13 0 -15 -22 -15 -135z m112 88 c38 -34 12 -123 -37 -123 -28 0 -45
26 -45 70 0 64 41 91 82 53z"/>
<path d="M23442 8373 c3 -83 4 -88 30 -102 22 -13 33 -13 58 -4 16 6 30 7 30
2 0 -5 7 -9 15 -9 12 0 15 18 15 100 0 82 -3 100 -15 100 -12 0 -15 -14 -15
-69 0 -73 -14 -101 -49 -101 -32 0 -41 22 -41 97 0 59 -3 73 -15 73 -13 0 -15
-14 -13 -87z"/>
<path d="M23640 8360 c0 -93 1 -100 20 -100 17 0 19 8 22 76 2 60 7 79 21 88
12 8 22 8 35 0 13 -9 18 -28 20 -88 2 -59 6 -76 17 -76 12 0 15 15 15 68 0 78
14 106 51 100 23 -3 24 -7 27 -85 2 -65 6 -83 17 -83 22 0 21 162 -1 184 -19
20 -53 20 -81 1 -18 -13 -22 -13 -33 0 -15 18 -61 20 -79 3 -11 -10 -14 -10
-18 0 -3 6 -11 12 -19 12 -11 0 -14 -20 -14 -100z"/>
<path d="M23950 8360 c0 -82 3 -100 15 -100 12 0 15 18 15 100 0 82 -3 100
-15 100 -12 0 -15 -18 -15 -100z"/>
<path d="M24240 8360 c0 -82 3 -100 15 -100 12 0 15 18 15 100 0 82 -3 100
-15 100 -12 0 -15 -18 -15 -100z"/>
<path d="M24410 8451 c0 -5 14 -46 31 -90 34 -90 35 -121 2 -136 -28 -12 -30
-35 -4 -35 28 0 47 23 69 82 11 29 32 83 46 121 23 61 24 67 7 67 -13 0 -24
-20 -43 -75 l-25 -76 -28 76 c-16 44 -33 75 -41 75 -8 0 -14 -4 -14 -9z"/>
<path d="M25634 8448 c-56 -27 -59 -134 -5 -175 38 -29 121 0 121 42 0 22 -23
18 -38 -5 -14 -23 -54 -27 -71 -7 -21 26 -24 75 -7 102 20 30 61 33 78 6 6
-10 18 -17 25 -14 18 7 16 20 -7 43 -21 21 -62 25 -96 8z"/>
<path d="M25780 8360 c0 -82 3 -100 15 -100 11 0 15 13 15 54 0 75 13 106 45
106 18 0 25 5 25 20 0 26 -45 28 -59 3 -10 -17 -10 -17 -11 0 0 9 -7 17 -15
17 -12 0 -15 -18 -15 -100z"/>
<path d="M25900 8360 c0 -93 1 -100 20 -100 19 0 20 7 20 100 0 93 -1 100 -20
100 -19 0 -20 -7 -20 -100z"/>
<path d="M26090 8360 c0 -82 3 -100 15 -100 12 0 15 18 15 100 0 82 -3 100
-15 100 -12 0 -15 -18 -15 -100z"/>
<path d="M26193 8436 c-24 -21 -28 -32 -28 -76 0 -44 4 -55 28 -76 46 -39 117
-25 130 26 7 27 -24 27 -41 0 -14 -22 -51 -27 -70 -8 -7 7 -12 33 -12 58 0 25
5 51 12 58 17 17 53 15 68 -3 16 -19 40 -19 40 -1 0 21 -40 46 -72 46 -15 0
-40 -11 -55 -24z"/>
<path d="M26372 8433 c-25 -25 -25 -28 -8 -31 10 -2 23 3 28 12 12 21 74 22
82 0 11 -28 7 -32 -44 -39 -59 -8 -80 -25 -80 -65 0 -44 61 -66 110 -40 13 7
21 7 25 0 3 -5 12 -10 18 -10 9 0 11 23 9 83 -3 68 -7 85 -24 100 -31 26 -84
22 -116 -10z m108 -92 c0 -28 -27 -51 -61 -51 -32 0 -49 24 -31 42 8 8 53 23
85 27 4 1 7 -8 7 -18z"/>
<path d="M26850 8360 c0 -82 3 -100 15 -100 12 0 15 18 15 100 0 82 -3 100
-15 100 -12 0 -15 -18 -15 -100z"/>
<path d="M26930 8360 c0 -79 3 -100 14 -100 10 0 15 19 18 74 4 82 7 88 40 90
32 1 38 36 6 36 -13 0 -29 -5 -36 -12 -9 -9 -12 -9 -12 0 0 7 -7 12 -15 12
-12 0 -15 -18 -15 -100z"/>
<path d="M27073 8436 c-24 -21 -28 -32 -28 -76 0 -44 4 -55 28 -76 43 -36 119
-26 133 18 9 29 0 31 -29 7 -35 -27 -78 -22 -94 11 l-12 25 75 3 76 3 -6 32
c-8 40 -48 77 -86 77 -16 0 -41 -11 -57 -24z m95 -18 c26 -26 13 -38 -38 -38
-34 0 -50 4 -50 13 0 21 22 37 50 37 14 0 31 -5 38 -12z"/>
<path d="M20040 8355 c0 -11 12 -15 50 -15 38 0 50 4 50 15 0 11 -12 15 -50
15 -38 0 -50 -4 -50 -15z"/>
<path d="M26728 8103 c-17 -4 -18 -58 -20 -901 l-3 -897 -67 -3 c-38 -2 -68
-6 -68 -9 0 -13 156 -262 162 -260 4 1 43 61 87 132 l79 130 -69 3 -69 3 0
899 c0 494 -3 901 -7 903 -5 2 -16 2 -25 0z"/>
<path d="M11920 7200 l0 -899 -69 -3 -68 -3 78 -130 c44 -71 83 -131 87 -132
7 -2 145 218 158 251 5 12 -6 16 -63 18 l-68 3 0 898 0 897 -27 0 -28 0 0
-900z"/>
<path d="M19618 7553 l-3 -548 -25 -55 c-30 -68 -68 -125 -112 -168 -19 -18
-237 -167 -483 -332 l-449 -300 -36 55 c-19 30 -37 55 -40 55 -4 0 -109 -218
-126 -262 -6 -17 4 -18 122 -17 71 1 141 4 157 8 l27 6 -35 52 c-19 29 -35 55
-35 57 0 3 209 145 465 316 493 329 511 344 571 462 53 104 54 121 54 690 l0
528 -24 0 -25 0 -3 -547z"/>
<path d="M23010 7200 l0 -900 -70 0 c-38 0 -70 -3 -69 -7 1 -16 154 -255 163
-255 8 0 166 246 166 258 0 2 -31 4 -70 4 l-70 0 0 900 0 900 -25 0 -25 0 0
-900z"/>
<path d="M15650 6865 c0 -113 2 -135 15 -135 12 0 15 13 15 58 0 72 17 106 53
110 35 4 50 -32 45 -110 -4 -52 -2 -58 15 -58 18 0 19 7 16 86 -3 72 -7 88
-24 100 -19 15 -52 14 -87 -1 -16 -6 -18 -1 -18 39 0 34 -4 46 -15 46 -13 0
-15 -22 -15 -135z"/>
<path d="M16080 6955 c0 -42 -2 -45 -19 -35 -54 28 -111 -12 -111 -79 0 -80
44 -125 101 -104 16 6 29 7 29 2 0 -5 7 -9 15 -9 13 0 15 22 15 135 0 113 -2
135 -15 135 -11 0 -15 -12 -15 -45z m-10 -74 c14 -27 13 -94 -2 -109 -34 -34
-88 4 -88 62 0 56 66 91 90 47z"/>
<path d="M16387 6983 c-4 -3 -7 -17 -7 -30 0 -14 -6 -23 -15 -23 -8 0 -15 -5
-15 -10 0 -6 7 -13 15 -16 11 -5 15 -23 15 -78 0 -77 9 -96 47 -96 28 0 30 16
3 30 -17 9 -20 21 -20 75 0 51 3 65 15 65 8 0 15 7 15 15 0 8 -7 15 -15 15
-10 0 -15 10 -15 30 0 29 -9 38 -23 23z"/>
<path d="M14935 6906 c-70 -70 -13 -202 75 -169 32 12 37 5 20 -28 -13 -24
-61 -25 -95 -3 -22 15 -25 15 -25 1 0 -47 95 -63 135 -22 24 23 25 31 25 135
0 91 -3 110 -15 110 -8 0 -15 -5 -15 -10 0 -7 -6 -7 -19 0 -31 16 -60 12 -86
-14z m87 -23 c39 -35 13 -123 -37 -123 -32 0 -45 20 -45 70 0 25 5 51 12 58
17 17 48 15 70 -5z"/>
<path d="M15120 6830 c0 -82 3 -100 15 -100 12 0 15 14 15 68 0 77 5 89 40 93
34 5 40 39 8 39 -13 0 -29 -5 -36 -12 -9 -9 -12 -9 -12 0 0 7 -7 12 -15 12
-12 0 -15 -18 -15 -100z"/>
<path d="M15260 6910 c-11 -11 -20 -24 -20 -30 0 -15 26 -12 40 6 20 23 74 15
78 -12 3 -19 -3 -23 -43 -29 -81 -12 -111 -72 -53 -104 22 -12 35 -13 67 -5
23 6 41 7 41 3 0 -5 7 -9 16 -9 14 0 16 12 13 86 -3 71 -7 88 -23 100 -29 21
-92 18 -116 -6z m100 -104 c0 -31 -22 -48 -57 -44 -20 2 -29 9 -31 24 -3 18 4
24 35 32 54 14 53 14 53 -12z"/>
<path d="M15450 6795 c0 -113 2 -135 15 -135 11 0 15 12 15 47 0 37 3 44 12
35 15 -15 58 -15 79 1 46 35 54 123 14 162 -26 27 -54 31 -86 15 -13 -7 -19
-7 -19 0 0 5 -7 10 -15 10 -13 0 -15 -22 -15 -135z m112 88 c37 -34 12 -123
-36 -123 -32 0 -46 19 -46 63 0 71 38 100 82 60z"/>
<path d="M16182 6903 c-25 -25 -25 -28 -8 -31 10 -2 23 3 28 12 11 19 59 21
76 4 23 -23 12 -36 -38 -43 -59 -8 -80 -25 -80 -65 0 -44 61 -66 110 -40 13 7
21 7 25 0 3 -5 12 -10 18 -10 19 0 9 160 -11 183 -25 28 -87 23 -120 -10z
m108 -92 c0 -28 -27 -51 -61 -51 -32 0 -49 24 -31 42 8 8 53 23 85 27 4 1 7
-8 7 -18z"/>
<path d="M16496 6909 c-14 -11 -26 -25 -26 -30 0 -14 26 -11 40 6 16 19 64 19
80 0 18 -21 5 -32 -46 -40 -47 -7 -84 -33 -84 -60 0 -43 74 -70 121 -45 13 7
19 7 19 0 0 -5 8 -10 18 -10 15 0 16 9 12 86 -4 70 -9 88 -24 100 -28 20 -79
17 -110 -7z m104 -92 c0 -28 -31 -57 -61 -57 -58 0 -46 55 14 63 18 2 35 5 40
5 4 1 7 -4 7 -11z"/>
<path d="M16201 6401 c101 -98 199 -191 217 -206 l33 -28 -52 -53 c-50 -51
-51 -53 -28 -58 142 -34 285 -64 288 -60 2 2 -14 71 -35 154 l-39 150 -50 -50
-50 -49 -195 189 c-184 178 -197 189 -234 190 l-38 0 183 -179z"/>
<path d="M11400 5344 l0 -136 81 4 c70 3 83 6 100 27 25 31 24 69 -2 97 -20
21 -20 24 -5 46 22 31 20 45 -9 73 -21 22 -33 25 -95 25 l-70 0 0 -136z m140
92 c6 -8 10 -25 8 -38 -3 -20 -9 -23 -55 -26 l-53 -3 0 40 0 41 44 0 c26 0 48
-6 56 -14z m16 -121 c15 -23 15 -27 0 -50 -14 -21 -24 -25 -66 -25 l-50 0 0
50 0 50 50 0 c42 0 52 -4 66 -25z"/>
<path d="M11645 5329 c1 -73 3 -83 24 -100 28 -23 49 -24 79 -3 20 14 22 14
22 0 0 -9 7 -16 15 -16 12 0 15 18 15 100 0 82 -3 100 -15 100 -12 0 -15 -14
-15 -68 0 -77 -18 -106 -62 -100 -19 3 -24 11 -31 58 -4 30 -6 67 -3 83 4 21
2 27 -12 27 -15 0 -17 -11 -17 -81z"/>
<path d="M11840 5395 c0 -12 13 -15 56 -15 l55 0 -60 -73 c-34 -41 -61 -79
-61 -85 0 -8 27 -12 85 -12 68 0 85 3 85 15 0 10 -16 15 -61 17 l-62 3 57 69
c31 38 56 75 56 82 0 11 -18 14 -75 14 -60 0 -75 -3 -75 -15z"/>
<path d="M12030 5394 c0 -14 8 -16 45 -12 25 3 48 2 50 -2 3 -5 -20 -38 -50
-75 -30 -37 -55 -74 -55 -81 0 -11 20 -14 86 -14 64 0 85 3 82 13 -3 7 -28 13
-67 15 l-61 3 60 74 c33 40 60 78 60 84 0 7 -28 11 -75 11 -63 0 -75 -3 -75
-16z"/>
<path d="M12240 5382 c-84 -84 21 -224 114 -151 14 11 26 25 26 30 0 14 -26
11 -40 -6 -19 -23 -66 -19 -84 7 -9 12 -16 26 -16 30 0 5 32 8 70 8 l70 0 0
29 c0 40 -28 71 -72 78 -32 5 -41 1 -68 -25z m104 -24 c15 -24 5 -30 -53 -26
l-52 3 17 23 c19 27 71 27 88 0z"/>
<path d="M12430 5310 c0 -82 3 -100 15 -100 12 0 15 15 15 74 0 77 12 102 44
90 12 -4 16 0 16 15 0 26 -26 28 -52 4 -17 -15 -18 -15 -18 0 0 10 -4 17 -10
17 -6 0 -10 -40 -10 -100z"/>
<path d="M16360 5345 l0 -135 80 0 c64 0 80 3 80 15 0 12 -14 15 -65 15 l-65
0 0 120 c0 100 -2 120 -15 120 -13 0 -15 -22 -15 -135z"/>
<path d="M16623 5466 c-40 -18 -63 -62 -63 -121 0 -58 21 -100 62 -121 58 -30
146 1 161 57 4 14 0 19 -14 19 -10 0 -19 -4 -19 -10 0 -22 -41 -50 -73 -50
-53 0 -82 38 -82 107 0 48 4 58 28 79 37 32 81 31 111 -1 42 -45 64 -27 23 20
-27 32 -88 42 -134 21z"/>
<path d="M16830 5345 l0 -135 59 0 c104 0 144 27 157 107 3 21 1 58 -6 81 -16
60 -54 82 -142 82 l-68 0 0 -135z m155 80 c21 -20 25 -34 25 -80 0 -46 -4 -60
-25 -81 -21 -21 -33 -25 -73 -22 l-47 3 -3 89 c-2 49 -1 95 2 103 3 8 22 13
51 13 35 0 52 -6 70 -25z"/>
<path d="M17200 5345 l0 -135 60 0 c88 0 124 18 145 74 29 75 6 159 -51 184
-14 7 -54 12 -89 12 l-65 0 0 -135z m155 80 c21 -20 25 -34 25 -80 0 -46 -4
-60 -25 -81 -21 -21 -33 -25 -73 -22 l-47 3 -3 89 c-2 49 -1 95 2 103 3 8 22
13 51 13 35 0 52 -6 70 -25z"/>
<path d="M17460 5460 c0 -11 7 -20 15 -20 8 0 15 9 15 20 0 11 -7 20 -15 20
-8 0 -15 -9 -15 -20z"/>
<path d="M17937 5473 c-9 -8 -9 -226 -1 -247 16 -40 23 -5 26 119 3 128 -2
152 -25 128z"/>
<path d="M17460 5310 c0 -82 3 -100 15 -100 12 0 15 18 15 100 0 82 -3 100
-15 100 -12 0 -15 -18 -15 -100z"/>
<path d="M17562 5394 c-24 -17 -29 -56 -9 -71 6 -6 30 -16 52 -23 50 -15 57
-22 49 -43 -8 -23 -70 -23 -82 -1 -5 9 -18 14 -28 12 -17 -3 -17 -6 8 -31 42
-42 122 -30 134 20 9 33 -17 58 -72 72 -34 9 -45 16 -42 29 5 24 58 29 75 6
11 -14 15 -15 26 -5 10 10 7 16 -12 32 -28 23 -69 25 -99 3z"/>
<path d="M17730 5275 c0 -113 2 -135 15 -135 11 0 15 12 15 45 0 43 1 45 21
35 27 -15 76 -3 94 23 8 12 15 43 15 70 0 75 -54 117 -111 87 -13 -7 -19 -7
-19 0 0 5 -7 10 -15 10 -13 0 -15 -22 -15 -135z m120 84 c13 -23 13 -75 0
-100 -7 -12 -21 -19 -40 -19 -34 0 -50 23 -50 72 0 67 62 100 90 47z"/>
<path d="M18036 5389 c-14 -11 -26 -25 -26 -30 0 -14 26 -11 40 6 15 18 61 20
78 3 23 -23 12 -36 -37 -43 -62 -8 -83 -24 -83 -60 0 -48 54 -70 105 -44 16 9
22 9 25 0 2 -6 11 -11 20 -11 15 0 16 10 12 86 -4 70 -9 88 -24 100 -28 20
-79 17 -110 -7z m104 -97 c0 -35 -52 -66 -82 -50 -28 14 -22 47 10 54 15 3 32
7 37 9 24 8 35 4 35 -13z"/>
<path d="M18236 5323 c39 -98 40 -133 7 -148 -28 -12 -30 -35 -5 -35 30 0 46
27 91 145 46 124 46 125 28 125 -7 0 -21 -24 -32 -52 -40 -114 -34 -111 -63
-25 -19 56 -30 77 -43 77 -15 0 -13 -11 17 -87z"/>
<path d="M22750 5345 c0 -113 2 -135 15 -135 12 0 15 13 15 60 l0 60 66 0 c48
0 65 3 62 13 -3 7 -28 13 -66 15 l-62 3 0 44 0 45 70 0 c56 0 70 3 70 15 0 12
-16 15 -85 15 l-85 0 0 -135z"/>
<path d="M23003 5400 c-12 -5 -27 -18 -33 -29 -9 -18 -8 -21 9 -21 10 0 22 7
25 16 4 11 17 14 43 12 30 -2 39 -8 41 -25 3 -19 -3 -22 -45 -29 -55 -8 -83
-28 -83 -60 0 -46 47 -66 104 -44 16 6 27 6 31 0 4 -6 12 -10 18 -10 9 0 11
24 9 85 -3 73 -6 87 -25 100 -24 17 -60 18 -94 5z m87 -108 c0 -42 -52 -72
-85 -48 -25 18 -13 43 27 55 49 14 58 13 58 -7z"/>
<path d="M23170 5310 c0 -82 3 -100 15 -100 12 0 15 14 15 63 0 72 18 107 55
107 33 0 45 -27 45 -104 0 -52 3 -66 15 -66 12 0 15 14 15 70 0 38 -5 80 -11
94 -15 33 -61 43 -94 22 -22 -15 -25 -15 -25 -1 0 8 -7 15 -15 15 -12 0 -15
-18 -15 -100z"/>
<path d="M25654 5463 c5 -18 36 -134 56 -210 7 -30 16 -43 28 -43 14 0 24 23
46 110 16 61 32 110 36 110 3 0 19 -49 35 -110 22 -87 31 -110 45 -110 11 0
20 10 23 28 4 15 19 75 35 135 27 97 28 107 13 107 -14 0 -22 -21 -40 -102
-13 -57 -26 -107 -28 -112 -3 -5 -16 33 -29 84 -33 129 -33 130 -54 130 -15 0
-23 -13 -34 -52 -8 -29 -23 -80 -32 -113 l-18 -60 -23 95 c-12 52 -22 103 -23
113 0 10 -8 17 -21 17 -15 0 -19 -5 -15 -17z"/>
<path d="M26020 5460 c0 -11 7 -20 15 -20 8 0 15 9 15 20 0 11 -7 20 -15 20
-8 0 -15 -9 -15 -20z"/>
<path d="M26230 5345 c0 -113 2 -135 15 -135 12 0 15 13 15 60 l0 60 63 0 c50
0 64 3 64 15 0 12 -14 15 -64 15 l-63 0 0 45 0 45 70 0 c56 0 70 3 70 15 0 12
-16 15 -85 15 l-85 0 0 -135z"/>
<path d="M26450 5460 c0 -11 7 -20 15 -20 8 0 15 9 15 20 0 11 -7 20 -15 20
-8 0 -15 -9 -15 -20z"/>
<path d="M26640 5345 c0 -113 2 -135 15 -135 12 0 15 19 16 108 l1 107 36
-107 c26 -76 41 -108 52 -108 11 0 26 32 52 108 l36 107 1 -107 c1 -101 2
-108 21 -108 19 0 20 7 20 135 l0 135 -24 0 c-22 0 -28 -11 -64 -117 l-39
-118 -39 118 c-34 104 -41 117 -61 117 -23 0 -23 -1 -23 -135z"/>
<path d="M27270 5434 c0 -40 -2 -45 -17 -39 -40 16 -54 17 -78 1 -35 -23 -50
-85 -31 -131 19 -44 56 -63 97 -48 16 6 29 7 29 2 0 -5 7 -9 15 -9 13 0 15 22
15 135 0 113 -2 135 -15 135 -11 0 -15 -12 -15 -46z m-16 -76 c34 -48 14 -118
-33 -118 -37 0 -54 21 -54 70 0 22 6 46 13 55 18 22 57 18 74 -7z"/>
<path d="M27550 5351 c0 -120 6 -151 28 -138 4 3 6 64 4 136 -3 106 -6 131
-18 131 -11 0 -14 -23 -14 -129z"/>
<path d="M26020 5310 c0 -82 3 -100 15 -100 12 0 15 18 15 100 0 82 -3 100
-15 100 -12 0 -15 -18 -15 -100z"/>
<path d="M26450 5310 c0 -82 3 -100 15 -100 12 0 15 18 15 100 0 82 -3 100
-15 100 -12 0 -15 -18 -15 -100z"/>
<path d="M26974 5399 c-40 -21 -56 -91 -33 -143 23 -50 112 -58 144 -13 21 30
19 109 -2 136 -21 25 -78 35 -109 20z m80 -35 c18 -18 21 -76 6 -105 -13 -24
-57 -25 -82 -2 -23 20 -24 80 -1 105 20 22 56 23 77 2z"/>
<path d="M27350 5330 c0 -67 3 -83 20 -100 24 -24 57 -26 88 -4 20 14 22 14
22 0 0 -9 5 -16 10 -16 6 0 10 40 10 100 0 82 -3 100 -15 100 -12 0 -15 -15
-15 -73 0 -77 -9 -97 -45 -97 -36 0 -45 20 -45 97 0 58 -3 73 -15 73 -12 0
-15 -16 -15 -80z"/>
<path d="M27674 5398 c-27 -13 -44 -49 -44 -93 0 -47 8 -64 41 -80 42 -22 77
-18 107 12 25 25 25 28 8 31 -10 2 -23 -3 -28 -12 -12 -22 -61 -20 -81 2 -31
34 -21 42 53 42 63 0 70 2 70 20 0 67 -66 108 -126 78z m86 -37 c15 -30 14
-31 -45 -31 -57 0 -66 8 -39 34 22 23 71 20 84 -3z"/>
<path d="M26090 5306 c0 -12 12 -16 51 -16 66 0 62 24 -4 28 -37 2 -47 0 -47
-12z"/>
<path d="M18742 2519 c3 -108 4 -111 32 -136 25 -22 37 -25 79 -20 80 7 91 26
95 157 4 106 3 110 -17 110 -20 0 -21 -5 -21 -104 0 -97 -2 -106 -22 -120 -12
-9 -32 -16 -43 -16 -11 0 -31 7 -43 16 -20 14 -22 23 -22 120 0 99 -1 104 -21
104 -20 0 -21 -4 -17 -111z"/>
<path d="M19661 2604 c-24 -31 -24 -31 -7 -63 13 -23 11 -27 -15 -52 -36 -34
-38 -71 -4 -104 28 -29 63 -32 106 -9 29 14 32 14 51 -2 16 -16 21 -16 28 -4
7 10 3 21 -9 34 -16 15 -17 23 -8 43 9 19 8 26 -3 33 -10 6 -18 4 -23 -6 -8
-14 -11 -13 -28 2 -24 22 -24 36 1 59 25 23 26 57 2 78 -28 25 -67 21 -91 -9z
m73 -20 c7 -19 -11 -57 -26 -52 -19 7 -32 34 -25 52 8 21 43 21 51 0z m-12
-128 c26 -32 26 -35 9 -50 -34 -31 -81 -14 -81 30 0 21 23 54 38 54 4 0 19
-15 34 -34z"/>
<path d="M20020 2623 c-50 -18 -66 -75 -31 -107 10 -10 43 -24 72 -31 30 -8
59 -22 66 -31 18 -25 -1 -52 -41 -59 -38 -8 -70 6 -86 35 -12 23 -40 27 -40 6
0 -8 10 -27 23 -42 18 -20 35 -28 73 -31 43 -5 54 -2 82 22 38 32 42 66 9 99
-13 13 -41 26 -63 30 -42 8 -84 31 -84 46 0 18 33 40 61 40 19 0 38 -9 53 -25
23 -25 46 -33 46 -16 0 50 -79 86 -140 64z"/>
<path d="M19022 2544 c-46 -32 -20 -82 53 -99 35 -8 48 -24 33 -42 -16 -20
-66 -16 -78 7 -6 11 -16 17 -25 14 -20 -8 -2 -41 30 -56 33 -15 92 -2 106 23
21 40 4 67 -56 85 -40 13 -55 22 -53 33 4 22 66 27 74 7 8 -20 34 -21 34 -2 0
20 -39 46 -70 46 -14 0 -36 -7 -48 -16z"/>
<path d="M19209 2531 c-46 -46 -36 -135 18 -160 38 -17 69 -13 100 13 23 21
26 27 15 38 -12 11 -16 9 -29 -9 -21 -30 -67 -31 -87 -1 -9 12 -16 26 -16 30
0 5 31 8 68 8 38 0 71 3 74 6 11 10 -11 69 -33 87 -32 26 -76 22 -110 -12z
m101 -22 c15 -28 11 -31 -49 -27 -51 3 -51 3 -36 26 21 29 70 30 85 1z"/>
<path d="M19390 2460 c0 -93 1 -100 20 -100 18 0 20 7 20 75 0 62 3 76 19 84
10 6 21 7 25 3 9 -8 27 19 20 30 -8 13 -36 9 -56 -9 -17 -15 -18 -15 -18 0 0
10 -7 17 -15 17 -12 0 -15 -18 -15 -100z"/>
<path d="M20233 2536 c-24 -21 -28 -32 -28 -76 0 -44 4 -55 28 -76 15 -13 39
-24 52 -24 53 0 99 40 75 64 -7 7 -15 3 -26 -12 -27 -39 -94 -24 -94 20 0 16
9 18 71 18 l71 0 -7 33 c-14 71 -89 99 -142 53z m95 -18 c26 -26 13 -38 -38
-38 -34 0 -50 4 -50 13 0 21 22 37 50 37 14 0 31 -5 38 -12z"/>
<path d="M20420 2460 c0 -82 3 -100 15 -100 12 0 15 14 15 69 0 69 18 110 41
95 6 -3 16 1 23 11 10 14 17 2 46 -79 45 -126 55 -126 102 4 31 87 33 100 18
100 -12 0 -24 -20 -41 -70 -13 -38 -26 -70 -29 -70 -3 0 -16 31 -29 69 l-24
70 -41 -1 c-22 0 -47 -5 -53 -10 -9 -7 -13 -7 -13 1 0 6 -7 11 -15 11 -12 0
-15 -18 -15 -100z"/>
<path d="M20757 2549 c-28 -16 -49 -74 -41 -115 13 -71 100 -99 151 -48 21 21
23 28 12 35 -9 5 -21 1 -34 -11 -26 -24 -58 -26 -79 -4 -34 33 -20 44 54 44
69 0 70 1 70 26 0 57 -82 102 -133 73z m81 -31 c26 -26 13 -38 -38 -38 -54 0
-55 1 -40 31 12 22 59 26 78 7z"/>
<path d="M20930 2460 c0 -79 3 -100 14 -100 10 0 15 19 18 74 4 82 7 88 40 90
32 1 38 36 6 36 -13 0 -29 -5 -36 -12 -9 -9 -12 -9 -12 0 0 7 -7 12 -15 12
-12 0 -15 -18 -15 -100z"/>
<path d="M16260 1505 l0 -615 1585 0 1585 0 0 615 0 615 -1585 0 -1585 0 0
-615z m3120 0 l0 -565 -1535 0 -1535 0 0 565 0 565 1535 0 1535 0 0 -565z"/>
<path d="M16740 1550 c0 -96 2 -112 20 -130 41 -41 125 -38 160 7 17 22 20 40
20 129 0 86 -3 104 -15 104 -12 0 -15 -17 -15 -89 0 -49 -4 -101 -10 -115 -12
-33 -69 -45 -105 -22 -24 16 -25 21 -25 121 0 87 -3 105 -15 105 -12 0 -15
-19 -15 -110z"/>
<path d="M18030 1525 c0 -113 2 -135 15 -135 12 0 15 14 15 65 l0 65 70 0 70
0 0 -65 c0 -51 3 -65 15 -65 13 0 15 22 15 135 0 113 -2 135 -15 135 -12 0
-15 -13 -15 -55 l0 -55 -70 0 -70 0 0 55 c0 42 -3 55 -15 55 -13 0 -15 -22
-15 -135z"/>
<path d="M17833 1643 c-7 -3 -13 -15 -13 -28 0 -13 -6 -26 -12 -28 -10 -4 -10
-8 -2 -14 7 -4 13 -43 16 -86 4 -80 12 -97 51 -97 24 0 22 26 -3 33 -17 4 -20
14 -20 72 0 58 3 68 20 72 26 7 26 23 1 23 -14 0 -21 8 -23 28 -2 18 -8 27
-15 25z"/>
<path d="M17010 1570 c-22 -22 -26 -55 -8 -67 7 -4 33 -15 58 -24 32 -11 45
-21 45 -35 0 -25 -72 -34 -81 -10 -8 22 -36 20 -32 -1 9 -47 115 -56 139 -12
19 37 3 67 -44 80 -48 14 -72 32 -63 48 11 18 64 13 75 -6 8 -15 12 -16 23 -5
11 11 9 17 -11 33 -30 25 -76 24 -101 -1z"/>
<path d="M17200 1562 c-84 -84 21 -224 114 -151 14 11 26 25 26 30 0 14 -26
11 -40 -6 -19 -23 -66 -19 -84 7 -9 12 -16 26 -16 30 0 5 32 8 70 8 l70 0 0
29 c0 40 -28 71 -72 78 -32 5 -41 1 -68 -25z m104 -24 c15 -24 5 -30 -53 -26
l-52 3 17 23 c19 27 71 27 88 0z"/>
<path d="M17390 1490 c0 -82 3 -100 15 -100 12 0 15 15 15 75 0 64 3 76 20 85
11 6 24 8 29 6 10 -7 23 19 14 28 -11 11 -36 6 -55 -11 -17 -15 -18 -15 -18 0
0 10 -4 17 -10 17 -6 0 -10 -40 -10 -100z"/>
<path d="M17645 1579 c-34 -21 -46 -49 -21 -49 8 0 16 7 20 15 8 23 73 20 86
-4 12 -24 6 -28 -50 -37 -73 -12 -105 -66 -58 -98 27 -19 61 -20 91 -5 16 9
22 9 25 0 2 -6 11 -11 19 -11 14 0 15 13 10 86 -2 47 -9 90 -15 96 -15 15 -85
20 -107 7z m87 -115 c-6 -31 -23 -44 -57 -44 -58 0 -53 46 6 60 44 10 55 7 51
-16z"/>
<path d="M18323 1580 c-30 -12 -43 -41 -43 -92 0 -55 21 -85 64 -93 38 -8 90
14 100 40 10 28 6 99 -7 116 -27 35 -71 46 -114 29z m79 -37 c23 -20 24 -85 2
-107 -22 -23 -71 -20 -84 3 -15 29 -12 87 6 105 20 21 53 20 76 -1z"/>
<path d="M18490 1490 c0 -82 3 -100 15 -100 12 0 15 14 15 63 0 68 18 107 50
107 28 0 40 -31 40 -104 0 -52 3 -66 15 -66 12 0 15 15 15 73 0 78 9 97 46 97
28 0 34 -17 34 -101 0 -55 3 -69 15 -69 24 0 21 161 -3 183 -22 21 -52 22 -77
3 -16 -11 -23 -11 -47 3 -26 15 -30 15 -58 -1 -25 -14 -30 -15 -30 -3 0 8 -7
15 -15 15 -12 0 -15 -18 -15 -100z"/>
<path d="M18820 1562 c-42 -42 -42 -101 -1 -143 37 -37 79 -38 118 -4 23 20
25 26 13 34 -10 7 -18 4 -28 -10 -18 -27 -67 -25 -86 3 -9 12 -16 26 -16 30 0
5 32 8 70 8 l70 0 0 29 c0 40 -28 71 -72 78 -32 5 -41 1 -68 -25z m100 -23
c15 -28 11 -31 -49 -27 -51 3 -51 3 -36 26 21 29 70 30 85 1z"/>
<path d="M25048 1505 l-3 -615 1688 0 1687 0 0 615 0 615 -1685 0 -1685 0 -2
-615z m3322 0 l0 -565 -1639 0 -1639 0 -1 549 c-1 302 1 556 5 565 6 15 143
16 1640 16 l1634 0 0 -565z"/>
<path d="M25520 1525 c0 -128 1 -135 20 -135 18 0 20 7 20 61 l0 60 37 -3 c33
-3 42 -10 77 -60 25 -36 47 -58 59 -58 18 0 17 2 -4 38 -12 20 -31 46 -41 58
-22 25 -23 34 -4 34 21 0 46 39 46 71 0 48 -40 69 -131 69 l-79 0 0 -135z
m164 89 c38 -37 3 -74 -71 -74 l-53 0 0 45 0 45 54 0 c36 0 60 -5 70 -16z"/>
<path d="M26953 1645 c-53 -23 -56 -83 -4 -109 14 -8 43 -17 63 -21 47 -9 76
-39 62 -63 -27 -43 -109 -39 -129 6 -14 31 -49 30 -40 0 20 -68 133 -90 185
-38 46 46 15 100 -71 124 -71 20 -89 38 -64 66 26 29 78 26 103 -5 20 -25 42
-33 42 -16 0 23 -15 43 -41 56 -35 18 -64 18 -106 0z"/>
<path d="M26517 1643 c-4 -3 -7 -17 -7 -30 0 -14 -6 -23 -15 -23 -8 0 -15 -4
-15 -9 0 -5 7 -11 15 -15 11 -4 15 -23 15 -79 0 -43 5 -78 12 -85 17 -17 48
-15 48 3 0 8 -7 15 -15 15 -12 0 -15 15 -15 75 0 60 3 75 15 75 8 0 15 5 15
10 0 6 -7 10 -15 10 -10 0 -15 10 -15 30 0 29 -9 38 -23 23z"/>
<path d="M25820 1577 c-34 -17 -52 -55 -46 -101 9 -73 84 -109 139 -66 15 12
27 26 27 31 0 15 -26 10 -40 -7 -20 -23 -72 -14 -87 16 l-12 25 67 3 c37 2 71
7 75 11 15 15 -20 81 -48 91 -34 13 -45 12 -75 -3z m78 -29 c26 -26 13 -38
-38 -38 -34 0 -50 4 -50 13 0 21 22 37 50 37 14 0 31 -5 38 -12z"/>
<path d="M25990 1490 c0 -82 3 -100 15 -100 12 0 15 15 15 74 0 80 11 100 52
94 22 -3 23 -8 26 -85 2 -65 6 -83 17 -83 12 0 15 15 15 68 0 78 14 106 51
100 23 -3 24 -7 27 -85 2 -65 6 -83 17 -83 12 0 15 18 15 90 0 88 -1 91 -26
102 -22 10 -31 9 -56 -5 -28 -16 -32 -16 -48 -2 -21 19 -50 19 -78 -1 -20 -14
-22 -14 -22 0 0 9 -4 16 -10 16 -6 0 -10 -40 -10 -100z"/>
<path d="M26332 1580 c-35 -15 -57 -75 -43 -122 22 -71 90 -90 142 -39 23 23
29 38 29 71 0 33 -6 48 -29 71 -30 30 -58 35 -99 19z m82 -42 c34 -48 8 -118
-43 -118 -37 0 -54 21 -54 70 0 22 6 46 13 55 19 23 66 19 84 -7z"/>
<path d="M26623 1566 c-24 -21 -28 -32 -28 -76 0 -44 4 -55 28 -76 15 -13 41
-24 56 -24 28 0 81 33 81 51 0 15 -26 10 -40 -7 -20 -23 -72 -14 -87 16 l-12
25 72 5 c39 3 71 8 70 13 -2 4 -3 16 -3 27 0 31 -44 70 -79 70 -17 0 -42 -10
-58 -24z m95 -18 c26 -26 13 -38 -38 -38 -34 0 -50 4 -50 13 0 21 22 37 50 37
14 0 31 -5 38 -12z"/>
<path d="M27193 1580 c-30 -12 -43 -41 -43 -93 0 -65 25 -92 85 -92 38 0 51 5
67 25 18 23 19 25 3 28 -9 2 -24 -3 -34 -12 -24 -22 -68 -20 -81 3 -19 36 -12
41 61 41 l72 0 -7 33 c-11 59 -67 90 -123 67z m85 -47 c14 -23 14 -23 -42 -23
-39 0 -56 4 -56 13 0 41 72 48 98 10z"/>
<path d="M27360 1490 c0 -82 3 -100 15 -100 12 0 15 14 15 63 0 68 19 110 48
105 22 -4 22 26 1 30 -9 2 -24 -4 -33 -13 -14 -15 -16 -15 -16 -1 0 9 -7 16
-15 16 -12 0 -15 -18 -15 -100z"/>
<path d="M27470 1583 c0 -5 15 -48 34 -98 21 -55 40 -91 50 -93 9 -2 16 -1 16
2 0 3 16 48 35 101 28 79 32 96 19 93 -10 -2 -27 -32 -44 -77 -15 -41 -29 -70
-32 -65 -3 5 -15 39 -27 77 -14 41 -28 67 -37 67 -8 0 -14 -3 -14 -7z"/>
<path d="M27704 1578 c-27 -13 -44 -49 -44 -93 0 -47 8 -64 41 -80 42 -22 77
-18 107 12 25 25 25 28 8 31 -10 2 -23 -3 -28 -12 -12 -22 -61 -20 -81 2 -31
34 -21 42 53 42 63 0 70 2 70 20 0 67 -66 108 -126 78z m86 -37 c15 -30 14
-31 -45 -31 -57 0 -66 8 -39 34 22 23 71 20 84 -3z"/>
<path d="M27870 1490 c0 -82 3 -100 15 -100 12 0 15 14 15 63 0 68 19 110 48
105 22 -4 22 26 1 30 -9 2 -24 -4 -33 -13 -14 -15 -16 -15 -16 -1 0 9 -7 16
-15 16 -12 0 -15 -18 -15 -100z"/>
</g>
</svg>
