<svg xmlns="http://www.w3.org/2000/svg" width="543" height="512" fill="none"><path fill="#fff" d="M0 0h543v512H0z"/><path fill="#fff" d="M0 0h543v512H0z"/><path fill="#000" d="M337.057 150v-8.727h3.051c.608 0 1.109.105 1.504.315.395.207.689.487.882.84.194.349.29.737.29 1.163 0 .375-.067.685-.2.929a1.56 1.56 0 0 1-.52.579 2.365 2.365 0 0 1-.695.316v.085c.267.017.536.111.806.281.27.171.495.415.677.733.182.318.273.708.273 1.168 0 .437-.099.831-.298 1.18-.199.35-.513.627-.942.831-.429.205-.987.307-1.675.307h-3.153Zm1.057-.938h2.096c.691 0 1.181-.133 1.47-.4.293-.27.439-.597.439-.98a1.55 1.55 0 0 0-.226-.818 1.627 1.627 0 0 0-.643-.605c-.278-.154-.608-.231-.989-.231h-2.147v3.034Zm0-3.954h1.96c.318 0 .605-.063.861-.188.258-.125.463-.301.613-.528.154-.227.23-.494.23-.801 0-.384-.133-.709-.4-.976-.267-.27-.69-.405-1.27-.405h-1.994v2.898Zm7.617-3.835V150h-1.006v-8.727h1.006Zm5.967 6.051v-3.869h1.005V150h-1.005v-1.108h-.068a2.154 2.154 0 0 1-.716.848c-.324.23-.733.345-1.228.345-.409 0-.772-.089-1.09-.268a1.873 1.873 0 0 1-.75-.818c-.182-.367-.273-.829-.273-1.385v-4.159h1.005v4.09c0 .478.134.858.401 1.143.27.284.614.426 1.031.426.25 0 .505-.064.763-.192.261-.128.48-.324.656-.588.179-.264.269-.601.269-1.01Zm5.592 2.812c-.631 0-1.175-.139-1.632-.417a2.803 2.803 0 0 1-1.053-1.176c-.244-.506-.366-1.094-.366-1.765 0-.67.122-1.261.366-1.772a2.888 2.888 0 0 1 1.031-1.202c.444-.29.961-.435 1.552-.435.34 0 .677.057 1.009.171.333.113.635.298.908.554.273.253.49.588.652 1.005.162.418.243.932.243 1.543v.426h-5.045v-.869h4.022c0-.369-.074-.699-.221-.989a1.677 1.677 0 0 0-.622-.686 1.751 1.751 0 0 0-.946-.251c-.401 0-.748.099-1.04.298a1.96 1.96 0 0 0-.669.767 2.242 2.242 0 0 0-.235 1.014v.58c0 .494.086.913.256 1.257.173.341.413.601.72.78.307.176.664.264 1.07.264.264 0 .503-.037.716-.111.216-.077.402-.19.558-.341.156-.153.277-.344.362-.571l.972.273a2.16 2.16 0 0 1-.516.869c-.241.247-.54.441-.895.58a3.325 3.325 0 0 1-1.197.204Zm7.086-6.681v.852h-3.392v-.852h3.392Zm-2.403-1.569h1.006v6.239c0 .284.041.497.123.639a.641.641 0 0 0 .324.281c.134.046.274.069.422.069.111 0 .202-.006.273-.017l.17-.035.205.904a2.2 2.2 0 0 1-.75.119c-.284 0-.563-.061-.835-.183a1.659 1.659 0 0 1-.674-.558c-.176-.25-.264-.566-.264-.946v-6.512Zm6.505 8.25c-.591 0-1.109-.14-1.555-.422a2.856 2.856 0 0 1-1.04-1.18c-.247-.506-.371-1.097-.371-1.773 0-.681.124-1.277.371-1.785.25-.509.596-.904 1.04-1.185.446-.281.964-.422 1.555-.422s1.108.141 1.551.422c.446.281.793.676 1.04 1.185.25.508.375 1.104.375 1.785 0 .676-.125 1.267-.375 1.773a2.822 2.822 0 0 1-1.04 1.18c-.443.282-.96.422-1.551.422Zm0-.903c.449 0 .818-.115 1.108-.345.29-.23.504-.533.643-.908.14-.375.209-.781.209-1.219 0-.437-.069-.845-.209-1.223a2.061 2.061 0 0 0-.643-.916c-.29-.233-.659-.349-1.108-.349-.449 0-.818.116-1.108.349-.29.233-.504.539-.643.916-.14.378-.209.786-.209 1.223 0 .438.069.844.209 1.219.139.375.353.678.643.908.29.23.659.345 1.108.345Zm7.16.903c-.591 0-1.109-.14-1.555-.422a2.863 2.863 0 0 1-1.04-1.18c-.247-.506-.371-1.097-.371-1.773 0-.681.124-1.277.371-1.785.25-.509.597-.904 1.04-1.185.446-.281.964-.422 1.555-.422s1.108.141 1.551.422c.446.281.793.676 1.04 1.185.25.508.375 1.104.375 1.785 0 .676-.125 1.267-.375 1.773a2.822 2.822 0 0 1-1.04 1.18c-.443.282-.96.422-1.551.422Zm0-.903c.449 0 .818-.115 1.108-.345.29-.23.504-.533.644-.908.139-.375.208-.781.208-1.219 0-.437-.069-.845-.208-1.223a2.071 2.071 0 0 0-.644-.916c-.29-.233-.659-.349-1.108-.349-.449 0-.818.116-1.108.349-.29.233-.504.539-.643.916a3.518 3.518 0 0 0-.209 1.223c0 .438.07.844.209 1.219.139.375.353.678.643.908.29.23.659.345 1.108.345Zm7.348-5.778v.852h-3.392v-.852h3.392Zm-2.404-1.569h1.006v6.239c0 .284.041.497.124.639a.637.637 0 0 0 .324.281c.133.046.274.069.421.069.111 0 .202-.006.273-.017l.171-.035.204.904a2.178 2.178 0 0 1-.75.119c-.284 0-.562-.061-.835-.183a1.656 1.656 0 0 1-.673-.558c-.177-.25-.265-.566-.265-.946v-6.512Zm5.063 4.176V150h-1.006v-8.727h1.006v3.204h.085c.154-.338.384-.606.69-.805.31-.202.722-.303 1.236-.303.446 0 .837.09 1.172.269.335.176.595.447.78.814.187.363.281.826.281 1.389V150h-1.005v-4.091c0-.52-.135-.922-.405-1.206-.267-.287-.638-.43-1.113-.43-.329 0-.625.069-.886.209a1.53 1.53 0 0 0-.614.609c-.147.267-.221.591-.221.971Z"/><path fill="#D9D9D9" d="M221 231h100v50H221z"/><path fill="#000" d="M249.057 260v-8.727h2.949c.684 0 1.244.123 1.679.37.437.245.761.576.971.993.21.418.316.884.316 1.398 0 .514-.106.982-.316 1.402a2.337 2.337 0 0 1-.963 1.006c-.434.247-.991.37-1.67.37h-2.114v-.937h2.08c.468 0 .845-.081 1.129-.243.284-.162.49-.381.618-.656.13-.279.196-.592.196-.942a2.17 2.17 0 0 0-.196-.937 1.396 1.396 0 0 0-.622-.648c-.287-.159-.668-.239-1.142-.239h-1.858V260h-1.057Zm7.481 0v-6.545h1.005V260h-1.005Zm.511-7.636a.713.713 0 0 1-.507-.201.643.643 0 0 1-.209-.481c0-.188.07-.348.209-.482a.717.717 0 0 1 .507-.2c.196 0 .364.067.503.2a.639.639 0 0 1 .213.482.636.636 0 0 1-.213.481.7.7 0 0 1-.503.201Zm4.995 7.772c-.613 0-1.142-.145-1.585-.434a2.837 2.837 0 0 1-1.023-1.198c-.238-.508-.358-1.089-.358-1.743 0-.664.123-1.251.367-1.76.247-.511.591-.91 1.031-1.197.443-.29.96-.435 1.551-.435.461 0 .875.086 1.245.256.369.17.672.409.907.716.236.307.382.665.439 1.074h-1.005a1.562 1.562 0 0 0-.512-.793c-.261-.233-.613-.349-1.057-.349-.392 0-.735.102-1.031.307a2 2 0 0 0-.686.856c-.162.367-.243.797-.243 1.291 0 .506.08.946.239 1.321.162.375.389.666.682.874.295.207.642.311 1.039.311.262 0 .499-.045.712-.136a1.468 1.468 0 0 0 .857-1.006h1.005a2.329 2.329 0 0 1-1.304 1.777c-.363.179-.787.268-1.27.268Zm6.704 0c-.591 0-1.11-.14-1.556-.422a2.863 2.863 0 0 1-1.04-1.18c-.247-.506-.37-1.097-.37-1.773 0-.681.123-1.277.37-1.785.25-.509.597-.904 1.04-1.185.446-.281.965-.422 1.556-.422.59 0 1.107.141 1.551.422.446.281.792.676 1.039 1.185.25.508.375 1.104.375 1.785 0 .676-.125 1.267-.375 1.773a2.82 2.82 0 0 1-1.039 1.18c-.444.282-.961.422-1.551.422Zm0-.903c.448 0 .818-.115 1.107-.345.29-.23.505-.533.644-.908a3.48 3.48 0 0 0 .209-1.219c0-.437-.07-.845-.209-1.223a2.063 2.063 0 0 0-.644-.916c-.289-.233-.659-.349-1.107-.349-.449 0-.819.116-1.108.349-.29.233-.505.539-.644.916a3.518 3.518 0 0 0-.209 1.223c0 .438.07.844.209 1.219.139.375.354.678.644.908.289.23.659.345 1.108.345Zm7.859.767v-.767l2.88-3.153c.338-.37.617-.691.835-.964.219-.275.381-.534.486-.775.108-.244.162-.5.162-.767a1.42 1.42 0 0 0-.221-.797 1.44 1.44 0 0 0-.597-.52 1.936 1.936 0 0 0-.852-.183c-.336 0-.628.069-.878.209a1.434 1.434 0 0 0-.575.575 1.796 1.796 0 0 0-.201.869h-1.005c0-.511.118-.96.353-1.346.236-.387.557-.688.963-.904a2.903 2.903 0 0 1 1.377-.324c.511 0 .964.108 1.359.324.395.216.705.507.929.874.225.366.337.774.337 1.223 0 .321-.058.635-.175.942-.114.304-.312.643-.596 1.018-.282.372-.672.827-1.172 1.364l-1.961 2.096v.068h4.057V260h-5.505Zm9.004 0-2.387-8.727h1.074l1.824 7.108h.085l1.858-7.108h1.194l1.857 7.108h.086l1.824-7.108h1.073L291.713 260h-1.091l-1.926-6.955h-.068L286.702 260h-1.091Z"/><path fill="#D9D9D9" d="M221 132h100v50H221z"/><path fill="#000" d="M243.057 162v-8.727h5.267v.937h-4.21v2.949h3.937v.938h-3.937v2.965h4.278V162h-5.335Zm11.944-6.545a1.337 1.337 0 0 0-.622-1.006c-.363-.239-.809-.358-1.338-.358-.386 0-.724.062-1.014.187a1.617 1.617 0 0 0-.673.516 1.237 1.237 0 0 0-.239.746c0 .233.055.433.166.601.114.164.259.302.435.413.176.108.361.197.554.268.193.069.371.124.533.167l.886.238c.227.06.48.142.758.247.282.106.55.249.806.431.258.179.471.409.639.69.168.281.251.627.251 1.036 0 .471-.123.897-.37 1.278-.245.381-.603.683-1.074.908-.469.224-1.038.336-1.709.336-.625 0-1.166-.1-1.624-.302a2.587 2.587 0 0 1-1.073-.844 2.404 2.404 0 0 1-.439-1.257h1.091c.028.33.139.602.332.818a1.8 1.8 0 0 0 .741.477c.302.103.625.154.972.154.403 0 .766-.065 1.087-.196.321-.134.575-.318.762-.554a1.31 1.31 0 0 0 .282-.835c0-.29-.081-.526-.243-.708a1.786 1.786 0 0 0-.639-.443 6.667 6.667 0 0 0-.857-.298l-1.074-.307c-.682-.196-1.221-.476-1.619-.84-.398-.363-.597-.839-.597-1.427 0-.489.132-.915.397-1.279a2.64 2.64 0 0 1 1.073-.852 3.636 3.636 0 0 1 1.513-.307c.563 0 1.063.101 1.5.303a2.6 2.6 0 0 1 1.04.818c.259.347.395.74.409 1.181h-1.023Zm2.88 6.545v-8.727h2.949c.685 0 1.244.123 1.679.37.437.245.761.576.971.993.211.418.316.884.316 1.398 0 .514-.105.982-.316 1.402a2.337 2.337 0 0 1-.963 1.006c-.434.247-.991.37-1.67.37h-2.114v-.937h2.08c.469 0 .845-.081 1.129-.243.284-.162.49-.381.618-.656.131-.279.196-.592.196-.942 0-.349-.065-.662-.196-.937a1.396 1.396 0 0 0-.622-.648c-.287-.159-.668-.239-1.142-.239h-1.858V162h-1.057Zm10.413.119c-.563 0-1.064-.096-1.505-.289a2.59 2.59 0 0 1-1.044-.806 2.161 2.161 0 0 1-.417-1.206h1.074c.022.281.119.524.289.729.171.202.394.358.669.469.276.11.581.166.917.166.375 0 .707-.066.997-.196.29-.131.517-.313.682-.546a1.37 1.37 0 0 0 .247-.809c0-.321-.08-.604-.239-.848a1.58 1.58 0 0 0-.699-.58c-.307-.139-.682-.209-1.125-.209h-.699v-.937h.699c.347 0 .651-.063.912-.188a1.412 1.412 0 0 0 .844-1.329c0-.296-.065-.553-.196-.772a1.344 1.344 0 0 0-.554-.511 1.795 1.795 0 0 0-.835-.183c-.301 0-.586.055-.853.166-.264.108-.48.266-.647.473a1.23 1.23 0 0 0-.273.742h-1.023c.017-.458.155-.858.414-1.202a2.59 2.59 0 0 1 1.014-.81c.42-.193.882-.29 1.385-.29.54 0 1.003.11 1.389.329.386.215.683.501.891.856.207.355.311.739.311 1.151 0 .491-.13.91-.388 1.257a1.973 1.973 0 0 1-1.044.72v.068c.551.091.981.325 1.291.703.31.375.465.84.465 1.394 0 .474-.13.9-.388 1.278a2.625 2.625 0 0 1-1.049.886c-.443.216-.947.324-1.512.324Zm4.691-.119v-.767l2.881-3.153c.338-.37.617-.691.835-.964.219-.275.381-.534.486-.775.108-.244.162-.5.162-.767a1.413 1.413 0 0 0-.818-1.317 1.936 1.936 0 0 0-.852-.183c-.336 0-.628.069-.878.209a1.442 1.442 0 0 0-.576.575c-.133.247-.2.537-.2.869h-1.005c0-.511.117-.96.353-1.346.236-.387.557-.688.963-.904a2.903 2.903 0 0 1 1.377-.324c.511 0 .964.108 1.359.324.395.216.705.507.929.874.224.366.337.774.337 1.223 0 .321-.059.635-.175.942-.114.304-.313.643-.597 1.018-.281.372-.671.827-1.171 1.364l-1.961 2.096v.068h4.057V162h-5.506Zm11.033-4.832v.937H280.2v-.937h3.818Zm6.679-1.713a1.34 1.34 0 0 0-.622-1.006c-.364-.239-.81-.358-1.338-.358-.387 0-.725.062-1.015.187a1.617 1.617 0 0 0-.673.516 1.237 1.237 0 0 0-.239.746c0 .233.056.433.167.601.113.164.258.302.434.413.176.108.361.197.554.268.193.069.371.124.533.167l.886.238c.228.06.48.142.759.247.281.106.549.249.805.431.259.179.472.409.639.69.168.281.252.627.252 1.036a2.3 2.3 0 0 1-.371 1.278c-.244.381-.602.683-1.074.908-.469.224-1.038.336-1.709.336-.625 0-1.166-.1-1.623-.302a2.583 2.583 0 0 1-1.074-.844 2.404 2.404 0 0 1-.439-1.257h1.091c.028.33.139.602.332.818.196.213.443.372.742.477.301.103.625.154.971.154.404 0 .766-.065 1.087-.196.321-.134.575-.318.763-.554.187-.239.281-.517.281-.835 0-.29-.081-.526-.243-.708a1.786 1.786 0 0 0-.639-.443 6.614 6.614 0 0 0-.857-.298l-1.073-.307c-.682-.196-1.222-.476-1.62-.84-.397-.363-.596-.839-.596-1.427 0-.489.132-.915.396-1.279.267-.366.625-.65 1.074-.852a3.636 3.636 0 0 1 1.513-.307c.562 0 1.062.101 1.5.303.437.199.784.472 1.039.818.259.347.395.74.409 1.181h-1.022Zm5.675 6.664c-.563 0-1.064-.096-1.504-.289a2.576 2.576 0 0 1-1.044-.806 2.162 2.162 0 0 1-.418-1.206h1.074c.022.281.119.524.29.729.17.202.393.358.669.469.275.11.581.166.916.166.375 0 .707-.066.997-.196.29-.131.517-.313.682-.546.165-.233.247-.502.247-.809 0-.321-.08-.604-.239-.848a1.58 1.58 0 0 0-.699-.58c-.306-.139-.681-.209-1.125-.209h-.698v-.937h.698c.347 0 .651-.063.912-.188a1.412 1.412 0 0 0 .844-1.329c0-.296-.065-.553-.196-.772a1.344 1.344 0 0 0-.554-.511 1.795 1.795 0 0 0-.835-.183c-.301 0-.585.055-.852.166a1.583 1.583 0 0 0-.648.473 1.23 1.23 0 0 0-.273.742h-1.023c.017-.458.155-.858.414-1.202a2.59 2.59 0 0 1 1.014-.81c.42-.193.882-.29 1.385-.29.54 0 1.003.11 1.389.329.386.215.683.501.891.856.207.355.311.739.311 1.151 0 .491-.129.91-.388 1.257a1.973 1.973 0 0 1-1.044.72v.068c.551.091.982.325 1.291.703.31.375.465.84.465 1.394 0 .474-.13.9-.388 1.278a2.629 2.629 0 0 1-1.048.886c-.444.216-.948.324-1.513.324Z"/><path fill="#D9D9D9" d="M406 132h100v50H406z"/><path fill="#000" d="M437.08 156h-1.057a2.208 2.208 0 0 0-.891-1.381 2.405 2.405 0 0 0-.729-.358 2.926 2.926 0 0 0-.835-.119c-.528 0-1.007.134-1.436.401-.426.267-.766.66-1.018 1.18-.25.52-.375 1.158-.375 1.913 0 .756.125 1.394.375 1.914.252.52.592.913 1.018 1.18.429.267.908.401 1.436.401.29 0 .568-.04.835-.12a2.44 2.44 0 0 0 .729-.353c.222-.159.409-.354.563-.584.156-.233.265-.5.328-.801h1.057c-.08.446-.225.845-.435 1.197a3.278 3.278 0 0 1-1.837 1.458 3.942 3.942 0 0 1-1.24.191c-.744 0-1.406-.181-1.986-.545-.579-.364-1.035-.881-1.368-1.551-.332-.671-.498-1.466-.498-2.387 0-.92.166-1.716.498-2.386.333-.67.789-1.188 1.368-1.551.58-.364 1.242-.546 1.986-.546.441 0 .854.064 1.24.192.389.128.74.316 1.053.563.312.244.574.542.784.895.21.349.355.748.435 1.197Zm4.23 6.136c-.591 0-1.109-.14-1.555-.422a2.856 2.856 0 0 1-1.04-1.18c-.247-.506-.371-1.097-.371-1.773 0-.681.124-1.277.371-1.785.25-.509.596-.904 1.04-1.185.446-.281.964-.422 1.555-.422s1.108.141 1.551.422c.446.281.793.676 1.04 1.185.25.508.375 1.104.375 1.785 0 .676-.125 1.267-.375 1.773a2.822 2.822 0 0 1-1.04 1.18c-.443.282-.96.422-1.551.422Zm0-.903c.449 0 .818-.115 1.108-.345.29-.23.504-.533.643-.908.14-.375.209-.781.209-1.219 0-.437-.069-.845-.209-1.223a2.061 2.061 0 0 0-.643-.916c-.29-.233-.659-.349-1.108-.349-.449 0-.818.116-1.108.349-.29.233-.504.539-.643.916-.14.378-.209.786-.209 1.223 0 .438.069.844.209 1.219.139.375.353.678.643.908.29.23.659.345 1.108.345Zm5.507-3.171V162h-1.006v-6.545h.972v1.022h.085c.153-.332.386-.599.699-.801.312-.204.716-.307 1.21-.307.443 0 .831.091 1.163.273.333.179.591.452.776.818.185.364.277.824.277 1.381V162h-1.006v-4.091c0-.514-.133-.915-.4-1.202-.267-.289-.634-.434-1.1-.434-.321 0-.608.069-.861.209-.25.139-.447.342-.592.609-.145.267-.217.591-.217.971Zm8.86-2.607v.852h-3.392v-.852h3.392Zm-2.403-1.569h1.005v6.239c0 .284.042.497.124.639a.637.637 0 0 0 .324.281c.133.046.274.069.422.069.111 0 .201-.006.273-.017l.17-.035.205.904a2.246 2.246 0 0 1-.75.119c-.285 0-.563-.061-.836-.183a1.656 1.656 0 0 1-.673-.558c-.176-.25-.264-.566-.264-.946v-6.512ZM457.19 162v-6.545h.972v.988h.068c.119-.324.335-.586.647-.788a1.906 1.906 0 0 1 1.057-.303 10.862 10.862 0 0 1 .529.017v1.023a3.377 3.377 0 0 0-.235-.038 2.284 2.284 0 0 0-.379-.03c-.318 0-.602.067-.852.2a1.468 1.468 0 0 0-.801 1.334V162h-1.006Zm6.925.136c-.591 0-1.11-.14-1.556-.422a2.861 2.861 0 0 1-1.039-1.18c-.248-.506-.371-1.097-.371-1.773 0-.681.123-1.277.371-1.785.25-.509.596-.904 1.039-1.185.446-.281.965-.422 1.556-.422.591 0 1.108.141 1.551.422.446.281.792.676 1.04 1.185.25.508.375 1.104.375 1.785 0 .676-.125 1.267-.375 1.773a2.829 2.829 0 0 1-1.04 1.18c-.443.282-.96.422-1.551.422Zm0-.903c.449 0 .818-.115 1.108-.345.289-.23.504-.533.643-.908a3.48 3.48 0 0 0 .209-1.219c0-.437-.07-.845-.209-1.223a2.07 2.07 0 0 0-.643-.916c-.29-.233-.659-.349-1.108-.349-.449 0-.818.116-1.108.349-.29.233-.505.539-.644.916a3.518 3.518 0 0 0-.209 1.223c0 .438.07.844.209 1.219.139.375.354.678.644.908.29.23.659.345 1.108.345Zm5.506-7.96V162h-1.005v-8.727h1.005Zm2.848 0V162h-1.006v-8.727h1.006Zm4.586 8.863c-.63 0-1.174-.139-1.632-.417a2.808 2.808 0 0 1-1.052-1.176c-.245-.506-.367-1.094-.367-1.765 0-.67.122-1.261.367-1.772a2.888 2.888 0 0 1 1.031-1.202c.443-.29.96-.435 1.551-.435.341 0 .678.057 1.01.171.332.113.635.298.908.554.272.253.49.588.652 1.005.162.418.243.932.243 1.543v.426h-5.046v-.869h4.023c0-.369-.074-.699-.222-.989a1.67 1.67 0 0 0-.622-.686 1.746 1.746 0 0 0-.946-.251c-.4 0-.747.099-1.04.298a1.976 1.976 0 0 0-.669.767 2.254 2.254 0 0 0-.234 1.014v.58c0 .494.085.913.256 1.257.173.341.413.601.72.78a2.11 2.11 0 0 0 1.069.264c.265 0 .503-.037.716-.111a1.54 1.54 0 0 0 .559-.341c.156-.153.277-.344.362-.571l.971.273a2.158 2.158 0 0 1-.515.869 2.52 2.52 0 0 1-.895.58 3.326 3.326 0 0 1-1.198.204Zm4.24-.136v-6.545h.972v.988h.068c.12-.324.335-.586.648-.788a1.904 1.904 0 0 1 1.057-.303 10.862 10.862 0 0 1 .528.017v1.023a3.308 3.308 0 0 0-.234-.038c-.12-.02-.246-.03-.379-.03-.319 0-.603.067-.853.2a1.468 1.468 0 0 0-.801 1.334V162h-1.006Z"/><path fill="#D9D9D9" d="M221 33h100v50H221z"/><path fill="#000" d="M257.08 57h-1.057a2.21 2.21 0 0 0-.891-1.38 2.391 2.391 0 0 0-.729-.359 2.905 2.905 0 0 0-.835-.119c-.528 0-1.007.134-1.436.4-.426.268-.766.661-1.018 1.181-.25.52-.375 1.158-.375 1.913 0 .756.125 1.394.375 1.914.252.52.592.913 1.018 1.18.429.267.908.4 1.436.4.29 0 .568-.04.835-.119.267-.08.51-.197.729-.353a2.25 2.25 0 0 0 .563-.584c.156-.233.265-.5.328-.801h1.057c-.08.446-.225.845-.435 1.197-.21.352-.472.652-.784.9-.313.244-.664.43-1.053.558a3.92 3.92 0 0 1-1.24.191c-.744 0-1.406-.181-1.986-.545-.579-.364-1.035-.88-1.368-1.551-.332-.67-.498-1.466-.498-2.387 0-.92.166-1.716.498-2.386.333-.67.789-1.188 1.368-1.551.58-.364 1.242-.546 1.986-.546.441 0 .854.064 1.24.192.389.128.74.316 1.053.563.312.244.574.542.784.895.21.349.355.748.435 1.197Zm3.497 6.153c-.415 0-.791-.078-1.129-.234a1.941 1.941 0 0 1-.806-.686c-.198-.301-.298-.665-.298-1.091 0-.375.074-.679.222-.912a1.56 1.56 0 0 1 .592-.554c.247-.133.52-.233.818-.298.301-.068.604-.122.908-.162.398-.051.72-.09.967-.115.25-.029.432-.075.546-.14.116-.066.174-.18.174-.342v-.034c0-.42-.115-.747-.345-.98-.227-.233-.572-.35-1.035-.35-.48 0-.857.106-1.13.316-.272.21-.464.435-.575.673l-.954-.34c.17-.398.397-.708.681-.93.287-.224.6-.38.938-.468.341-.091.676-.137 1.006-.137.21 0 .451.026.724.077.276.048.541.15.797.303.258.153.473.384.643.694.171.31.256.725.256 1.245V63h-1.006v-.886h-.051a1.768 1.768 0 0 1-.341.456c-.159.161-.37.3-.635.413-.264.114-.586.17-.967.17Zm.153-.903c.398 0 .733-.078 1.006-.234a1.59 1.59 0 0 0 .835-1.385v-.92c-.042.05-.136.097-.281.14-.142.04-.307.075-.494.106a22.717 22.717 0 0 1-.963.128c-.262.034-.506.09-.733.166a1.267 1.267 0 0 0-.546.337c-.136.148-.204.35-.204.605 0 .35.129.614.388.793.261.176.592.264.992.264Zm4.683.75v-6.545h.971v1.022h.085c.137-.35.357-.62.661-.814.304-.196.669-.294 1.095-.294.432 0 .791.098 1.078.294.29.194.516.465.678.814h.068a1.91 1.91 0 0 1 .754-.805c.335-.202.737-.303 1.206-.303.585 0 1.064.184 1.436.55.372.364.559.93.559 1.7V63h-1.006v-4.38c0-.484-.132-.829-.396-1.036a1.47 1.47 0 0 0-.934-.311c-.46 0-.816.139-1.069.417-.253.276-.38.625-.38 1.049V63h-1.022v-4.483c0-.372-.121-.672-.362-.9-.242-.23-.553-.344-.934-.344-.261 0-.505.07-.733.208-.224.14-.406.333-.545.58a1.715 1.715 0 0 0-.205.848V63h-1.005Zm13.174.136c-.631 0-1.175-.139-1.632-.417a2.8 2.8 0 0 1-1.053-1.176c-.244-.506-.366-1.094-.366-1.765 0-.67.122-1.261.366-1.772a2.892 2.892 0 0 1 1.031-1.202c.443-.29.96-.435 1.551-.435a3.1 3.1 0 0 1 1.01.17 2.5 2.5 0 0 1 .908.555c.273.253.49.588.652 1.005.162.418.243.932.243 1.543v.426h-5.046v-.87h4.023c0-.368-.074-.698-.221-.988a1.673 1.673 0 0 0-.623-.686 1.741 1.741 0 0 0-.946-.251c-.4 0-.747.1-1.039.298-.29.196-.513.452-.669.767a2.244 2.244 0 0 0-.235 1.014v.58c0 .494.085.913.256 1.257.173.34.413.6.72.78a2.11 2.11 0 0 0 1.07.264c.264 0 .502-.037.716-.11.215-.078.402-.191.558-.342.156-.153.277-.343.362-.57l.972.272c-.103.33-.275.62-.516.87-.241.246-.54.44-.895.579a3.316 3.316 0 0 1-1.197.204Zm4.24-.136v-6.545h.971v.988h.068c.12-.324.336-.587.648-.788a1.908 1.908 0 0 1 1.057-.303c.074 0 .166.002.277.005.111.002.195.007.251.012v1.023a2.968 2.968 0 0 0-.234-.038 2.304 2.304 0 0 0-.379-.03 1.78 1.78 0 0 0-.852.2 1.47 1.47 0 0 0-.802 1.334V63h-1.005Zm6.391.153c-.415 0-.792-.078-1.13-.234a1.939 1.939 0 0 1-.805-.686c-.199-.301-.298-.665-.298-1.091 0-.375.074-.679.221-.912.148-.236.345-.42.593-.554.247-.133.52-.233.818-.298.301-.068.604-.122.908-.162.397-.051.72-.09.967-.115.25-.029.432-.075.545-.14.117-.066.175-.18.175-.342v-.034c0-.42-.115-.747-.345-.98-.227-.233-.573-.35-1.036-.35-.48 0-.856.106-1.129.316-.273.21-.464.435-.575.673l-.955-.34c.171-.398.398-.708.682-.93a2.55 2.55 0 0 1 .938-.468c.34-.091.676-.137 1.005-.137.21 0 .452.026.725.077.275.048.541.15.797.303.258.153.473.384.643.694.17.31.256.725.256 1.245V63h-1.006v-.886h-.051a1.768 1.768 0 0 1-.341.456 1.97 1.97 0 0 1-.635.413c-.264.114-.587.17-.967.17Zm.153-.903c.398 0 .733-.078 1.006-.234a1.597 1.597 0 0 0 .835-1.385v-.92c-.043.05-.136.097-.281.14-.142.04-.307.075-.495.106a22.013 22.013 0 0 1-.963.128c-.261.034-.505.09-.733.166a1.263 1.263 0 0 0-.545.337c-.136.148-.205.35-.205.605 0 .35.13.614.388.793.262.176.593.264.993.264Z"/><path fill="#D9D9D9" d="M406 33h100v50H406z"/><path fill="#000" d="m419.415 54.273 2.591 7.346h.102l2.591-7.346h1.108L422.602 63h-1.091l-3.204-8.727h1.108ZM427.03 63v-6.545h1.006V63h-1.006Zm.511-7.636a.715.715 0 0 1-.507-.2.645.645 0 0 1-.209-.482c0-.188.07-.348.209-.482a.715.715 0 0 1 .507-.2.7.7 0 0 1 .503.2.637.637 0 0 1 .213.482.638.638 0 0 1-.213.481.7.7 0 0 1-.503.2Zm4.808 7.772a2.566 2.566 0 0 1-1.445-.413c-.417-.278-.744-.67-.98-1.176-.235-.509-.353-1.11-.353-1.803 0-.687.118-1.284.353-1.79.236-.505.564-.896.985-1.171.42-.276.906-.414 1.457-.414.426 0 .763.071 1.01.213.25.14.44.299.571.478.134.176.237.32.311.434h.085v-3.221h1.006V63h-.972v-1.006h-.119c-.074.12-.179.27-.315.452-.137.179-.331.34-.584.482-.253.139-.589.208-1.01.208Zm.136-.903c.404 0 .745-.105 1.023-.315.279-.213.49-.508.635-.883.145-.377.217-.813.217-1.308 0-.488-.071-.916-.213-1.282a1.869 1.869 0 0 0-.63-.861c-.279-.208-.622-.311-1.032-.311-.426 0-.781.11-1.065.328-.281.216-.493.51-.635.882a3.51 3.51 0 0 0-.209 1.244c0 .466.071.89.213 1.27.145.378.358.68.64.904.284.221.636.332 1.056.332Zm7.59.903c-.631 0-1.175-.139-1.632-.417a2.8 2.8 0 0 1-1.053-1.176c-.244-.506-.366-1.094-.366-1.765 0-.67.122-1.261.366-1.772a2.887 2.887 0 0 1 1.032-1.202c.443-.29.96-.435 1.551-.435.341 0 .677.057 1.01.17.332.114.635.3.907.555.273.253.49.588.652 1.005.162.418.243.932.243 1.543v.426h-5.045v-.87h4.022c0-.368-.073-.698-.221-.988a1.67 1.67 0 0 0-.622-.686 1.744 1.744 0 0 0-.946-.251c-.401 0-.748.1-1.04.298-.29.196-.513.452-.669.767a2.257 2.257 0 0 0-.235 1.014v.58c0 .494.086.913.256 1.257.173.34.414.6.72.78.307.176.664.264 1.07.264.264 0 .503-.037.716-.11.216-.078.402-.191.558-.342.156-.153.277-.343.362-.57l.972.272c-.102.33-.274.62-.516.87-.241.246-.54.44-.895.579a3.316 3.316 0 0 1-1.197.204Zm6.899 0c-.591 0-1.109-.14-1.555-.422a2.861 2.861 0 0 1-1.04-1.18c-.247-.506-.371-1.096-.371-1.773 0-.681.124-1.277.371-1.785.25-.509.596-.904 1.04-1.185.446-.281.964-.422 1.555-.422s1.108.14 1.551.422a2.82 2.82 0 0 1 1.04 1.185c.25.508.375 1.104.375 1.785 0 .676-.125 1.267-.375 1.773-.247.506-.594.9-1.04 1.18-.443.282-.96.422-1.551.422Zm0-.903c.449 0 .818-.115 1.108-.345.29-.23.504-.533.643-.908.14-.375.209-.781.209-1.219 0-.437-.069-.845-.209-1.223a2.056 2.056 0 0 0-.643-.916c-.29-.233-.659-.35-1.108-.35-.449 0-.818.117-1.108.35-.29.233-.504.538-.643.916-.14.378-.209.786-.209 1.223 0 .438.069.844.209 1.22.139.374.353.677.643.907.29.23.659.345 1.108.345Zm12.785-5.778a1.336 1.336 0 0 0-.622-1.006c-.364-.239-.81-.358-1.338-.358-.386 0-.724.062-1.014.187a1.613 1.613 0 0 0-.673.516 1.23 1.23 0 0 0-.239.746c0 .233.055.433.166.6.114.165.259.303.435.414.176.108.361.197.554.268.193.069.37.124.532.167l.887.238c.227.06.48.142.758.247.282.106.55.249.806.43.258.18.471.41.639.691.167.281.251.627.251 1.036 0 .471-.123.897-.37 1.278-.245.38-.603.683-1.074.908-.469.224-1.039.336-1.709.336-.625 0-1.166-.1-1.624-.302a2.596 2.596 0 0 1-1.074-.844 2.41 2.41 0 0 1-.438-1.257h1.09c.029.33.14.602.333.818.196.213.443.372.741.477.301.103.625.154.972.154.403 0 .765-.066 1.087-.196.321-.134.575-.318.762-.554a1.31 1.31 0 0 0 .282-.835c0-.29-.081-.526-.243-.708a1.779 1.779 0 0 0-.64-.443 6.674 6.674 0 0 0-.856-.298l-1.074-.307c-.682-.196-1.222-.476-1.619-.84-.398-.363-.597-.839-.597-1.427 0-.489.132-.915.396-1.279.267-.366.625-.65 1.074-.852a3.628 3.628 0 0 1 1.513-.307c.563 0 1.063.101 1.5.303.438.199.784.472 1.04.818.258.347.395.74.409 1.18h-1.023Zm5.59 0v.852h-3.392v-.852h3.392Zm-2.403-1.569h1.005v6.239c0 .284.042.497.124.64.085.138.193.232.324.28.133.046.274.069.422.069.11 0 .201-.006.272-.017l.171-.035.204.904a2.035 2.035 0 0 1-.285.077 2.104 2.104 0 0 1-.465.042c-.284 0-.562-.06-.835-.183a1.658 1.658 0 0 1-.673-.558c-.176-.25-.264-.566-.264-.946v-6.512ZM466.862 63v-6.545h.971v.988h.069c.119-.324.335-.587.647-.788a1.908 1.908 0 0 1 1.057-.303c.074 0 .166.002.277.005.111.002.195.007.252.012v1.023a3.118 3.118 0 0 0-.235-.038 2.304 2.304 0 0 0-.379-.03 1.78 1.78 0 0 0-.852.2 1.47 1.47 0 0 0-.801 1.334V63h-1.006Zm7.01.136c-.631 0-1.175-.139-1.632-.417a2.8 2.8 0 0 1-1.053-1.176c-.244-.506-.366-1.094-.366-1.765 0-.67.122-1.261.366-1.772a2.892 2.892 0 0 1 1.031-1.202c.444-.29.961-.435 1.552-.435.34 0 .677.057 1.009.17a2.5 2.5 0 0 1 .908.555c.273.253.49.588.652 1.005.162.418.243.932.243 1.543v.426h-5.045v-.87h4.022c0-.368-.074-.698-.221-.988a1.677 1.677 0 0 0-.622-.686 1.744 1.744 0 0 0-.946-.251c-.401 0-.748.1-1.04.298-.29.196-.513.452-.669.767a2.244 2.244 0 0 0-.235 1.014v.58c0 .494.086.913.256 1.257.173.34.413.6.72.78.307.176.664.264 1.07.264.264 0 .503-.037.716-.11.216-.078.402-.191.558-.342.156-.153.277-.343.362-.57l.972.272c-.103.33-.274.62-.516.87-.241.246-.54.44-.895.579a3.316 3.316 0 0 1-1.197.204Zm6.166.017c-.415 0-.791-.078-1.129-.234a1.941 1.941 0 0 1-.806-.686c-.199-.301-.298-.665-.298-1.091 0-.375.074-.679.222-.912a1.56 1.56 0 0 1 .592-.554c.247-.133.52-.233.818-.298.301-.068.604-.122.908-.162.398-.051.72-.09.967-.115.25-.029.432-.075.546-.14.116-.066.174-.18.174-.342v-.034c0-.42-.115-.747-.345-.98-.227-.233-.572-.35-1.035-.35-.48 0-.857.106-1.13.316-.272.21-.464.435-.575.673l-.954-.34c.17-.398.397-.708.681-.93.287-.224.6-.38.938-.468.341-.091.676-.137 1.006-.137.21 0 .451.026.724.077.276.048.541.15.797.303.258.153.473.384.643.694.171.31.256.725.256 1.245V63h-1.006v-.886h-.051a1.768 1.768 0 0 1-.341.456c-.159.161-.37.3-.635.413-.264.114-.586.17-.967.17Zm.153-.903c.398 0 .733-.078 1.006-.234a1.59 1.59 0 0 0 .835-1.385v-.92c-.042.05-.136.097-.281.14-.142.04-.307.075-.494.106a22.717 22.717 0 0 1-.963.128c-.262.034-.506.09-.733.166a1.261 1.261 0 0 0-.546.337c-.136.148-.204.35-.204.605 0 .35.129.614.388.793.261.176.592.264.992.264Zm4.683.75v-6.545h.971v1.022h.085c.137-.35.357-.62.661-.814.304-.196.669-.294 1.095-.294.432 0 .791.098 1.078.294.29.194.516.465.678.814h.068a1.91 1.91 0 0 1 .754-.805c.335-.202.737-.303 1.206-.303.585 0 1.064.184 1.436.55.372.364.558.93.558 1.7V63h-1.005v-4.38c0-.484-.132-.829-.397-1.036a1.466 1.466 0 0 0-.933-.311c-.46 0-.816.139-1.069.417-.253.276-.38.625-.38 1.049V63h-1.022v-4.483c0-.372-.121-.672-.363-.9-.241-.23-.552-.344-.933-.344-.261 0-.505.07-.733.208-.224.14-.406.333-.545.58a1.704 1.704 0 0 0-.205.848V63h-1.005Z"/><path fill="#D9D9D9" d="M404 231h100v50H404z"/><path fill="#000" d="M432.057 260v-8.727h2.949c.684 0 1.244.123 1.679.37.437.245.761.576.971.993.21.418.316.884.316 1.398 0 .514-.106.982-.316 1.402a2.337 2.337 0 0 1-.963 1.006c-.434.247-.991.37-1.67.37h-2.114v-.937h2.08c.468 0 .845-.081 1.129-.243.284-.162.49-.381.618-.656.13-.279.196-.592.196-.942a2.17 2.17 0 0 0-.196-.937 1.396 1.396 0 0 0-.622-.648c-.287-.159-.668-.239-1.142-.239h-1.858V260h-1.057Zm7.481 0v-6.545h1.005V260h-1.005Zm.511-7.636a.713.713 0 0 1-.507-.201.643.643 0 0 1-.209-.481c0-.188.07-.348.209-.482a.717.717 0 0 1 .507-.2c.196 0 .364.067.503.2a.639.639 0 0 1 .213.482.636.636 0 0 1-.213.481.7.7 0 0 1-.503.201Zm4.995 7.772c-.613 0-1.142-.145-1.585-.434a2.837 2.837 0 0 1-1.023-1.198c-.238-.508-.358-1.089-.358-1.743 0-.664.123-1.251.367-1.76.247-.511.591-.91 1.031-1.197.443-.29.96-.435 1.551-.435.461 0 .875.086 1.245.256.369.17.672.409.907.716.236.307.382.665.439 1.074h-1.005a1.562 1.562 0 0 0-.512-.793c-.261-.233-.613-.349-1.057-.349-.392 0-.735.102-1.031.307a2 2 0 0 0-.686.856c-.162.367-.243.797-.243 1.291 0 .506.08.946.239 1.321.162.375.389.666.682.874.295.207.642.311 1.039.311.262 0 .499-.045.712-.136a1.468 1.468 0 0 0 .857-1.006h1.005a2.329 2.329 0 0 1-1.304 1.777c-.363.179-.787.268-1.27.268Zm6.704 0c-.591 0-1.11-.14-1.556-.422a2.863 2.863 0 0 1-1.04-1.18c-.247-.506-.37-1.097-.37-1.773 0-.681.123-1.277.37-1.785.25-.509.597-.904 1.04-1.185.446-.281.965-.422 1.556-.422.59 0 1.107.141 1.551.422.446.281.792.676 1.039 1.185.25.508.375 1.104.375 1.785 0 .676-.125 1.267-.375 1.773a2.82 2.82 0 0 1-1.039 1.18c-.444.282-.961.422-1.551.422Zm0-.903c.448 0 .818-.115 1.107-.345.29-.23.505-.533.644-.908a3.48 3.48 0 0 0 .209-1.219c0-.437-.07-.845-.209-1.223a2.063 2.063 0 0 0-.644-.916c-.289-.233-.659-.349-1.107-.349-.449 0-.819.116-1.108.349-.29.233-.505.539-.644.916a3.518 3.518 0 0 0-.209 1.223c0 .438.07.844.209 1.219.139.375.354.678.644.908.289.23.659.345 1.108.345Zm7.859.767v-.767l2.88-3.153c.338-.37.617-.691.835-.964.219-.275.381-.534.486-.775.108-.244.162-.5.162-.767a1.42 1.42 0 0 0-.221-.797 1.44 1.44 0 0 0-.597-.52 1.936 1.936 0 0 0-.852-.183c-.336 0-.628.069-.878.209a1.434 1.434 0 0 0-.575.575 1.796 1.796 0 0 0-.201.869h-1.005c0-.511.118-.96.353-1.346.236-.387.557-.688.963-.904a2.903 2.903 0 0 1 1.377-.324c.511 0 .964.108 1.359.324.395.216.705.507.929.874.225.366.337.774.337 1.223 0 .321-.058.635-.175.942-.114.304-.312.643-.596 1.018-.282.372-.672.827-1.172 1.364l-1.961 2.096v.068h4.057V260h-5.505Zm9.004 0-2.387-8.727h1.074l1.824 7.108h.085l1.858-7.108h1.194l1.857 7.108h.086l1.824-7.108h1.073L474.713 260h-1.091l-1.926-6.955h-.068L469.702 260h-1.091Z"/><path fill="#D9D9D9" d="M38 281h100v50H38z"/><path fill="#000" d="M66.057 311v-8.727h1.057v3.886h4.653v-3.886h1.057V311h-1.057v-3.903h-4.653V311h-1.057Zm15.905-6h-1.056a2.194 2.194 0 0 0-.891-1.381 2.399 2.399 0 0 0-.729-.358 2.929 2.929 0 0 0-.835-.119c-.528 0-1.007.134-1.436.401-.426.267-.766.66-1.019 1.18-.25.52-.375 1.158-.375 1.913 0 .756.125 1.394.375 1.914.253.52.593.913 1.019 1.18.429.267.908.401 1.436.401.29 0 .568-.04.835-.12.267-.079.51-.197.729-.353a2.246 2.246 0 0 0 .89-1.385h1.057c-.08.446-.224.845-.434 1.197a3.274 3.274 0 0 1-1.837 1.458c-.386.127-.8.191-1.24.191-.744 0-1.406-.181-1.986-.545-.58-.364-1.035-.881-1.368-1.551-.332-.671-.498-1.466-.498-2.387 0-.92.166-1.716.498-2.386.333-.67.789-1.188 1.368-1.551.58-.364 1.242-.546 1.986-.546.44 0 .854.064 1.24.192.39.128.74.316 1.053.563a3.2 3.2 0 0 1 .784.895c.21.349.355.748.434 1.197Zm5.322 1.168v.937h-3.818v-.937h3.818Zm6.678-1.713a1.339 1.339 0 0 0-.622-1.006c-.363-.239-.81-.358-1.338-.358-.386 0-.724.062-1.014.187a1.619 1.619 0 0 0-.673.516c-.16.219-.239.467-.239.746 0 .233.055.433.166.601.114.164.259.302.435.413.176.108.36.197.554.268.193.069.37.124.532.167l.887.238c.227.06.48.142.758.247.282.106.55.249.806.431.258.179.471.409.639.69.168.281.251.627.251 1.036 0 .471-.123.897-.37 1.278-.245.381-.603.683-1.074.908-.469.224-1.039.336-1.709.336-.625 0-1.166-.1-1.624-.302a2.588 2.588 0 0 1-1.073-.844 2.408 2.408 0 0 1-.44-1.257h1.092c.028.33.139.602.332.818a1.8 1.8 0 0 0 .741.477c.302.103.625.154.972.154.403 0 .766-.065 1.087-.196.32-.134.575-.318.762-.554.188-.239.282-.517.282-.835 0-.29-.081-.526-.243-.708a1.785 1.785 0 0 0-.64-.443 6.623 6.623 0 0 0-.856-.298l-1.074-.307c-.682-.196-1.221-.476-1.62-.84-.397-.363-.596-.839-.596-1.427 0-.489.132-.915.397-1.279.267-.366.625-.65 1.073-.852a3.635 3.635 0 0 1 1.513-.307c.563 0 1.063.101 1.5.303a2.6 2.6 0 0 1 1.04.818c.259.347.395.74.41 1.181h-1.024Zm2.88 6.545v-8.727h2.949c.682 0 1.241.116 1.679.349.437.23.761.547.971.95.211.404.316.863.316 1.377s-.105.97-.316 1.368a2.22 2.22 0 0 1-.967.937c-.435.225-.99.337-1.666.337H97.42v-.955h2.353c.466 0 .841-.068 1.125-.204.287-.137.494-.33.622-.58a1.94 1.94 0 0 0 .196-.903c0-.35-.065-.655-.196-.916a1.338 1.338 0 0 0-.626-.605c-.287-.145-.667-.218-1.138-.218h-1.858V311h-1.057Zm4.108-3.92 2.148 3.92h-1.228l-2.113-3.92h1.193Zm3.21 2.13v-.869l3.835-6.068h.631v1.346h-.426l-2.898 4.586v.068h5.165v.937h-6.307Zm4.108 1.79v-8.727h1.005V311h-1.005Z"/><path fill="#D9D9D9" d="M38 381h100v50H38z"/><path fill="#000" d="M59.398 401.273h1.056v6.238c0 .557-.102 1.03-.306 1.419-.205.39-.493.685-.865.887-.373.201-.811.302-1.317.302-.477 0-.902-.086-1.274-.26a2.099 2.099 0 0 1-.878-.75c-.213-.323-.32-.708-.32-1.154h1.04c0 .247.061.463.183.647.125.182.296.324.512.426.216.103.461.154.737.154.304 0 .562-.064.776-.192.213-.128.375-.315.485-.562.114-.25.17-.556.17-.917v-6.238Zm9.14 2.727a3.074 3.074 0 0 0-.37-.771 2.385 2.385 0 0 0-.542-.588 2.266 2.266 0 0 0-.707-.371 2.825 2.825 0 0 0-.87-.128 2.59 2.59 0 0 0-1.41.401c-.423.267-.76.66-1.01 1.18-.25.52-.375 1.158-.375 1.913 0 .756.127 1.394.38 1.914.252.52.595.913 1.026 1.18.432.267.918.401 1.458.401.5 0 .94-.107 1.32-.32.384-.216.683-.52.896-.912.216-.395.324-.859.324-1.393l.323.068h-2.624v-.938h3.323v.938c0 .719-.153 1.344-.46 1.875a3.184 3.184 0 0 1-1.261 1.236c-.534.289-1.148.434-1.841.434-.773 0-1.452-.181-2.037-.545-.582-.364-1.037-.881-1.364-1.551-.323-.671-.486-1.466-.486-2.387 0-.69.093-1.311.277-1.862a4.134 4.134 0 0 1 .793-1.415c.341-.389.745-.687 1.21-.895a3.747 3.747 0 0 1 1.539-.311c.46 0 .889.07 1.287.209a3.462 3.462 0 0 1 1.858 1.483c.21.347.355.732.434 1.155h-1.09Zm3.04 6h-1.107l3.204-8.727h1.091L77.971 410h-1.108l-2.608-7.347h-.068L71.579 410Zm.41-3.409h4.466v.937h-4.466v-.937ZM79.177 410v-.767l2.88-3.153c.339-.37.617-.691.836-.964.219-.275.38-.534.486-.775.108-.244.161-.5.161-.767 0-.307-.073-.573-.221-.797a1.44 1.44 0 0 0-.597-.52 1.936 1.936 0 0 0-.852-.183c-.335 0-.628.069-.878.209a1.436 1.436 0 0 0-.575.575c-.134.247-.2.537-.2.869H79.21c0-.511.118-.96.354-1.346.235-.387.556-.688.963-.904.409-.216.868-.324 1.376-.324.511 0 .965.108 1.36.324.394.216.704.507.928.874.225.366.337.774.337 1.223 0 .321-.058.635-.175.942-.113.304-.312.643-.596 1.018-.281.372-.672.827-1.172 1.364l-1.96 2.096v.068h4.056V410h-5.505Zm9.993.119c-.5 0-.95-.099-1.351-.298a2.515 2.515 0 0 1-.963-.818 2.231 2.231 0 0 1-.396-1.185h1.022a1.4 1.4 0 0 0 .537.98c.321.256.705.384 1.15.384.359 0 .677-.084.955-.252.282-.167.502-.397.66-.69.163-.295.244-.629.244-1.001 0-.381-.084-.721-.252-1.019a1.843 1.843 0 0 0-.681-.711 1.922 1.922 0 0 0-.993-.265 2.73 2.73 0 0 0-.823.124 2.27 2.27 0 0 0-.694.32l-.99-.12.53-4.295h4.533v.937h-3.647l-.307 2.574h.051c.179-.142.403-.26.673-.354.27-.093.551-.14.844-.14a2.684 2.684 0 0 1 2.416 1.423c.242.44.362.943.362 1.509 0 .556-.125 1.054-.375 1.491a2.739 2.739 0 0 1-1.022 1.031 2.92 2.92 0 0 1-1.483.375Zm8.34-4.951v.937h-3.818v-.937h3.818Zm4.561 4.951c-.562 0-1.064-.096-1.504-.289a2.581 2.581 0 0 1-1.044-.806 2.162 2.162 0 0 1-.418-1.206h1.074c.023.281.119.524.29.729.17.202.393.358.669.469.275.11.581.166.916.166.375 0 .707-.066.997-.196.29-.131.517-.313.682-.546.165-.233.247-.502.247-.809 0-.321-.079-.604-.239-.848a1.582 1.582 0 0 0-.698-.58c-.307-.139-.682-.209-1.125-.209h-.699v-.937h.699c.346 0 .65-.063.912-.188a1.412 1.412 0 0 0 .843-1.329c0-.296-.065-.553-.196-.772a1.337 1.337 0 0 0-.554-.511 1.792 1.792 0 0 0-.835-.183c-.301 0-.585.055-.852.166-.264.108-.48.266-.648.473a1.237 1.237 0 0 0-.273.742h-1.022c.017-.458.154-.858.413-1.202a2.601 2.601 0 0 1 1.014-.81c.421-.193.882-.29 1.385-.29.54 0 1.003.11 1.389.329.387.215.684.501.891.856.207.355.311.739.311 1.151 0 .491-.129.91-.388 1.257a1.966 1.966 0 0 1-1.044.72v.068c.551.091.982.325 1.291.703.31.375.465.84.465 1.394 0 .474-.129.9-.388 1.278a2.629 2.629 0 0 1-1.048.886c-.443.216-.948.324-1.513.324Zm4.965-.119 3.903-7.722v-.068h-4.5v-.937h5.591v.988L108.143 410h-1.107Zm9.241.119c-.642 0-1.189-.174-1.64-.524-.452-.352-.797-.862-1.036-1.53-.238-.67-.358-1.48-.358-2.429 0-.943.12-1.748.358-2.416.242-.67.588-1.182 1.04-1.534.455-.355 1-.533 1.636-.533.637 0 1.181.178 1.632.533.455.352.802.864 1.04 1.534.242.668.362 1.473.362 2.416 0 .949-.119 1.759-.358 2.429-.238.668-.583 1.178-1.035 1.53-.452.35-.999.524-1.641.524Zm0-.937c.637 0 1.131-.307 1.483-.921.353-.613.529-1.488.529-2.625 0-.755-.081-1.399-.243-1.93-.159-.531-.389-.936-.691-1.215a1.523 1.523 0 0 0-1.078-.417c-.63 0-1.123.311-1.478.933-.355.619-.533 1.496-.533 2.629 0 .756.08 1.398.239 1.926.159.529.387.931.686 1.206a1.55 1.55 0 0 0 1.086.414Z"/><path fill="#D9D9D9" d="M405 331h100v50H405z"/><path fill="#000" d="M433.83 353.455a1.341 1.341 0 0 0-.623-1.006c-.363-.239-.809-.358-1.338-.358-.386 0-.724.062-1.014.187a1.617 1.617 0 0 0-.673.516 1.237 1.237 0 0 0-.239.746c0 .233.056.433.166.601.114.164.259.302.435.413.176.108.361.197.554.268.193.069.371.124.533.167l.886.238c.227.06.48.142.759.247.281.106.549.249.805.431.258.179.472.409.639.69.168.281.252.627.252 1.036a2.3 2.3 0 0 1-.371 1.278c-.244.381-.602.683-1.074.908-.469.224-1.038.336-1.709.336-.625 0-1.166-.1-1.623-.302a2.583 2.583 0 0 1-1.074-.844 2.404 2.404 0 0 1-.439-1.257h1.091c.028.33.139.602.332.818.196.213.443.372.742.477.301.103.625.154.971.154.404 0 .766-.065 1.087-.196.321-.134.575-.318.763-.554.187-.239.281-.517.281-.835 0-.29-.081-.526-.243-.708a1.786 1.786 0 0 0-.639-.443 6.614 6.614 0 0 0-.857-.298l-1.074-.307c-.681-.196-1.221-.476-1.619-.84-.398-.363-.597-.839-.597-1.427 0-.489.133-.915.397-1.279.267-.366.625-.65 1.074-.852a3.632 3.632 0 0 1 1.512-.307c.563 0 1.063.101 1.5.303.438.199.785.472 1.04.818.259.347.395.74.409 1.181h-1.022Zm2.402-1.245v-.937h6.545v.937h-2.744V360h-1.057v-7.79h-2.744Zm8.296 7.79 3.903-7.722v-.068h-4.5v-.937h5.591v.988L445.636 360h-1.108Zm7.09 0 3.903-7.722v-.068h-4.5v-.937h5.591v.988L452.725 360h-1.107Zm9.332.119c-.563 0-1.064-.096-1.504-.289a2.576 2.576 0 0 1-1.044-.806 2.162 2.162 0 0 1-.418-1.206h1.074c.023.281.119.524.29.729.17.202.393.358.669.469.275.11.581.166.916.166.375 0 .707-.066.997-.196.29-.131.517-.313.682-.546.165-.233.247-.502.247-.809 0-.321-.08-.604-.239-.848a1.582 1.582 0 0 0-.698-.58c-.307-.139-.682-.209-1.125-.209h-.699v-.937h.699c.346 0 .65-.063.911-.188a1.412 1.412 0 0 0 .844-1.329c0-.296-.065-.553-.196-.772a1.344 1.344 0 0 0-.554-.511 1.795 1.795 0 0 0-.835-.183c-.301 0-.585.055-.852.166a1.59 1.59 0 0 0-.648.473 1.23 1.23 0 0 0-.273.742h-1.022c.017-.458.154-.858.413-1.202a2.59 2.59 0 0 1 1.014-.81c.421-.193.882-.29 1.385-.29.54 0 1.003.11 1.389.329.387.215.683.501.891.856.207.355.311.739.311 1.151 0 .491-.129.91-.388 1.257a1.973 1.973 0 0 1-1.044.72v.068c.551.091.982.325 1.291.703.31.375.465.84.465 1.394 0 .474-.129.9-.388 1.278a2.629 2.629 0 0 1-1.048.886c-.443.216-.948.324-1.513.324Zm7.419 0c-.5 0-.95-.099-1.351-.298a2.523 2.523 0 0 1-.963-.818 2.23 2.23 0 0 1-.396-1.185h1.022c.04.395.219.722.537.98a1.79 1.79 0 0 0 1.151.384c.358 0 .676-.084.955-.252.281-.167.501-.397.66-.69.162-.295.243-.629.243-1.001a2.04 2.04 0 0 0-.252-1.019 1.84 1.84 0 0 0-.681-.711 1.923 1.923 0 0 0-.993-.265 2.738 2.738 0 0 0-.823.124 2.27 2.27 0 0 0-.694.32l-.989-.12.529-4.295h4.534v.937h-3.648l-.307 2.574h.051c.179-.142.404-.26.673-.354.27-.093.552-.14.844-.14a2.687 2.687 0 0 1 2.416 1.423c.242.44.363.943.363 1.509 0 .556-.125 1.054-.375 1.491a2.744 2.744 0 0 1-1.023 1.031c-.435.25-.929.375-1.483.375Zm9.227-5.199-.904.256a1.656 1.656 0 0 0-.251-.439 1.226 1.226 0 0 0-.443-.358c-.188-.093-.428-.14-.72-.14-.401 0-.735.092-1.002.277-.264.181-.396.413-.396.694 0 .25.091.448.273.593.182.144.466.265.852.362l.972.238c.585.142 1.021.36 1.308.652.287.29.43.664.43 1.121 0 .375-.108.71-.324 1.006a2.153 2.153 0 0 1-.895.699c-.383.17-.829.255-1.338.255-.667 0-1.22-.145-1.657-.434-.438-.29-.715-.713-.831-1.27l.954-.239c.091.352.263.617.516.793.256.176.589.264 1.001.264.469 0 .841-.099 1.117-.298.278-.202.417-.443.417-.725a.762.762 0 0 0-.238-.571c-.159-.156-.404-.272-.733-.349l-1.091-.256c-.6-.142-1.04-.362-1.321-.66-.279-.302-.418-.678-.418-1.13 0-.369.104-.696.311-.98.211-.284.496-.507.857-.669a3.006 3.006 0 0 1 1.236-.243c.647 0 1.156.142 1.525.426.372.285.637.66.793 1.125Z"/><path fill="#D9D9D9" d="M404 431h100v50H404z"/><path fill="#000" d="M426.83 453.455a1.341 1.341 0 0 0-.623-1.006c-.363-.239-.809-.358-1.338-.358-.386 0-.724.062-1.014.187a1.617 1.617 0 0 0-.673.516 1.237 1.237 0 0 0-.239.746c0 .233.056.433.166.601.114.164.259.302.435.413.176.108.361.197.554.268.193.069.371.124.533.167l.886.238c.227.06.48.142.759.247.281.106.549.249.805.431.258.179.472.409.639.69.168.281.252.627.252 1.036a2.3 2.3 0 0 1-.371 1.278c-.244.381-.602.683-1.074.908-.469.224-1.038.336-1.709.336-.625 0-1.166-.1-1.623-.302a2.583 2.583 0 0 1-1.074-.844 2.404 2.404 0 0 1-.439-1.257h1.091c.028.33.139.602.332.818.196.213.443.372.742.477.301.103.625.154.971.154.404 0 .766-.065 1.087-.196.321-.134.575-.318.763-.554.187-.239.281-.517.281-.835 0-.29-.081-.526-.243-.708a1.786 1.786 0 0 0-.639-.443 6.614 6.614 0 0 0-.857-.298l-1.074-.307c-.681-.196-1.221-.476-1.619-.84-.398-.363-.597-.839-.597-1.427 0-.489.133-.915.397-1.279.267-.366.625-.65 1.074-.852a3.632 3.632 0 0 1 1.512-.307c.563 0 1.063.101 1.5.303.438.199.785.472 1.04.818.259.347.395.74.409 1.181h-1.022Zm5.487 6.681c-.631 0-1.175-.139-1.632-.417a2.81 2.81 0 0 1-1.053-1.176c-.244-.506-.366-1.094-.366-1.765 0-.67.122-1.261.366-1.772a2.89 2.89 0 0 1 1.032-1.202c.443-.29.96-.435 1.551-.435.341 0 .677.057 1.01.171.332.113.635.298.907.554.273.253.491.588.652 1.005.162.418.243.932.243 1.543v.426h-5.045v-.869h4.023c0-.369-.074-.699-.222-.989a1.67 1.67 0 0 0-.622-.686 1.749 1.749 0 0 0-.946-.251c-.401 0-.747.099-1.04.298a1.96 1.96 0 0 0-.669.767 2.254 2.254 0 0 0-.234 1.014v.58c0 .494.085.913.255 1.257.174.341.414.601.721.78.306.176.663.264 1.069.264.264 0 .503-.037.716-.111.216-.077.402-.19.558-.341.157-.153.277-.344.362-.571l.972.273a2.149 2.149 0 0 1-.516.869 2.507 2.507 0 0 1-.894.58 3.334 3.334 0 0 1-1.198.204Zm5.246-4.074V460h-1.006v-6.545h.972v1.022h.085c.153-.332.386-.599.699-.801.312-.204.716-.307 1.21-.307.443 0 .831.091 1.163.273.333.179.591.452.776.818.185.364.277.824.277 1.381V460h-1.006v-4.091c0-.514-.133-.915-.4-1.202-.267-.289-.634-.434-1.1-.434-.321 0-.608.069-.86.209-.25.139-.448.342-.593.609-.145.267-.217.591-.217.971Zm10.65-1.142-.903.256a1.689 1.689 0 0 0-.252-.439 1.217 1.217 0 0 0-.443-.358c-.187-.093-.427-.14-.72-.14-.401 0-.734.092-1.002.277-.264.181-.396.413-.396.694 0 .25.091.448.273.593.182.144.466.265.852.362l.972.238c.585.142 1.021.36 1.308.652.287.29.43.664.43 1.121 0 .375-.108.71-.323 1.006a2.166 2.166 0 0 1-.895.699c-.384.17-.83.255-1.338.255-.668 0-1.221-.145-1.658-.434-.438-.29-.715-.713-.831-1.27l.954-.239c.091.352.263.617.516.793.256.176.59.264 1.002.264.468 0 .84-.099 1.116-.298.278-.202.418-.443.418-.725a.763.763 0 0 0-.239-.571c-.159-.156-.403-.272-.733-.349l-1.091-.256c-.599-.142-1.04-.362-1.321-.66-.278-.302-.418-.678-.418-1.13 0-.369.104-.696.312-.98.21-.284.495-.507.856-.669a3.01 3.01 0 0 1 1.236-.243c.648 0 1.156.142 1.525.426a2.3 2.3 0 0 1 .793 1.125Zm4.292 5.216c-.591 0-1.109-.14-1.555-.422a2.863 2.863 0 0 1-1.04-1.18c-.247-.506-.371-1.097-.371-1.773 0-.681.124-1.277.371-1.785.25-.509.597-.904 1.04-1.185.446-.281.964-.422 1.555-.422s1.108.141 1.551.422c.446.281.793.676 1.04 1.185.25.508.375 1.104.375 1.785 0 .676-.125 1.267-.375 1.773a2.822 2.822 0 0 1-1.04 1.18c-.443.282-.96.422-1.551.422Zm0-.903c.449 0 .819-.115 1.108-.345.29-.23.505-.533.644-.908a3.48 3.48 0 0 0 .209-1.219c0-.437-.07-.845-.209-1.223a2.063 2.063 0 0 0-.644-.916c-.289-.233-.659-.349-1.108-.349-.449 0-.818.116-1.108.349a2.07 2.07 0 0 0-.643.916 3.518 3.518 0 0 0-.209 1.223c0 .438.07.844.209 1.219.139.375.354.678.643.908.29.23.659.345 1.108.345Zm4.501.767v-6.545h.972v.988h.068c.119-.324.335-.586.648-.788a1.904 1.904 0 0 1 1.057-.303 10.862 10.862 0 0 1 .528.017v1.023a3.308 3.308 0 0 0-.234-.038c-.12-.02-.246-.03-.38-.03-.318 0-.602.067-.852.2a1.468 1.468 0 0 0-.801 1.334V460h-1.006Zm9.033-8.727V460h-1.056v-8.727h1.056Zm2.989 4.789V460h-1.006v-6.545h.972v1.022h.085c.153-.332.386-.599.699-.801.312-.204.716-.307 1.21-.307.443 0 .831.091 1.163.273.333.179.591.452.776.818.185.364.277.824.277 1.381V460h-1.006v-4.091c0-.514-.133-.915-.4-1.202-.267-.289-.634-.434-1.1-.434-.321 0-.608.069-.861.209-.25.139-.447.342-.592.609-.145.267-.217.591-.217.971Zm8.928-2.607v.852h-3.528v-.852h3.528ZM475.485 460v-7.449c0-.375.088-.687.264-.937.176-.25.405-.438.686-.563.281-.125.578-.187.891-.187.247 0 .449.02.605.059.156.04.272.077.349.111l-.29.869a5.595 5.595 0 0 0-.213-.064 1.313 1.313 0 0 0-.349-.038c-.332 0-.573.084-.72.252-.145.167-.218.413-.218.737V460h-1.005Zm6.27.136c-.591 0-1.109-.14-1.555-.422a2.863 2.863 0 0 1-1.04-1.18c-.247-.506-.371-1.097-.371-1.773 0-.681.124-1.277.371-1.785.25-.509.597-.904 1.04-1.185.446-.281.964-.422 1.555-.422s1.108.141 1.551.422c.446.281.793.676 1.04 1.185.25.508.375 1.104.375 1.785 0 .676-.125 1.267-.375 1.773a2.822 2.822 0 0 1-1.04 1.18c-.443.282-.96.422-1.551.422Zm0-.903c.449 0 .819-.115 1.108-.345.29-.23.505-.533.644-.908a3.48 3.48 0 0 0 .209-1.219c0-.437-.07-.845-.209-1.223a2.063 2.063 0 0 0-.644-.916c-.289-.233-.659-.349-1.108-.349-.449 0-.818.116-1.108.349a2.07 2.07 0 0 0-.643.916 3.518 3.518 0 0 0-.209 1.223c0 .438.07.844.209 1.219.139.375.354.678.643.908.29.23.659.345 1.108.345Z"/><path fill="#D9D9D9" d="M221 331h100v50H221z"/><path fill="#000" d="M253.057 360v-8.727h1.057v7.789h4.056V360h-5.113Zm6.596 0v-.767l2.881-3.153c.338-.37.617-.691.835-.964.219-.275.381-.534.486-.775.108-.244.162-.5.162-.767a1.413 1.413 0 0 0-.818-1.317 1.936 1.936 0 0 0-.852-.183c-.336 0-.628.069-.878.209a1.442 1.442 0 0 0-.576.575c-.133.247-.2.537-.2.869h-1.005c0-.511.117-.96.353-1.346.236-.387.557-.688.963-.904a2.903 2.903 0 0 1 1.377-.324c.511 0 .964.108 1.359.324.395.216.705.507.929.874.224.366.337.774.337 1.223 0 .321-.059.635-.175.942-.114.304-.313.643-.597 1.018-.281.372-.672.827-1.172 1.364l-1.96 2.096v.068h4.057V360h-5.506Zm10.044-8.847a3.12 3.12 0 0 1 1.074.205c.358.133.685.355.98.665.296.307.533.726.712 1.257.179.531.269 1.197.269 1.998 0 .776-.074 1.465-.222 2.067-.145.6-.355 1.105-.631 1.517a2.79 2.79 0 0 1-.997.938 2.704 2.704 0 0 1-1.321.319c-.489 0-.925-.096-1.308-.289a2.578 2.578 0 0 1-.938-.814 2.843 2.843 0 0 1-.464-1.215h1.04c.093.401.279.732.558.993.281.259.652.388 1.112.388.673 0 1.205-.294 1.594-.882.392-.588.588-1.419.588-2.493h-.068a2.697 2.697 0 0 1-.567.618 2.49 2.49 0 0 1-.729.4 2.547 2.547 0 0 1-.852.141c-.5 0-.959-.124-1.376-.371a2.81 2.81 0 0 1-.998-1.027c-.247-.437-.37-.937-.37-1.5 0-.534.119-1.023.358-1.466a2.76 2.76 0 0 1 1.014-1.065c.437-.264.952-.392 1.542-.384Zm0 .938c-.358 0-.68.089-.967.268-.284.177-.51.415-.677.716-.165.299-.248.63-.248.993 0 .364.08.695.239.993.162.296.382.531.661.707.281.174.6.26.958.26a1.817 1.817 0 0 0 1.364-.596c.176-.188.314-.399.413-.635.1-.239.149-.487.149-.746 0-.341-.082-.66-.247-.959a1.965 1.965 0 0 0-.673-.724 1.74 1.74 0 0 0-.972-.277Zm7.506 8.028c-.585 0-1.103-.103-1.551-.311a2.536 2.536 0 0 1-1.044-.865 2.172 2.172 0 0 1-.371-1.261 2.314 2.314 0 0 1 .822-1.811 1.86 1.86 0 0 1 .865-.405v-.051a1.69 1.69 0 0 1-.997-.703 2.13 2.13 0 0 1-.366-1.24c-.003-.444.109-.84.336-1.189.228-.35.54-.625.938-.827.4-.202.856-.303 1.368-.303.505 0 .957.101 1.355.303.398.202.71.477.937.827.23.349.347.745.35 1.189a2.163 2.163 0 0 1-.379 1.24 1.69 1.69 0 0 1-.985.703v.051c.316.057.6.192.852.405a2.379 2.379 0 0 1 .836 1.811 2.204 2.204 0 0 1-.384 1.261c-.25.367-.598.655-1.044.865-.443.208-.956.311-1.538.311Zm0-.937c.395 0 .736-.064 1.022-.192.287-.128.509-.308.665-.541.157-.233.236-.506.239-.818a1.569 1.569 0 0 0-.256-.874 1.72 1.72 0 0 0-.686-.596 2.153 2.153 0 0 0-.984-.218c-.372 0-.705.073-.997.218a1.72 1.72 0 0 0-.686.596 1.537 1.537 0 0 0-.243.874 1.43 1.43 0 0 0 .225.818c.157.233.38.413.67.541.289.128.633.192 1.031.192Zm0-4.142c.312 0 .589-.063.831-.188.244-.125.436-.299.575-.524.139-.224.21-.487.213-.788a1.453 1.453 0 0 0-.209-.772 1.354 1.354 0 0 0-.566-.511 1.85 1.85 0 0 0-.844-.183c-.327 0-.612.061-.857.183-.244.119-.433.29-.567.511a1.438 1.438 0 0 0-.196.772c-.002.301.064.564.201.788.139.225.331.399.575.524.244.125.526.188.844.188Zm11.673-3.767V360h-1.023l-4.756-6.852h-.085V360h-1.057v-8.727h1.023l4.773 6.869h.085v-6.869h1.04Z"/><path fill="#D9D9D9" d="M38 181h100v50H38z"/><path fill="#000" d="M70.114 202.273V211h-1.057v-8.727h1.057Zm9.04 0V211H78.13l-4.755-6.852h-.086V211h-1.056v-8.727h1.022l4.773 6.869h.085v-6.869h1.04ZM81.625 211h-1.108l3.204-8.727h1.091L88.018 211H86.91l-2.608-7.347h-.068L81.626 211Zm.409-3.409H86.5v.937h-4.466v-.937ZM89.224 211v-.767l2.88-3.153c.338-.37.617-.691.836-.964.218-.275.38-.534.485-.775.108-.244.162-.5.162-.767 0-.307-.074-.573-.221-.797a1.44 1.44 0 0 0-.597-.52 1.937 1.937 0 0 0-.852-.183c-.335 0-.628.069-.878.209a1.435 1.435 0 0 0-.575.575c-.134.247-.2.537-.2.869h-1.006c0-.511.118-.96.354-1.346.235-.387.556-.688.963-.904.409-.216.867-.324 1.376-.324.511 0 .965.108 1.36.324.394.216.704.507.928.874.225.366.337.774.337 1.223 0 .321-.058.635-.175.942-.113.304-.312.643-.596 1.018-.282.372-.672.827-1.172 1.364l-1.96 2.096v.068h4.056V211h-5.505Zm10.334-8.727V211H98.5v-7.619h-.051l-2.131 1.414v-1.073l2.182-1.449h1.056Zm5.288-.12a3.12 3.12 0 0 1 1.074.205c.358.133.684.355.98.665.295.307.533.726.712 1.257.178.531.268 1.197.268 1.998 0 .776-.074 1.465-.222 2.067-.145.6-.355 1.105-.63 1.517a2.798 2.798 0 0 1-.997.938 2.71 2.71 0 0 1-1.321.319c-.489 0-.925-.096-1.309-.289a2.575 2.575 0 0 1-.937-.814 2.832 2.832 0 0 1-.465-1.215h1.04c.094.401.28.732.558.993.282.259.652.388 1.113.388.673 0 1.204-.294 1.593-.882.392-.588.588-1.419.588-2.493h-.068a2.697 2.697 0 0 1-.567.618 2.472 2.472 0 0 1-.728.4 2.549 2.549 0 0 1-.853.141c-.5 0-.958-.124-1.376-.371a2.808 2.808 0 0 1-.997-1.027c-.247-.437-.371-.937-.371-1.5 0-.534.119-1.023.358-1.466.242-.446.58-.801 1.014-1.065.438-.264.952-.392 1.543-.384Zm0 .938c-.358 0-.681.089-.967.268-.285.177-.51.415-.678.716a2.02 2.02 0 0 0-.247.993c0 .364.079.695.238.993.162.296.383.531.661.707.281.174.601.26.959.26.27 0 .521-.052.754-.157a1.96 1.96 0 0 0 .609-.439c.177-.188.314-.399.414-.635.099-.239.149-.487.149-.746 0-.341-.082-.66-.247-.959a1.967 1.967 0 0 0-.674-.724 1.737 1.737 0 0 0-.971-.277ZM270.293 132.707a.999.999 0 0 0 1.414 0l6.364-6.364a.999.999 0 1 0-1.414-1.414L271 130.586l-5.657-5.657a.999.999 0 1 0-1.414 1.414l6.364 6.364Zm1.414-50.414a1 1 0 0 0-1.414 0l-6.364 6.364a1 1 0 1 0 1.414 1.414L271 84.414l5.657 5.657a1 1 0 1 0 1.414-1.414l-6.364-6.364ZM271 132h1V83h-2v49h1ZM454.293 431.707a.999.999 0 0 0 1.414 0l6.364-6.364a.999.999 0 1 0-1.414-1.414L455 429.586l-5.657-5.657a.999.999 0 1 0-1.414 1.414l6.364 6.364Zm1.414-51.414a.999.999 0 0 0-1.414 0l-6.364 6.364a.999.999 0 1 0 1.414 1.414l5.657-5.657 5.657 5.657a.999.999 0 1 0 1.414-1.414l-6.364-6.364ZM455 431h1v-50h-2v50h1ZM454.293 331.707a.999.999 0 0 0 1.414 0l6.364-6.364a.999.999 0 1 0-1.414-1.414L455 329.586l-5.657-5.657a.999.999 0 1 0-1.414 1.414l6.364 6.364Zm1.414-51.414a.999.999 0 0 0-1.414 0l-6.364 6.364a.999.999 0 1 0 1.414 1.414l5.657-5.657 5.657 5.657a.999.999 0 1 0 1.414-1.414l-6.364-6.364ZM455 331h1v-50h-2v50h1ZM404.707 256.707a.999.999 0 0 0 0-1.414l-6.364-6.364a.999.999 0 1 0-1.414 1.414l5.657 5.657-5.657 5.657a.999.999 0 1 0 1.414 1.414l6.364-6.364Zm-84.414-1.414a.999.999 0 0 0 0 1.414l6.364 6.364a.999.999 0 1 0 1.414-1.414L322.414 256l5.657-5.657a.999.999 0 1 0-1.414-1.414l-6.364 6.364ZM404 256v-1h-83v2h83v-1ZM406.707 58.707a1 1 0 0 0 0-1.414l-6.364-6.364a1 1 0 1 0-1.414 1.414L404.586 58l-5.657 5.657a1 1 0 1 0 1.414 1.414l6.364-6.364Zm-86.414-1.414a1 1 0 0 0 0 1.414l6.364 6.364a1 1 0 1 0 1.414-1.414L322.414 58l5.657-5.657a1 1 0 1 0-1.414-1.414l-6.364 6.364ZM406 58v-1h-85v2h85v-1ZM406.707 157.707a.999.999 0 0 0 0-1.414l-6.364-6.364a.999.999 0 1 0-1.414 1.414l5.657 5.657-5.657 5.657a.999.999 0 1 0 1.414 1.414l6.364-6.364Zm-86.414-1.414a.999.999 0 0 0 0 1.414l6.364 6.364a.999.999 0 1 0 1.414-1.414L322.414 157l5.657-5.657a.999.999 0 1 0-1.414-1.414l-6.364 6.364ZM406 157v-1h-85v2h85v-1ZM137.029 405.759a1 1 0 0 0 .73 1.212l8.735 2.167a1 1 0 0 0 .482-1.941l-7.765-1.927 1.927-7.764a1 1 0 0 0-1.941-.482l-2.168 8.735Zm84.942-49.518a1 1 0 0 0-.73-1.212l-8.735-2.167a1 1 0 0 0-.482 1.941l7.765 1.927-1.927 7.764a1 1 0 0 0 1.941.482l2.168-8.735ZM138 406l.516.857 83-50L221 356l-.516-.857-83 50L138 406ZM137.047 305.697a1 1 0 0 0 .65 1.256l8.579 2.723a1 1 0 1 0 .605-1.906l-7.625-2.421 2.42-7.625a1 1 0 1 0-1.906-.605l-2.723 8.578Zm84.906-42.394a1 1 0 0 0-.65-1.256l-8.579-2.723a1 1 0 1 0-.605 1.906l7.625 2.421-2.42 7.625a1 1 0 1 0 1.906.605l2.723-8.578ZM138 306l.46.888 83-43L221 263l-.46-.888-83 43 .46.888ZM221.241 256.971a1 1 0 0 0 .73-1.212l-2.168-8.735a1 1 0 1 0-1.941.482l1.927 7.764-7.765 1.927a1 1 0 1 0 .482 1.941l8.735-2.167Zm-83.482-51.942a1 1 0 0 0-.73 1.212l2.168 8.735a1 1 0 1 0 1.941-.482l-1.927-7.764 7.765-1.927a1 1 0 1 0-.482-1.941l-8.735 2.167ZM221 256l.516-.857-83-50L138 206l-.516.857 83 50L221 256ZM270.293 331.707a.999.999 0 0 0 1.414 0l6.364-6.364a.999.999 0 1 0-1.414-1.414L271 329.586l-5.657-5.657a.999.999 0 1 0-1.414 1.414l6.364 6.364Zm1.414-51.414a.999.999 0 0 0-1.414 0l-6.364 6.364a.999.999 0 1 0 1.414 1.414l5.657-5.657 5.657 5.657a.999.999 0 1 0 1.414-1.414l-6.364-6.364ZM271 331h1v-50h-2v50h1ZM270.293 230.707a.999.999 0 0 0 1.414 0l6.364-6.364a.999.999 0 1 0-1.414-1.414L271 228.586l-5.657-5.657a.999.999 0 1 0-1.414 1.414l6.364 6.364Zm1.414-50.414a.999.999 0 0 0-1.414 0l-6.364 6.364a.999.999 0 1 0 1.414 1.414l5.657-5.657 5.657 5.657a.999.999 0 1 0 1.414-1.414l-6.364-6.364ZM271 230h1v-49h-2v49h1ZM350.642 51l-2.386-8.727h1.074l1.823 7.108h.086l1.858-7.108h1.193l1.858 7.108h.085l1.824-7.108h1.074L356.744 51h-1.091l-1.926-6.955h-.068L351.733 51h-1.091Zm9.669 0v-6.545h1.006V51h-1.006Zm.511-7.636a.715.715 0 0 1-.507-.2.644.644 0 0 1-.208-.482c0-.188.069-.348.208-.482a.715.715 0 0 1 .507-.2.7.7 0 0 1 .503.2.637.637 0 0 1 .213.482.638.638 0 0 1-.213.481.7.7 0 0 1-.503.2Zm6.087 3.426v.937h-3.818v-.937h3.818Zm1.906 4.21v-8.727h5.233v.937h-4.177v2.95h3.785v.937h-3.785V51h-1.056Zm6.906 0v-6.545h1.006V51h-1.006Zm.512-7.636a.719.719 0 0 1-.508-.2.644.644 0 0 1-.208-.482c0-.188.069-.348.208-.482a.719.719 0 0 1 .508-.2c.196 0 .363.067.502.2a.638.638 0 0 1 .214.482.639.639 0 0 1-.214.481.698.698 0 0 1-.502.2ZM285.784 202.273h1.057v5.778c0 .597-.141 1.129-.422 1.598a2.954 2.954 0 0 1-1.18 1.104c-.509.267-1.105.4-1.79.4s-1.281-.133-1.79-.4a2.995 2.995 0 0 1-1.185-1.104 3.072 3.072 0 0 1-.417-1.598v-5.778h1.057v5.693c0 .426.093.805.281 1.138.187.329.454.589.801.78.349.187.767.281 1.253.281.486 0 .903-.094 1.253-.281.349-.191.616-.451.801-.78.187-.333.281-.712.281-1.138v-5.693Zm3.525 8.727h-1.108l3.205-8.727h1.091l3.204 8.727h-1.108l-2.608-7.347h-.068L289.309 211Zm.409-3.409h4.466v.937h-4.466v-.937Zm7.343 3.409v-8.727h2.949c.681 0 1.241.116 1.679.349.437.23.761.547.971.95.21.404.315.863.315 1.377s-.105.97-.315 1.368c-.21.397-.533.71-.967.937-.435.225-.99.337-1.666.337h-2.387v-.955h2.353c.465 0 .84-.068 1.125-.204a1.3 1.3 0 0 0 .622-.58c.13-.253.196-.554.196-.903 0-.35-.066-.655-.196-.916a1.336 1.336 0 0 0-.627-.605c-.287-.145-.666-.218-1.138-.218h-1.857V211h-1.057Zm4.108-3.92 2.147 3.92h-1.227l-2.114-3.92h1.194Zm3.09-3.87v-.937h6.546v.937h-2.745V211h-1.056v-7.79h-2.745ZM336.642 248l-2.386-8.727h1.074l1.823 7.108h.086l1.858-7.108h1.193l1.858 7.108h.085l1.824-7.108h1.074L342.744 248h-1.091l-1.926-6.955h-.068L337.733 248h-1.091Zm9.669 0v-6.545h1.006V248h-1.006Zm.511-7.636a.713.713 0 0 1-.507-.201.642.642 0 0 1-.208-.481c0-.188.069-.348.208-.482a.717.717 0 0 1 .507-.2c.196 0 .364.067.503.2a.639.639 0 0 1 .213.482.636.636 0 0 1-.213.481.7.7 0 0 1-.503.201Zm6.087 3.426v.937h-3.818v-.937h3.818Zm1.906 4.21v-8.727h5.233v.937h-4.177v2.949h3.785v.938h-3.785V248h-1.056Zm6.906 0v-6.545h1.006V248h-1.006Zm.512-7.636a.717.717 0 0 1-.508-.201.642.642 0 0 1-.208-.481c0-.188.069-.348.208-.482a.72.72 0 0 1 .508-.2.7.7 0 0 1 .502.2.64.64 0 0 1 .214.482.637.637 0 0 1-.214.481.697.697 0 0 1-.502.201Zm5.421-1.5-2.812 10.448h-.921l2.813-10.448h.92Zm.851 1.346v-.937h6.546v.937h-2.745V248h-1.056v-7.79h-2.745Zm14.836 1.79h-1.057a2.2 2.2 0 0 0-.89-1.381 2.405 2.405 0 0 0-.729-.358 2.926 2.926 0 0 0-.835-.119c-.529 0-1.007.134-1.436.401-.426.267-.766.66-1.019 1.18-.25.52-.375 1.158-.375 1.913 0 .756.125 1.394.375 1.914.253.52.593.913 1.019 1.18.429.267.907.401 1.436.401.29 0 .568-.04.835-.12a2.44 2.44 0 0 0 .729-.353 2.248 2.248 0 0 0 .89-1.385h1.057a3.509 3.509 0 0 1-.434 1.197 3.295 3.295 0 0 1-.784.899 3.435 3.435 0 0 1-1.053.559c-.386.127-.8.191-1.24.191-.744 0-1.406-.181-1.986-.545-.579-.364-1.035-.881-1.368-1.551-.332-.671-.498-1.466-.498-2.387 0-.92.166-1.716.498-2.386.333-.67.789-1.188 1.368-1.551.58-.364 1.242-.546 1.986-.546.44 0 .854.064 1.24.192.389.128.74.316 1.053.563.312.244.573.542.784.895.21.349.355.748.434 1.197Zm1.708 6v-8.727h2.949c.685 0 1.244.123 1.679.37.437.245.761.576.971.993.211.418.316.884.316 1.398 0 .514-.105.982-.316 1.402a2.337 2.337 0 0 1-.963 1.006c-.434.247-.991.37-1.67.37h-2.114v-.937h2.08c.469 0 .845-.081 1.129-.243.284-.162.49-.381.618-.656.131-.279.196-.592.196-.942 0-.349-.065-.662-.196-.937a1.396 1.396 0 0 0-.622-.648c-.287-.159-.668-.239-1.142-.239h-1.858V248h-1.057ZM465.83 304.455a1.341 1.341 0 0 0-.623-1.006c-.363-.239-.809-.358-1.338-.358-.386 0-.724.062-1.014.187a1.617 1.617 0 0 0-.673.516 1.237 1.237 0 0 0-.239.746c0 .233.056.433.166.601.114.164.259.302.435.413.176.108.361.197.554.268.193.069.371.124.533.167l.886.238c.227.06.48.142.759.247.281.106.549.249.805.431.258.179.472.409.639.69.168.281.252.627.252 1.036a2.3 2.3 0 0 1-.371 1.278c-.244.381-.602.683-1.074.908-.469.224-1.038.336-1.709.336-.625 0-1.166-.1-1.623-.302a2.583 2.583 0 0 1-1.074-.844 2.404 2.404 0 0 1-.439-1.257h1.091c.028.33.139.602.332.818.196.213.443.372.742.477.301.103.625.154.971.154.404 0 .766-.065 1.087-.196.321-.134.575-.318.763-.554.187-.239.281-.517.281-.835 0-.29-.081-.526-.243-.708a1.786 1.786 0 0 0-.639-.443 6.614 6.614 0 0 0-.857-.298l-1.074-.307c-.681-.196-1.221-.476-1.619-.84-.398-.363-.597-.839-.597-1.427 0-.489.133-.915.397-1.279.267-.366.625-.65 1.074-.852a3.632 3.632 0 0 1 1.512-.307c.563 0 1.063.101 1.5.303.438.199.785.472 1.04.818.259.347.395.74.409 1.181h-1.022Zm2.879 6.545v-8.727h2.949c.685 0 1.244.123 1.679.37.438.245.761.576.972.993.21.418.315.884.315 1.398 0 .514-.105.982-.315 1.402a2.349 2.349 0 0 1-.963 1.006c-.435.247-.992.37-1.671.37h-2.114v-.937h2.08c.469 0 .845-.081 1.129-.243.284-.162.49-.381.618-.656.131-.279.196-.592.196-.942 0-.349-.065-.662-.196-.937a1.396 1.396 0 0 0-.622-.648c-.287-.159-.668-.239-1.142-.239h-1.858V311h-1.057Zm8.674-8.727V311h-1.057v-8.727h1.057ZM280.75 112h-2.693v-8.727h2.812c.847 0 1.571.174 2.174.524a3.428 3.428 0 0 1 1.385 1.496c.321.647.481 1.423.481 2.326 0 .909-.162 1.692-.486 2.348a3.459 3.459 0 0 1-1.414 1.509c-.62.349-1.373.524-2.259.524Zm-1.636-.938h1.568c.721 0 1.319-.139 1.794-.417a2.58 2.58 0 0 0 1.061-1.189c.233-.514.349-1.126.349-1.837 0-.704-.115-1.311-.345-1.819a2.54 2.54 0 0 0-1.031-1.176c-.457-.276-1.027-.414-1.709-.414h-1.687v6.852Zm7.516-7.789 2.591 7.346h.102l2.591-7.346h1.108L289.817 112h-1.091l-3.204-8.727h1.108Zm7.751 8.727v-8.727h2.949c.685 0 1.244.123 1.679.37.437.245.761.576.971.993.211.418.316.884.316 1.398 0 .514-.105.982-.316 1.402a2.337 2.337 0 0 1-.963 1.006c-.434.247-.991.37-1.67.37h-2.114v-.937h2.08c.469 0 .845-.081 1.129-.243.284-.162.49-.381.618-.656.131-.279.196-.592.196-.942 0-.349-.065-.662-.196-.937a1.396 1.396 0 0 0-.622-.648c-.287-.159-.668-.239-1.142-.239h-1.858V112h-1.057ZM181.114 217.273V226h-1.057v-8.727h1.057Zm1.965 8.727v-.767l2.881-3.153c.338-.37.616-.691.835-.964.219-.275.381-.534.486-.775.108-.244.162-.5.162-.767a1.413 1.413 0 0 0-.818-1.317 1.938 1.938 0 0 0-.853-.183c-.335 0-.627.069-.877.209a1.436 1.436 0 0 0-.576.575c-.133.247-.2.537-.2.869h-1.006c0-.511.118-.96.354-1.346.236-.387.557-.688.963-.904a2.902 2.902 0 0 1 1.376-.324c.512 0 .965.108 1.36.324.395.216.704.507.929.874.224.366.336.774.336 1.223 0 .321-.058.635-.174.942-.114.304-.313.643-.597 1.018-.281.372-.672.827-1.172 1.364l-1.96 2.096v.068h4.057V226h-5.506Zm14.442-6h-1.057a2.2 2.2 0 0 0-.89-1.381 2.405 2.405 0 0 0-.729-.358 2.931 2.931 0 0 0-.835-.119c-.529 0-1.008.134-1.436.401-.427.267-.766.66-1.019 1.18-.25.52-.375 1.158-.375 1.913 0 .756.125 1.394.375 1.914.253.52.592.913 1.019 1.18.428.267.907.401 1.436.401.289 0 .568-.04.835-.12a2.44 2.44 0 0 0 .729-.353 2.248 2.248 0 0 0 .89-1.385h1.057a3.51 3.51 0 0 1-.435 1.197c-.21.352-.471.652-.784.899a3.418 3.418 0 0 1-1.052.559c-.387.127-.8.191-1.24.191-.745 0-1.407-.181-1.986-.545-.58-.364-1.036-.881-1.368-1.551-.332-.671-.499-1.466-.499-2.387 0-.92.167-1.716.499-2.386.332-.67.788-1.188 1.368-1.551.579-.364 1.241-.546 1.986-.546.44 0 .853.064 1.24.192.389.128.74.316 1.052.563.313.244.574.542.784.895.211.349.355.748.435 1.197ZM186.023 293a3.095 3.095 0 0 0-.371-.771 2.395 2.395 0 0 0-.541-.588 2.267 2.267 0 0 0-.708-.371 2.824 2.824 0 0 0-.869-.128c-.517 0-.987.134-1.41.401-.424.267-.76.66-1.01 1.18-.25.52-.375 1.158-.375 1.913 0 .756.126 1.394.379 1.914s.595.913 1.027 1.18c.432.267.918.401 1.457.401.5 0 .941-.107 1.321-.32.384-.216.682-.52.895-.912.216-.395.324-.859.324-1.393l.324.068h-2.625v-.938h3.324v.938c0 .719-.154 1.344-.46 1.875a3.185 3.185 0 0 1-1.262 1.236c-.534.289-1.148.434-1.841.434-.772 0-1.451-.181-2.037-.545-.582-.364-1.037-.881-1.363-1.551-.324-.671-.486-1.466-.486-2.387 0-.69.092-1.311.277-1.862a4.125 4.125 0 0 1 .793-1.415c.34-.389.744-.687 1.21-.895a3.744 3.744 0 0 1 1.538-.311c.46 0 .889.07 1.287.209a3.467 3.467 0 0 1 1.858 1.483c.21.347.355.732.435 1.155h-1.091Zm2.952 6v-8.727h2.949c.684 0 1.244.123 1.679.37.437.245.761.576.971.993.21.418.316.884.316 1.398 0 .514-.106.982-.316 1.402a2.337 2.337 0 0 1-.963 1.006c-.435.247-.991.37-1.67.37h-2.114v-.937h2.08c.468 0 .845-.081 1.129-.243.284-.162.49-.381.618-.656.13-.279.196-.592.196-.942a2.17 2.17 0 0 0-.196-.937 1.396 1.396 0 0 0-.622-.648c-.287-.159-.668-.239-1.142-.239h-1.858V299h-1.057Zm8.674-8.727V299h-1.057v-8.727h1.057Zm9.482 4.363c0 .921-.166 1.716-.498 2.387-.333.67-.789 1.187-1.368 1.551-.58.364-1.242.545-1.986.545s-1.406-.181-1.986-.545c-.579-.364-1.035-.881-1.368-1.551-.332-.671-.498-1.466-.498-2.387 0-.92.166-1.716.498-2.386.333-.67.789-1.188 1.368-1.551.58-.364 1.242-.546 1.986-.546s1.406.182 1.986.546c.579.363 1.035.881 1.368 1.551.332.67.498 1.466.498 2.386Zm-1.022 0c0-.755-.127-1.393-.38-1.913-.25-.52-.589-.913-1.018-1.18a2.64 2.64 0 0 0-1.432-.401c-.528 0-1.007.134-1.436.401-.426.267-.766.66-1.018 1.18-.25.52-.375 1.158-.375 1.913 0 .756.125 1.394.375 1.914.252.52.592.913 1.018 1.18.429.267.908.401 1.436.401a2.64 2.64 0 0 0 1.432-.401c.429-.267.768-.66 1.018-1.18.253-.52.38-1.158.38-1.914ZM282.023 305a3.095 3.095 0 0 0-.371-.771 2.395 2.395 0 0 0-.541-.588 2.267 2.267 0 0 0-.708-.371 2.824 2.824 0 0 0-.869-.128c-.517 0-.987.134-1.41.401-.424.267-.76.66-1.01 1.18-.25.52-.375 1.158-.375 1.913 0 .756.126 1.394.379 1.914s.595.913 1.027 1.18c.432.267.918.401 1.457.401.5 0 .941-.107 1.321-.32.384-.216.682-.52.895-.912.216-.395.324-.859.324-1.393l.324.068h-2.625v-.938h3.324v.938c0 .719-.154 1.344-.46 1.875a3.185 3.185 0 0 1-1.262 1.236c-.534.289-1.148.434-1.841.434-.772 0-1.451-.181-2.037-.545-.582-.364-1.037-.881-1.363-1.551-.324-.671-.486-1.466-.486-2.387 0-.69.092-1.311.277-1.862a4.125 4.125 0 0 1 .793-1.415c.34-.389.744-.687 1.21-.895a3.744 3.744 0 0 1 1.538-.311c.46 0 .889.07 1.287.209a3.467 3.467 0 0 1 1.858 1.483c.21.347.355.732.435 1.155h-1.091Zm2.952 6v-8.727h2.949c.684 0 1.244.123 1.679.37.437.245.761.576.971.993.21.418.316.884.316 1.398 0 .514-.106.982-.316 1.402a2.337 2.337 0 0 1-.963 1.006c-.435.247-.991.37-1.67.37h-2.114v-.937h2.08c.468 0 .845-.081 1.129-.243.284-.162.49-.381.618-.656.13-.279.196-.592.196-.942a2.17 2.17 0 0 0-.196-.937 1.396 1.396 0 0 0-.622-.648c-.287-.159-.668-.239-1.142-.239h-1.858V311h-1.057Zm8.674-8.727V311h-1.057v-8.727h1.057Zm9.482 4.363c0 .921-.166 1.716-.498 2.387-.333.67-.789 1.187-1.368 1.551-.58.364-1.242.545-1.986.545s-1.406-.181-1.986-.545c-.579-.364-1.035-.881-1.368-1.551-.332-.671-.498-1.466-.498-2.387 0-.92.166-1.716.498-2.386.333-.67.789-1.188 1.368-1.551.58-.364 1.242-.546 1.986-.546s1.406.182 1.986.546c.579.363 1.035.881 1.368 1.551.332.67.498 1.466.498 2.386Zm-1.022 0c0-.755-.127-1.393-.38-1.913-.25-.52-.589-.913-1.018-1.18a2.64 2.64 0 0 0-1.432-.401c-.528 0-1.007.134-1.436.401-.426.267-.766.66-1.018 1.18-.25.52-.375 1.158-.375 1.913 0 .756.125 1.394.375 1.914.252.52.592.913 1.018 1.18.429.267.908.401 1.436.401a2.64 2.64 0 0 0 1.432-.401c.429-.267.768-.66 1.018-1.18.253-.52.38-1.158.38-1.914Zm8.595 2.83v-5.625h.954v5.625h-.954Zm-2.335-2.335v-.955h5.625v.955h-5.625Zm11.2 3.869v-8.727h2.948c.685 0 1.245.123 1.679.37.438.245.762.576.972.993.21.418.315.884.315 1.398 0 .514-.105.982-.315 1.402a2.337 2.337 0 0 1-.963 1.006c-.435.247-.992.37-1.671.37h-2.113v-.937h2.079c.469 0 .846-.081 1.13-.243.284-.162.49-.381.618-.656.13-.279.196-.592.196-.942a2.17 2.17 0 0 0-.196-.937 1.398 1.398 0 0 0-.623-.648c-.287-.159-.667-.239-1.142-.239h-1.858V311h-1.056Zm9.202 0-2.386-8.727h1.073l1.824 7.108h.086l1.857-7.108h1.194l1.858 7.108h.085l1.824-7.108h1.074L334.873 311h-1.091l-1.926-6.955h-.068L329.862 311h-1.091Zm9.805-8.727h1.262l2.966 7.244h.102l2.966-7.244h1.261V311h-.988v-6.631h-.086L343.332 311h-.955l-2.727-6.631h-.085V311h-.989v-8.727ZM174.057 399v-8.727h1.057v3.886h4.653v-3.886h1.057V399h-1.057v-3.903h-4.653V399h-1.057Zm12.496-4.832v.937h-3.818v-.937h3.818Zm1.906 4.832v-8.727h3.051c.608 0 1.11.105 1.505.315.394.207.688.487.882.84.193.349.289.737.289 1.163 0 .375-.066.685-.2.929a1.56 1.56 0 0 1-.52.579 2.36 2.36 0 0 1-.694.316v.085c.267.017.535.111.805.281.27.171.496.415.678.733.181.318.272.708.272 1.168 0 .437-.099.831-.298 1.18-.199.35-.513.627-.942.831-.429.205-.987.307-1.674.307h-3.154Zm1.057-.938h2.097c.69 0 1.18-.133 1.47-.4.292-.27.439-.597.439-.98a1.56 1.56 0 0 0-.226-.818 1.63 1.63 0 0 0-.644-.605c-.278-.154-.608-.231-.988-.231h-2.148v3.034Zm0-3.954h1.96c.318 0 .605-.063.861-.188.259-.125.463-.301.614-.528a1.4 1.4 0 0 0 .23-.801c0-.384-.134-.709-.401-.976-.267-.27-.69-.405-1.27-.405h-1.994v2.898Zm6.611 4.892v-6.545h.972v.988h.068c.12-.324.335-.586.648-.788a1.904 1.904 0 0 1 1.057-.303 10.862 10.862 0 0 1 .528.017v1.023a3.308 3.308 0 0 0-.234-.038 2.292 2.292 0 0 0-.379-.03c-.319 0-.603.067-.853.2a1.468 1.468 0 0 0-.801 1.334V399h-1.006Zm4.465 0v-6.545h1.006V399h-1.006Zm.512-7.636a.713.713 0 0 1-.507-.201.64.64 0 0 1-.209-.481c0-.188.069-.348.209-.482a.717.717 0 0 1 .507-.2c.196 0 .363.067.503.2a.639.639 0 0 1 .213.482.636.636 0 0 1-.213.481.7.7 0 0 1-.503.201Zm4.808 7.772c-.546 0-1.027-.137-1.445-.413-.418-.278-.744-.67-.98-1.176-.236-.509-.354-1.109-.354-1.803 0-.687.118-1.284.354-1.789.236-.506.564-.897.984-1.172.421-.276.906-.414 1.458-.414.426 0 .762.071 1.01.213.25.14.44.299.571.478.133.176.237.321.311.434h.085v-3.221h1.006V399h-.972v-1.006h-.119a6.21 6.21 0 0 1-.316.452c-.136.179-.331.34-.583.482-.253.139-.59.208-1.01.208Zm.136-.903c.403 0 .744-.105 1.023-.315.278-.213.49-.507.635-.882.144-.378.217-.814.217-1.309 0-.488-.071-.916-.213-1.282-.142-.37-.352-.657-.631-.861-.278-.208-.622-.311-1.031-.311-.426 0-.781.109-1.065.328a1.96 1.96 0 0 0-.635.882c-.14.369-.209.784-.209 1.244 0 .466.071.889.213 1.27.145.378.358.679.639.904.284.221.636.332 1.057.332Zm7.487 3.358c-.486 0-.903-.063-1.253-.188a2.669 2.669 0 0 1-.873-.485 2.646 2.646 0 0 1-.55-.64l.801-.562c.091.119.206.256.345.409.14.156.33.291.571.405.245.116.564.175.959.175.529 0 .965-.128 1.308-.384.344-.256.516-.656.516-1.202v-1.329h-.085a5.36 5.36 0 0 1-.316.443 1.777 1.777 0 0 1-.579.464c-.25.134-.588.201-1.014.201a2.734 2.734 0 0 1-1.424-.375 2.633 2.633 0 0 1-.992-1.091c-.242-.477-.363-1.057-.363-1.739 0-.67.118-1.254.354-1.751.236-.5.564-.887.984-1.159.421-.276.907-.414 1.458-.414.426 0 .764.071 1.014.213.253.14.446.299.579.478.137.176.242.321.316.434h.102v-1.039h.972v6.733c0 .562-.128 1.019-.384 1.372a2.18 2.18 0 0 1-1.023.779c-.426.168-.9.252-1.423.252Zm-.034-3.597c.403 0 .744-.092 1.023-.277.278-.184.49-.45.635-.797.145-.346.217-.761.217-1.244 0-.471-.071-.888-.213-1.248a1.865 1.865 0 0 0-.631-.848c-.278-.205-.622-.307-1.031-.307-.426 0-.781.108-1.065.324a1.958 1.958 0 0 0-.635.869 3.366 3.366 0 0 0-.209 1.21c0 .455.071.857.213 1.206.145.347.358.619.639.818.284.196.637.294 1.057.294Zm7.449 1.142c-.631 0-1.175-.139-1.632-.417a2.803 2.803 0 0 1-1.053-1.176c-.244-.506-.366-1.094-.366-1.765 0-.67.122-1.261.366-1.772a2.883 2.883 0 0 1 1.032-1.202c.443-.29.96-.435 1.551-.435.341 0 .677.057 1.01.171.332.113.635.298.907.554.273.253.49.588.652 1.005.162.418.243.932.243 1.543v.426h-5.045v-.869h4.022c0-.369-.073-.699-.221-.989a1.67 1.67 0 0 0-.622-.686 1.749 1.749 0 0 0-.946-.251c-.401 0-.748.099-1.04.298a1.96 1.96 0 0 0-.669.767 2.255 2.255 0 0 0-.235 1.014v.58c0 .494.086.913.256 1.257.173.341.414.601.72.78.307.176.664.264 1.07.264.264 0 .503-.037.716-.111.216-.077.402-.19.558-.341.156-.153.277-.344.362-.571l.972.273a2.149 2.149 0 0 1-.516.869c-.241.247-.54.441-.895.58a3.325 3.325 0 0 1-1.197.204Z"/></svg>