<?xml version="1.0" standalone="no"?>
<!DOCTYPE svg PUBLIC "-//W3C//DTD SVG 20010904//EN"
 "http://www.w3.org/TR/2001/REC-SVG-20010904/DTD/svg10.dtd">
<svg version="1.0" xmlns="http://www.w3.org/2000/svg"
 width="1024.000000pt" height="570.000000pt" viewBox="0 0 1024.000000 570.000000"
 preserveAspectRatio="xMidYMid meet">
<metadata>
Created by potrace 1.16, written by Peter Selinger 2001-2019
</metadata>
<g transform="translate(0.000000,570.000000) scale(0.100000,-0.100000)"
fill="#000000" stroke="none">
<path d="M6460 5105 l0 -225 -600 0 -600 0 0 -364 0 -363 -31 -7 c-17 -3 -49
-6 -70 -6 l-39 0 0 70 0 70 -755 0 -755 0 0 -150 0 -150 -517 2 -518 3 -3 373
-2 372 -300 0 -300 0 0 225 0 225 -530 0 -530 0 0 -455 0 -455 530 0 530 0 2
223 3 222 293 3 292 2 0 -375 0 -375 525 0 525 0 0 -140 0 -140 -317 0 c-175
0 -544 -3 -821 -7 l-502 -6 0 226 0 227 -530 0 -530 0 0 -455 0 -455 530 0
530 0 0 219 c0 121 4 222 8 225 5 3 373 6 818 7 l809 1 3 -152 3 -153 -526 8
-525 7 0 -376 0 -376 -295 0 -295 0 0 225 0 225 -530 0 -530 0 0 -455 0 -455
530 0 530 0 2 223 3 222 297 3 298 2 2 372 3 371 305 -2 c168 0 401 -4 518 -8
l212 -6 0 -737 0 -737 -150 5 -150 5 0 -695 0 -695 -422 -6 c-232 -4 -601 -7
-820 -7 l-398 0 0 250 0 250 -680 0 -680 0 0 -455 0 -455 680 0 680 0 0 200 0
200 825 0 825 0 0 693 c0 382 2 696 4 698 2 2 68 3 145 1 l141 -3 0 -445 0
-444 755 0 755 0 2 457 3 458 535 -3 c294 -1 1168 -5 1943 -8 l1407 -6 0 -164
0 -164 -375 0 -375 0 0 -460 0 -460 680 0 680 0 0 460 0 460 -300 0 -300 0 0
169 0 169 -472 6 c-260 4 -1137 10 -1948 14 l-1475 7 -3 514 -2 514 1457 -6
c801 -4 1793 -7 2205 -7 l748 0 0 -30 0 -30 -260 0 -260 0 0 -460 0 -460 530
0 530 0 0 460 0 460 -260 0 -260 0 0 33 0 34 -632 6 c-347 4 -1129 7 -1737 7
-608 0 -1116 3 -1128 6 -21 6 -23 13 -23 65 0 62 -7 70 -33 41 -21 -23 -22
-39 -2 -22 13 11 15 6 15 -34 0 -46 0 -46 -35 -46 l-34 0 -3 61 -3 61 -20 -23
c-17 -19 -18 -22 -2 -16 15 5 17 0 17 -38 l0 -45 -64 0 -65 0 10 28 c20 57
-24 105 -79 87 -26 -8 -45 -60 -32 -85 14 -26 13 -30 -10 -30 -18 0 -20 7 -20
60 0 33 -4 60 -10 60 -6 0 -10 -27 -10 -60 l0 -60 -50 0 c-42 0 -50 3 -50 19
0 13 10 21 34 25 68 13 55 76 -15 76 l-39 0 0 -60 c0 -47 -3 -60 -15 -60 -10
0 -15 10 -15 30 0 25 -4 30 -25 30 -14 0 -25 -4 -25 -10 0 -5 9 -10 20 -10 26
0 26 -16 -1 -30 -16 -9 -26 -8 -45 5 -31 20 -32 59 -2 79 28 20 33 20 53 0 20
-20 33 -11 15 11 -17 21 -63 19 -83 -3 -20 -22 -22 -73 -5 -90 9 -9 -21 -12
-135 -12 l-147 0 0 175 0 175 1368 0 c752 0 1580 3 1840 7 l472 6 0 79 0 78
260 0 260 0 0 460 0 460 -530 0 -530 0 0 -460 0 -460 260 0 260 0 0 -75 0 -75
-1830 0 -1830 0 2 248 3 247 668 3 667 2 0 -225 0 -225 530 0 530 0 0 455 0
455 -530 0 -530 0 0 -225 0 -225 -670 0 -670 0 0 144 c0 164 -5 156 97 156
l53 0 2 368 3 367 593 3 592 2 0 -225 0 -225 530 0 530 0 0 455 0 455 -530 0
-530 0 0 -225z m1050 -230 l0 -445 -520 0 -520 0 0 445 0 445 520 0 520 0 0
-445z m-5550 -150 l0 -445 -520 0 -520 0 0 445 0 445 520 0 520 0 0 -445z
m7350 -795 l0 -440 -520 0 -520 0 0 440 0 440 520 0 520 0 0 -440z m-4200
-1305 l0 -1645 -745 0 -745 0 0 1645 0 1645 745 0 745 0 0 -1645z m2400 1200
l0 -445 -520 0 -520 0 0 445 0 445 520 0 520 0 0 -445z m-5550 -150 l0 -445
-520 0 -520 0 0 445 0 445 520 0 520 0 0 -445z m0 -1050 l0 -445 -520 0 -520
0 0 445 0 445 520 0 520 0 0 -445z m3822 418 c22 -20 23 -51 1 -75 -20 -22
-31 -23 -55 -1 -22 20 -23 51 -1 75 20 22 31 23 55 1z m-174 -10 c-2 -11 -14
-19 -31 -21 -22 -3 -27 1 -27 17 0 17 6 21 31 21 24 0 30 -4 27 -17z m4452
-633 l0 -440 -520 0 -520 0 0 440 0 440 520 0 520 0 0 -440z m-450 -1320 l0
-440 -670 0 -670 0 0 440 0 440 670 0 670 0 0 -440z m-7950 -555 l0 -445 -670
0 -670 0 0 445 0 445 670 0 670 0 0 -445z"/>
<path d="M6590 4985 c0 -37 4 -65 10 -65 6 0 10 11 10 25 0 19 5 25 21 25 33
0 59 19 59 44 0 27 -17 36 -66 36 l-34 0 0 -65z m83 39 c13 -14 -7 -34 -34
-34 -22 0 -29 5 -29 20 0 15 7 20 28 20 16 0 31 -3 35 -6z"/>
<path d="M6710 4970 c0 -27 5 -50 10 -50 6 0 10 18 10 40 0 27 6 42 18 49 14
9 13 10 -10 11 -27 0 -28 -2 -28 -50z"/>
<path d="M6782 5008 c-7 -7 -12 -24 -12 -38 0 -46 43 -67 70 -35 15 18 -1 20
-19 3 -10 -11 -15 -9 -27 7 -14 19 -13 20 20 23 20 2 36 9 36 16 0 17 -21 36
-40 36 -9 0 -21 -5 -28 -12z m46 -16 c2 -7 -6 -12 -17 -12 -21 0 -27 11 -14
24 9 9 26 2 31 -12z"/>
<path d="M6877 5013 c-15 -14 -5 -33 24 -49 24 -12 28 -18 18 -24 -7 -5 -21
-4 -32 2 -15 8 -18 7 -15 -4 3 -7 18 -13 34 -13 22 0 30 5 32 21 2 17 -5 24
-29 33 -25 8 -30 14 -21 23 8 8 15 8 27 -2 8 -7 19 -10 22 -6 9 9 -16 26 -38
26 -9 0 -19 -3 -22 -7z"/>
<path d="M6972 5008 c-7 -7 -12 -24 -12 -38 0 -46 43 -67 70 -35 15 18 -1 20
-19 3 -10 -11 -15 -9 -27 7 -14 19 -13 20 20 23 20 2 36 9 36 16 0 17 -21 36
-40 36 -9 0 -21 -5 -28 -12z m46 -16 c2 -7 -6 -12 -17 -12 -21 0 -27 11 -14
24 9 9 26 2 31 -12z"/>
<path d="M7060 4969 c0 -60 18 -65 22 -6 2 29 8 42 18 42 10 0 16 -13 18 -42
4 -54 22 -57 22 -4 0 44 -13 59 -52 59 -27 0 -28 -3 -28 -49z"/>
<path d="M7172 5008 c-7 -7 -12 -24 -12 -38 0 -48 49 -69 70 -30 13 24 2 27
-15 3 -11 -15 -15 -15 -29 -4 -20 17 -21 45 -1 61 12 10 19 10 27 2 17 -17 33
-15 18 3 -15 18 -42 19 -58 3z"/>
<path d="M7262 5008 c-7 -7 -12 -24 -12 -38 0 -46 43 -67 70 -35 15 18 -1 20
-19 3 -10 -11 -15 -9 -27 7 -14 19 -13 20 20 23 20 2 36 9 36 16 0 17 -21 36
-40 36 -9 0 -21 -5 -28 -12z m46 -16 c2 -7 -6 -12 -17 -12 -21 0 -27 11 -14
24 9 9 26 2 31 -12z"/>
<path d="M7267 4812 c-21 -23 -22 -39 -2 -22 13 11 15 6 15 -39 0 -28 5 -51
10 -51 6 0 10 28 10 65 0 68 -6 77 -33 47z"/>
<path d="M6657 4793 c-15 -14 -5 -33 24 -49 24 -12 28 -18 18 -24 -7 -5 -21
-4 -32 2 -15 8 -18 7 -15 -4 3 -7 18 -13 34 -13 22 0 30 5 32 21 2 17 -5 24
-29 33 -25 8 -30 14 -21 23 8 8 15 8 27 -2 8 -7 19 -10 22 -6 9 9 -16 26 -38
26 -9 0 -19 -3 -22 -7z"/>
<path d="M6752 4788 c-7 -7 -12 -24 -12 -38 0 -46 43 -67 70 -35 15 18 -1 20
-19 3 -10 -11 -15 -9 -27 7 -14 19 -13 20 20 23 20 2 36 9 36 16 0 17 -21 36
-40 36 -9 0 -21 -5 -28 -12z m46 -16 c2 -7 -6 -12 -17 -12 -21 0 -27 11 -14
24 9 9 26 2 31 -12z"/>
<path d="M6840 4749 c0 -60 18 -65 22 -6 2 29 8 42 18 42 10 0 16 -13 18 -42
4 -54 22 -57 22 -4 0 44 -13 59 -52 59 -27 0 -28 -3 -28 -49z"/>
<path d="M6947 4793 c-15 -14 -5 -33 24 -49 24 -12 28 -18 18 -24 -7 -5 -21
-4 -32 2 -15 8 -18 7 -15 -4 3 -7 18 -13 34 -13 22 0 30 5 32 21 2 17 -5 24
-29 33 -25 8 -30 14 -21 23 8 8 15 8 27 -2 8 -7 19 -10 22 -6 9 9 -16 26 -38
26 -9 0 -19 -3 -22 -7z"/>
<path d="M7041 4786 c-31 -37 9 -103 47 -80 36 23 23 94 -18 94 -10 0 -23 -6
-29 -14z m47 -8 c28 -28 -3 -83 -33 -58 -8 7 -15 20 -15 29 0 17 18 41 30 41
3 0 11 -5 18 -12z"/>
<path d="M7130 4750 c0 -27 5 -50 10 -50 6 0 10 18 10 40 0 27 6 42 18 49 14
9 13 10 -10 11 -27 0 -28 -2 -28 -50z"/>
<path d="M1227 4992 c-21 -23 -22 -39 -2 -22 13 11 15 6 15 -39 0 -28 5 -51
10 -51 6 0 10 28 10 65 0 68 -6 77 -33 47z"/>
<path d="M1550 5000 c0 -5 5 -10 10 -10 6 0 10 5 10 10 0 6 -4 10 -10 10 -5 0
-10 -4 -10 -10z"/>
<path d="M1372 4968 c-7 -7 -12 -24 -12 -38 0 -48 49 -69 70 -30 13 24 2 27
-15 3 -11 -15 -15 -15 -29 -4 -20 17 -21 45 -1 61 12 10 19 10 27 2 17 -17 33
-15 18 3 -15 18 -42 19 -58 3z"/>
<path d="M1461 4966 c-31 -37 9 -103 47 -80 36 23 23 94 -18 94 -10 0 -23 -6
-29 -14z m47 -8 c28 -28 -3 -83 -33 -58 -8 7 -15 20 -15 29 0 17 18 41 30 41
3 0 11 -5 18 -12z"/>
<path d="M1550 4930 c0 -27 5 -50 10 -50 6 0 10 23 10 50 0 28 -4 50 -10 50
-5 0 -10 -22 -10 -50z"/>
<path d="M1590 4929 c0 -60 18 -65 22 -6 2 29 8 42 18 42 10 0 16 -13 18 -42
4 -54 22 -57 22 -4 0 44 -13 59 -52 59 -27 0 -28 -3 -28 -49z"/>
<path d="M1300 4920 c0 -5 9 -10 20 -10 11 0 20 5 20 10 0 6 -9 10 -20 10 -11
0 -20 -4 -20 -10z"/>
<path d="M1081 4685 c1 -38 4 -58 6 -44 3 20 9 26 22 22 20 -5 51 21 51 43 0
33 -20 54 -50 52 l-30 -2 1 -71z m59 25 c0 -30 -21 -45 -39 -27 -23 23 -4 71
25 60 8 -3 14 -18 14 -33z"/>
<path d="M1182 4705 c1 -43 2 -45 5 -13 3 24 12 43 26 53 22 15 22 15 -6 13
-26 -2 -27 -5 -25 -53z"/>
<path d="M1246 4744 c-19 -18 -20 -38 -6 -65 13 -24 53 -25 71 -2 12 15 12 16
-6 9 -11 -4 -22 -8 -25 -8 -20 -2 -30 4 -30 17 0 10 11 15 35 15 38 0 40 2 25
31 -13 23 -43 25 -64 3z m54 -15 c0 -5 -11 -9 -25 -9 -26 0 -34 15 -12 23 16
5 37 -3 37 -14z"/>
<path d="M1340 4744 c-12 -14 -12 -18 5 -30 10 -8 25 -14 32 -14 7 0 13 -4 13
-9 0 -16 -21 -24 -33 -12 -17 17 -31 13 -17 -4 16 -19 44 -19 60 0 15 18 6 33
-28 46 -19 7 -22 13 -14 21 8 8 16 7 28 -3 15 -12 17 -12 12 1 -7 21 -42 24
-58 4z"/>
<path d="M1436 4744 c-19 -18 -20 -38 -6 -65 13 -24 53 -25 71 -2 12 15 12 16
-6 9 -11 -4 -22 -8 -25 -8 -20 -2 -30 4 -30 17 0 10 11 15 35 15 38 0 40 2 25
31 -13 23 -43 25 -64 3z m54 -15 c0 -5 -11 -9 -25 -9 -26 0 -34 15 -12 23 16
5 37 -3 37 -14z"/>
<path d="M1532 4706 c1 -41 2 -44 5 -16 9 71 49 76 56 7 4 -36 4 -35 3 8 -1
49 -1 50 -33 51 l-33 1 2 -51z"/>
<path d="M1628 4735 c-22 -49 25 -98 60 -63 19 19 14 33 -5 16 -25 -21 -43
-12 -43 22 0 30 21 45 39 27 13 -13 26 -3 16 12 -12 21 -55 12 -67 -14z"/>
<path d="M1726 4744 c-19 -18 -20 -38 -6 -65 13 -24 53 -25 71 -2 12 15 12 16
-6 9 -11 -4 -22 -8 -25 -8 -20 -2 -30 4 -30 17 0 10 11 15 35 15 38 0 40 2 25
31 -13 23 -43 25 -64 3z m54 -15 c0 -5 -11 -9 -25 -9 -26 0 -34 15 -12 23 16
5 37 -3 37 -14z"/>
<path d="M1180 4534 c-12 -14 -12 -18 5 -30 10 -8 25 -14 32 -14 7 0 13 -4 13
-9 0 -16 -21 -24 -33 -12 -17 17 -31 13 -17 -4 16 -19 44 -19 60 0 15 18 6 33
-28 46 -19 7 -22 13 -14 21 8 8 16 7 28 -3 15 -12 17 -12 12 1 -7 21 -42 24
-58 4z"/>
<path d="M1276 4534 c-19 -18 -20 -38 -6 -65 13 -24 53 -25 71 -2 12 15 12 16
-6 9 -11 -4 -22 -8 -25 -8 -20 -2 -30 4 -30 17 0 10 11 15 35 15 38 0 40 2 25
31 -13 23 -43 25 -64 3z m54 -15 c0 -5 -11 -9 -25 -9 -26 0 -34 15 -12 23 16
5 37 -3 37 -14z"/>
<path d="M1372 4496 c1 -41 2 -44 5 -16 9 71 49 76 56 7 4 -36 4 -35 3 8 -1
49 -1 50 -33 51 l-33 1 2 -51z"/>
<path d="M1470 4534 c-12 -14 -12 -18 5 -30 10 -8 25 -14 32 -14 7 0 13 -4 13
-9 0 -16 -21 -24 -33 -12 -17 17 -31 13 -17 -4 16 -19 44 -19 60 0 15 18 6 33
-28 46 -19 7 -22 13 -14 21 8 8 16 7 28 -3 15 -12 17 -12 12 1 -7 21 -42 24
-58 4z"/>
<path d="M1558 4525 c-15 -32 3 -75 31 -75 23 0 51 25 51 46 0 53 -61 75 -82
29z m62 -25 c0 -16 -6 -30 -12 -33 -24 -8 -38 5 -38 33 0 16 6 30 13 33 23 8
37 -5 37 -33z"/>
<path d="M1662 4495 c1 -43 2 -45 5 -13 3 24 12 43 26 53 22 15 22 15 -6 13
-26 -2 -27 -5 -25 -53z"/>
<path d="M8572 4043 c0 -37 3 -53 5 -35 6 46 41 39 72 -16 5 -9 13 -14 16 -10
4 4 0 17 -9 29 -14 21 -14 24 1 42 25 27 6 51 -46 55 l-41 3 2 -68z m67 48
c23 -15 5 -41 -29 -41 -25 0 -30 4 -30 25 0 19 5 25 23 25 12 0 28 -4 36 -9z"/>
<path d="M8991 4098 c-1 -10 -6 -18 -13 -18 -9 0 -9 -3 0 -12 7 -7 12 -29 12
-50 0 -29 4 -38 17 -38 13 0 14 3 5 12 -16 16 -16 78 1 78 8 0 9 3 1 8 -6 4
-14 14 -17 22 -4 12 -6 11 -6 -2z"/>
<path d="M8702 4068 c-7 -7 -12 -24 -12 -38 0 -46 43 -67 70 -35 15 18 -1 20
-19 3 -10 -11 -15 -9 -27 7 -14 19 -13 20 20 23 20 2 36 9 36 16 0 17 -21 36
-40 36 -9 0 -21 -5 -28 -12z m46 -16 c2 -7 -6 -12 -17 -12 -21 0 -27 11 -14
24 9 9 26 2 31 -12z"/>
<path d="M8797 4073 c-15 -14 -5 -33 24 -49 24 -12 28 -18 18 -24 -7 -5 -21
-4 -32 2 -15 8 -18 7 -15 -4 3 -7 18 -13 34 -13 22 0 30 5 32 21 2 17 -5 24
-29 33 -25 8 -30 14 -21 23 8 8 15 8 27 -2 8 -7 19 -10 22 -6 9 9 -16 26 -38
26 -9 0 -19 -3 -22 -7z"/>
<path d="M8892 4068 c-7 -7 -12 -24 -12 -38 0 -46 43 -67 70 -35 15 18 -1 20
-19 3 -10 -11 -15 -9 -27 7 -14 19 -13 20 20 23 20 2 36 9 36 16 0 17 -21 36
-40 36 -9 0 -21 -5 -28 -12z m46 -16 c2 -7 -6 -12 -17 -12 -21 0 -27 11 -14
24 9 9 26 2 31 -12z"/>
<path d="M8551 3830 l-1 -66 30 -2 c24 -2 33 3 42 23 17 37 -4 79 -37 73 -18
-4 -25 0 -28 16 -2 12 -5 -8 -6 -44z m59 -20 c0 -30 -21 -45 -39 -27 -23 23
-4 71 25 60 8 -3 14 -18 14 -33z"/>
<path d="M8748 3869 c-8 -25 8 -103 22 -107 12 -4 13 -2 3 9 -15 15 -17 61 -4
75 6 5 4 14 -4 21 -9 8 -15 9 -17 2z"/>
<path d="M8798 3869 c-8 -25 8 -103 22 -107 12 -4 13 -2 3 9 -15 15 -17 61 -4
75 6 5 4 14 -4 21 -9 8 -15 9 -17 2z"/>
<path d="M8654 3815 c1 -49 1 -50 34 -51 l32 -1 -2 51 c-1 42 -2 45 -5 14 -4
-39 -28 -67 -43 -52 -5 5 -11 27 -13 49 -3 33 -4 31 -3 -10z"/>
<path d="M8848 3835 c-15 -32 3 -75 31 -75 23 0 51 25 51 46 0 53 -61 75 -82
29z m62 -25 c0 -16 -6 -30 -12 -33 -24 -8 -38 5 -38 33 0 16 6 30 13 33 23 8
37 -5 37 -33z"/>
<path d="M8952 3806 c1 -41 2 -44 5 -16 9 71 49 76 56 7 4 -36 4 -35 3 8 -1
49 -1 50 -33 51 l-33 1 2 -51z"/>
<path d="M3960 2735 c0 -37 4 -65 10 -65 6 0 10 14 10 30 0 40 22 39 54 -2 14
-18 27 -30 31 -27 3 3 -4 17 -15 31 -17 22 -17 27 -5 32 20 7 19 52 -1 60 -9
3 -31 6 -50 6 l-34 0 0 -65z m77 44 c18 -18 3 -39 -28 -39 -24 0 -29 4 -29 25
0 19 5 25 23 25 13 0 28 -5 34 -11z"/>
<path d="M4381 2740 l-1 -66 30 -2 c24 -2 33 3 42 23 17 37 -4 79 -37 73 -18
-4 -25 0 -28 16 -2 12 -5 -8 -6 -44z m59 -20 c0 -30 -21 -45 -39 -27 -23 23
-4 71 25 60 8 -3 14 -18 14 -33z"/>
<path d="M4097 2764 c-14 -14 -7 -26 9 -14 12 11 18 10 31 -3 15 -14 13 -16
-18 -24 -24 -7 -34 -15 -34 -29 0 -15 7 -19 40 -20 l41 -1 -6 46 c-4 40 -8 46
-30 49 -14 2 -29 0 -33 -4z m41 -70 c-9 -9 -21 -13 -27 -10 -20 13 -11 26 16
26 25 0 26 -1 11 -16z"/>
<path d="M4190 2754 c-12 -14 -12 -18 5 -30 10 -8 25 -14 32 -14 7 0 13 -4 13
-9 0 -16 -21 -24 -33 -12 -17 17 -31 13 -17 -4 16 -19 44 -19 60 0 15 18 6 33
-28 46 -19 7 -22 13 -14 21 8 8 16 7 28 -3 15 -12 17 -12 12 1 -7 21 -42 24
-58 4z"/>
<path d="M4281 2695 c1 -38 4 -58 6 -44 3 20 9 26 22 22 20 -5 51 21 51 43 0
33 -20 54 -50 52 l-30 -2 1 -71z m59 25 c0 -30 -21 -45 -39 -27 -23 23 -4 71
25 60 8 -3 14 -18 14 -33z"/>
<path d="M4486 2754 c-19 -18 -20 -38 -6 -65 13 -24 53 -25 71 -2 12 15 12 16
-6 9 -11 -4 -22 -8 -25 -8 -20 -2 -30 4 -30 17 0 10 11 15 35 15 38 0 40 2 25
31 -13 23 -43 25 -64 3z m54 -15 c0 -5 -11 -9 -25 -9 -26 0 -34 15 -12 23 16
5 37 -3 37 -14z"/>
<path d="M4582 2715 c1 -43 2 -45 5 -13 3 24 12 43 26 53 22 15 22 15 -6 13
-26 -2 -27 -5 -25 -53z"/>
<path d="M4642 2715 c1 -42 2 -44 5 -13 4 37 25 64 41 54 5 -3 15 -26 22 -52
11 -38 11 -47 -1 -54 -7 -5 -10 -12 -6 -16 4 -4 12 -3 17 2 13 13 51 126 45
132 -5 5 -25 -42 -25 -59 0 -21 -19 3 -25 31 -6 27 -10 30 -41 28 l-34 -2 2
-51z"/>
<path d="M4010 2525 c0 -37 4 -65 10 -65 6 0 10 11 10 25 0 19 5 25 21 25 33
0 59 19 59 44 0 27 -17 36 -66 36 l-34 0 0 -65z m83 39 c13 -14 -7 -34 -34
-34 -22 0 -29 5 -29 20 0 15 7 20 28 20 16 0 31 -3 35 -6z"/>
<path d="M4143 2525 c0 -38 2 -53 4 -32 2 20 2 52 0 70 -2 17 -4 1 -4 -38z"/>
<path d="M4230 2525 c0 -37 4 -65 10 -65 6 0 10 11 10 25 0 19 5 25 21 25 33
0 59 19 59 44 0 27 -17 36 -66 36 l-34 0 0 -65z m83 39 c13 -14 -7 -34 -34
-34 -22 0 -29 5 -29 20 0 15 7 20 28 20 16 0 31 -3 35 -6z"/>
<path d="M4350 2580 c0 -5 5 -10 10 -10 6 0 10 5 10 10 0 6 -4 10 -10 10 -5 0
-10 -4 -10 -10z"/>
<path d="M4642 2578 c-20 -20 -13 -32 7 -14 11 10 25 15 30 11 20 -12 11 -41
-19 -68 -40 -36 -38 -47 10 -47 22 0 40 5 40 10 0 6 -14 10 -31 10 l-31 0 31
26 c17 14 31 33 31 43 0 21 -19 41 -40 41 -9 0 -21 -5 -28 -12z"/>
<path d="M4350 2510 c0 -27 5 -50 10 -50 6 0 10 23 10 50 0 28 -4 50 -10 50
-5 0 -10 -22 -10 -50z"/>
<path d="M4402 2548 c-7 -7 -12 -24 -12 -38 0 -48 49 -69 70 -30 13 24 2 27
-15 3 -11 -15 -15 -15 -29 -4 -20 17 -21 45 -1 61 12 10 19 10 27 2 17 -17 33
-15 18 3 -15 18 -42 19 -58 3z"/>
<path d="M4491 2546 c-31 -37 9 -103 47 -80 36 23 23 94 -18 94 -10 0 -23 -6
-29 -14z m47 -8 c28 -28 -3 -83 -33 -58 -8 7 -15 20 -15 29 0 17 18 41 30 41
3 0 11 -5 18 -12z"/>
<path d="M6590 3935 c0 -37 4 -65 10 -65 6 0 10 11 10 25 0 19 5 25 21 25 33
0 59 19 59 44 0 27 -17 36 -66 36 l-34 0 0 -65z m83 39 c13 -14 -7 -34 -34
-34 -22 0 -29 5 -29 20 0 15 7 20 28 20 16 0 31 -3 35 -6z"/>
<path d="M6710 3920 c0 -27 5 -50 10 -50 6 0 10 18 10 40 0 27 6 42 18 49 14
9 13 10 -10 11 -27 0 -28 -2 -28 -50z"/>
<path d="M6782 3958 c-7 -7 -12 -24 -12 -38 0 -46 43 -67 70 -35 15 18 -1 20
-19 3 -10 -11 -15 -9 -27 7 -14 19 -13 20 20 23 20 2 36 9 36 16 0 17 -21 36
-40 36 -9 0 -21 -5 -28 -12z m46 -16 c2 -7 -6 -12 -17 -12 -21 0 -27 11 -14
24 9 9 26 2 31 -12z"/>
<path d="M6877 3963 c-15 -14 -5 -33 24 -49 24 -12 28 -18 18 -24 -7 -5 -21
-4 -32 2 -15 8 -18 7 -15 -4 3 -7 18 -13 34 -13 22 0 30 5 32 21 2 17 -5 24
-29 33 -25 8 -30 14 -21 23 8 8 15 8 27 -2 8 -7 19 -10 22 -6 9 9 -16 26 -38
26 -9 0 -19 -3 -22 -7z"/>
<path d="M6972 3958 c-7 -7 -12 -24 -12 -38 0 -46 43 -67 70 -35 15 18 -1 20
-19 3 -10 -11 -15 -9 -27 7 -14 19 -13 20 20 23 20 2 36 9 36 16 0 17 -21 36
-40 36 -9 0 -21 -5 -28 -12z m46 -16 c2 -7 -6 -12 -17 -12 -21 0 -27 11 -14
24 9 9 26 2 31 -12z"/>
<path d="M7060 3919 c0 -60 18 -65 22 -6 2 29 8 42 18 42 10 0 16 -13 18 -42
4 -54 22 -57 22 -4 0 44 -13 59 -52 59 -27 0 -28 -3 -28 -49z"/>
<path d="M7172 3958 c-7 -7 -12 -24 -12 -38 0 -48 49 -69 70 -30 13 24 2 27
-15 3 -11 -15 -15 -15 -29 -4 -20 17 -21 45 -1 61 12 10 19 10 27 2 17 -17 33
-15 18 3 -15 18 -42 19 -58 3z"/>
<path d="M7262 3958 c-7 -7 -12 -24 -12 -38 0 -46 43 -67 70 -35 15 18 -1 20
-19 3 -10 -11 -15 -9 -27 7 -14 19 -13 20 20 23 20 2 36 9 36 16 0 17 -21 36
-40 36 -9 0 -21 -5 -28 -12z m46 -16 c2 -7 -6 -12 -17 -12 -21 0 -27 11 -14
24 9 9 26 2 31 -12z"/>
<path d="M7252 3778 c-20 -20 -13 -32 7 -14 11 10 25 15 30 11 20 -12 11 -41
-19 -68 -40 -36 -38 -47 10 -47 22 0 40 5 40 10 0 6 -14 10 -31 10 l-31 0 31
26 c17 14 31 33 31 43 0 21 -19 41 -40 41 -9 0 -21 -5 -28 -12z"/>
<path d="M6657 3753 c-15 -14 -5 -33 24 -49 24 -12 28 -18 18 -24 -7 -5 -21
-4 -32 2 -15 8 -18 7 -15 -4 3 -7 18 -13 34 -13 22 0 30 5 32 21 2 17 -5 24
-29 33 -25 8 -30 14 -21 23 8 8 15 8 27 -2 8 -7 19 -10 22 -6 9 9 -16 26 -38
26 -9 0 -19 -3 -22 -7z"/>
<path d="M6752 3748 c-7 -7 -12 -24 -12 -38 0 -46 43 -67 70 -35 15 18 -1 20
-19 3 -10 -11 -15 -9 -27 7 -14 19 -13 20 20 23 20 2 36 9 36 16 0 17 -21 36
-40 36 -9 0 -21 -5 -28 -12z m46 -16 c2 -7 -6 -12 -17 -12 -21 0 -27 11 -14
24 9 9 26 2 31 -12z"/>
<path d="M6840 3709 c0 -60 18 -65 22 -6 2 29 8 42 18 42 10 0 16 -13 18 -42
4 -54 22 -57 22 -4 0 44 -13 59 -52 59 -27 0 -28 -3 -28 -49z"/>
<path d="M6947 3753 c-15 -14 -5 -33 24 -49 24 -12 28 -18 18 -24 -7 -5 -21
-4 -32 2 -15 8 -18 7 -15 -4 3 -7 18 -13 34 -13 22 0 30 5 32 21 2 17 -5 24
-29 33 -25 8 -30 14 -21 23 8 8 15 8 27 -2 8 -7 19 -10 22 -6 9 9 -16 26 -38
26 -9 0 -19 -3 -22 -7z"/>
<path d="M7041 3746 c-31 -37 9 -103 47 -80 36 23 23 94 -18 94 -10 0 -23 -6
-29 -14z m47 -8 c28 -28 -3 -83 -33 -58 -8 7 -15 20 -15 29 0 17 18 41 30 41
3 0 11 -5 18 -12z"/>
<path d="M7130 3710 c0 -27 5 -50 10 -50 6 0 10 18 10 40 0 27 6 42 18 49 14
9 13 10 -10 11 -27 0 -28 -2 -28 -50z"/>
<path d="M1207 3918 c-6 -40 -2 -45 18 -28 13 11 19 11 31 -2 13 -12 14 -20 5
-37 -14 -26 -27 -27 -40 -4 -5 10 -13 15 -17 11 -10 -11 15 -38 35 -38 23 0
41 20 41 46 0 26 -24 48 -45 40 -9 -3 -15 0 -15 9 0 9 10 15 24 15 14 0 28 5
31 10 4 6 -8 10 -28 10 -31 0 -35 -3 -40 -32z"/>
<path d="M1550 3940 c0 -5 5 -10 10 -10 6 0 10 5 10 10 0 6 -4 10 -10 10 -5 0
-10 -4 -10 -10z"/>
<path d="M1372 3908 c-7 -7 -12 -24 -12 -38 0 -48 49 -69 70 -30 13 24 2 27
-15 3 -11 -15 -15 -15 -29 -4 -20 17 -21 45 -1 61 12 10 19 10 27 2 17 -17 33
-15 18 3 -15 18 -42 19 -58 3z"/>
<path d="M1461 3906 c-31 -37 9 -103 47 -80 36 23 23 94 -18 94 -10 0 -23 -6
-29 -14z m47 -8 c28 -28 -3 -83 -33 -58 -8 7 -15 20 -15 29 0 17 18 41 30 41
3 0 11 -5 18 -12z"/>
<path d="M1550 3870 c0 -27 5 -50 10 -50 6 0 10 23 10 50 0 28 -4 50 -10 50
-5 0 -10 -22 -10 -50z"/>
<path d="M1590 3869 c0 -60 18 -65 22 -6 2 29 8 42 18 42 10 0 16 -13 18 -42
4 -54 22 -57 22 -4 0 44 -13 59 -52 59 -27 0 -28 -3 -28 -49z"/>
<path d="M1300 3860 c0 -5 9 -10 20 -10 11 0 20 5 20 10 0 6 -9 10 -20 10 -11
0 -20 -4 -20 -10z"/>
<path d="M1081 3635 c1 -38 4 -58 6 -44 3 20 9 26 22 22 20 -5 51 21 51 43 0
33 -20 54 -50 52 l-30 -2 1 -71z m59 25 c0 -30 -21 -45 -39 -27 -23 23 -4 71
25 60 8 -3 14 -18 14 -33z"/>
<path d="M1182 3655 c1 -43 2 -45 5 -13 3 24 12 43 26 53 22 15 22 15 -6 13
-26 -2 -27 -5 -25 -53z"/>
<path d="M1246 3694 c-19 -18 -20 -38 -6 -65 13 -24 53 -25 71 -2 12 15 12 16
-6 9 -11 -4 -22 -8 -25 -8 -20 -2 -30 4 -30 17 0 10 11 15 35 15 38 0 40 2 25
31 -13 23 -43 25 -64 3z m54 -15 c0 -5 -11 -9 -25 -9 -26 0 -34 15 -12 23 16
5 37 -3 37 -14z"/>
<path d="M1340 3694 c-12 -14 -12 -18 5 -30 10 -8 25 -14 32 -14 7 0 13 -4 13
-9 0 -16 -21 -24 -33 -12 -17 17 -31 13 -17 -4 16 -19 44 -19 60 0 15 18 6 33
-28 46 -19 7 -22 13 -14 21 8 8 16 7 28 -3 15 -12 17 -12 12 1 -7 21 -42 24
-58 4z"/>
<path d="M1436 3694 c-19 -18 -20 -38 -6 -65 13 -24 53 -25 71 -2 12 15 12 16
-6 9 -11 -4 -22 -8 -25 -8 -20 -2 -30 4 -30 17 0 10 11 15 35 15 38 0 40 2 25
31 -13 23 -43 25 -64 3z m54 -15 c0 -5 -11 -9 -25 -9 -26 0 -34 15 -12 23 16
5 37 -3 37 -14z"/>
<path d="M1532 3656 c1 -41 2 -44 5 -16 9 71 49 76 56 7 4 -36 4 -35 3 8 -1
49 -1 50 -33 51 l-33 1 2 -51z"/>
<path d="M1628 3685 c-22 -49 25 -98 60 -63 19 19 14 33 -5 16 -25 -21 -43
-12 -43 22 0 30 21 45 39 27 13 -13 26 -3 16 12 -12 21 -55 12 -67 -14z"/>
<path d="M1726 3694 c-19 -18 -20 -38 -6 -65 13 -24 53 -25 71 -2 12 15 12 16
-6 9 -11 -4 -22 -8 -25 -8 -20 -2 -30 4 -30 17 0 10 11 15 35 15 38 0 40 2 25
31 -13 23 -43 25 -64 3z m54 -15 c0 -5 -11 -9 -25 -9 -26 0 -34 15 -12 23 16
5 37 -3 37 -14z"/>
<path d="M1180 3474 c-12 -14 -12 -18 5 -30 10 -8 25 -14 32 -14 7 0 13 -4 13
-9 0 -16 -21 -24 -33 -12 -17 17 -31 13 -17 -4 16 -19 44 -19 60 0 15 18 6 33
-28 46 -19 7 -22 13 -14 21 8 8 16 7 28 -3 15 -12 17 -12 12 1 -7 21 -42 24
-58 4z"/>
<path d="M1276 3474 c-19 -18 -20 -38 -6 -65 13 -24 53 -25 71 -2 12 15 12 16
-6 9 -11 -4 -22 -8 -25 -8 -20 -2 -30 4 -30 17 0 10 11 15 35 15 38 0 40 2 25
31 -13 23 -43 25 -64 3z m54 -15 c0 -5 -11 -9 -25 -9 -26 0 -34 15 -12 23 16
5 37 -3 37 -14z"/>
<path d="M1372 3436 c1 -41 2 -44 5 -16 9 71 49 76 56 7 4 -36 4 -35 3 8 -1
49 -1 50 -33 51 l-33 1 2 -51z"/>
<path d="M1470 3474 c-12 -14 -12 -18 5 -30 10 -8 25 -14 32 -14 7 0 13 -4 13
-9 0 -16 -21 -24 -33 -12 -17 17 -31 13 -17 -4 16 -19 44 -19 60 0 15 18 6 33
-28 46 -19 7 -22 13 -14 21 8 8 16 7 28 -3 15 -12 17 -12 12 1 -7 21 -42 24
-58 4z"/>
<path d="M1558 3465 c-15 -32 3 -75 31 -75 23 0 51 25 51 46 0 53 -61 75 -82
29z m62 -25 c0 -16 -6 -30 -12 -33 -24 -8 -38 5 -38 33 0 16 6 30 13 33 23 8
37 -5 37 -33z"/>
<path d="M1662 3435 c1 -43 2 -45 5 -13 3 24 12 43 26 53 22 15 22 15 -6 13
-26 -2 -27 -5 -25 -53z"/>
<path d="M1177 2892 c-21 -23 -22 -39 -2 -22 13 11 15 6 15 -39 0 -28 5 -51
10 -51 6 0 10 28 10 65 0 68 -6 77 -33 47z"/>
<path d="M1261 2896 c-18 -21 -10 -97 12 -110 28 -18 52 4 55 53 3 46 -10 71
-38 71 -10 0 -23 -6 -29 -14z m50 -23 c12 -31 -1 -78 -22 -78 -21 0 -35 50
-21 80 15 32 30 32 43 -2z"/>
<path d="M1600 2900 c0 -5 5 -10 10 -10 6 0 10 5 10 10 0 6 -4 10 -10 10 -5 0
-10 -4 -10 -10z"/>
<path d="M1422 2868 c-7 -7 -12 -24 -12 -38 0 -48 49 -69 70 -30 13 24 2 27
-15 3 -11 -15 -15 -15 -29 -4 -20 17 -21 45 -1 61 12 10 19 10 27 2 17 -17 33
-15 18 3 -15 18 -42 19 -58 3z"/>
<path d="M1511 2866 c-31 -37 9 -103 47 -80 36 23 23 94 -18 94 -10 0 -23 -6
-29 -14z m47 -8 c28 -28 -3 -83 -33 -58 -8 7 -15 20 -15 29 0 17 18 41 30 41
3 0 11 -5 18 -12z"/>
<path d="M1600 2830 c0 -27 5 -50 10 -50 6 0 10 23 10 50 0 28 -4 50 -10 50
-5 0 -10 -22 -10 -50z"/>
<path d="M1640 2829 c0 -60 18 -65 22 -6 2 29 8 42 18 42 10 0 16 -13 18 -42
4 -54 22 -57 22 -4 0 44 -13 59 -52 59 -27 0 -28 -3 -28 -49z"/>
<path d="M1350 2820 c0 -5 9 -10 20 -10 11 0 20 5 20 10 0 6 -9 10 -20 10 -11
0 -20 -4 -20 -10z"/>
<path d="M1081 2585 c1 -38 4 -58 6 -44 3 20 9 26 22 22 20 -5 51 21 51 43 0
33 -20 54 -50 52 l-30 -2 1 -71z m59 25 c0 -30 -21 -45 -39 -27 -23 23 -4 71
25 60 8 -3 14 -18 14 -33z"/>
<path d="M1182 2605 c1 -43 2 -45 5 -13 3 24 12 43 26 53 22 15 22 15 -6 13
-26 -2 -27 -5 -25 -53z"/>
<path d="M1246 2644 c-19 -18 -20 -38 -6 -65 13 -24 53 -25 71 -2 12 15 12 16
-6 9 -11 -4 -22 -8 -25 -8 -20 -2 -30 4 -30 17 0 10 11 15 35 15 38 0 40 2 25
31 -13 23 -43 25 -64 3z m54 -15 c0 -5 -11 -9 -25 -9 -26 0 -34 15 -12 23 16
5 37 -3 37 -14z"/>
<path d="M1340 2644 c-12 -14 -12 -18 5 -30 10 -8 25 -14 32 -14 7 0 13 -4 13
-9 0 -16 -21 -24 -33 -12 -17 17 -31 13 -17 -4 16 -19 44 -19 60 0 15 18 6 33
-28 46 -19 7 -22 13 -14 21 8 8 16 7 28 -3 15 -12 17 -12 12 1 -7 21 -42 24
-58 4z"/>
<path d="M1436 2644 c-19 -18 -20 -38 -6 -65 13 -24 53 -25 71 -2 12 15 12 16
-6 9 -11 -4 -22 -8 -25 -8 -20 -2 -30 4 -30 17 0 10 11 15 35 15 38 0 40 2 25
31 -13 23 -43 25 -64 3z m54 -15 c0 -5 -11 -9 -25 -9 -26 0 -34 15 -12 23 16
5 37 -3 37 -14z"/>
<path d="M1532 2606 c1 -41 2 -44 5 -16 9 71 49 76 56 7 4 -36 4 -35 3 8 -1
49 -1 50 -33 51 l-33 1 2 -51z"/>
<path d="M1628 2635 c-22 -49 25 -98 60 -63 19 19 14 33 -5 16 -25 -21 -43
-12 -43 22 0 30 21 45 39 27 13 -13 26 -3 16 12 -12 21 -55 12 -67 -14z"/>
<path d="M1726 2644 c-19 -18 -20 -38 -6 -65 13 -24 53 -25 71 -2 12 15 12 16
-6 9 -11 -4 -22 -8 -25 -8 -20 -2 -30 4 -30 17 0 10 11 15 35 15 38 0 40 2 25
31 -13 23 -43 25 -64 3z m54 -15 c0 -5 -11 -9 -25 -9 -26 0 -34 15 -12 23 16
5 37 -3 37 -14z"/>
<path d="M1180 2434 c-12 -14 -12 -18 5 -30 10 -8 25 -14 32 -14 7 0 13 -4 13
-9 0 -16 -21 -24 -33 -12 -17 17 -31 13 -17 -4 16 -19 44 -19 60 0 15 18 6 33
-28 46 -19 7 -22 13 -14 21 8 8 16 7 28 -3 15 -12 17 -12 12 1 -7 21 -42 24
-58 4z"/>
<path d="M1276 2434 c-19 -18 -20 -38 -6 -65 13 -24 53 -25 71 -2 12 15 12 16
-6 9 -11 -4 -22 -8 -25 -8 -20 -2 -30 4 -30 17 0 10 11 15 35 15 38 0 40 2 25
31 -13 23 -43 25 -64 3z m54 -15 c0 -5 -11 -9 -25 -9 -26 0 -34 15 -12 23 16
5 37 -3 37 -14z"/>
<path d="M1372 2396 c1 -41 2 -44 5 -16 9 71 49 76 56 7 4 -36 4 -35 3 8 -1
49 -1 50 -33 51 l-33 1 2 -51z"/>
<path d="M1470 2434 c-12 -14 -12 -18 5 -30 10 -8 25 -14 32 -14 7 0 13 -4 13
-9 0 -16 -21 -24 -33 -12 -17 17 -31 13 -17 -4 16 -19 44 -19 60 0 15 18 6 33
-28 46 -19 7 -22 13 -14 21 8 8 16 7 28 -3 15 -12 17 -12 12 1 -7 21 -42 24
-58 4z"/>
<path d="M1558 2425 c-15 -32 3 -75 31 -75 23 0 51 25 51 46 0 53 -61 75 -82
29z m62 -25 c0 -16 -6 -30 -12 -33 -24 -8 -38 5 -38 33 0 16 6 30 13 33 23 8
37 -5 37 -33z"/>
<path d="M1662 2395 c1 -43 2 -45 5 -13 3 24 12 43 26 53 22 15 22 15 -6 13
-26 -2 -27 -5 -25 -53z"/>
<path d="M9233 2562 c-40 -26 -32 -107 13 -118 52 -13 91 28 78 82 -9 37 -59
57 -91 36z m59 -19 c22 -20 23 -51 1 -75 -20 -22 -31 -23 -55 -1 -22 20 -23
51 -1 75 20 22 31 23 55 1z"/>
<path d="M9352 2503 c1 -57 2 -60 5 -20 2 26 7 47 11 47 4 0 20 -20 35 -45 16
-25 33 -45 38 -45 5 0 9 29 9 65 0 37 -4 65 -10 65 -5 0 -10 -21 -10 -47 l0
-48 -31 48 c-17 26 -35 47 -40 47 -5 0 -8 -30 -7 -67z"/>
<path d="M9486 2509 c-10 -33 -16 -63 -13 -65 2 -3 12 23 21 57 10 33 16 63
13 65 -2 3 -12 -23 -21 -57z"/>
<path d="M9553 2562 c-40 -26 -32 -107 13 -118 52 -13 91 28 78 82 -9 37 -59
57 -91 36z m59 -19 c22 -20 23 -51 1 -75 -20 -22 -31 -23 -55 -1 -22 20 -23
51 -1 75 20 22 31 23 55 1z"/>
<path d="M9670 2505 c0 -37 4 -65 10 -65 6 0 10 11 10 25 0 20 5 25 24 25 14
0 28 5 31 10 4 6 -7 10 -24 10 -24 0 -31 4 -31 20 0 15 7 20 29 20 17 0 33 5
36 10 4 6 -12 10 -39 10 l-46 0 0 -65z"/>
<path d="M9780 2505 c0 -37 4 -65 10 -65 6 0 10 11 10 25 0 20 5 25 24 25 14
0 28 5 31 10 4 6 -7 10 -24 10 -24 0 -31 4 -31 20 0 15 7 20 29 20 17 0 33 5
36 10 4 6 -12 10 -39 10 l-46 0 0 -65z"/>
<path d="M9290 2295 l0 -65 33 0 c48 0 58 11 54 61 -3 58 -12 69 -53 69 l-34
0 0 -65z m70 30 c0 -10 -10 -15 -30 -15 -20 0 -30 5 -30 15 0 10 10 15 30 15
20 0 30 -5 30 -15z m5 -55 c0 -10 -12 -16 -32 -18 -28 -3 -33 0 -33 18 0 18 5
21 33 18 20 -2 32 -8 32 -18z"/>
<path d="M9508 2339 c-8 -25 8 -103 22 -107 12 -4 13 -2 3 9 -15 15 -17 61 -4
75 6 5 4 14 -4 21 -9 8 -15 9 -17 2z"/>
<path d="M9558 2339 c-8 -25 8 -103 22 -107 12 -4 13 -2 3 9 -15 15 -17 61 -4
75 6 5 4 14 -4 21 -9 8 -15 9 -17 2z"/>
<path d="M9414 2285 c1 -49 1 -50 34 -51 l32 -1 -2 51 c-1 42 -2 45 -5 14 -4
-39 -28 -67 -43 -52 -5 5 -11 27 -13 49 -3 33 -4 31 -3 -10z"/>
<path d="M9608 2305 c-15 -32 3 -75 31 -75 23 0 51 25 51 46 0 53 -61 75 -82
29z m62 -25 c0 -16 -6 -30 -12 -33 -24 -8 -38 5 -38 33 0 16 6 30 13 33 23 8
37 -5 37 -33z"/>
<path d="M9712 2276 c1 -41 2 -44 5 -16 9 71 49 76 56 7 4 -36 4 -35 3 8 -1
49 -1 50 -33 51 l-33 1 2 -51z"/>
<path d="M8310 1185 l0 -65 45 0 c25 0 45 5 45 10 0 6 -18 10 -40 10 -33 0
-40 3 -40 20 0 16 7 20 35 20 19 0 35 5 35 10 0 6 -16 10 -35 10 -24 0 -35 5
-35 15 0 10 10 15 34 15 19 0 38 5 41 10 4 6 -12 10 -39 10 l-46 0 0 -65z"/>
<path d="M8420 1185 c0 -37 4 -65 10 -65 6 0 10 28 10 65 0 37 -4 65 -10 65
-6 0 -10 -28 -10 -65z"/>
<path d="M8661 1238 c-1 -10 -6 -18 -13 -18 -9 0 -9 -3 0 -12 7 -7 12 -29 12
-50 0 -29 4 -38 17 -38 13 0 14 3 5 12 -16 16 -16 78 1 78 8 0 9 3 1 8 -6 4
-14 14 -17 22 -4 12 -6 11 -6 -2z"/>
<path d="M9421 1238 c-1 -10 -6 -18 -13 -18 -9 0 -9 -3 0 -12 7 -7 12 -29 12
-50 0 -29 4 -38 17 -38 13 0 14 3 5 12 -16 16 -16 78 1 78 8 0 9 3 1 8 -6 4
-14 14 -17 22 -4 12 -6 11 -6 -2z"/>
<path d="M9460 1240 c0 -5 5 -10 10 -10 6 0 10 5 10 10 0 6 -4 10 -10 10 -5 0
-10 -4 -10 -10z"/>
<path d="M8472 1208 c-7 -7 -12 -24 -12 -38 0 -46 43 -67 70 -35 15 18 -1 20
-19 3 -10 -11 -15 -9 -27 7 -14 19 -13 20 20 23 20 2 36 9 36 16 0 17 -21 36
-40 36 -9 0 -21 -5 -28 -12z m46 -16 c2 -7 -6 -12 -17 -12 -21 0 -27 11 -14
24 9 9 26 2 31 -12z"/>
<path d="M8572 1208 c-7 -7 -12 -24 -12 -38 0 -48 49 -69 70 -30 13 24 2 27
-15 3 -11 -15 -15 -15 -29 -4 -20 17 -21 45 -1 61 12 10 19 10 27 2 17 -17 33
-15 18 3 -15 18 -42 19 -58 3z"/>
<path d="M8700 1170 c0 -27 5 -50 10 -50 6 0 10 18 10 40 0 27 6 42 18 49 14
9 13 10 -10 11 -27 0 -28 -2 -28 -50z"/>
<path d="M8771 1206 c-31 -37 9 -103 47 -80 36 23 23 94 -18 94 -10 0 -23 -6
-29 -14z m47 -8 c28 -28 -3 -83 -33 -58 -8 7 -15 20 -15 29 0 17 18 41 30 41
3 0 11 -5 18 -12z"/>
<path d="M8860 1169 c0 -60 18 -65 22 -6 4 60 31 58 39 -3 6 -43 6 -43 7 -9 2
36 22 66 35 52 4 -3 7 -24 7 -45 0 -21 5 -38 11 -38 6 0 9 19 7 48 l-3 47 -62
1 -63 1 0 -48z"/>
<path d="M9020 1210 c-8 -5 -11 -12 -7 -16 3 -4 13 -1 21 5 15 13 36 7 36 -9
0 -4 -14 -13 -31 -19 -45 -15 -36 -46 14 -48 36 -1 37 0 37 36 0 54 -31 76
-70 51z m50 -59 c0 -12 -29 -23 -41 -15 -5 3 -7 10 -4 15 8 12 45 12 45 0z"/>
<path d="M9121 1207 c-28 -28 -1 -97 34 -83 9 3 15 0 15 -9 0 -21 -17 -27 -41
-14 -17 9 -20 8 -17 -3 7 -21 50 -22 65 -2 7 10 13 41 13 69 0 50 -1 52 -29
53 -15 0 -33 -4 -40 -11z m49 -37 c0 -30 -21 -45 -39 -27 -23 23 -4 71 25 60
8 -3 14 -18 14 -33z"/>
<path d="M9210 1169 c0 -60 18 -65 22 -6 2 29 8 42 18 42 10 0 16 -13 18 -42
4 -54 22 -57 22 -4 0 44 -13 59 -52 59 -27 0 -28 -3 -28 -49z"/>
<path d="M9322 1208 c-7 -7 -12 -24 -12 -38 0 -46 43 -67 70 -35 15 18 -1 20
-19 3 -10 -11 -15 -9 -27 7 -14 19 -13 20 20 23 20 2 36 9 36 16 0 17 -21 36
-40 36 -9 0 -21 -5 -28 -12z m46 -16 c2 -7 -6 -12 -17 -12 -21 0 -27 11 -14
24 9 9 26 2 31 -12z"/>
<path d="M9460 1170 c0 -27 5 -50 10 -50 6 0 10 23 10 50 0 28 -4 50 -10 50
-5 0 -10 -22 -10 -50z"/>
<path d="M9512 1208 c-7 -7 -12 -24 -12 -38 0 -48 49 -69 70 -30 13 24 2 27
-15 3 -11 -15 -15 -15 -29 -4 -20 17 -21 45 -1 61 12 10 19 10 27 2 17 -17 33
-15 18 3 -15 18 -42 19 -58 3z"/>
<path d="M8793 975 c0 -38 2 -53 4 -32 2 20 2 52 0 70 -2 17 -4 1 -4 -38z"/>
<path d="M9023 975 c0 -38 1 -61 4 -50 8 33 19 37 33 10 7 -14 17 -25 22 -25
5 0 1 14 -7 31 -15 29 -15 32 1 50 9 10 12 19 7 19 -6 0 -16 -7 -23 -15 -19
-23 -28 -18 -33 18 -2 17 -4 1 -4 -38z"/>
<path d="M8828 985 c-15 -32 3 -75 31 -75 23 0 51 25 51 46 0 53 -61 75 -82
29z m62 -25 c0 -16 -6 -30 -12 -33 -24 -8 -38 5 -38 33 0 16 6 30 13 33 23 8
37 -5 37 -33z"/>
<path d="M8928 985 c-22 -49 25 -98 60 -63 19 19 14 33 -5 16 -25 -21 -43 -12
-43 22 0 30 21 45 39 27 13 -13 26 -3 16 12 -12 21 -55 12 -67 -14z"/>
<path d="M732 770 l-33 -45 31 -3 c23 -3 30 -8 30 -25 0 -21 1 -21 13 3 7 14
10 27 6 30 -4 3 -9 23 -11 45 l-3 40 -33 -45z m28 -15 c0 -18 -5 -25 -20 -25
-20 0 -20 1 -4 25 9 14 18 25 20 25 2 0 4 -11 4 -25z"/>
<path d="M920 790 c0 -13 -5 -18 -15 -14 -22 9 -45 -14 -45 -45 0 -35 17 -51
52 -51 28 0 28 0 28 65 0 37 -4 65 -10 65 -5 0 -10 -9 -10 -20z m0 -60 c0 -30
-21 -45 -39 -27 -23 23 -4 71 25 60 8 -3 14 -18 14 -33z"/>
<path d="M960 800 c0 -5 5 -10 10 -10 6 0 10 5 10 10 0 6 -4 10 -10 10 -5 0
-10 -4 -10 -10z"/>
<path d="M1100 800 c0 -5 5 -10 10 -10 6 0 10 5 10 10 0 6 -4 10 -10 10 -5 0
-10 -4 -10 -10z"/>
<path d="M1151 798 c-1 -10 -6 -18 -13 -18 -9 0 -9 -3 0 -12 7 -7 12 -29 12
-50 0 -29 4 -38 17 -38 13 0 14 3 5 12 -16 16 -16 78 1 78 8 0 9 3 1 8 -6 4
-14 14 -17 22 -4 12 -6 11 -6 -2z"/>
<path d="M960 730 c0 -27 5 -50 10 -50 6 0 10 23 10 50 0 28 -4 50 -10 50 -5
0 -10 -22 -10 -50z"/>
<path d="M1011 767 c-28 -28 -1 -97 34 -83 9 3 15 0 15 -9 0 -21 -17 -27 -41
-14 -17 9 -20 8 -17 -3 7 -21 50 -22 65 -2 7 10 13 41 13 69 0 50 -1 52 -29
53 -15 0 -33 -4 -40 -11z m49 -37 c0 -30 -21 -45 -39 -27 -23 23 -4 71 25 60
8 -3 14 -18 14 -33z"/>
<path d="M1100 730 c0 -27 5 -50 10 -50 6 0 10 23 10 50 0 28 -4 50 -10 50 -5
0 -10 -22 -10 -50z"/>
<path d="M1197 773 c-15 -14 -5 -33 24 -49 24 -12 28 -18 18 -24 -7 -5 -21 -4
-32 2 -15 8 -18 7 -15 -4 3 -7 18 -13 34 -13 22 0 30 5 32 21 2 17 -5 24 -29
33 -25 8 -30 14 -21 23 8 8 15 8 27 -2 8 -7 19 -10 22 -6 9 9 -16 26 -38 26
-9 0 -19 -3 -22 -7z"/>
<path d="M530 580 c0 -5 13 -10 30 -10 l30 0 -20 -32 c-11 -18 -20 -44 -19
-58 0 -28 -2 -31 36 55 9 22 19 43 21 48 2 4 -15 7 -37 7 -23 0 -41 -4 -41
-10z"/>
<path d="M1331 578 c-1 -10 -6 -18 -13 -18 -9 0 -9 -3 0 -12 7 -7 12 -29 12
-50 0 -29 4 -38 17 -38 13 0 14 3 5 12 -16 16 -16 78 1 78 8 0 9 3 1 8 -6 4
-14 14 -17 22 -4 12 -6 11 -6 -2z"/>
<path d="M687 553 c-15 -14 -5 -33 24 -49 24 -12 28 -18 18 -24 -7 -5 -21 -4
-32 2 -15 8 -18 7 -15 -4 3 -7 18 -13 34 -13 22 0 30 5 32 21 2 17 -5 24 -29
33 -25 8 -30 14 -21 23 8 8 15 8 27 -2 8 -7 19 -10 22 -6 9 9 -16 26 -38 26
-9 0 -19 -3 -22 -7z"/>
<path d="M782 548 c-15 -15 -15 -61 0 -76 16 -16 43 -15 58 3 15 18 -1 20 -19
3 -10 -11 -15 -9 -27 7 -14 19 -13 20 20 23 20 2 36 9 36 16 0 17 -21 36 -40
36 -9 0 -21 -5 -28 -12z m46 -16 c2 -7 -6 -12 -17 -12 -21 0 -27 11 -14 24 9
9 26 2 31 -12z"/>
<path d="M881 547 c-28 -28 -1 -97 34 -83 9 3 15 0 15 -9 0 -21 -17 -27 -41
-14 -17 9 -20 8 -17 -3 7 -21 50 -22 65 -2 7 10 13 41 13 69 0 50 -1 52 -29
53 -15 0 -33 -4 -40 -11z m49 -37 c0 -30 -21 -45 -39 -27 -23 23 -4 71 25 60
8 -3 14 -18 14 -33z"/>
<path d="M970 509 c0 -60 18 -65 22 -6 4 60 31 58 39 -3 6 -43 6 -43 7 -9 2
36 22 66 35 52 4 -3 7 -24 7 -45 0 -21 5 -38 11 -38 6 0 9 19 7 48 l-3 47 -62
1 -63 1 0 -48z"/>
<path d="M1132 548 c-15 -15 -15 -61 0 -76 16 -16 43 -15 58 3 15 18 -1 20
-19 3 -10 -11 -15 -9 -27 7 -14 19 -13 20 20 23 20 2 36 9 36 16 0 17 -21 36
-40 36 -9 0 -21 -5 -28 -12z m46 -16 c2 -7 -6 -12 -17 -12 -21 0 -27 11 -14
24 9 9 26 2 31 -12z"/>
<path d="M1220 509 c0 -60 18 -65 22 -6 2 29 8 42 18 42 10 0 16 -13 18 -42 4
-54 22 -57 22 -4 0 44 -13 59 -52 59 -27 0 -28 -3 -28 -49z"/>
<path d="M1377 553 c-15 -14 -5 -33 24 -49 24 -12 28 -18 18 -24 -7 -5 -21 -4
-32 2 -15 8 -18 7 -15 -4 3 -7 18 -13 34 -13 22 0 30 5 32 21 2 17 -5 24 -29
33 -25 8 -30 14 -21 23 8 8 15 8 27 -2 8 -7 19 -10 22 -6 9 9 -16 26 -38 26
-9 0 -19 -3 -22 -7z"/>
<path d="M780 361 c0 -14 -6 -17 -25 -14 -33 7 -54 -34 -37 -72 9 -20 18 -25
42 -23 30 2 30 2 30 65 0 35 -2 63 -5 63 -3 0 -5 -8 -5 -19z m0 -60 c0 -23
-19 -41 -36 -34 -17 6 -18 60 -1 66 16 6 37 -12 37 -32z"/>
<path d="M1053 315 c0 -38 2 -53 4 -32 2 20 2 52 0 70 -2 17 -4 1 -4 -38z"/>
<path d="M823 300 c0 -30 2 -43 4 -27 2 15 2 39 0 55 -2 15 -4 2 -4 -28z"/>
<path d="M860 334 c-12 -14 -12 -18 5 -30 10 -8 25 -14 32 -14 7 0 13 -4 13
-9 0 -16 -21 -24 -33 -12 -17 17 -31 13 -17 -4 16 -19 44 -19 60 0 15 18 6 33
-28 46 -19 7 -22 13 -14 21 8 8 16 7 28 -3 15 -12 17 -12 12 1 -7 21 -42 24
-58 4z"/>
<path d="M951 275 c1 -38 4 -58 6 -44 3 20 9 26 22 22 20 -5 51 21 51 43 0 33
-20 54 -50 52 l-30 -2 1 -71z m59 25 c0 -30 -21 -45 -39 -27 -23 23 -4 71 25
60 8 -3 14 -18 14 -33z"/>
<path d="M1097 344 c-14 -14 -7 -26 9 -14 12 11 18 10 31 -3 15 -14 13 -16
-18 -24 -24 -7 -34 -15 -34 -29 0 -15 7 -19 40 -20 l41 -1 -6 46 c-4 40 -8 46
-30 49 -14 2 -29 0 -33 -4z m41 -70 c-9 -9 -21 -13 -27 -10 -20 13 -11 26 16
26 25 0 26 -1 11 -16z"/>
<path d="M1183 336 c25 -65 30 -98 17 -106 -8 -5 -11 -12 -7 -16 4 -4 12 -3
17 2 13 13 51 126 45 132 -5 5 -25 -42 -25 -59 0 -21 -19 3 -25 31 -4 17 -11
30 -17 30 -6 0 -8 -6 -5 -14z"/>
<path d="M5479 5160 c-34 -20 -31 -88 5 -112 17 -12 61 -9 74 4 7 7 12 22 12
35 0 18 -6 23 -25 23 -14 0 -25 -4 -25 -10 0 -5 9 -10 20 -10 26 0 26 -16 -1
-30 -16 -9 -26 -8 -45 5 -31 20 -32 59 -2 79 28 20 33 20 53 0 9 -9 19 -13 23
-9 10 10 -28 35 -52 35 -12 0 -28 -5 -37 -10z"/>
<path d="M5601 5103 c1 -37 4 -56 6 -40 3 20 10 27 27 27 34 0 58 23 54 51 -3
21 -9 24 -45 27 l-43 3 1 -68z m74 27 c0 -10 -12 -16 -32 -18 -28 -3 -33 0
-33 18 0 18 5 21 33 18 20 -2 32 -8 32 -18z"/>
<path d="M5720 5105 c0 -37 4 -65 10 -65 6 0 10 28 10 65 0 37 -4 65 -10 65
-6 0 -10 -28 -10 -65z"/>
<path d="M5780 5150 c-39 -39 -11 -110 43 -110 32 0 57 30 57 67 0 56 -60 83
-100 43z m68 -6 c12 -8 22 -26 22 -39 0 -21 -32 -55 -52 -55 -15 0 -38 33 -38
55 0 22 23 55 38 55 4 0 18 -7 30 -16z"/>
<path d="M5983 5153 c-28 -19 -30 -33 -4 -26 17 4 20 -1 24 -43 3 -42 4 -39 5
19 1 37 1 67 0 66 -2 0 -13 -7 -25 -16z"/>
<path d="M6067 5163 c-4 -3 -7 -20 -7 -36 0 -25 2 -28 15 -17 12 10 18 10 30
0 19 -16 19 -34 1 -49 -11 -9 -18 -8 -30 5 -10 9 -20 14 -23 10 -10 -9 18 -36
38 -36 23 0 52 42 43 63 -7 19 -39 31 -55 21 -7 -4 -10 -1 -7 7 2 8 17 15 31
17 15 2 27 8 27 13 0 10 -53 13 -63 2z"/>
<path d="M2702 4104 c-33 -23 -27 -83 10 -103 38 -22 82 -5 86 32 3 24 0 27
-28 27 -18 0 -29 -4 -25 -10 3 -5 13 -10 21 -10 21 0 17 -18 -6 -30 -39 -21
-76 21 -59 66 10 30 38 37 65 19 25 -16 33 -8 12 13 -17 17 -49 15 -76 -4z"/>
<path d="M2820 4055 c0 -37 4 -65 10 -65 6 0 10 11 10 25 0 19 5 25 21 25 31
0 59 18 59 38 0 28 -21 42 -62 42 l-38 0 0 -65z m78 28 c-2 -11 -14 -19 -31
-21 -22 -3 -27 1 -27 17 0 17 6 21 31 21 24 0 30 -4 27 -17z"/>
<path d="M2953 4055 c0 -38 2 -53 4 -32 2 20 2 52 0 70 -2 17 -4 1 -4 -38z"/>
<path d="M3007 4102 c-37 -40 -10 -112 41 -112 29 0 62 34 62 65 0 54 -69 85
-103 47z m64 -2 c27 -15 26 -75 -1 -90 -31 -17 -70 12 -70 51 0 10 36 49 46
49 3 0 14 -5 25 -10z"/>
<path d="M3207 4102 c-21 -23 -22 -39 -3 -22 13 10 15 3 19 -42 3 -51 3 -50 5
15 1 37 0 67 -1 67 -2 0 -11 -8 -20 -18z"/>
<path d="M3292 4108 c-15 -15 -16 -38 0 -38 9 0 9 -3 0 -12 -22 -22 -14 -57
13 -64 39 -10 74 34 48 60 -4 4 -7 19 -8 34 0 30 -31 42 -53 20z m43 -19 c0
-7 -8 -15 -17 -17 -18 -3 -25 18 -11 32 10 10 28 1 28 -15z m3 -53 c6 -29 -15
-43 -35 -24 -14 14 -14 20 -3 33 16 19 34 15 38 -9z"/>
<path d="M5402 3984 c-33 -23 -27 -83 10 -103 38 -22 82 -5 86 32 3 24 0 27
-28 27 -18 0 -29 -4 -25 -10 3 -5 13 -10 21 -10 21 0 17 -18 -6 -30 -39 -21
-76 21 -59 66 10 30 38 37 65 19 25 -16 33 -8 12 13 -17 17 -49 15 -76 -4z"/>
<path d="M5520 3935 c0 -37 4 -65 10 -65 6 0 10 11 10 25 0 19 5 25 21 25 31
0 59 18 59 38 0 28 -21 42 -62 42 l-38 0 0 -65z m78 28 c-2 -11 -14 -19 -31
-21 -22 -3 -27 1 -27 17 0 17 6 21 31 21 24 0 30 -4 27 -17z"/>
<path d="M5653 3935 c0 -38 2 -53 4 -32 2 20 2 52 0 70 -2 17 -4 1 -4 -38z"/>
<path d="M5707 3982 c-37 -40 -10 -112 41 -112 29 0 62 34 62 65 0 54 -69 85
-103 47z m64 -2 c27 -15 26 -75 -1 -90 -31 -17 -70 12 -70 51 0 10 36 49 46
49 3 0 14 -5 25 -10z"/>
<path d="M5907 3982 c-21 -23 -22 -39 -3 -22 13 10 15 3 19 -42 3 -51 3 -50 5
15 1 37 0 67 -1 67 -2 0 -11 -8 -20 -18z"/>
<path d="M6003 3963 c-40 -49 -40 -53 -8 -53 17 0 29 -7 35 -22 l9 -23 0 23
c1 12 7 22 14 22 9 0 9 2 0 8 -6 4 -13 25 -15 47 l-3 39 -32 -41z m24 -40 c-3
-3 -13 -3 -21 -1 -15 3 -15 6 1 28 l18 25 3 -23 c2 -13 1 -26 -1 -29z"/>
<path d="M2702 3834 c-33 -23 -27 -83 10 -103 38 -22 82 -5 86 32 3 24 0 27
-28 27 -18 0 -29 -4 -25 -10 3 -5 13 -10 21 -10 21 0 17 -18 -6 -30 -39 -21
-76 21 -59 66 10 30 38 37 65 19 25 -16 33 -8 12 13 -17 17 -49 15 -76 -4z"/>
<path d="M2820 3785 c0 -37 4 -65 10 -65 6 0 10 11 10 25 0 19 5 25 21 25 31
0 59 18 59 38 0 28 -21 42 -62 42 l-38 0 0 -65z m78 28 c-2 -11 -14 -19 -31
-21 -22 -3 -27 1 -27 17 0 17 6 21 31 21 24 0 30 -4 27 -17z"/>
<path d="M2953 3785 c0 -38 2 -53 4 -32 2 20 2 52 0 70 -2 17 -4 1 -4 -38z"/>
<path d="M3007 3832 c-37 -40 -10 -112 41 -112 29 0 62 34 62 65 0 54 -69 85
-103 47z m64 -2 c27 -15 26 -75 -1 -90 -31 -17 -70 12 -70 51 0 10 36 49 46
49 3 0 14 -5 25 -10z"/>
<path d="M3207 3832 c-21 -23 -22 -39 -3 -22 13 10 15 3 19 -42 3 -51 3 -50 5
15 1 37 0 67 -1 67 -2 0 -11 -8 -20 -18z"/>
<path d="M3293 3843 c-21 -8 -16 -61 7 -68 11 -3 24 -3 30 0 5 3 10 -3 10 -14
0 -26 -21 -32 -42 -13 -20 17 -25 3 -6 -16 42 -42 90 39 58 99 -10 18 -31 23
-57 12z m45 -27 c6 -29 -15 -43 -35 -24 -14 14 -14 20 -3 33 16 19 34 15 38
-9z"/>
<path d="M2702 3534 c-33 -23 -27 -83 10 -103 38 -22 82 -5 86 32 3 24 0 27
-28 27 -18 0 -29 -4 -25 -10 3 -5 13 -10 21 -10 21 0 17 -18 -6 -30 -39 -21
-76 21 -59 66 10 30 38 37 65 19 25 -16 33 -8 12 13 -17 17 -49 15 -76 -4z"/>
<path d="M2820 3485 c0 -37 4 -65 10 -65 6 0 10 11 10 25 0 19 5 25 21 25 31
0 59 18 59 38 0 28 -21 42 -62 42 l-38 0 0 -65z m78 28 c-2 -11 -14 -19 -31
-21 -22 -3 -27 1 -27 17 0 17 6 21 31 21 24 0 30 -4 27 -17z"/>
<path d="M2953 3485 c0 -38 2 -53 4 -32 2 20 2 52 0 70 -2 17 -4 1 -4 -38z"/>
<path d="M3007 3532 c-37 -40 -10 -112 41 -112 29 0 62 34 62 65 0 54 -69 85
-103 47z m64 -2 c27 -15 26 -75 -1 -90 -31 -17 -70 12 -70 51 0 10 36 49 46
49 3 0 14 -5 25 -10z"/>
<path d="M3192 3538 c-20 -20 -13 -32 7 -14 11 10 25 15 30 11 19 -11 12 -44
-14 -61 -14 -9 -30 -25 -36 -35 -9 -17 -5 -19 36 -19 28 0 44 4 40 10 -3 6
-18 10 -32 10 l-25 0 31 29 c17 16 31 35 31 43 0 19 -20 38 -40 38 -9 0 -21
-5 -28 -12z"/>
<path d="M3292 3538 c-16 -16 -16 -90 0 -106 31 -31 68 -1 68 53 0 54 -37 84
-68 53z m48 -53 c0 -27 -5 -45 -14 -48 -20 -8 -36 13 -36 48 0 35 16 56 36 48
9 -3 14 -21 14 -48z"/>
<path d="M5402 3534 c-33 -23 -27 -83 10 -103 38 -22 82 -5 86 32 3 24 0 27
-28 27 -18 0 -29 -4 -25 -10 3 -5 13 -10 21 -10 21 0 17 -18 -6 -30 -39 -21
-76 21 -59 66 10 30 38 37 65 19 25 -16 33 -8 12 13 -17 17 -49 15 -76 -4z"/>
<path d="M5520 3485 c0 -37 4 -65 10 -65 6 0 10 11 10 25 0 19 5 25 21 25 31
0 59 18 59 38 0 28 -21 42 -62 42 l-38 0 0 -65z m78 28 c-2 -11 -14 -19 -31
-21 -22 -3 -27 1 -27 17 0 17 6 21 31 21 24 0 30 -4 27 -17z"/>
<path d="M5653 3485 c0 -38 2 -53 4 -32 2 20 2 52 0 70 -2 17 -4 1 -4 -38z"/>
<path d="M5707 3532 c-37 -40 -10 -112 41 -112 29 0 62 34 62 65 0 54 -69 85
-103 47z m64 -2 c27 -15 26 -75 -1 -90 -31 -17 -70 12 -70 51 0 10 36 49 46
49 3 0 14 -5 25 -10z"/>
<path d="M5907 3532 c-21 -23 -22 -39 -3 -22 13 10 15 3 19 -42 3 -51 3 -50 5
15 1 37 0 67 -1 67 -2 0 -11 -8 -20 -18z"/>
<path d="M5992 3538 c-20 -20 -13 -32 7 -14 11 10 25 15 30 11 19 -11 12 -44
-14 -61 -14 -9 -30 -25 -36 -35 -9 -17 -5 -19 36 -19 28 0 44 4 40 10 -3 6
-18 10 -32 10 l-25 0 31 29 c17 16 31 35 31 43 0 19 -20 38 -40 38 -9 0 -21
-5 -28 -12z"/>
<path d="M2702 3204 c-33 -23 -27 -83 10 -103 38 -22 82 -5 86 32 3 24 0 27
-28 27 -18 0 -29 -4 -25 -10 3 -5 13 -10 21 -10 21 0 17 -18 -6 -30 -39 -21
-76 21 -59 66 10 30 38 37 65 19 25 -16 33 -8 12 13 -17 17 -49 15 -76 -4z"/>
<path d="M2820 3155 c0 -37 4 -65 10 -65 6 0 10 11 10 25 0 19 5 25 21 25 31
0 59 18 59 38 0 28 -21 42 -62 42 l-38 0 0 -65z m78 28 c-2 -11 -14 -19 -31
-21 -22 -3 -27 1 -27 17 0 17 6 21 31 21 24 0 30 -4 27 -17z"/>
<path d="M2953 3155 c0 -38 2 -53 4 -32 2 20 2 52 0 70 -2 17 -4 1 -4 -38z"/>
<path d="M3007 3202 c-37 -40 -10 -112 41 -112 29 0 62 34 62 65 0 54 -69 85
-103 47z m64 -2 c27 -15 26 -75 -1 -90 -31 -17 -70 12 -70 51 0 10 36 49 46
49 3 0 14 -5 25 -10z"/>
<path d="M3192 3208 c-20 -20 -13 -32 7 -14 11 10 25 15 30 11 19 -11 12 -44
-14 -61 -14 -9 -30 -25 -36 -35 -9 -17 -5 -19 36 -19 28 0 44 4 40 10 -3 6
-18 10 -32 10 l-25 0 31 29 c17 16 31 35 31 43 0 19 -20 38 -40 38 -9 0 -21
-5 -28 -12z"/>
<path d="M3307 3202 c-21 -23 -22 -39 -3 -22 13 10 15 3 19 -42 3 -51 3 -50 5
15 1 37 0 67 -1 67 -2 0 -11 -8 -20 -18z"/>
<path d="M2710 2300 l0 -720 -370 0 -370 0 0 225 0 225 -530 0 -530 0 0 -455
0 -455 530 0 530 0 2 223 3 222 372 3 373 2 2 717 3 717 439 -3 c312 -2 436 1
431 8 -4 8 -142 11 -446 11 l-439 0 0 -720z m-750 -725 l0 -445 -520 0 -520 0
0 445 0 445 520 0 520 0 0 -445z"/>
<path d="M1157 1818 c-6 -40 -2 -45 18 -28 13 11 19 11 31 -2 13 -12 14 -20 5
-37 -14 -26 -27 -27 -40 -4 -5 10 -13 15 -17 11 -10 -11 15 -38 35 -38 23 0
41 20 41 46 0 26 -24 48 -45 40 -9 -3 -15 0 -15 9 0 9 10 15 24 15 14 0 28 5
31 10 4 6 -8 10 -28 10 -31 0 -35 -3 -40 -32z"/>
<path d="M1261 1836 c-18 -21 -10 -97 12 -110 28 -18 52 4 55 53 3 46 -10 71
-38 71 -10 0 -23 -6 -29 -14z m50 -23 c12 -31 -1 -78 -22 -78 -21 0 -35 50
-21 80 15 32 30 32 43 -2z"/>
<path d="M1600 1840 c0 -5 5 -10 10 -10 6 0 10 5 10 10 0 6 -4 10 -10 10 -5 0
-10 -4 -10 -10z"/>
<path d="M1422 1808 c-7 -7 -12 -24 -12 -38 0 -48 49 -69 70 -30 13 24 2 27
-15 3 -11 -15 -15 -15 -29 -4 -20 17 -21 45 -1 61 12 10 19 10 27 2 17 -17 33
-15 18 3 -15 18 -42 19 -58 3z"/>
<path d="M1511 1806 c-31 -37 9 -103 47 -80 36 23 23 94 -18 94 -10 0 -23 -6
-29 -14z m47 -8 c28 -28 -3 -83 -33 -58 -8 7 -15 20 -15 29 0 17 18 41 30 41
3 0 11 -5 18 -12z"/>
<path d="M1600 1770 c0 -27 5 -50 10 -50 6 0 10 23 10 50 0 28 -4 50 -10 50
-5 0 -10 -22 -10 -50z"/>
<path d="M1640 1769 c0 -60 18 -65 22 -6 2 29 8 42 18 42 10 0 16 -13 18 -42
4 -54 22 -57 22 -4 0 44 -13 59 -52 59 -27 0 -28 -3 -28 -49z"/>
<path d="M1350 1760 c0 -5 9 -10 20 -10 11 0 20 5 20 10 0 6 -9 10 -20 10 -11
0 -20 -4 -20 -10z"/>
<path d="M1081 1535 c1 -38 4 -58 6 -44 3 20 9 26 22 22 20 -5 51 21 51 43 0
33 -20 54 -50 52 l-30 -2 1 -71z m59 25 c0 -30 -21 -45 -39 -27 -23 23 -4 71
25 60 8 -3 14 -18 14 -33z"/>
<path d="M1182 1555 c1 -43 2 -45 5 -13 3 24 12 43 26 53 22 15 22 15 -6 13
-26 -2 -27 -5 -25 -53z"/>
<path d="M1246 1594 c-19 -18 -20 -38 -6 -65 13 -24 53 -25 71 -2 12 15 12 16
-6 9 -11 -4 -22 -8 -25 -8 -20 -2 -30 4 -30 17 0 10 11 15 35 15 38 0 40 2 25
31 -13 23 -43 25 -64 3z m54 -15 c0 -5 -11 -9 -25 -9 -26 0 -34 15 -12 23 16
5 37 -3 37 -14z"/>
<path d="M1340 1594 c-12 -14 -12 -18 5 -30 10 -8 25 -14 32 -14 7 0 13 -4 13
-9 0 -16 -21 -24 -33 -12 -17 17 -31 13 -17 -4 16 -19 44 -19 60 0 15 18 6 33
-28 46 -19 7 -22 13 -14 21 8 8 16 7 28 -3 15 -12 17 -12 12 1 -7 21 -42 24
-58 4z"/>
<path d="M1436 1594 c-19 -18 -20 -38 -6 -65 13 -24 53 -25 71 -2 12 15 12 16
-6 9 -11 -4 -22 -8 -25 -8 -20 -2 -30 4 -30 17 0 10 11 15 35 15 38 0 40 2 25
31 -13 23 -43 25 -64 3z m54 -15 c0 -5 -11 -9 -25 -9 -26 0 -34 15 -12 23 16
5 37 -3 37 -14z"/>
<path d="M1532 1556 c1 -41 2 -44 5 -16 9 71 49 76 56 7 4 -36 4 -35 3 8 -1
49 -1 50 -33 51 l-33 1 2 -51z"/>
<path d="M1628 1585 c-22 -49 25 -98 60 -63 19 19 14 33 -5 16 -25 -21 -43
-12 -43 22 0 30 21 45 39 27 13 -13 26 -3 16 12 -12 21 -55 12 -67 -14z"/>
<path d="M1726 1594 c-19 -18 -20 -38 -6 -65 13 -24 53 -25 71 -2 12 15 12 16
-6 9 -11 -4 -22 -8 -25 -8 -20 -2 -30 4 -30 17 0 10 11 15 35 15 38 0 40 2 25
31 -13 23 -43 25 -64 3z m54 -15 c0 -5 -11 -9 -25 -9 -26 0 -34 15 -12 23 16
5 37 -3 37 -14z"/>
<path d="M1180 1374 c-12 -14 -12 -18 5 -30 10 -8 25 -14 32 -14 7 0 13 -4 13
-9 0 -16 -21 -24 -33 -12 -17 17 -31 13 -17 -4 16 -19 44 -19 60 0 15 18 6 33
-28 46 -19 7 -22 13 -14 21 8 8 16 7 28 -3 15 -12 17 -12 12 1 -7 21 -42 24
-58 4z"/>
<path d="M1276 1374 c-19 -18 -20 -38 -6 -65 13 -24 53 -25 71 -2 12 15 12 16
-6 9 -11 -4 -22 -8 -25 -8 -20 -2 -30 4 -30 17 0 10 11 15 35 15 38 0 40 2 25
31 -13 23 -43 25 -64 3z m54 -15 c0 -5 -11 -9 -25 -9 -26 0 -34 15 -12 23 16
5 37 -3 37 -14z"/>
<path d="M1372 1336 c1 -41 2 -44 5 -16 9 71 49 76 56 7 4 -36 4 -35 3 8 -1
49 -1 50 -33 51 l-33 1 2 -51z"/>
<path d="M1470 1374 c-12 -14 -12 -18 5 -30 10 -8 25 -14 32 -14 7 0 13 -4 13
-9 0 -16 -21 -24 -33 -12 -17 17 -31 13 -17 -4 16 -19 44 -19 60 0 15 18 6 33
-28 46 -19 7 -22 13 -14 21 8 8 16 7 28 -3 15 -12 17 -12 12 1 -7 21 -42 24
-58 4z"/>
<path d="M1558 1365 c-15 -32 3 -75 31 -75 23 0 51 25 51 46 0 53 -61 75 -82
29z m62 -25 c0 -16 -6 -30 -12 -33 -24 -8 -38 5 -38 33 0 16 6 30 13 33 23 8
37 -5 37 -33z"/>
<path d="M1662 1335 c1 -43 2 -45 5 -13 3 24 12 43 26 53 22 15 22 15 -6 13
-26 -2 -27 -5 -25 -53z"/>
<path d="M6910 2595 l0 -185 -890 0 c-587 0 -890 -3 -890 -10 0 -7 303 -10
890 -10 l890 0 0 -185 0 -185 905 0 905 0 0 380 0 380 -905 0 -905 0 0 -185z
m1800 -195 l0 -370 -895 0 -895 0 0 370 0 370 895 0 895 0 0 -370z"/>
<path d="M7180 2460 c0 -5 9 -10 20 -10 16 0 20 -8 23 -57 l3 -58 2 58 c2 49
5 57 21 57 11 0 23 5 26 10 4 6 -13 10 -44 10 -28 0 -51 -4 -51 -10z"/>
<path d="M7307 2452 c-36 -40 -10 -112 41 -112 21 0 52 24 52 41 0 15 -11 10
-29 -12 -15 -18 -21 -20 -39 -10 -29 16 -31 76 -3 91 25 13 27 13 46 -6 9 -9
19 -13 23 -9 10 10 -28 35 -53 35 -12 0 -29 -8 -38 -18z"/>
<path d="M7431 2456 c-17 -21 -3 -45 33 -54 42 -11 48 -42 8 -42 -17 0 -32 6
-35 13 -2 6 -8 9 -12 5 -14 -13 16 -38 45 -38 62 0 63 56 1 74 -17 5 -31 15
-31 22 0 18 57 19 63 2 2 -7 7 -10 11 -7 12 11 -24 39 -48 39 -13 0 -29 -6
-35 -14z"/>
<path d="M7552 2458 c-20 -20 -13 -32 7 -14 11 10 25 15 30 11 20 -12 11 -41
-19 -68 -40 -36 -38 -47 10 -47 22 0 40 5 40 10 0 6 -14 10 -31 10 l-31 0 31
26 c17 14 31 33 31 43 0 21 -19 41 -40 41 -9 0 -21 -5 -28 -12z"/>
<path d="M7650 2455 c-7 -8 -10 -18 -6 -22 3 -4 13 2 20 13 12 16 17 17 28 5
11 -11 10 -15 -3 -24 -15 -10 -15 -12 3 -26 17 -14 17 -18 4 -36 -14 -19 -15
-19 -35 -1 -12 11 -21 14 -21 9 0 -16 27 -35 46 -31 24 4 39 32 29 54 -4 11
-8 30 -9 44 -1 30 -36 39 -56 15z"/>
<path d="M7751 2456 c-18 -21 -10 -97 12 -110 28 -18 52 4 55 53 3 46 -10 71
-38 71 -10 0 -23 -6 -29 -14z m50 -23 c12 -31 -1 -78 -22 -78 -21 0 -35 50
-21 80 15 32 30 32 43 -2z"/>
<path d="M7901 2456 c-17 -21 -3 -45 33 -54 42 -11 48 -42 8 -42 -17 0 -32 6
-35 13 -2 6 -8 9 -12 5 -14 -13 16 -38 45 -38 62 0 63 56 1 74 -17 5 -31 15
-31 22 0 18 57 19 63 2 2 -7 7 -10 11 -7 12 11 -24 39 -48 39 -13 0 -29 -6
-35 -14z"/>
<path d="M8022 2428 c-7 -7 -12 -24 -12 -38 0 -46 43 -67 70 -35 15 18 -1 20
-19 3 -10 -11 -15 -9 -27 7 -14 19 -13 20 20 23 20 2 36 9 36 16 0 17 -21 36
-40 36 -9 0 -21 -5 -28 -12z m46 -16 c2 -7 -6 -12 -17 -12 -21 0 -27 11 -14
24 9 9 26 2 31 -12z"/>
<path d="M8110 2389 c0 -60 18 -65 22 -6 2 29 8 42 18 42 10 0 16 -13 18 -42
4 -54 22 -57 22 -4 0 44 -13 59 -52 59 -27 0 -28 -3 -28 -49z"/>
<path d="M8217 2433 c-15 -14 -5 -33 24 -49 24 -12 28 -18 18 -24 -7 -5 -21
-4 -32 2 -15 8 -18 7 -15 -4 3 -7 18 -13 34 -13 22 0 30 5 32 21 2 17 -5 24
-29 33 -25 8 -30 14 -21 23 8 8 15 8 27 -2 8 -7 19 -10 22 -6 9 9 -16 26 -38
26 -9 0 -19 -3 -22 -7z"/>
<path d="M8311 2426 c-31 -37 9 -103 47 -80 36 23 23 94 -18 94 -10 0 -23 -6
-29 -14z m47 -8 c28 -28 -3 -83 -33 -58 -8 7 -15 20 -15 29 0 17 18 41 30 41
3 0 11 -5 18 -12z"/>
<path d="M8400 2390 c0 -27 5 -50 10 -50 6 0 10 18 10 40 0 27 6 42 18 49 14
9 13 10 -10 11 -27 0 -28 -2 -28 -50z"/>
<path d="M5329 2610 c-34 -20 -31 -88 5 -112 17 -12 61 -9 74 4 7 7 12 22 12
35 0 18 -6 23 -25 23 -14 0 -25 -4 -25 -10 0 -5 9 -10 20 -10 26 0 26 -16 -1
-30 -16 -9 -26 -8 -45 5 -31 20 -32 59 -2 79 28 20 33 20 53 0 9 -9 19 -13 23
-9 10 10 -28 35 -52 35 -12 0 -28 -5 -37 -10z"/>
<path d="M5451 2553 c1 -37 4 -56 6 -40 3 20 10 27 27 27 34 0 58 23 54 51 -3
21 -9 24 -45 27 l-43 3 1 -68z m74 27 c0 -10 -12 -16 -32 -18 -28 -3 -33 0
-33 18 0 18 5 21 33 18 20 -2 32 -8 32 -18z"/>
<path d="M5570 2555 c0 -37 4 -65 10 -65 6 0 10 28 10 65 0 37 -4 65 -10 65
-6 0 -10 -28 -10 -65z"/>
<path d="M5630 2600 c-39 -39 -11 -110 43 -110 32 0 57 30 57 67 0 56 -60 83
-100 43z m68 -6 c12 -8 22 -26 22 -39 0 -21 -32 -55 -52 -55 -15 0 -38 33 -38
55 0 22 23 55 38 55 4 0 18 -7 30 -16z"/>
<path d="M5816 2605 c-31 -31 -14 -115 22 -115 26 0 42 20 42 51 0 28 -28 47
-50 34 -5 -3 -10 0 -10 9 0 19 20 26 44 14 14 -8 17 -7 14 4 -7 19 -43 21 -62
3z m54 -69 c0 -18 -21 -35 -36 -29 -17 6 -18 50 -1 56 15 5 37 -11 37 -27z"/>
<path d="M5955 2610 c3 -5 17 -10 30 -10 l24 0 -19 -42 c-22 -48 -25 -68 -10
-68 6 0 10 9 10 20 0 12 9 38 20 60 11 22 20 42 20 45 0 3 -18 5 -41 5 -24 0
-38 -4 -34 -10z"/>
<path d="M6114 2605 c-4 -8 -4 -22 -1 -30 4 -8 2 -17 -3 -20 -15 -9 -12 -41 5
-55 8 -7 25 -10 40 -6 22 6 24 11 23 54 -1 26 -6 53 -11 60 -13 17 -46 15 -53
-3z m46 -21 c0 -17 -26 -19 -36 -3 -7 12 15 31 28 23 4 -3 8 -12 8 -20z m-6
-30 c19 -7 21 -40 4 -47 -29 -10 -53 25 -31 46 8 8 8 8 27 1z"/>
<path d="M6262 2608 c-28 -28 -1 -75 38 -65 24 6 27 -15 4 -34 -14 -11 -18
-11 -29 4 -17 24 -28 21 -15 -3 12 -22 40 -26 58 -8 7 7 12 30 12 53 0 43 -13
65 -40 65 -9 0 -21 -5 -28 -12z m46 -44 c-19 -19 -38 -11 -38 16 0 24 21 31
40 14 12 -12 12 -16 -2 -30z"/>
<path d="M6433 2603 c-28 -19 -30 -33 -4 -26 17 4 20 -1 24 -43 3 -42 4 -39 5
19 1 37 1 67 0 66 -2 0 -13 -7 -25 -16z"/>
<path d="M6510 2601 c-22 -43 -5 -111 28 -111 29 0 42 21 42 65 0 23 -5 46
-12 53 -18 18 -46 14 -58 -7z m60 -45 c0 -36 -16 -57 -36 -49 -18 7 -19 90 -1
96 20 7 37 -14 37 -47z"/>
<path d="M5913 2485 c0 -13 3 -22 8 -19 5 3 9 14 9 25 0 10 -4 19 -9 19 -5 0
-8 -11 -8 -25z"/>
<path d="M6063 2485 c0 -13 3 -22 8 -19 5 3 9 14 9 25 0 10 -4 19 -9 19 -5 0
-8 -11 -8 -25z"/>
<path d="M6213 2485 c0 -13 3 -22 8 -19 5 3 9 14 9 25 0 10 -4 19 -9 19 -5 0
-8 -11 -8 -25z"/>
<path d="M6363 2485 c0 -13 3 -22 8 -19 5 3 9 14 9 25 0 10 -4 19 -9 19 -5 0
-8 -11 -8 -25z"/>
<path d="M5679 2160 c-34 -20 -31 -88 5 -112 17 -12 61 -9 74 4 7 7 12 22 12
35 0 18 -6 23 -25 23 -14 0 -25 -4 -25 -10 0 -5 9 -10 20 -10 26 0 26 -16 -1
-30 -16 -9 -26 -8 -45 5 -31 20 -32 59 -2 79 28 20 33 20 53 0 9 -9 19 -13 23
-9 10 10 -28 35 -52 35 -12 0 -28 -5 -37 -10z"/>
<path d="M5801 2103 c1 -37 4 -56 6 -40 3 20 10 27 27 27 34 0 58 23 54 51 -3
21 -9 24 -45 27 l-43 3 1 -68z m74 27 c0 -10 -12 -16 -32 -18 -28 -3 -33 0
-33 18 0 18 5 21 33 18 20 -2 32 -8 32 -18z"/>
<path d="M5920 2105 c0 -37 4 -65 10 -65 6 0 10 28 10 65 0 37 -4 65 -10 65
-6 0 -10 -28 -10 -65z"/>
<path d="M5980 2150 c-39 -39 -11 -110 43 -110 32 0 57 30 57 67 0 56 -60 83
-100 43z m68 -6 c12 -8 22 -26 22 -39 0 -21 -32 -55 -52 -55 -15 0 -38 33 -38
55 0 22 23 55 38 55 4 0 18 -7 30 -16z"/>
<path d="M6167 2163 c-4 -3 -7 -20 -7 -36 0 -25 2 -28 15 -17 12 10 18 10 30
0 19 -16 19 -34 1 -49 -11 -9 -18 -8 -30 5 -10 9 -20 14 -23 10 -10 -9 18 -36
38 -36 23 0 52 42 43 63 -7 19 -39 31 -55 21 -7 -4 -10 -1 -7 7 2 8 17 15 31
17 15 2 27 8 27 13 0 10 -53 13 -63 2z"/>
<path d="M5145 1580 c4 -6 135 -10 361 -10 l354 0 0 -300 0 -300 450 0 450 0
0 -225 0 -225 530 0 530 0 0 455 0 455 -530 0 -530 0 0 -225 0 -225 -442 2
-443 3 -3 296 -2 296 -242 6 c-347 10 -490 9 -483 -3z m2665 -605 l0 -445
-520 0 -520 0 0 445 0 445 520 0 520 0 0 -445z"/>
<path d="M6920 1085 l0 -65 33 0 c48 0 58 11 54 61 -3 58 -12 69 -53 69 l-34
0 0 -65z m70 30 c0 -10 -10 -15 -30 -15 -20 0 -30 5 -30 15 0 10 10 15 30 15
20 0 30 -5 30 -15z m5 -55 c0 -10 -12 -16 -32 -18 -28 -3 -33 0 -33 18 0 18 5
21 33 18 20 -2 32 -8 32 -18z"/>
<path d="M7243 1085 c0 -38 1 -61 4 -50 8 33 19 37 33 10 7 -14 17 -25 22 -25
5 0 1 14 -7 31 -15 29 -15 32 1 50 9 10 12 19 7 19 -6 0 -16 -7 -23 -15 -19
-23 -28 -18 -33 18 -2 17 -4 1 -4 -38z"/>
<path d="M7528 1129 c-8 -25 8 -103 22 -107 12 -4 13 -2 3 9 -15 15 -17 61 -4
75 6 5 4 14 -4 21 -9 8 -15 9 -17 2z"/>
<path d="M7047 1114 c-14 -14 -7 -26 9 -14 12 11 18 10 31 -3 15 -14 13 -16
-18 -24 -24 -7 -34 -15 -34 -29 0 -15 7 -19 40 -20 l41 -1 -6 46 c-4 40 -8 46
-30 49 -14 2 -29 0 -33 -4z m41 -70 c-9 -9 -21 -13 -27 -10 -20 13 -11 26 16
26 25 0 26 -1 11 -16z"/>
<path d="M7142 1066 c1 -41 2 -44 5 -16 9 71 49 76 56 7 4 -36 4 -35 3 8 -1
49 -1 50 -33 51 l-33 1 2 -51z"/>
<path d="M7332 1066 c1 -41 2 -44 5 -16 9 71 49 76 56 7 4 -36 4 -35 3 8 -1
49 -1 50 -33 51 l-33 1 2 -51z"/>
<path d="M7428 1095 c-15 -32 3 -75 31 -75 23 0 51 25 51 46 0 53 -61 75 -82
29z m62 -25 c0 -16 -6 -30 -12 -33 -24 -8 -38 5 -38 33 0 16 6 30 13 33 23 8
37 -5 37 -33z"/>
<path d="M7586 1104 c-19 -18 -20 -38 -6 -65 13 -24 53 -25 71 -2 12 15 12 16
-6 9 -11 -4 -22 -8 -25 -8 -20 -2 -30 4 -30 17 0 10 11 15 35 15 38 0 40 2 25
31 -13 23 -43 25 -64 3z m54 -15 c0 -5 -11 -9 -25 -9 -26 0 -34 15 -12 23 16
5 37 -3 37 -14z"/>
<path d="M7318 909 c-8 -25 8 -103 22 -107 12 -4 13 -2 3 9 -15 15 -17 61 -4
75 6 5 4 14 -4 21 -9 8 -15 9 -17 2z"/>
<path d="M7072 846 c1 -41 2 -44 5 -16 9 69 43 77 43 9 0 -53 18 -50 22 4 4
60 31 58 39 -3 l7 -45 -2 50 -1 50 -57 1 -58 1 2 -51z"/>
<path d="M7218 875 c-15 -32 3 -75 31 -75 23 0 51 25 51 46 0 53 -61 75 -82
29z m62 -25 c0 -16 -6 -30 -12 -33 -24 -8 -38 5 -38 33 0 16 6 30 13 33 23 8
37 -5 37 -33z"/>
<path d="M7368 875 c-15 -32 3 -75 31 -75 23 0 51 25 51 46 0 53 -61 75 -82
29z m62 -25 c0 -16 -6 -30 -12 -33 -24 -8 -38 5 -38 33 0 16 6 30 13 33 23 8
37 -5 37 -33z"/>
<path d="M7472 845 c1 -43 2 -45 5 -13 3 24 12 43 26 53 22 15 22 15 -6 13
-26 -2 -27 -5 -25 -53z"/>
<path d="M6052 1134 c-33 -23 -27 -83 10 -103 38 -22 82 -5 86 32 3 24 0 27
-28 27 -18 0 -29 -4 -25 -10 3 -5 13 -10 21 -10 21 0 17 -18 -6 -30 -39 -21
-76 21 -59 66 10 30 38 37 65 19 25 -16 33 -8 12 13 -17 17 -49 15 -76 -4z"/>
<path d="M6170 1085 c0 -37 4 -65 10 -65 6 0 10 11 10 25 0 19 5 25 21 25 31
0 59 18 59 38 0 28 -21 42 -62 42 l-38 0 0 -65z m78 28 c-2 -11 -14 -19 -31
-21 -22 -3 -27 1 -27 17 0 17 6 21 31 21 24 0 30 -4 27 -17z"/>
<path d="M6303 1085 c0 -38 2 -53 4 -32 2 20 2 52 0 70 -2 17 -4 1 -4 -38z"/>
<path d="M6357 1132 c-37 -40 -10 -112 41 -112 29 0 62 34 62 65 0 54 -69 85
-103 47z m64 -2 c27 -15 26 -75 -1 -90 -31 -17 -70 12 -70 51 0 10 36 49 46
49 3 0 14 -5 25 -10z"/>
<path d="M6553 1113 c-40 -49 -40 -53 -8 -53 17 0 29 -7 35 -22 l9 -23 0 23
c1 12 7 22 14 22 9 0 9 2 0 8 -6 4 -13 25 -15 47 l-3 39 -32 -41z m24 -40 c-3
-3 -13 -3 -21 -1 -15 3 -15 6 1 28 l18 25 3 -23 c2 -13 1 -26 -1 -29z"/>
<path d="M1879 690 c-34 -20 -31 -88 5 -112 17 -12 61 -9 74 4 7 7 12 22 12
35 0 18 -6 23 -25 23 -14 0 -25 -4 -25 -10 0 -5 9 -10 20 -10 26 0 26 -16 -1
-30 -16 -9 -26 -8 -45 5 -31 20 -32 59 -2 79 28 20 33 20 53 0 9 -9 19 -13 23
-9 10 10 -28 35 -52 35 -12 0 -28 -5 -37 -10z"/>
<path d="M2001 633 c1 -37 4 -56 6 -40 3 20 10 27 27 27 34 0 58 23 54 51 -3
21 -9 24 -45 27 l-43 3 1 -68z m74 27 c0 -10 -12 -16 -32 -18 -28 -3 -33 0
-33 18 0 18 5 21 33 18 20 -2 32 -8 32 -18z"/>
<path d="M2120 635 c0 -37 4 -65 10 -65 6 0 10 28 10 65 0 37 -4 65 -10 65 -6
0 -10 -28 -10 -65z"/>
<path d="M2180 680 c-39 -39 -11 -110 43 -110 32 0 57 30 57 67 0 56 -60 83
-100 43z m68 -6 c28 -20 28 -58 0 -78 -12 -9 -26 -16 -30 -16 -15 0 -38 33
-38 55 0 22 23 55 38 55 4 0 18 -7 30 -16z"/>
<path d="M2360 685 c-7 -9 -10 -18 -6 -22 3 -4 13 2 20 13 14 18 16 18 32 2
17 -17 17 -20 -19 -56 -20 -21 -37 -41 -37 -45 0 -4 18 -7 40 -7 22 0 40 5 40
10 0 6 -12 10 -27 10 l-27 0 27 28 c30 31 35 67 11 76 -25 10 -41 7 -54 -9z"/>
<path d="M2460 685 c-7 -9 -10 -18 -6 -22 3 -4 13 2 20 13 14 18 16 18 32 2
17 -17 17 -20 -19 -56 -20 -21 -37 -41 -37 -45 0 -4 18 -7 40 -7 22 0 40 5 40
10 0 6 -12 10 -27 10 l-27 0 27 28 c30 31 35 67 11 76 -25 10 -41 7 -54 -9z"/>
<path d="M2610 685 c-7 -9 -10 -18 -6 -22 3 -4 13 2 20 13 14 18 16 18 32 2
17 -17 17 -20 -19 -56 -20 -21 -37 -41 -37 -45 0 -4 18 -7 40 -7 22 0 40 5 40
10 0 6 -12 10 -27 10 l-27 0 27 28 c30 31 35 67 11 76 -25 10 -41 7 -54 -9z"/>
<path d="M2716 685 c-31 -31 -14 -115 22 -115 26 0 42 20 42 51 0 28 -28 47
-50 34 -5 -3 -10 0 -10 9 0 19 20 26 44 14 14 -8 17 -7 14 4 -7 19 -43 21 -62
3z m54 -69 c0 -18 -21 -35 -36 -29 -17 6 -18 50 -1 56 15 5 37 -11 37 -27z"/>
<path d="M2860 685 c-7 -9 -10 -18 -6 -22 3 -4 13 2 20 13 14 18 16 18 32 2
17 -17 17 -20 -19 -56 -20 -21 -37 -41 -37 -45 0 -4 18 -7 40 -7 22 0 40 5 40
10 0 6 -12 10 -27 10 l-27 0 27 28 c30 31 35 67 11 76 -25 10 -41 7 -54 -9z"/>
<path d="M2955 690 c3 -5 17 -10 30 -10 l24 0 -19 -42 c-22 -48 -25 -68 -10
-68 6 0 10 9 10 20 0 12 9 38 20 60 11 22 20 42 20 45 0 3 -18 5 -41 5 -24 0
-38 -4 -34 -10z"/>
<path d="M3110 685 c-7 -9 -10 -18 -6 -22 3 -4 13 2 20 13 14 18 16 18 32 2
17 -17 17 -20 -19 -56 -20 -21 -37 -41 -37 -45 0 -4 18 -7 40 -7 22 0 40 5 40
10 0 6 -12 10 -27 10 l-27 0 27 28 c30 31 35 67 11 76 -25 10 -41 7 -54 -9z"/>
<path d="M3214 685 c-4 -8 -4 -22 -1 -30 4 -8 2 -17 -3 -20 -15 -9 -12 -41 5
-55 8 -7 25 -10 40 -6 22 6 24 11 23 54 -1 26 -6 53 -11 60 -13 17 -46 15 -53
-3z m46 -21 c0 -17 -26 -19 -36 -3 -7 12 15 31 28 23 4 -3 8 -12 8 -20z m-6
-30 c19 -7 21 -40 4 -47 -29 -10 -53 25 -31 46 8 8 8 8 27 1z"/>
<path d="M2563 565 c0 -13 3 -22 8 -19 5 3 9 14 9 25 0 10 -4 19 -9 19 -5 0
-8 -11 -8 -25z"/>
<path d="M2813 565 c0 -13 3 -22 8 -19 5 3 9 14 9 25 0 10 -4 19 -9 19 -5 0
-8 -11 -8 -25z"/>
<path d="M3063 565 c0 -13 3 -22 8 -19 5 3 9 14 9 25 0 10 -4 19 -9 19 -5 0
-8 -11 -8 -25z"/>
</g>
</svg>
