<svg viewBox="0 0 468 329" version="1.1" xmlns="http://www.w3.org/2000/svg" desc="Created with imagetracer-ts 1.0.2" >
 <path fill="rgb(254,254,254)" stroke="rgb(254,254,254)" stroke-width="1" d="M 0 0 L 468 0 L 468 329 L 0 329 L 0 0 Z M 355.5 13 L 352.5 14 L 348 19.5 L 348 62.5 L 350 66 L 353.5 68 L 400 68.5 L 397 73.5 L 397 75 L 400 75.5 L 400 136 L 353.5 136 L 350 138 L 348 141.5 L 347.5 162 L 342.5 159 L 341 159 L 340.5 162 L 263 162 L 263 137.5 L 261.5 136 L 156.5 136 L 155 137.5 L 155 161.5 L 154.5 162 L 70 162 L 70 110.5 L 73 110 L 71 103 L 116.5 103 L 118.5 102 L 123 96.5 L 123 55.5 L 121 51.5 L 117.5 49 L 20.5 49 L 18.5 50 L 15 57.5 L 15 87.5 L 16 88.5 Q 14.5 96 17 99.5 L 21.5 103 L 67 103 L 65 108.5 L 65 110 L 68 110.5 L 68 164 L 154.5 164 L 155 164.5 L 155 189.5 L 156.5 191 L 207 191 L 205 196.5 Q 206.3 199.2 207.5 197 L 208 267 L 161.5 267 L 158.5 269 L 155 274.5 L 155 314.5 L 157 318.5 L 161.5 322 L 256.5 322 L 258.5 321 L 263 314.5 L 263 274.5 L 261 270.5 L 256.5 267 L 210 267 L 210.5 197 L 213 198 L 211 192.5 L 211.5 191 L 261.5 191 L 263 189.5 L 263 164 L 340.5 164 L 341 167 L 348 165 L 348 184.5 L 349 186.5 L 354.5 191 L 448.5 191 L 450.5 190 L 455 184.5 L 455 142.5 L 453 138 L 449.5 136 L 403.5 136 L 402 134.5 L 402 79.5 L 402 77.5 L 403 75 L 406 73.5 L 403 68 L 448.5 68 L 450.5 67 L 455 61.5 L 455 19.5 L 454 17.5 Q 453.3 13.3 447.5 14 L 445.5 14 L 436.5 14 L 435.5 13 L 427.5 13 L 426.5 14 L 413.5 14 L 412.5 13 L 404.5 13 L 403.5 14 L 391.5 14 L 390.5 13 L 382.5 13 L 381.5 14 L 369.5 14 L 368.5 13 L 365.5 14 L 361.5 14 L 355.5 13 Z M 405 99 L 405 107.5 L 407.5 108 L 409.5 108 Q 416.8 110.3 415 105 L 412.5 106 L 410 104.5 L 411 101 L 415 103 L 413.5 99 Q 409.3 98.3 408.5 101 L 405 99 Z M 75.5 134 L 72 143 Q 76.1 144.3 75 141 Q 78.1 140.3 77.5 143 L 85.5 143 Q 87.5 139 89.5 143 L 94.5 142 L 100 143 L 101 140.5 L 100 135.5 L 96.5 134 Q 94.5 138 92.5 134 Q 88.3 133.3 87.5 136 Q 85.3 133 80 134 L 79.5 140 L 78 135.5 L 75.5 134 Z M 344.5 215 L 341 217 L 339 220.5 L 339 239 L 335.5 238 Q 330.7 236.7 332 240 L 325.5 240 L 324.5 241 L 300.5 241 L 299.5 242 Q 294.7 240.7 296 244 L 332 243 L 333.5 246 L 338.5 243 L 339 263.5 L 340 265.5 L 344.5 269 L 440.5 269 L 442.5 268 L 446 263.5 L 446 220.5 L 445 218.5 L 440.5 215 L 344.5 215 Z M 282.5 224 L 280 227.5 L 283.5 233 L 287.5 232 L 289.5 233 L 291 233 L 291 229 L 296 229.5 L 295 231.5 L 298 233 L 298.5 230 L 299 232 L 301.5 233 L 304.5 232 L 307.5 233 Q 312 234 313 231.5 L 310.5 231 L 313 227.5 L 311.5 224 Q 305.6 222.3 307 226 L 310 226.5 L 306.5 231 L 307 229.5 Q 307.8 224.8 304.5 224 Q 299.5 223 298.5 226 L 298 224 L 289.5 224 L 288.5 225 Q 287.3 222.7 282.5 224 Z M 218 231 L 218 234.5 Q 220.5 236 217 237.5 Q 217.8 240.8 222.5 240 Q 224.5 236 226.5 240 L 229.5 239 L 231.5 240 Q 234.1 238.6 233.5 234 L 234 238.5 L 237.5 240 L 241.5 239 L 243.5 240 L 245 238.5 L 245 231 Q 241.2 229.5 242 232.5 L 240.5 232 L 236.5 233 L 236 231 L 230.5 233 L 228.5 232 L 225.5 233 Q 223.8 229.5 218 231 Z" />
 <path fill="rgb(254,254,254)" stroke="rgb(254,254,254)" stroke-width="1" d="M 353.5 16 L 448.5 16 L 451 17 L 453 21.5 L 453 59.5 L 449.5 65 L 446.5 66 L 355.5 66 L 351 62.5 L 350 60.5 L 350 21.5 L 353.5 16 Z M 371.5 35 L 369 37.5 Q 368.3 40.1 371 39 L 371 44 L 373 44 L 373 36.5 L 371.5 35 Z M 376.5 35 L 374 37.5 Q 372.8 42.8 375.5 44 Q 381 45.5 382.5 43 L 383.5 44 L 391 44 Q 392.1 41.3 389.5 42 L 391 39.5 Q 391.8 35.8 389.5 35 L 386.5 35 L 382.5 38 L 376.5 35 Z M 395.5 35 L 394 36.5 L 394 44 L 402.5 44 L 401 41.5 L 403 41 L 404.5 44 Q 411.8 46.3 410 41 L 407.5 42 L 405 40.5 L 406.5 37 L 410 39 L 408.5 35 Q 404.3 34.3 403.5 37 L 400.5 35 L 397.5 36 L 395.5 35 Z M 414.5 35 L 413 36.5 L 413 44 L 433 44 L 434 37.5 Q 433 34 427.5 35 L 425.5 35 Q 420.3 33.8 419 36.5 Q 421.3 43.8 416 42 Q 417.5 36.6 414.5 35 Z" />
 <path fill="rgb(254,254,254)" stroke="rgb(254,254,254)" stroke-width="1" d="M 387.5 37 L 388 39.5 L 384 42 L 385 38 L 387.5 37 Z" />
 <path fill="rgb(254,254,254)" stroke="rgb(254,254,254)" stroke-width="1" d="M 399.5 37 L 400 38.5 L 397.5 42 L 397 38 L 399.5 37 Z" />
 <path fill="rgb(254,254,254)" stroke="rgb(254,254,254)" stroke-width="1" d="M 422 37 Q 427.2 35.3 426 39 Q 420.8 40.7 422 37 Z" />
 <path fill="rgb(254,254,254)" stroke="rgb(254,254,254)" stroke-width="1" d="M 429 37 L 431 37 L 431 42 L 429 42 L 429 37 Z" />
 <path fill="rgb(254,254,254)" stroke="rgb(254,254,254)" stroke-width="1" d="M 380.5 39 L 381 41.5 L 380 41.5 L 380.5 39 Z" />
 <path fill="rgb(254,254,254)" stroke="rgb(254,254,254)" stroke-width="1" d="M 422.5 41 L 426 41.5 L 422.5 42 L 422.5 41 Z" />
 <path fill="rgb(254,254,254)" stroke="rgb(254,254,254)" stroke-width="1" d="M 21.5 51 L 116.5 51 L 119 53.5 L 120 55.5 L 120 96.5 L 119 99 L 114.5 101 L 23.5 101 L 19 99 L 18 96.5 L 18 54.5 L 21.5 51 Z M 49.5 64 Q 46 67.2 46 73 L 49.5 71 L 51 71 L 51.5 73 L 58.5 73 L 60.5 73 L 64.5 71 L 66.5 73 L 78.5 73 L 80.5 73 L 85.5 72 L 89.5 73 Q 91.8 72.3 91 68.5 L 88 66.5 L 91 66 L 91 64 L 86 64 L 85.5 66 Q 84.3 63 80 64 Q 78.5 67.7 81.5 67 Q 79.9 68.8 83 70.5 L 81.5 71 Q 78.3 70.3 79 65.5 Q 77.8 63 74 64 Q 72.5 67.7 75.5 67 L 77 66.5 Q 77.8 68.8 75.5 68 L 77 70.5 L 75.5 71 L 73.5 71 L 71 71 L 71 65.5 Q 70.3 63.3 66.5 64 Q 64.5 68 62.5 64 L 60.5 65 L 54.5 64 L 52.5 68 L 51 65.5 Q 51.8 63.3 49.5 64 Z M 38.5 77 Q 34.9 78.9 35 84.5 L 34.5 86 Q 38.3 87 37 84 L 40.5 86 L 46.5 86 L 48.5 86 L 68.5 86 Q 69.5 86 69 81.5 L 70 81.5 Q 67.8 88.3 74.5 86 L 76.5 86 Q 79.1 86.8 78 83.5 L 79 83.5 Q 78 87.3 81 86 L 81.5 82 L 82 86 L 89.5 86 L 90.5 85 L 91.5 86 L 102 86 L 103 80.5 Q 103.9 77.5 99.5 79 L 97.5 79 L 93.5 80 L 91.5 77 L 90 79.5 L 88.5 79 L 85.5 80 L 76.5 79 L 74.5 79 Q 68.2 77.3 66.5 80 L 64.5 79 L 60.5 80 L 59.5 77 L 57.5 80 L 53.5 79 L 51.5 79 L 47.5 80 L 43.5 79 L 41.5 82 L 38.5 77 Z" />
 <path fill="rgb(254,254,254)" stroke="rgb(254,254,254)" stroke-width="1" d="M 56 66 L 58 66 L 58 71 L 56 71 L 56 66 Z" />
 <path fill="rgb(254,254,254)" stroke="rgb(254,254,254)" stroke-width="1" d="M 67.5 66 L 68 70.5 L 66 69.5 L 67.5 66 Z" />
 <path fill="rgb(254,254,254)" stroke="rgb(254,254,254)" stroke-width="1" d="M 61.5 67 L 62 69.5 L 61 69.5 L 61.5 67 Z" />
 <path fill="rgb(254,254,254)" stroke="rgb(254,254,254)" stroke-width="1" d="M 87.5 69 L 88.5 71 Q 85.7 71.7 87.5 69 Z" />
 <path fill="rgb(254,254,254)" stroke="rgb(254,254,254)" stroke-width="1" d="M 44.5 81 L 47 82 Q 48.1 85.3 44 84 L 44.5 81 Z" />
 <path fill="rgb(254,254,254)" stroke="rgb(254,254,254)" stroke-width="1" d="M 72.5 81 L 73 83.5 L 72 83.5 L 72.5 81 Z" />
 <path fill="rgb(254,254,254)" stroke="rgb(254,254,254)" stroke-width="1" d="M 50 82 Q 53 81 52 84 Q 49 85 50 82 Z" />
 <path fill="rgb(254,254,254)" stroke="rgb(254,254,254)" stroke-width="1" d="M 82 136 Q 84.7 134.9 84 137.5 L 85 139.5 L 82 141 L 82 136 Z" />
 <path fill="rgb(254,254,254)" stroke="rgb(254,254,254)" stroke-width="1" d="M 91.5 136 L 94 140 L 90 141 Q 89 137.2 91.5 136 Z" />
 <path fill="rgb(254,254,254)" stroke="rgb(254,254,254)" stroke-width="1" d="M 97.5 137 L 98 140.5 L 97 140.5 L 97.5 137 Z" />
 <path fill="rgb(254,254,254)" stroke="rgb(254,254,254)" stroke-width="1" d="M 158 138 L 259.5 138 L 260 138.5 L 260 160 L 256.5 161 L 246.5 158 Q 243.5 159.5 246.5 161 L 248 160.5 L 245 164.5 L 245 167 L 251 167 L 251 165 L 249 164.5 Q 250.5 161.5 252 164.5 Q 250.9 167.8 253.5 167 L 255.5 167 Q 259.3 168.3 258 164.5 L 259.5 161 L 260 189 L 158.5 189 L 158 188.5 L 158 166.5 L 159.5 167 Q 161.8 167.8 161 165.5 L 163 164.5 L 164.5 167 L 175.5 167 L 176.5 166 L 178.5 169 L 182.5 166 L 187.5 167 L 189.5 166 L 193.5 167 L 195.5 167 Q 198.5 167.9 197 163.5 L 198 163.5 Q 196.5 167.9 199.5 167 L 201.5 162 L 203 165.5 Q 199.3 167.3 202.5 169 L 205 167.5 L 207 160 L 204.5 161 L 197.5 159 L 192.5 160 L 190.5 160 L 188.5 161 L 183 158 Q 184.1 160.7 181.5 160 L 179.5 160 L 174.5 159 L 170.5 160 L 168.5 159 L 166 160.5 L 164.5 158 Q 159.8 156.8 158.5 159 L 158 138 Z M 210 158 L 210 167 Q 213.7 168.2 212 163 Q 219.1 160.6 217 167 L 219 166.5 L 219 158 L 216.5 159 L 210 158 Z M 222 158 L 222 166.5 L 223.5 167 L 225 163 L 229 163 L 229 167 L 230.5 167 L 232.5 167 L 236.5 166 L 238.5 167 Q 242.5 167.5 243 164.5 L 242 161.5 Q 242.9 158.1 237.5 160 L 233.5 160 Q 229.8 161 231 158 L 228.5 159 L 222 158 Z" />
 <path fill="rgb(254,254,254)" stroke="rgb(254,254,254)" stroke-width="1" d="M 355.5 138 L 446.5 138 L 452 141.5 L 453 144.5 L 453 182.5 L 451 187 L 446.5 189 L 356.5 189 L 351 185.5 L 350 182.5 L 350 143.5 L 353.5 139 L 355.5 138 Z M 385 158 L 385 167 L 390.5 167 L 391 165.5 L 392 165.5 L 392.5 167 L 407.5 167 L 409.5 167 L 413.5 166 L 415.5 167 L 418 160 L 413.5 161 L 410.5 159 Q 408.5 163 406.5 159 L 403.5 160 L 400.5 159 L 398.5 160 Q 392.8 158.2 395 164.5 L 394 164.5 L 394 160 Q 389.8 161 390.5 158 L 385 158 Z" />
 <path fill="rgb(254,254,254)" stroke="rgb(254,254,254)" stroke-width="1" d="M 161.5 160 L 163 160.5 L 161.5 161 L 161.5 160 Z" />
 <path fill="rgb(254,254,254)" stroke="rgb(254,254,254)" stroke-width="1" d="M 212.5 160 L 214 160.5 L 212.5 161 L 212.5 160 Z" />
 <path fill="rgb(254,254,254)" stroke="rgb(254,254,254)" stroke-width="1" d="M 225.5 160 L 227 160.5 L 225.5 161 L 225.5 160 Z" />
 <path fill="rgb(254,254,254)" stroke="rgb(254,254,254)" stroke-width="1" d="M 387.5 160 L 389 160.5 L 387.5 161 L 387.5 160 Z" />
 <path fill="rgb(254,254,254)" stroke="rgb(254,254,254)" stroke-width="1" d="M 165.5 162 L 166 163.5 L 165 163.5 L 165.5 162 Z" />
 <path fill="rgb(254,254,254)" stroke="rgb(254,254,254)" stroke-width="1" d="M 234.5 162 L 235.5 164 Q 232.7 164.7 234.5 162 Z" />
 <path fill="rgb(254,254,254)" stroke="rgb(254,254,254)" stroke-width="1" d="M 239.5 162 L 240 163.5 L 239 163.5 L 239.5 162 Z" />
 <path fill="rgb(254,254,254)" stroke="rgb(254,254,254)" stroke-width="1" d="M 402.5 162 L 404 162.5 L 400.5 165 L 402.5 162 Z" />
 <path fill="rgb(254,254,254)" stroke="rgb(254,254,254)" stroke-width="1" d="M 158.5 163 L 159 164.5 L 158 164.5 L 158.5 163 Z" />
 <path fill="rgb(254,254,254)" stroke="rgb(254,254,254)" stroke-width="1" d="M 387 163 Q 390 162 389 165 Q 386 166 387 163 Z" />
 <path fill="rgb(254,254,254)" stroke="rgb(254,254,254)" stroke-width="1" d="M 407.5 163 L 408 165 L 406 164.5 L 407.5 163 Z" />
 <path fill="rgb(254,254,254)" stroke="rgb(254,254,254)" stroke-width="1" d="M 346.5 217 L 438.5 217 L 444 221.5 L 444 262.5 L 442 266 L 439.5 267 L 345.5 267 L 341 261.5 L 341 223.5 L 344.5 218 L 346.5 217 Z M 382 237 L 382 244.5 Q 383 247 387.5 246 L 389.5 246 L 394.5 245 L 401 246 L 403 242.5 Q 403.8 237.8 400.5 237 L 388 237 L 388 244 L 385 244 L 385 237 L 382 237 Z" />
 <path fill="rgb(254,254,254)" stroke="rgb(254,254,254)" stroke-width="1" d="M 284.5 226 L 286 226.5 L 284 227 L 286 231 Q 283.3 232.1 284 229.5 L 283 227.5 L 284.5 226 Z" />
 <path fill="rgb(254,254,254)" stroke="rgb(254,254,254)" stroke-width="1" d="M 291.5 226 L 293 226.5 L 291.5 227 L 291.5 226 Z" />
 <path fill="rgb(254,254,254)" stroke="rgb(254,254,254)" stroke-width="1" d="M 301 226 Q 305.5 224.3 304 229.5 Q 302.5 232.5 301 229.5 L 301 226 Z" />
 <path fill="rgb(254,254,254)" stroke="rgb(254,254,254)" stroke-width="1" d="M 220 236 Q 223 235 222 238 Q 219 239 220 236 Z" />
 <path fill="rgb(254,254,254)" stroke="rgb(254,254,254)" stroke-width="1" d="M 394.5 238 L 395 244 L 391 242.5 L 394 242 Q 395.3 239 391.5 240 L 391.5 239 L 394.5 238 Z" />
 <path fill="rgb(254,254,254)" stroke="rgb(254,254,254)" stroke-width="1" d="M 398.5 239 L 400 242.5 L 398 243.5 L 398.5 239 Z" />
 <path fill="rgb(254,254,254)" stroke="rgb(254,254,254)" stroke-width="1" d="M 164.5 269 L 254.5 269 L 260 273.5 L 260 315.5 L 259 318 L 254.5 320 L 163.5 320 L 159 318 L 158 315.5 L 158 273.5 L 164.5 269 Z M 202.5 289 L 201 290.5 Q 199.5 296.5 202.5 298 Q 205.5 298.7 204 295 L 207.5 294 L 210.5 298 Q 215 299 216 296.5 Q 216.8 293.9 213.5 295 Q 212.3 297.2 211 294.5 L 212.5 291 L 216 293 L 213.5 289 Q 209.3 288.3 208.5 291 Q 207.5 288 202.5 289 Z" />
 <path fill="rgb(254,254,254)" stroke="rgb(254,254,254)" stroke-width="1" d="M 204.5 291 Q 206.8 290.3 206 292.5 L 204.5 291 Z" />
 <path fill="rgb(213,213,213)" stroke="rgb(213,213,213)" stroke-width="1" d="M 355.5 13 L 357 13.5 L 355.5 14 L 355.5 13 Z" />
 <path fill="rgb(213,213,213)" stroke="rgb(213,213,213)" stroke-width="1" d="M 367.5 13 L 369 13.5 L 367.5 14 L 367.5 13 Z" />
 <path fill="rgb(213,213,213)" stroke="rgb(213,213,213)" stroke-width="1" d="M 382.5 13 L 391 13.5 L 382.5 14 L 382.5 13 Z" />
 <path fill="rgb(213,213,213)" stroke="rgb(213,213,213)" stroke-width="1" d="M 404.5 13 L 413 13.5 L 404.5 14 L 404.5 13 Z" />
 <path fill="rgb(213,213,213)" stroke="rgb(213,213,213)" stroke-width="1" d="M 427.5 13 L 436 13.5 L 427.5 14 L 427.5 13 Z" />
 <path fill="rgb(213,213,213)" stroke="rgb(213,213,213)" stroke-width="1" d="M 352.5 14 L 349.5 18 L 352.5 14 Z" />
 <path fill="rgb(213,213,213)" stroke="rgb(213,213,213)" stroke-width="1" d="M 449.5 14 L 454 17.5 L 450.5 15 L 449.5 14 Z" />
 <path fill="rgb(213,213,213)" stroke="rgb(213,213,213)" stroke-width="1" d="M 355.5 15 L 448 15.5 L 355.5 16 L 355.5 15 Z" />
 <path fill="rgb(213,213,213)" stroke="rgb(213,213,213)" stroke-width="1" d="M 350.5 19 L 351 20.5 L 350 20.5 L 350.5 19 Z" />
 <path fill="rgb(213,213,213)" stroke="rgb(213,213,213)" stroke-width="1" d="M 454.5 19 L 455 22.5 L 454 22.5 L 454.5 19 Z" />
 <path fill="rgb(213,213,213)" stroke="rgb(213,213,213)" stroke-width="1" d="M 371.5 35 L 370 37.5 L 369.5 39 L 369 37.5 L 371.5 35 Z" />
 <path fill="rgb(213,213,213)" stroke="rgb(213,213,213)" stroke-width="1" d="M 376.5 35 L 382.5 38 L 386.5 35 L 389.5 35 L 390.5 37 L 386 36 Q 387.3 39 383.5 38 L 381.5 38 Q 379.3 37.3 380 39.5 L 377 37.5 L 379 37.5 Q 379.8 34.9 376.5 36 L 376.5 35 Z" />
 <path fill="rgb(213,213,213)" stroke="rgb(213,213,213)" stroke-width="1" d="M 395.5 35 L 397.5 36 L 400.5 35 L 400.5 36 L 398 36.5 L 398.5 38 L 397 37.5 L 396.5 44 L 395.5 36 L 394.5 44 L 394 36.5 L 395.5 35 Z" />
 <path fill="rgb(213,213,213)" stroke="rgb(213,213,213)" stroke-width="1" d="M 405.5 35 Q 409.3 34.3 410 36.5 L 408.5 36 Q 404.5 36.8 405.5 35 Z" />
 <path fill="rgb(213,213,213)" stroke="rgb(213,213,213)" stroke-width="1" d="M 414.5 35 Q 417.5 36.6 416 42 Q 421.3 43.8 419 36.5 Q 420.3 33.8 425.5 35 L 427.5 35 Q 433 34 434 37.5 L 433.5 42 Q 434.1 37.4 431.5 36 L 427 36 L 427 43.5 L 425.5 43 L 422 42.5 L 426 41.5 L 425 39.5 L 426 37.5 Q 424.6 34.8 420 36 L 419.5 44 L 415 41.5 L 414.5 36 L 413.5 44 L 413 36.5 L 414.5 35 Z" />
 <path fill="rgb(213,213,213)" stroke="rgb(213,213,213)" stroke-width="1" d="M 388.5 37 L 389 38.5 L 388 38.5 L 388.5 37 Z" />
 <path fill="rgb(213,213,213)" stroke="rgb(213,213,213)" stroke-width="1" d="M 402 37 L 404 37.5 L 403 41 L 401 41.5 L 405 43.5 L 401.5 43 Q 399.3 43.8 400 41.5 Q 402.8 40.4 402 37 Z" />
 <path fill="rgb(213,213,213)" stroke="rgb(213,213,213)" stroke-width="1" d="M 407.5 37 L 408.5 39 L 407.5 37 Z" />
 <path fill="rgb(213,213,213)" stroke="rgb(213,213,213)" stroke-width="1" d="M 400.5 38 L 398.5 41 L 400.5 38 Z" />
 <path fill="rgb(213,213,213)" stroke="rgb(213,213,213)" stroke-width="1" d="M 431.5 38 L 432 40.5 L 431 40.5 L 431.5 38 Z" />
 <path fill="rgb(213,213,213)" stroke="rgb(213,213,213)" stroke-width="1" d="M 390.5 39 L 389.5 42 L 391 42.5 L 388 43 L 387.5 41 L 383.5 44 L 379 43.5 L 380.5 42 L 384.5 42 L 387.5 40 Q 389 42.5 390.5 39 Z" />
 <path fill="rgb(213,213,213)" stroke="rgb(213,213,213)" stroke-width="1" d="M 376 40 L 378 40.5 L 376 41.5 L 376 40 Z" />
 <path fill="rgb(213,213,213)" stroke="rgb(213,213,213)" stroke-width="1" d="M 405.5 41 L 407.5 42 L 409 41.5 L 406.5 43 L 405.5 41 Z" />
 <path fill="rgb(213,213,213)" stroke="rgb(213,213,213)" stroke-width="1" d="M 374.5 42 L 375.5 44 L 374.5 42 Z" />
 <path fill="rgb(213,213,213)" stroke="rgb(213,213,213)" stroke-width="1" d="M 429.5 42 L 431 42.5 L 429.5 43 L 429.5 42 Z" />
 <path fill="rgb(213,213,213)" stroke="rgb(213,213,213)" stroke-width="1" d="M 18.5 50 L 17.5 52 L 18.5 50 Z" />
 <path fill="rgb(213,213,213)" stroke="rgb(213,213,213)" stroke-width="1" d="M 22.5 50 L 116 50.5 L 22.5 51 L 22.5 50 Z" />
 <path fill="rgb(213,213,213)" stroke="rgb(213,213,213)" stroke-width="1" d="M 119.5 50 L 120.5 52 L 119.5 50 Z" />
 <path fill="rgb(213,213,213)" stroke="rgb(213,213,213)" stroke-width="1" d="M 20.5 51 L 18.5 54 L 20.5 51 Z" />
 <path fill="rgb(213,213,213)" stroke="rgb(213,213,213)" stroke-width="1" d="M 117.5 51 L 121 55.5 L 121 95.5 L 120 95.5 L 120 55.5 L 117.5 51 Z" />
 <path fill="rgb(213,213,213)" stroke="rgb(213,213,213)" stroke-width="1" d="M 122.5 55 L 123 96.5 L 121 97.5 L 122 96.5 L 122.5 55 Z" />
 <path fill="rgb(213,213,213)" stroke="rgb(213,213,213)" stroke-width="1" d="M 17.5 56 L 18 95.5 L 17 95.5 L 17.5 56 Z" />
 <path fill="rgb(213,213,213)" stroke="rgb(213,213,213)" stroke-width="1" d="M 15.5 57 L 16 87.5 L 15 87.5 L 15.5 57 Z" />
 <path fill="rgb(213,213,213)" stroke="rgb(213,213,213)" stroke-width="1" d="M 452.5 60 L 453 61.5 L 452 61.5 L 452.5 60 Z" />
 <path fill="rgb(213,213,213)" stroke="rgb(213,213,213)" stroke-width="1" d="M 454.5 60 L 455 61.5 L 454 61.5 L 454.5 60 Z" />
 <path fill="rgb(213,213,213)" stroke="rgb(213,213,213)" stroke-width="1" d="M 351.5 63 L 352.5 65 L 351.5 63 Z" />
 <path fill="rgb(213,213,213)" stroke="rgb(213,213,213)" stroke-width="1" d="M 451.5 63 L 450.5 65 L 451.5 63 Z" />
 <path fill="rgb(213,213,213)" stroke="rgb(213,213,213)" stroke-width="1" d="M 49.5 64 L 51 64.5 L 48.5 66 L 49.5 64 Z" />
 <path fill="rgb(213,213,213)" stroke="rgb(213,213,213)" stroke-width="1" d="M 54.5 64 L 54 65.5 L 53.5 71 L 51 66.5 L 52 66.5 L 52.5 68 L 54.5 64 Z" />
 <path fill="rgb(213,213,213)" stroke="rgb(213,213,213)" stroke-width="1" d="M 58.5 64 L 60.5 65 L 62.5 64 L 64.5 67 L 61.5 65 L 63 67.5 L 60.5 73 Q 60.9 65.9 58.5 64 Z M 61.5 67 L 61 69.5 L 62 69.5 L 61.5 67 Z" />
 <path fill="rgb(213,213,213)" stroke="rgb(213,213,213)" stroke-width="1" d="M 66.5 64 Q 70.3 63.3 71 65.5 L 70.5 71 L 70 65 L 67.5 66 L 66.5 64 Z" />
 <path fill="rgb(213,213,213)" stroke="rgb(213,213,213)" stroke-width="1" d="M 74 64 L 76 64.5 L 75.5 67 Q 72.5 67.7 74 64 Z" />
 <path fill="rgb(213,213,213)" stroke="rgb(213,213,213)" stroke-width="1" d="M 77.5 64 L 78.5 66 L 77.5 64 Z" />
 <path fill="rgb(213,213,213)" stroke="rgb(213,213,213)" stroke-width="1" d="M 80.5 64 Q 85.3 63.3 86 66.5 L 87 70.5 L 84 72.5 L 85 69.5 L 85 67.5 L 83.5 65 Q 79.5 65.8 80.5 64 Z" />
 <path fill="rgb(213,213,213)" stroke="rgb(213,213,213)" stroke-width="1" d="M 86.5 64 L 88 64.5 L 86.5 65 L 86.5 64 Z" />
 <path fill="rgb(213,213,213)" stroke="rgb(213,213,213)" stroke-width="1" d="M 89.5 64 Q 91.8 63.3 91 65.5 L 89.5 64 Z" />
 <path fill="rgb(213,213,213)" stroke="rgb(213,213,213)" stroke-width="1" d="M 447.5 65 L 449 65.5 L 447.5 66 L 447.5 65 Z" />
 <path fill="rgb(213,213,213)" stroke="rgb(213,213,213)" stroke-width="1" d="M 80.5 66 Q 83.8 64.9 83 67.5 L 82.5 70 L 81.5 67 L 80.5 66 Z" />
 <path fill="rgb(213,213,213)" stroke="rgb(213,213,213)" stroke-width="1" d="M 47.5 67 L 48 68.5 L 47 68.5 L 47.5 67 Z" />
 <path fill="rgb(213,213,213)" stroke="rgb(213,213,213)" stroke-width="1" d="M 58.5 67 L 59 69.5 L 58 69.5 L 58.5 67 Z" />
 <path fill="rgb(213,213,213)" stroke="rgb(213,213,213)" stroke-width="1" d="M 353.5 67 L 355 67.5 L 353.5 68 L 353.5 67 Z" />
 <path fill="rgb(213,213,213)" stroke="rgb(213,213,213)" stroke-width="1" d="M 75.5 68 L 76.5 70 L 75.5 68 Z" />
 <path fill="rgb(213,213,213)" stroke="rgb(213,213,213)" stroke-width="1" d="M 79.5 69 L 81 70.5 L 80.5 73 L 78 72.5 L 79.5 69 Z" />
 <path fill="rgb(213,213,213)" stroke="rgb(213,213,213)" stroke-width="1" d="M 49.5 70 L 51 70.5 L 48.5 72 L 49.5 70 Z" />
 <path fill="rgb(213,213,213)" stroke="rgb(213,213,213)" stroke-width="1" d="M 66.5 70 L 67.5 72 L 66.5 70 Z" />
 <path fill="rgb(213,213,213)" stroke="rgb(213,213,213)" stroke-width="1" d="M 74.5 70 L 74.5 73 Q 72.3 73.8 73 71.5 L 74.5 70 Z" />
 <path fill="rgb(213,213,213)" stroke="rgb(213,213,213)" stroke-width="1" d="M 63.5 71 L 62.5 73 L 63.5 71 Z" />
 <path fill="rgb(213,213,213)" stroke="rgb(213,213,213)" stroke-width="1" d="M 397.5 73 L 398 74.5 L 397 74.5 L 397.5 73 Z" />
 <path fill="rgb(213,213,213)" stroke="rgb(213,213,213)" stroke-width="1" d="M 405.5 73 L 404.5 75 Q 402.3 74.3 403 76.5 L 402 76.5 Q 400.8 72.8 404.5 74 L 405.5 73 Z" />
 <path fill="rgb(213,213,213)" stroke="rgb(213,213,213)" stroke-width="1" d="M 399.5 74 L 401 74.5 L 401 135.5 L 400 135.5 L 400 75.5 L 399.5 74 Z" />
 <path fill="rgb(213,213,213)" stroke="rgb(213,213,213)" stroke-width="1" d="M 38.5 77 L 39.5 79 L 38.5 77 Z" />
 <path fill="rgb(213,213,213)" stroke="rgb(213,213,213)" stroke-width="1" d="M 59.5 77 L 60.5 79 L 59 78.5 L 59 85.5 L 57.5 86 L 57.5 84 L 55.5 85 L 55 83 Q 58.8 84.5 58 81.5 L 56.5 79 L 58 79.5 L 59.5 77 Z" />
 <path fill="rgb(213,213,213)" stroke="rgb(213,213,213)" stroke-width="1" d="M 91.5 77 L 92.5 79 L 91 78.5 L 90 80.5 L 91 84.5 L 89 85.5 L 89.5 84 L 87.5 85 L 86.5 83 Q 90.9 84.5 90 81.5 L 88.5 79 L 90 79.5 L 91.5 77 Z" />
 <path fill="rgb(213,213,213)" stroke="rgb(213,213,213)" stroke-width="1" d="M 36.5 79 L 37 80.5 L 36 80.5 L 36.5 79 Z" />
 <path fill="rgb(213,213,213)" stroke="rgb(213,213,213)" stroke-width="1" d="M 43.5 79 L 46 79.5 L 42.5 81 L 43.5 79 Z" />
 <path fill="rgb(213,213,213)" stroke="rgb(213,213,213)" stroke-width="1" d="M 48.5 79 L 50 79.5 L 45.5 82 L 45.5 81 L 48.5 79 Z" />
 <path fill="rgb(213,213,213)" stroke="rgb(213,213,213)" stroke-width="1" d="M 51.5 79 L 53.5 79 L 55 79.5 L 52.5 81 L 51.5 79 Z" />
 <path fill="rgb(213,213,213)" stroke="rgb(213,213,213)" stroke-width="1" d="M 67.5 79 Q 73.7 77.3 75.5 80 L 78.5 79 L 78.5 80 L 75.5 81 Q 73.7 78.3 67.5 80 L 66 80.5 L 67.5 79 Z" />
 <path fill="rgb(213,213,213)" stroke="rgb(213,213,213)" stroke-width="1" d="M 80.5 79 Q 84.3 78.3 85 80.5 L 84.5 82 L 84 80 Q 79.6 81 80.5 79 Z" />
 <path fill="rgb(213,213,213)" stroke="rgb(213,213,213)" stroke-width="1" d="M 94.5 79 L 96 79.5 L 94 80 L 93.5 82 L 93 80.5 L 94.5 79 Z" />
 <path fill="rgb(213,213,213)" stroke="rgb(213,213,213)" stroke-width="1" d="M 97.5 79 L 99.5 79 L 103 79.5 L 98.5 81 L 97.5 79 Z" />
 <path fill="rgb(213,213,213)" stroke="rgb(213,213,213)" stroke-width="1" d="M 60.5 80 L 62 85.5 L 60 86 L 60.5 80 Z" />
 <path fill="rgb(213,213,213)" stroke="rgb(213,213,213)" stroke-width="1" d="M 49 81 L 51 81.5 L 50 83.5 L 50.5 85 L 49 81 Z" />
 <path fill="rgb(213,213,213)" stroke="rgb(213,213,213)" stroke-width="1" d="M 54.5 81 L 56 81.5 L 54.5 82 L 54.5 81 Z" />
 <path fill="rgb(213,213,213)" stroke="rgb(213,213,213)" stroke-width="1" d="M 78.5 81 L 79 82.5 L 78 82.5 L 78.5 81 Z" />
 <path fill="rgb(213,213,213)" stroke="rgb(213,213,213)" stroke-width="1" d="M 86.5 81 L 88 81.5 L 86.5 82 L 86.5 81 Z" />
 <path fill="rgb(213,213,213)" stroke="rgb(213,213,213)" stroke-width="1" d="M 95.5 81 L 97 81.5 L 95.5 82 L 95.5 81 Z" />
 <path fill="rgb(213,213,213)" stroke="rgb(213,213,213)" stroke-width="1" d="M 101.5 81 L 102 85.5 L 101 85.5 L 101.5 81 Z" />
 <path fill="rgb(213,213,213)" stroke="rgb(213,213,213)" stroke-width="1" d="M 41.5 82 L 42 83.5 L 41 83.5 L 41.5 82 Z" />
 <path fill="rgb(213,213,213)" stroke="rgb(213,213,213)" stroke-width="1" d="M 68.5 82 L 69 85.5 L 68 85.5 L 68.5 82 Z" />
 <path fill="rgb(213,213,213)" stroke="rgb(213,213,213)" stroke-width="1" d="M 73.5 82 L 74 83.5 L 72 84.5 L 73.5 82 Z" />
 <path fill="rgb(213,213,213)" stroke="rgb(213,213,213)" stroke-width="1" d="M 37.5 83 L 40 84.5 L 38.5 84 L 37.5 83 Z" />
 <path fill="rgb(213,213,213)" stroke="rgb(213,213,213)" stroke-width="1" d="M 63 83 L 67 83.5 L 63.5 85 L 63 83 Z" />
 <path fill="rgb(213,213,213)" stroke="rgb(213,213,213)" stroke-width="1" d="M 95.5 83 L 99 83.5 L 95.5 84 L 95.5 83 Z" />
 <path fill="rgb(213,213,213)" stroke="rgb(213,213,213)" stroke-width="1" d="M 75.5 84 L 74.5 86 L 75.5 84 Z" />
 <path fill="rgb(213,213,213)" stroke="rgb(213,213,213)" stroke-width="1" d="M 84.5 84 L 85.5 86 Q 82.7 86.7 84.5 84 Z" />
 <path fill="rgb(213,213,213)" stroke="rgb(213,213,213)" stroke-width="1" d="M 93.5 84 L 94 85.5 L 93 85.5 L 93.5 84 Z" />
 <path fill="rgb(213,213,213)" stroke="rgb(213,213,213)" stroke-width="1" d="M 52.5 85 L 54 85.5 L 52.5 86 L 52.5 85 Z" />
 <path fill="rgb(213,213,213)" stroke="rgb(213,213,213)" stroke-width="1" d="M 65.5 85 L 67 85.5 L 65.5 86 L 65.5 85 Z" />
 <path fill="rgb(213,213,213)" stroke="rgb(213,213,213)" stroke-width="1" d="M 98.5 85 L 100 85.5 L 98.5 86 L 98.5 85 Z" />
 <path fill="rgb(213,213,213)" stroke="rgb(213,213,213)" stroke-width="1" d="M 17.5 99 L 19.5 102 L 17.5 99 Z" />
 <path fill="rgb(213,213,213)" stroke="rgb(213,213,213)" stroke-width="1" d="M 20.5 99 L 23 100.5 L 21.5 101 L 20.5 99 Z" />
 <path fill="rgb(213,213,213)" stroke="rgb(213,213,213)" stroke-width="1" d="M 117.5 99 L 116.5 101 L 115 100.5 L 117.5 99 Z" />
 <path fill="rgb(213,213,213)" stroke="rgb(213,213,213)" stroke-width="1" d="M 120.5 99 L 118.5 102 L 120.5 99 Z" />
 <path fill="rgb(213,213,213)" stroke="rgb(213,213,213)" stroke-width="1" d="M 405.5 99 L 409 101.5 L 408 104.5 L 410 107.5 L 407 107.5 L 407 100.5 L 405.5 100 L 405.5 99 Z" />
 <path fill="rgb(213,213,213)" stroke="rgb(213,213,213)" stroke-width="1" d="M 413.5 99 L 414.5 101 L 413.5 99 Z" />
 <path fill="rgb(213,213,213)" stroke="rgb(213,213,213)" stroke-width="1" d="M 413.5 102 L 415 102.5 L 413.5 103 L 413.5 102 Z" />
 <path fill="rgb(213,213,213)" stroke="rgb(213,213,213)" stroke-width="1" d="M 65.5 108 L 66 109.5 L 65 109.5 L 65.5 108 Z" />
 <path fill="rgb(213,213,213)" stroke="rgb(213,213,213)" stroke-width="1" d="M 72.5 108 L 73 109.5 L 72 109.5 L 72.5 108 Z" />
 <path fill="rgb(213,213,213)" stroke="rgb(213,213,213)" stroke-width="1" d="M 75.5 134 L 78 135.5 L 76.5 135 Q 74.3 134.3 75 136.5 L 74 136.5 L 75.5 134 Z" />
 <path fill="rgb(213,213,213)" stroke="rgb(213,213,213)" stroke-width="1" d="M 80.5 134 L 82 134.5 L 80.5 135 L 80.5 134 Z" />
 <path fill="rgb(213,213,213)" stroke="rgb(213,213,213)" stroke-width="1" d="M 83.5 134 L 85 134.5 L 83.5 135 L 83.5 134 Z" />
 <path fill="rgb(213,213,213)" stroke="rgb(213,213,213)" stroke-width="1" d="M 89.5 134 Q 93.8 133.3 94.5 136 L 98.5 134 L 99.5 136 L 96.5 135 L 93.5 143 L 94 141.5 L 93.5 136 L 92 136.5 L 92.5 135 Q 88.8 134.3 88 136.5 L 87.5 138 L 86.5 136 L 89.5 134 Z" />
 <path fill="rgb(213,213,213)" stroke="rgb(213,213,213)" stroke-width="1" d="M 353.5 136 L 355 136.5 L 353.5 137 L 353.5 136 Z" />
 <path fill="rgb(213,213,213)" stroke="rgb(213,213,213)" stroke-width="1" d="M 448.5 136 L 451 137.5 L 449.5 137 L 448.5 136 Z" />
 <path fill="rgb(213,213,213)" stroke="rgb(213,213,213)" stroke-width="1" d="M 78.5 137 L 79 138.5 L 78 138.5 L 78.5 137 Z" />
 <path fill="rgb(213,213,213)" stroke="rgb(213,213,213)" stroke-width="1" d="M 100.5 137 L 101 140.5 L 100 140.5 L 100.5 137 Z" />
 <path fill="rgb(213,213,213)" stroke="rgb(213,213,213)" stroke-width="1" d="M 155.5 137 L 156 161.5 L 154.5 163 L 70.5 163 L 70.5 162 L 154.5 162 L 155 161.5 L 155.5 137 Z" />
 <path fill="rgb(213,213,213)" stroke="rgb(213,213,213)" stroke-width="1" d="M 262.5 137 L 263 162 L 340.5 162 L 341.5 161 L 340.5 163 L 263.5 163 L 262 161.5 L 262.5 137 Z" />
 <path fill="rgb(213,213,213)" stroke="rgb(213,213,213)" stroke-width="1" d="M 73.5 138 L 74 139.5 L 73 139.5 L 73.5 138 Z" />
 <path fill="rgb(213,213,213)" stroke="rgb(213,213,213)" stroke-width="1" d="M 89.5 138 L 90 139.5 L 89 139.5 L 89.5 138 Z" />
 <path fill="rgb(213,213,213)" stroke="rgb(213,213,213)" stroke-width="1" d="M 98.5 138 L 99 139.5 L 98 139.5 L 98.5 138 Z" />
 <path fill="rgb(213,213,213)" stroke="rgb(213,213,213)" stroke-width="1" d="M 157.5 138 L 158 158.5 L 159 159.5 L 159 161.5 L 158 164.5 L 161 166.5 L 159.5 167 L 158 166.5 L 157.5 189 L 157.5 138 Z" />
 <path fill="rgb(213,213,213)" stroke="rgb(213,213,213)" stroke-width="1" d="M 260.5 138 L 261 188.5 L 260 188.5 L 260 161.5 L 259 160.5 L 260 159.5 L 260.5 138 Z" />
 <path fill="rgb(213,213,213)" stroke="rgb(213,213,213)" stroke-width="1" d="M 447.5 138 L 449 138.5 L 447.5 139 L 447.5 138 Z" />
 <path fill="rgb(213,213,213)" stroke="rgb(213,213,213)" stroke-width="1" d="M 352.5 139 L 351.5 141 L 352.5 139 Z" />
 <path fill="rgb(213,213,213)" stroke="rgb(213,213,213)" stroke-width="1" d="M 450.5 139 L 451.5 141 L 450.5 139 Z" />
 <path fill="rgb(213,213,213)" stroke="rgb(213,213,213)" stroke-width="1" d="M 75.5 140 L 78 141.5 L 77.5 143 L 77 141 L 75.5 140 Z" />
 <path fill="rgb(213,213,213)" stroke="rgb(213,213,213)" stroke-width="1" d="M 79.5 140 L 80 141.5 L 79 141.5 L 79.5 140 Z" />
 <path fill="rgb(213,213,213)" stroke="rgb(213,213,213)" stroke-width="1" d="M 84.5 140 L 83.5 142 L 84.5 140 Z" />
 <path fill="rgb(213,213,213)" stroke="rgb(213,213,213)" stroke-width="1" d="M 87.5 140 L 85.5 143 L 87.5 140 Z" />
 <path fill="rgb(213,213,213)" stroke="rgb(213,213,213)" stroke-width="1" d="M 72.5 141 L 73 142.5 L 72 142.5 L 72.5 141 Z" />
 <path fill="rgb(213,213,213)" stroke="rgb(213,213,213)" stroke-width="1" d="M 452.5 142 L 453 143.5 L 452 143.5 L 452.5 142 Z" />
 <path fill="rgb(213,213,213)" stroke="rgb(213,213,213)" stroke-width="1" d="M 454.5 142 L 455 184.5 L 454 184.5 L 454.5 142 Z" />
 <path fill="rgb(213,213,213)" stroke="rgb(213,213,213)" stroke-width="1" d="M 217.5 158 Q 220.1 157.3 219 160 L 216 159.5 L 217.5 158 Z" />
 <path fill="rgb(213,213,213)" stroke="rgb(213,213,213)" stroke-width="1" d="M 229 158 L 231 158 Q 229.9 160.7 232.5 160 L 232 161.5 L 231.5 163 L 231 160 Q 228 161 229 158 Z" />
 <path fill="rgb(213,213,213)" stroke="rgb(213,213,213)" stroke-width="1" d="M 168.5 159 L 170 159.5 L 168.5 160 L 168.5 159 Z" />
 <path fill="rgb(213,213,213)" stroke="rgb(213,213,213)" stroke-width="1" d="M 185.5 159 L 187 159.5 L 185.5 160 L 185.5 159 Z" />
 <path fill="rgb(213,213,213)" stroke="rgb(213,213,213)" stroke-width="1" d="M 197.5 159 Q 200.4 160.6 199.5 166 L 201.5 161 L 201 162.5 Q 201.8 166.3 199.5 167 Q 196.5 167.9 198 163.5 L 197 161.5 L 197.5 159 Z" />
 <path fill="rgb(213,213,213)" stroke="rgb(213,213,213)" stroke-width="1" d="M 245.5 159 L 246.5 161 L 245.5 159 Z" />
 <path fill="rgb(213,213,213)" stroke="rgb(213,213,213)" stroke-width="1" d="M 341.5 159 L 343 159.5 L 341.5 160 L 341.5 159 Z" />
 <path fill="rgb(213,213,213)" stroke="rgb(213,213,213)" stroke-width="1" d="M 399.5 159 L 401 159.5 L 399.5 160 L 399.5 159 Z" />
 <path fill="rgb(213,213,213)" stroke="rgb(213,213,213)" stroke-width="1" d="M 404.5 159 L 407 159.5 L 404.5 160 L 404.5 159 Z" />
 <path fill="rgb(213,213,213)" stroke="rgb(213,213,213)" stroke-width="1" d="M 410.5 159 L 413.5 161 L 415 160.5 Q 413.3 163.8 411.5 160 L 410.5 159 Z" />
 <path fill="rgb(213,213,213)" stroke="rgb(213,213,213)" stroke-width="1" d="M 163.5 160 L 164 162 L 161 161.5 L 163.5 160 Z" />
 <path fill="rgb(213,213,213)" stroke="rgb(213,213,213)" stroke-width="1" d="M 171 160 L 173 160.5 L 171 161.5 L 171 160 Z" />
 <path fill="rgb(213,213,213)" stroke="rgb(213,213,213)" stroke-width="1" d="M 176 160 L 178 160.5 L 178 167.5 L 180 167.5 Q 178.5 170.5 177 167.5 L 176.5 166 L 175 166.5 L 177 164.5 L 174.5 161 L 176 161.5 L 176 160 Z" />
 <path fill="rgb(213,213,213)" stroke="rgb(213,213,213)" stroke-width="1" d="M 189.5 160 L 188.5 162 L 189.5 160 Z" />
 <path fill="rgb(213,213,213)" stroke="rgb(213,213,213)" stroke-width="1" d="M 193.5 160 L 195 160 L 195 165.5 L 196.5 166 L 196.5 167 L 194.5 166 L 193 166.5 L 194 161.5 L 193.5 160 Z" />
 <path fill="rgb(213,213,213)" stroke="rgb(213,213,213)" stroke-width="1" d="M 203.5 160 L 205 162.5 L 203 161.5 L 203.5 160 Z" />
 <path fill="rgb(213,213,213)" stroke="rgb(213,213,213)" stroke-width="1" d="M 206.5 160 L 207 162.5 L 206 162.5 L 206.5 160 Z" />
 <path fill="rgb(213,213,213)" stroke="rgb(213,213,213)" stroke-width="1" d="M 214.5 160 L 213.5 162 L 212 161.5 L 214.5 160 Z" />
 <path fill="rgb(213,213,213)" stroke="rgb(213,213,213)" stroke-width="1" d="M 224.5 160 L 227 161.5 L 225.5 162 L 224.5 160 Z" />
 <path fill="rgb(213,213,213)" stroke="rgb(213,213,213)" stroke-width="1" d="M 248.5 160 L 249 161.5 L 245 164.5 L 248.5 160 Z" />
 <path fill="rgb(213,213,213)" stroke="rgb(213,213,213)" stroke-width="1" d="M 253.5 160 L 254 162.5 L 253 162.5 L 253.5 160 Z" />
 <path fill="rgb(213,213,213)" stroke="rgb(213,213,213)" stroke-width="1" d="M 391.5 160 L 392 164.5 L 391 164.5 L 391.5 160 Z" />
 <path fill="rgb(213,213,213)" stroke="rgb(213,213,213)" stroke-width="1" d="M 397.5 160 L 400 161 L 397.5 165 L 397.5 160 Z" />
 <path fill="rgb(213,213,213)" stroke="rgb(213,213,213)" stroke-width="1" d="M 165.5 161 Q 168.1 160.2 167 163.5 Q 165.5 166.5 164 163.5 L 166 163.5 L 165.5 161 Z" />
 <path fill="rgb(213,213,213)" stroke="rgb(213,213,213)" stroke-width="1" d="M 191.5 161 L 192 162.5 L 191 162.5 L 191.5 161 Z" />
 <path fill="rgb(213,213,213)" stroke="rgb(213,213,213)" stroke-width="1" d="M 216.5 161 L 217 162.5 L 216 162.5 L 216.5 161 Z" />
 <path fill="rgb(213,213,213)" stroke="rgb(213,213,213)" stroke-width="1" d="M 234.5 161 L 237 162 Q 238 165.8 235.5 167 L 235.5 165 Q 231.8 166.3 233 162.5 L 234.5 161 Z M 234.5 162 Q 232.7 164.7 235.5 164 L 234.5 162 Z" />
 <path fill="rgb(213,213,213)" stroke="rgb(213,213,213)" stroke-width="1" d="M 387.5 161 L 389 161.5 L 387.5 162 L 387.5 161 Z" />
 <path fill="rgb(213,213,213)" stroke="rgb(213,213,213)" stroke-width="1" d="M 402.5 161 Q 405.8 159.9 405 162.5 L 402 164.5 L 403.5 162 L 401.5 163 L 402.5 161 Z" />
 <path fill="rgb(213,213,213)" stroke="rgb(213,213,213)" stroke-width="1" d="M 408.5 161 L 405.5 165 L 408.5 161 Z" />
 <path fill="rgb(213,213,213)" stroke="rgb(213,213,213)" stroke-width="1" d="M 417.5 161 L 417 162.5 Q 417.8 166.3 415.5 167 L 413.5 166 L 412 166.5 L 413.5 164 L 414 166 Q 417.3 167.3 416 162.5 L 417.5 161 Z" />
 <path fill="rgb(213,213,213)" stroke="rgb(213,213,213)" stroke-width="1" d="M 179 162 L 181 162.5 L 180.5 165 Q 177.5 165.7 179 162 Z" />
 <path fill="rgb(213,213,213)" stroke="rgb(213,213,213)" stroke-width="1" d="M 185 162 L 187 162.5 L 186.5 165 Q 183.5 165.7 185 162 Z" />
 <path fill="rgb(213,213,213)" stroke="rgb(213,213,213)" stroke-width="1" d="M 240.5 162 L 241 163.5 L 239 164.5 L 240.5 162 Z" />
 <path fill="rgb(213,213,213)" stroke="rgb(213,213,213)" stroke-width="1" d="M 242.5 162 L 243 164.5 L 242 164.5 L 242.5 162 Z" />
 <path fill="rgb(213,213,213)" stroke="rgb(213,213,213)" stroke-width="1" d="M 250.5 162 Q 252.8 161.3 252 163.5 L 248 164.5 L 250.5 162 Z" />
 <path fill="rgb(213,213,213)" stroke="rgb(213,213,213)" stroke-width="1" d="M 258.5 162 L 259 163.5 L 258 163.5 L 258.5 162 Z" />
 <path fill="rgb(213,213,213)" stroke="rgb(213,213,213)" stroke-width="1" d="M 161 163 L 163 163.5 L 161 164.5 L 161 163 Z" />
 <path fill="rgb(213,213,213)" stroke="rgb(213,213,213)" stroke-width="1" d="M 171.5 163 L 174 164.5 L 172.5 165 L 171.5 163 Z" />
 <path fill="rgb(213,213,213)" stroke="rgb(213,213,213)" stroke-width="1" d="M 224.5 163 L 225 165.5 L 222.5 167 L 222.5 166 Q 225.4 166.7 224.5 163 Z" />
 <path fill="rgb(213,213,213)" stroke="rgb(213,213,213)" stroke-width="1" d="M 155.5 164 L 156 190 L 207.5 190 L 208 191.5 L 206.5 191 L 156.5 191 L 155 189.5 L 155.5 164 Z" />
 <path fill="rgb(213,213,213)" stroke="rgb(213,213,213)" stroke-width="1" d="M 168.5 164 L 170 164.5 L 168.5 165 L 168.5 164 Z" />
 <path fill="rgb(213,213,213)" stroke="rgb(213,213,213)" stroke-width="1" d="M 231.5 164 L 233 166.5 L 230.5 167 L 229 166.5 L 231 166 L 231.5 164 Z" />
 <path fill="rgb(213,213,213)" stroke="rgb(213,213,213)" stroke-width="1" d="M 262.5 164 L 263 189.5 L 261.5 191 L 211.5 191 L 210.5 192 L 210 190 L 262 190 L 262.5 164 Z" />
 <path fill="rgb(213,213,213)" stroke="rgb(213,213,213)" stroke-width="1" d="M 410.5 164 L 412 164.5 L 410.5 165 L 410.5 164 Z" />
 <path fill="rgb(213,213,213)" stroke="rgb(213,213,213)" stroke-width="1" d="M 163.5 165 L 167 166.5 L 164.5 167 L 163.5 165 Z" />
 <path fill="rgb(213,213,213)" stroke="rgb(213,213,213)" stroke-width="1" d="M 182.5 165 L 183.5 167 L 181 166.5 L 182.5 165 Z" />
 <path fill="rgb(213,213,213)" stroke="rgb(213,213,213)" stroke-width="1" d="M 188.5 165 L 191 166.5 L 189.5 166 L 187.5 167 L 188.5 165 Z" />
 <path fill="rgb(213,213,213)" stroke="rgb(213,213,213)" stroke-width="1" d="M 254.5 165 L 258 166.5 L 255.5 167 L 253.5 167 L 252 166.5 L 254.5 165 Z" />
 <path fill="rgb(213,213,213)" stroke="rgb(213,213,213)" stroke-width="1" d="M 408.5 165 L 409.5 167 L 407 166.5 L 408.5 165 Z" />
 <path fill="rgb(213,213,213)" stroke="rgb(213,213,213)" stroke-width="1" d="M 171.5 166 L 173 166.5 L 171.5 167 L 171.5 166 Z" />
 <path fill="rgb(213,213,213)" stroke="rgb(213,213,213)" stroke-width="1" d="M 202.5 166 L 202.5 168 L 204.5 167 L 203.5 169 L 201 167.5 L 202.5 166 Z" />
 <path fill="rgb(213,213,213)" stroke="rgb(213,213,213)" stroke-width="1" d="M 210.5 166 L 212 166.5 L 210.5 167 L 210.5 166 Z" />
 <path fill="rgb(213,213,213)" stroke="rgb(213,213,213)" stroke-width="1" d="M 217.5 166 L 219 166.5 L 217.5 167 L 217.5 166 Z" />
 <path fill="rgb(213,213,213)" stroke="rgb(213,213,213)" stroke-width="1" d="M 395.5 166 L 398 166.5 L 395.5 167 L 395.5 166 Z" />
 <path fill="rgb(213,213,213)" stroke="rgb(213,213,213)" stroke-width="1" d="M 350.5 183 L 351 184.5 L 350 184.5 L 350.5 183 Z" />
 <path fill="rgb(213,213,213)" stroke="rgb(213,213,213)" stroke-width="1" d="M 453.5 186 L 450.5 190 L 448.5 191 L 354.5 191 L 354.5 190 L 448.5 190 L 453.5 186 Z" />
 <path fill="rgb(213,213,213)" stroke="rgb(213,213,213)" stroke-width="1" d="M 351.5 188 L 352.5 190 L 351.5 188 Z" />
 <path fill="rgb(213,213,213)" stroke="rgb(213,213,213)" stroke-width="1" d="M 211.5 197 L 213 197.5 L 211.5 198 L 211.5 197 Z" />
 <path fill="rgb(213,213,213)" stroke="rgb(213,213,213)" stroke-width="1" d="M 347.5 216 L 438 216.5 L 347.5 217 L 347.5 216 Z" />
 <path fill="rgb(213,213,213)" stroke="rgb(213,213,213)" stroke-width="1" d="M 442.5 216 L 444.5 219 L 442.5 216 Z" />
 <path fill="rgb(213,213,213)" stroke="rgb(213,213,213)" stroke-width="1" d="M 344.5 217 L 346 217.5 L 342.5 220 L 344.5 217 Z" />
 <path fill="rgb(213,213,213)" stroke="rgb(213,213,213)" stroke-width="1" d="M 439.5 217 L 444 220.5 L 440.5 218 L 439.5 217 Z" />
 <path fill="rgb(213,213,213)" stroke="rgb(213,213,213)" stroke-width="1" d="M 339.5 220 L 340 221.5 L 339 221.5 L 339.5 220 Z" />
 <path fill="rgb(213,213,213)" stroke="rgb(213,213,213)" stroke-width="1" d="M 341.5 221 L 342 222.5 L 341 222.5 L 341.5 221 Z" />
 <path fill="rgb(213,213,213)" stroke="rgb(213,213,213)" stroke-width="1" d="M 282.5 224 L 281.5 226 L 282.5 224 Z" />
 <path fill="rgb(213,213,213)" stroke="rgb(213,213,213)" stroke-width="1" d="M 287.5 224 Q 290.8 225.9 289 232 L 291 232.5 L 289.5 233 L 287.5 232 L 283.5 233 L 281.5 230 Q 282.3 232.8 286.5 232 Q 289.3 230.8 288 225.5 L 287.5 224 Z" />
 <path fill="rgb(213,213,213)" stroke="rgb(213,213,213)" stroke-width="1" d="M 295.5 224 L 296 229 L 294 228.5 L 295.5 224 Z" />
 <path fill="rgb(213,213,213)" stroke="rgb(213,213,213)" stroke-width="1" d="M 300.5 224 L 299 226.5 L 298.5 230 L 298 226.5 L 300.5 224 Z" />
 <path fill="rgb(213,213,213)" stroke="rgb(213,213,213)" stroke-width="1" d="M 311.5 224 L 313 227.5 L 309 230.5 Q 312.5 230 312 225.5 L 311.5 224 Z" />
 <path fill="rgb(213,213,213)" stroke="rgb(213,213,213)" stroke-width="1" d="M 284.5 225 L 287 226.5 L 285.5 226 L 284 226.5 L 285 228.5 L 283 229.5 L 284 227.5 Q 281.8 226.3 284.5 225 Z" />
 <path fill="rgb(213,213,213)" stroke="rgb(213,213,213)" stroke-width="1" d="M 291.5 225 L 294 226.5 L 292.5 226 L 291.5 225 Z" />
 <path fill="rgb(213,213,213)" stroke="rgb(213,213,213)" stroke-width="1" d="M 302.5 225 L 304 225.5 L 302.5 226 L 302.5 225 Z" />
 <path fill="rgb(213,213,213)" stroke="rgb(213,213,213)" stroke-width="1" d="M 309.5 225 Q 312.5 226.5 309.5 228 L 309.5 225 Z" />
 <path fill="rgb(213,213,213)" stroke="rgb(213,213,213)" stroke-width="1" d="M 306.5 226 L 307 229.5 L 306 229.5 L 306.5 226 Z" />
 <path fill="rgb(213,213,213)" stroke="rgb(213,213,213)" stroke-width="1" d="M 280.5 227 L 281 228.5 L 280 228.5 L 280.5 227 Z" />
 <path fill="rgb(213,213,213)" stroke="rgb(213,213,213)" stroke-width="1" d="M 304.5 227 L 305 228.5 L 304 228.5 L 304.5 227 Z" />
 <path fill="rgb(213,213,213)" stroke="rgb(213,213,213)" stroke-width="1" d="M 295.5 230 L 296 232 L 298 232.5 L 296.5 233 L 295.5 230 Z" />
 <path fill="rgb(213,213,213)" stroke="rgb(213,213,213)" stroke-width="1" d="M 301.5 230 L 301.5 232 L 304 232.5 L 301.5 233 L 299 231.5 L 301.5 230 Z" />
 <path fill="rgb(213,213,213)" stroke="rgb(213,213,213)" stroke-width="1" d="M 223.5 231 Q 225 234.5 226.5 232 L 230.5 233 L 235.5 232 L 237.5 232 Q 241.3 231.3 242 233.5 L 241.5 235 L 241 233 Q 235.8 230.9 237 235.5 L 236 235.5 Q 237.3 230.9 231.5 233 L 229.5 234 L 226.5 233 L 224.5 236 Q 222.2 231.7 220 233.5 Q 219.3 231.3 221.5 232 L 224 233.5 L 223.5 231 Z" />
 <path fill="rgb(213,213,213)" stroke="rgb(213,213,213)" stroke-width="1" d="M 244.5 231 L 245 238.5 Q 243.5 241.5 242 238.5 L 244 238.5 L 244.5 231 Z" />
 <path fill="rgb(213,213,213)" stroke="rgb(213,213,213)" stroke-width="1" d="M 305.5 231 L 311.5 232 L 313 231.5 Q 312 234 307.5 233 L 305.5 231 Z" />
 <path fill="rgb(213,213,213)" stroke="rgb(213,213,213)" stroke-width="1" d="M 218.5 234 L 220 236.5 L 219 236.5 L 218.5 234 Z" />
 <path fill="rgb(213,213,213)" stroke="rgb(213,213,213)" stroke-width="1" d="M 238.5 234 L 240 234.5 L 238.5 235 L 238.5 234 Z" />
 <path fill="rgb(213,213,213)" stroke="rgb(213,213,213)" stroke-width="1" d="M 232.5 235 L 233 238.5 Q 231.5 241.5 230 238.5 L 230.5 236 L 231.5 239 L 232.5 235 Z" />
 <path fill="rgb(213,213,213)" stroke="rgb(213,213,213)" stroke-width="1" d="M 217.5 237 Q 218.3 239.8 222.5 239 Q 224.5 235 226.5 239 L 229 239.5 L 226.5 240 Q 224.5 236 222.5 240 Q 217 240.7 217.5 237 Z" />
 <path fill="rgb(213,213,213)" stroke="rgb(213,213,213)" stroke-width="1" d="M 382.5 237 L 383 245 L 388 245.5 L 383.5 246 L 382 244.5 L 382.5 237 Z" />
 <path fill="rgb(213,213,213)" stroke="rgb(213,213,213)" stroke-width="1" d="M 384.5 237 L 385 243.5 L 384 243.5 L 384.5 237 Z" />
 <path fill="rgb(213,213,213)" stroke="rgb(213,213,213)" stroke-width="1" d="M 394.5 237 L 393.5 239 L 391 239.5 L 394 240.5 L 391.5 241 Q 388.5 239.5 391.5 238 L 394.5 237 Z" />
 <path fill="rgb(213,213,213)" stroke="rgb(213,213,213)" stroke-width="1" d="M 236.5 238 L 241 239.5 L 237.5 240 L 235 239.5 L 236.5 238 Z" />
 <path fill="rgb(213,213,213)" stroke="rgb(213,213,213)" stroke-width="1" d="M 398.5 238 L 399.5 240 L 398 239.5 L 397.5 244 L 397 239.5 L 398.5 238 Z" />
 <path fill="rgb(213,213,213)" stroke="rgb(213,213,213)" stroke-width="1" d="M 401.5 238 Q 403.8 238.8 403 242.5 L 402 242.5 L 401.5 238 Z" />
 <path fill="rgb(213,213,213)" stroke="rgb(213,213,213)" stroke-width="1" d="M 332.5 239 L 333 241 L 325 240.5 L 332.5 239 Z" />
 <path fill="rgb(213,213,213)" stroke="rgb(213,213,213)" stroke-width="1" d="M 337.5 239 L 339 239.5 L 337.5 240 L 337.5 239 Z" />
 <path fill="rgb(213,213,213)" stroke="rgb(213,213,213)" stroke-width="1" d="M 300.5 241 L 312 241.5 L 300.5 242 L 300.5 241 Z" />
 <path fill="rgb(213,213,213)" stroke="rgb(213,213,213)" stroke-width="1" d="M 328.5 242 Q 334.4 239.9 333 244.5 L 333.5 246 L 332 243 Q 327.6 244 328.5 242 Z" />
 <path fill="rgb(213,213,213)" stroke="rgb(213,213,213)" stroke-width="1" d="M 338.5 242 L 337.5 244 L 338.5 242 Z" />
 <path fill="rgb(213,213,213)" stroke="rgb(213,213,213)" stroke-width="1" d="M 390.5 242 L 391.5 244 Q 388.7 244.7 390.5 242 Z" />
 <path fill="rgb(213,213,213)" stroke="rgb(213,213,213)" stroke-width="1" d="M 304.5 243 L 315 243.5 L 304.5 244 L 304.5 243 Z" />
 <path fill="rgb(213,213,213)" stroke="rgb(213,213,213)" stroke-width="1" d="M 394.5 244 L 401 245.5 L 395.5 246 L 393.5 246 L 389 245.5 L 394.5 244 Z" />
 <path fill="rgb(213,213,213)" stroke="rgb(213,213,213)" stroke-width="1" d="M 339.5 262 L 340 263.5 L 339 263.5 L 339.5 262 Z" />
 <path fill="rgb(213,213,213)" stroke="rgb(213,213,213)" stroke-width="1" d="M 443.5 263 L 442.5 265 L 443.5 263 Z" />
 <path fill="rgb(213,213,213)" stroke="rgb(213,213,213)" stroke-width="1" d="M 342.5 264 L 344.5 267 L 342.5 264 Z" />
 <path fill="rgb(213,213,213)" stroke="rgb(213,213,213)" stroke-width="1" d="M 340.5 265 L 342.5 268 L 340.5 265 Z" />
 <path fill="rgb(213,213,213)" stroke="rgb(213,213,213)" stroke-width="1" d="M 444.5 265 L 442.5 268 L 444.5 265 Z" />
 <path fill="rgb(213,213,213)" stroke="rgb(213,213,213)" stroke-width="1" d="M 161.5 267 L 208 267.5 L 161.5 268 L 160.5 269 L 161.5 267 Z" />
 <path fill="rgb(213,213,213)" stroke="rgb(213,213,213)" stroke-width="1" d="M 210.5 267 L 256.5 267 L 258 268.5 L 256.5 268 L 210.5 268 L 210.5 267 Z" />
 <path fill="rgb(213,213,213)" stroke="rgb(213,213,213)" stroke-width="1" d="M 347.5 267 L 438 267.5 L 347.5 268 L 347.5 267 Z" />
 <path fill="rgb(213,213,213)" stroke="rgb(213,213,213)" stroke-width="1" d="M 158.5 269 L 157.5 271 L 158.5 269 Z" />
 <path fill="rgb(213,213,213)" stroke="rgb(213,213,213)" stroke-width="1" d="M 162.5 269 L 164 269.5 L 162.5 270 L 162.5 269 Z" />
 <path fill="rgb(213,213,213)" stroke="rgb(213,213,213)" stroke-width="1" d="M 259.5 269 L 260.5 271 L 259.5 269 Z" />
 <path fill="rgb(213,213,213)" stroke="rgb(213,213,213)" stroke-width="1" d="M 160.5 270 L 158.5 273 L 160.5 270 Z" />
 <path fill="rgb(213,213,213)" stroke="rgb(213,213,213)" stroke-width="1" d="M 257.5 270 L 259.5 273 L 257.5 270 Z" />
 <path fill="rgb(213,213,213)" stroke="rgb(213,213,213)" stroke-width="1" d="M 155.5 274 L 156 314.5 L 155 314.5 L 155.5 274 Z" />
 <path fill="rgb(213,213,213)" stroke="rgb(213,213,213)" stroke-width="1" d="M 157.5 274 L 158 314.5 L 157 314.5 L 157.5 274 Z" />
 <path fill="rgb(213,213,213)" stroke="rgb(213,213,213)" stroke-width="1" d="M 260.5 274 L 261 314.5 L 260 314.5 L 260.5 274 Z" />
 <path fill="rgb(213,213,213)" stroke="rgb(213,213,213)" stroke-width="1" d="M 262.5 274 L 263 314.5 L 262 314.5 L 262.5 274 Z" />
 <path fill="rgb(213,213,213)" stroke="rgb(213,213,213)" stroke-width="1" d="M 202.5 289 L 207 289.5 L 202 290 L 201.5 297 L 201 290.5 L 202.5 289 Z" />
 <path fill="rgb(213,213,213)" stroke="rgb(213,213,213)" stroke-width="1" d="M 210.5 289 L 214 289.5 L 209 291.5 L 208.5 295 L 208 291.5 L 210.5 289 Z" />
 <path fill="rgb(213,213,213)" stroke="rgb(213,213,213)" stroke-width="1" d="M 213.5 291 L 216 291.5 Q 216.8 293.8 214.5 293 L 213.5 291 Z" />
 <path fill="rgb(213,213,213)" stroke="rgb(213,213,213)" stroke-width="1" d="M 204.5 294 L 207 294.5 L 204.5 295 L 204.5 294 Z" />
 <path fill="rgb(213,213,213)" stroke="rgb(213,213,213)" stroke-width="1" d="M 211.5 295 L 214 295.5 Q 211.9 298.8 211.5 295 Z" />
 <path fill="rgb(213,213,213)" stroke="rgb(213,213,213)" stroke-width="1" d="M 209.5 296 L 210.5 298 L 209.5 296 Z" />
 <path fill="rgb(213,213,213)" stroke="rgb(213,213,213)" stroke-width="1" d="M 215.5 296 L 214.5 298 L 215.5 296 Z" />
 <path fill="rgb(213,213,213)" stroke="rgb(213,213,213)" stroke-width="1" d="M 157.5 318 L 159.5 321 L 157.5 318 Z" />
 <path fill="rgb(213,213,213)" stroke="rgb(213,213,213)" stroke-width="1" d="M 260.5 318 L 258.5 321 L 260.5 318 Z" />
 <path fill="rgb(213,213,213)" stroke="rgb(213,213,213)" stroke-width="1" d="M 161.5 321 L 257 321.5 L 161.5 322 L 161.5 321 Z" />
 <path fill="rgb(145,145,145)" stroke="rgb(145,145,145)" stroke-width="1" d="M 353.5 14 Q 356.1 13.3 355 16 L 350 19.5 L 350 61.5 L 352.5 65 L 354.5 66 L 448.5 66 L 452 63.5 L 453 61.5 L 453 20.5 L 449.5 16 Q 447.3 16.8 448 14.5 L 449.5 15 L 454 18.5 L 455 23.5 L 455 57.5 L 454 60.5 L 451.5 66 L 447.5 68 L 403.5 68 L 402.5 69 L 401.5 67 L 400.5 69 L 399.5 68 L 355.5 68 L 349 63.5 L 349.5 62 L 348 61.5 L 348 20.5 L 353.5 14 Z" />
 <path fill="rgb(145,145,145)" stroke="rgb(145,145,145)" stroke-width="1" d="M 371.5 36 L 373 36.5 L 373 44 Q 369.3 45.4 371 39.5 L 370 37.5 L 371.5 36 Z" />
 <path fill="rgb(145,145,145)" stroke="rgb(145,145,145)" stroke-width="1" d="M 375.5 36 L 378 37.5 L 378.5 36 L 379 37.5 L 378 40 Q 381 38.8 380 42.5 L 381 42.5 L 380 38.5 L 382 38 Q 383.3 42.6 380.5 44 L 376.5 44 L 374 41.5 L 375.5 36 Z M 375.5 39 L 376.5 42 Q 379.1 42.7 378 40 L 375.5 39 Z" />
 <path fill="rgb(145,145,145)" stroke="rgb(145,145,145)" stroke-width="1" d="M 386 36 L 388 36.5 L 386 37.5 L 386 36 Z" />
 <path fill="rgb(145,145,145)" stroke="rgb(145,145,145)" stroke-width="1" d="M 389.5 36 L 391 38.5 L 388 40.5 L 390 37.5 L 389.5 36 Z" />
 <path fill="rgb(145,145,145)" stroke="rgb(145,145,145)" stroke-width="1" d="M 395.5 36 L 396 43.5 L 395 43.5 L 395.5 36 Z" />
 <path fill="rgb(145,145,145)" stroke="rgb(145,145,145)" stroke-width="1" d="M 398.5 36 L 397.5 38 L 398.5 36 Z" />
 <path fill="rgb(145,145,145)" stroke="rgb(145,145,145)" stroke-width="1" d="M 401.5 36 L 400.5 38 L 401.5 36 Z" />
 <path fill="rgb(145,145,145)" stroke="rgb(145,145,145)" stroke-width="1" d="M 404.5 36 Q 407.3 37.3 405 38.5 L 404 41.5 L 406 42 L 405.5 44 Q 402 42.7 403 38 L 405 37.5 L 404.5 36 Z" />
 <path fill="rgb(145,145,145)" stroke="rgb(145,145,145)" stroke-width="1" d="M 408.5 36 L 410 38.5 L 408 37.5 L 408.5 36 Z" />
 <path fill="rgb(145,145,145)" stroke="rgb(145,145,145)" stroke-width="1" d="M 423.5 36 L 425 36.5 L 423.5 37 L 423.5 36 Z" />
 <path fill="rgb(145,145,145)" stroke="rgb(145,145,145)" stroke-width="1" d="M 429.5 36 L 429 37.5 Q 430.3 42.8 427.5 44 L 428 42.5 Q 426.8 37.3 429.5 36 Z" />
 <path fill="rgb(145,145,145)" stroke="rgb(145,145,145)" stroke-width="1" d="M 431.5 36 L 433 39.5 L 432 39.5 L 431.5 36 Z" />
 <path fill="rgb(145,145,145)" stroke="rgb(145,145,145)" stroke-width="1" d="M 421.5 37 L 422 38.5 L 421 38.5 L 421.5 37 Z" />
 <path fill="rgb(145,145,145)" stroke="rgb(145,145,145)" stroke-width="1" d="M 383 38 L 385 38.5 L 384 43 L 386 43.5 L 384.5 44 Q 381.8 42.6 383 38 Z" />
 <path fill="rgb(145,145,145)" stroke="rgb(145,145,145)" stroke-width="1" d="M 400.5 39 L 402 39.5 L 399.5 43 L 398 42.5 L 397.5 44 L 397 42.5 L 400.5 39 Z" />
 <path fill="rgb(145,145,145)" stroke="rgb(145,145,145)" stroke-width="1" d="M 424.5 39 L 425 41 Q 421.3 39.5 422 42.5 L 420 43.5 L 421 40 L 424.5 39 Z" />
 <path fill="rgb(145,145,145)" stroke="rgb(145,145,145)" stroke-width="1" d="M 409.5 41 L 410 42.5 L 407.5 44 L 407.5 43 Q 410 43.7 409.5 41 Z" />
 <path fill="rgb(145,145,145)" stroke="rgb(145,145,145)" stroke-width="1" d="M 431.5 41 Q 434.5 42.5 431.5 44 L 431.5 41 Z" />
 <path fill="rgb(145,145,145)" stroke="rgb(145,145,145)" stroke-width="1" d="M 387.5 42 L 391 43.5 L 388.5 44 L 387.5 42 Z" />
 <path fill="rgb(145,145,145)" stroke="rgb(145,145,145)" stroke-width="1" d="M 415.5 42 L 414.5 44 L 415.5 42 Z" />
 <path fill="rgb(145,145,145)" stroke="rgb(145,145,145)" stroke-width="1" d="M 417.5 43 L 419 43.5 L 417.5 44 L 417.5 43 Z" />
 <path fill="rgb(145,145,145)" stroke="rgb(145,145,145)" stroke-width="1" d="M 424.5 43 L 426 43.5 L 424.5 44 L 424.5 43 Z" />
 <path fill="rgb(145,145,145)" stroke="rgb(145,145,145)" stroke-width="1" d="M 21.5 49 L 22 51 Q 18.2 49.5 19 52.5 L 17.5 56 Q 14.7 54.8 17 53.5 L 19.5 50 L 21.5 49 Z" />
 <path fill="rgb(145,145,145)" stroke="rgb(145,145,145)" stroke-width="1" d="M 116.5 49 L 121 52.5 L 119.5 53 L 116 51 L 116.5 49 Z" />
 <path fill="rgb(145,145,145)" stroke="rgb(145,145,145)" stroke-width="1" d="M 120.5 54 L 122 54.5 L 120.5 55 L 120.5 54 Z" />
 <path fill="rgb(145,145,145)" stroke="rgb(145,145,145)" stroke-width="1" d="M 55.5 64 L 58 64.5 L 55.5 65 L 55.5 64 Z" />
 <path fill="rgb(145,145,145)" stroke="rgb(145,145,145)" stroke-width="1" d="M 50.5 65 L 52 68.5 L 50.5 69 Q 49.3 66.8 48 69.5 L 48.5 71 Q 45.7 69.8 48 68.5 Q 46.9 65.2 49.5 66 L 50.5 65 Z" />
 <path fill="rgb(145,145,145)" stroke="rgb(145,145,145)" stroke-width="1" d="M 61.5 65 L 64 66.5 L 62.5 67 L 61.5 65 Z" />
 <path fill="rgb(145,145,145)" stroke="rgb(145,145,145)" stroke-width="1" d="M 65.5 65 Q 68.5 66.5 65.5 68 L 65.5 65 Z" />
 <path fill="rgb(145,145,145)" stroke="rgb(145,145,145)" stroke-width="1" d="M 68 65 L 70 65 L 70 71 L 72.5 71 L 72.5 72 L 69.5 71 L 69 73 L 63.5 71 L 61 72.5 L 62.5 70 L 65.5 69 L 65.5 71 L 67.5 72 L 68 65 Z" />
 <path fill="rgb(145,145,145)" stroke="rgb(145,145,145)" stroke-width="1" d="M 83.5 65 L 85 67.5 L 84 67.5 L 83.5 65 Z" />
 <path fill="rgb(145,145,145)" stroke="rgb(145,145,145)" stroke-width="1" d="M 86.5 65 L 87.5 67 L 86.5 65 Z" />
 <path fill="rgb(145,145,145)" stroke="rgb(145,145,145)" stroke-width="1" d="M 58.5 66 L 60 66.5 L 58.5 67 L 58.5 66 Z" />
 <path fill="rgb(145,145,145)" stroke="rgb(145,145,145)" stroke-width="1" d="M 77 66 Q 80.3 64.7 79 69.5 L 77.5 73 L 74 71.5 L 77 71 L 76 68.5 L 77 66 Z" />
 <path fill="rgb(145,145,145)" stroke="rgb(145,145,145)" stroke-width="1" d="M 55.5 67 L 56 71 L 60 70 L 58.5 73 L 55.5 72 L 52.5 73 Q 49.5 71.5 52.5 70 L 55 71.5 L 55.5 67 Z" />
 <path fill="rgb(145,145,145)" stroke="rgb(145,145,145)" stroke-width="1" d="M 89.5 67 L 89.5 69 Q 91.8 68.3 91 70.5 L 89.5 73 L 87.5 72 L 86 72.5 Q 85.2 69.5 89 71 L 89 69 L 87 68.5 L 89.5 67 Z" />
 <path fill="rgb(145,145,145)" stroke="rgb(145,145,145)" stroke-width="1" d="M 83 69 Q 86 67.8 85 71.5 Q 83.8 74.3 82.5 72 L 80 71.5 L 83 71 L 83 69 Z" />
 <path fill="rgb(145,145,145)" stroke="rgb(145,145,145)" stroke-width="1" d="M 46.5 71 L 47.5 73 Q 44.7 73.7 46.5 71 Z" />
 <path fill="rgb(145,145,145)" stroke="rgb(145,145,145)" stroke-width="1" d="M 37.5 78 L 40 79 L 41 82.5 L 40.5 84 Q 43.1 84.8 42 81.5 L 44.5 80 L 44 81.5 L 43 84.5 L 44.5 85 L 47 84 L 46 80.5 L 49 80.5 Q 48.3 84.3 50.5 85 Q 53.1 85.8 52 82.5 L 50 79.5 L 54 80.5 L 53 83.5 L 56.5 81 Q 58.8 80.3 58 82.5 L 55 83.5 L 54.5 86 L 52.5 85 L 48.5 86 L 46.5 85 L 43.5 86 L 41.5 86 Q 39.3 86.8 40 84.5 L 38.5 81 L 36.5 82 L 37.5 78 Z" />
 <path fill="rgb(145,145,145)" stroke="rgb(145,145,145)" stroke-width="1" d="M 59.5 78 L 60 85.5 L 59 85.5 L 59.5 78 Z" />
 <path fill="rgb(145,145,145)" stroke="rgb(145,145,145)" stroke-width="1" d="M 91.5 78 L 92.5 80 L 91.5 78 Z" />
 <path fill="rgb(145,145,145)" stroke="rgb(145,145,145)" stroke-width="1" d="M 79.5 79 L 79.5 81 L 81 81 L 81 86 Q 77.3 87.3 79 81.5 L 78 81.5 Q 78.8 85.3 76.5 86 L 74.5 81 L 73 81.5 Q 74.5 78.5 76 81.5 L 76.5 83 L 79.5 79 Z" />
 <path fill="rgb(145,145,145)" stroke="rgb(145,145,145)" stroke-width="1" d="M 86.5 79 L 88 79.5 L 85.5 81 L 86.5 79 Z" />
 <path fill="rgb(145,145,145)" stroke="rgb(145,145,145)" stroke-width="1" d="M 96.5 79 Q 98.3 82.1 100 80.5 L 101 85.5 L 99.5 85 L 97.5 86 L 95.5 85 L 94 85.5 L 96.5 84 Q 97.7 86.3 99 83.5 L 96.5 79 Z" />
 <path fill="rgb(145,145,145)" stroke="rgb(145,145,145)" stroke-width="1" d="M 61.5 80 L 63.5 82 Q 65.2 78.3 67 81.5 L 66.5 83 L 65.5 81 L 62.5 86 L 61 83 L 63 82.5 L 61 82 L 61.5 80 Z" />
 <path fill="rgb(145,145,145)" stroke="rgb(145,145,145)" stroke-width="1" d="M 69.5 80 L 72 81.5 L 71 84.5 L 71.5 86 L 69.5 81 L 68 81.5 L 69.5 80 Z" />
 <path fill="rgb(145,145,145)" stroke="rgb(145,145,145)" stroke-width="1" d="M 83.5 80 L 85 83.5 L 84 86 Q 80.3 87.3 82 81.5 L 83.5 80 Z" />
 <path fill="rgb(145,145,145)" stroke="rgb(145,145,145)" stroke-width="1" d="M 90.5 80 L 94 82.5 L 93 86 Q 89.3 87.3 91 81.5 L 90 81.5 L 89.5 83 L 88.5 81 L 90.5 80 Z" />
 <path fill="rgb(145,145,145)" stroke="rgb(145,145,145)" stroke-width="1" d="M 35.5 83 Q 38.5 84.5 35.5 86 L 35.5 83 Z" />
 <path fill="rgb(145,145,145)" stroke="rgb(145,145,145)" stroke-width="1" d="M 56 84 L 58 84.5 L 56 85.5 L 56 84 Z" />
 <path fill="rgb(145,145,145)" stroke="rgb(145,145,145)" stroke-width="1" d="M 64 84 L 68 85.5 L 66.5 85 L 64.5 86 L 64 84 Z" />
 <path fill="rgb(145,145,145)" stroke="rgb(145,145,145)" stroke-width="1" d="M 73.5 84 L 74 85.5 L 73 85.5 L 73.5 84 Z" />
 <path fill="rgb(145,145,145)" stroke="rgb(145,145,145)" stroke-width="1" d="M 88 84 L 90 84.5 L 88 85.5 L 88 84 Z" />
 <path fill="rgb(145,145,145)" stroke="rgb(145,145,145)" stroke-width="1" d="M 16.5 96 Q 18.8 95.3 18 97.5 L 21.5 101 L 116.5 101 L 120.5 98 L 117.5 102 L 115.5 103 L 70 103.5 L 70.5 105 L 68.5 103 L 22.5 103 L 17 98.5 L 16.5 96 Z" />
 <path fill="rgb(145,145,145)" stroke="rgb(145,145,145)" stroke-width="1" d="M 120.5 96 L 122 96.5 L 120.5 97 L 120.5 96 Z" />
 <path fill="rgb(145,145,145)" stroke="rgb(145,145,145)" stroke-width="1" d="M 411.5 99 L 415 101.5 L 413 102 Q 414.1 99.3 411.5 100 L 411.5 99 Z" />
 <path fill="rgb(145,145,145)" stroke="rgb(145,145,145)" stroke-width="1" d="M 405 100 L 407 100.5 L 407 107.5 L 405 106.5 L 405 100 Z" />
 <path fill="rgb(145,145,145)" stroke="rgb(145,145,145)" stroke-width="1" d="M 409.5 100 L 410.5 102 L 409.5 100 Z" />
 <path fill="rgb(145,145,145)" stroke="rgb(145,145,145)" stroke-width="1" d="M 408.5 102 L 410 105 Q 406.5 106.1 408.5 102 Z" />
 <path fill="rgb(145,145,145)" stroke="rgb(145,145,145)" stroke-width="1" d="M 414.5 105 L 415 106.5 Q 413.7 109.3 412.5 107 L 410.5 108 L 409.5 106 L 414.5 105 Z" />
 <path fill="rgb(145,145,145)" stroke="rgb(145,145,145)" stroke-width="1" d="M 68 109 L 70 109.5 L 70 163 L 68 162.5 L 68 109 Z" />
 <path fill="rgb(145,145,145)" stroke="rgb(145,145,145)" stroke-width="1" d="M 80.5 135 L 83 141.5 L 81 141.5 Q 81.8 144.1 78.5 143 L 78.5 142 L 80 141.5 L 80.5 135 Z" />
 <path fill="rgb(145,145,145)" stroke="rgb(145,145,145)" stroke-width="1" d="M 85.5 135 L 85.5 137 L 87.5 138 L 89.5 135 L 89.5 138 Q 86.9 137.3 88 140 L 92.5 141 L 94 140.5 L 89.5 143 L 87.5 140 L 84.5 142 L 84.5 141 L 86 140.5 L 84 136.5 L 85.5 135 Z" />
 <path fill="rgb(145,145,145)" stroke="rgb(145,145,145)" stroke-width="1" d="M 96.5 135 L 97 137.5 L 97.5 141 Q 98.7 138.8 100 141.5 L 98.5 143 L 95 141.5 Q 93.8 136.3 96.5 135 Z" />
 <path fill="rgb(145,145,145)" stroke="rgb(145,145,145)" stroke-width="1" d="M 77.5 136 L 79 141 L 77 140.5 Q 79.3 139.3 76.5 138 L 74 139 Q 72.8 136 76.5 137 L 77.5 136 Z" />
 <path fill="rgb(145,145,145)" stroke="rgb(145,145,145)" stroke-width="1" d="M 98 136 L 100 136.5 L 98 137.5 L 98 136 Z" />
 <path fill="rgb(145,145,145)" stroke="rgb(145,145,145)" stroke-width="1" d="M 156.5 136 L 262 136.5 L 260.5 138 L 157.5 138 L 156.5 136 Z" />
 <path fill="rgb(145,145,145)" stroke="rgb(145,145,145)" stroke-width="1" d="M 355.5 136 L 400.5 136 L 401.5 137 L 402.5 136 L 447.5 136 L 453 139.5 L 454 141.5 L 454 185.5 L 450 188.5 L 453 183.5 L 453 142.5 L 450.5 139 L 448.5 138 L 354.5 138 L 351 140.5 L 350 142.5 L 350 184.5 L 352.5 188 Q 348.8 189.3 350 185.5 L 348 183.5 L 348 164.5 L 349 162.5 L 347 162.5 L 348 161.5 L 348 142 L 350 141.5 L 349 140.5 L 352.5 137 L 355.5 136 Z" />
 <path fill="rgb(145,145,145)" stroke="rgb(145,145,145)" stroke-width="1" d="M 73 140 Q 75.7 138.9 75 141.5 L 73 142.5 L 73 140 Z" />
 <path fill="rgb(145,145,145)" stroke="rgb(145,145,145)" stroke-width="1" d="M 159 158 L 164.5 158 L 165 159.5 L 165 161.5 L 164.5 163 L 164 160 Q 160.2 158.5 161 161.5 L 161 163.5 Q 162 167.3 159 166 L 159 158 Z" />
 <path fill="rgb(145,145,145)" stroke="rgb(145,145,145)" stroke-width="1" d="M 184.5 158 L 184 159.5 L 184 166 L 186.5 166 Q 189.3 164.8 187 163.5 Q 187.8 161.3 185.5 162 L 185.5 161 L 187.5 160 L 187.5 162 L 190.5 160 L 191 162.5 L 189 162.5 Q 188.3 164.8 190.5 164 L 193 165.5 L 193.5 164 L 194 165.5 L 191 167 Q 192.3 164 188.5 165 L 184.5 167 Q 182.5 163 180.5 167 L 178.5 168 L 179.5 166 L 182 164.5 L 181 162 L 178 160.5 L 179.5 161 L 181.5 160 L 183 160.5 L 184.5 158 Z" />
 <path fill="rgb(145,145,145)" stroke="rgb(145,145,145)" stroke-width="1" d="M 211.5 158 L 215.5 158 Q 214.8 161 219 160 L 219 166 L 217 166 L 217 161 L 215.5 161 L 215.5 163 Q 213.3 163.8 214 161.5 L 214.5 160 L 211 161.5 L 212 166 Q 208.5 167.1 210 159.5 L 211.5 158 Z" />
 <path fill="rgb(145,145,145)" stroke="rgb(145,145,145)" stroke-width="1" d="M 223.5 158 L 227.5 158 L 231 160 L 232 163.5 L 231 166 Q 227.7 167.3 229 162.5 L 227 162.5 Q 228.3 158.8 224.5 160 L 223 159.5 L 222.5 166 L 222 159.5 L 223.5 158 Z" />
 <path fill="rgb(145,145,145)" stroke="rgb(145,145,145)" stroke-width="1" d="M 246 158 L 250 158.5 L 249.5 160 Q 254.3 158.3 253 162.5 L 255 161.5 L 254.5 160 Q 256.8 159.3 256 161.5 L 257 161.5 Q 256.3 158.9 259 160 L 257.5 166 L 256.5 164 L 254.5 165 L 253 164.5 L 252.5 166 L 252 162 L 248 164.5 L 251 165.5 Q 250.3 167.8 246.5 167 L 245 165.5 L 249 161.5 Q 249.7 158.5 246 160 L 246 158 Z M 246.5 165 L 246.5 166 L 248 165.5 L 246.5 165 Z" />
 <path fill="rgb(145,145,145)" stroke="rgb(145,145,145)" stroke-width="1" d="M 386.5 158 Q 390.3 157.3 391 159.5 L 390 163.5 L 391 165.5 Q 390.3 167.8 386.5 167 Q 383.5 165.5 385 159.5 L 386.5 158 Z M 387.5 160 L 386 161.5 L 387 165 Q 389.7 166.1 389 163.5 L 389 161.5 Q 389.8 159.3 387.5 160 Z" />
 <path fill="rgb(145,145,145)" stroke="rgb(145,145,145)" stroke-width="1" d="M 167.5 160 L 169.5 161 L 171 160.5 L 170 163 Q 165.3 164.5 167.5 160 Z" />
 <path fill="rgb(145,145,145)" stroke="rgb(145,145,145)" stroke-width="1" d="M 195.5 160 Q 198 161 197 165.5 L 195 164.5 L 196 161.5 L 195.5 160 Z" />
 <path fill="rgb(145,145,145)" stroke="rgb(145,145,145)" stroke-width="1" d="M 202.5 160 L 204.5 163 L 206 163.5 L 202 164 L 202.5 160 Z" />
 <path fill="rgb(145,145,145)" stroke="rgb(145,145,145)" stroke-width="1" d="M 235.5 160 L 240 161.5 L 238 165.5 L 240.5 166 L 240.5 164 Q 242.8 163.3 242 165.5 L 238.5 167 Q 235.8 165.8 238 164.5 Q 239.1 160.3 235 162 L 235.5 160 Z" />
 <path fill="rgb(145,145,145)" stroke="rgb(145,145,145)" stroke-width="1" d="M 392 160 Q 395.7 158.7 394 164.5 L 395 164.5 Q 393.3 158.7 397 160 L 397 163.5 L 395 167 L 392 165.5 L 392 160 Z" />
 <path fill="rgb(145,145,145)" stroke="rgb(145,145,145)" stroke-width="1" d="M 402.5 160 L 404 160.5 L 402.5 161 L 402.5 160 Z" />
 <path fill="rgb(145,145,145)" stroke="rgb(145,145,145)" stroke-width="1" d="M 407.5 160 L 410 166 Q 412.7 167.1 412 164.5 L 414.5 161 L 415 165.5 L 414 165.5 L 413.5 164 L 411.5 167 L 408.5 165 Q 406.5 169 398.5 167 L 397.5 165 L 399.5 166 L 399 164.5 L 400.5 161 L 401 163.5 L 400.5 165 Q 404.5 165.5 405 162.5 L 405.5 161 L 407 161.5 L 407.5 160 Z M 407.5 162 L 405 164.5 L 408 165 L 407.5 162 Z M 403.5 165 L 403.5 166 L 405 165.5 L 403.5 165 Z" />
 <path fill="rgb(145,145,145)" stroke="rgb(145,145,145)" stroke-width="1" d="M 409.5 160 L 412 161 Q 413 164 410 163 L 409.5 160 Z" />
 <path fill="rgb(145,145,145)" stroke="rgb(145,145,145)" stroke-width="1" d="M 417.5 160 L 416.5 162 L 417.5 160 Z" />
 <path fill="rgb(145,145,145)" stroke="rgb(145,145,145)" stroke-width="1" d="M 172.5 161 L 174.5 162 L 176 161.5 Q 173.5 163 177 164.5 L 174.5 167 L 171.5 166 L 168.5 167 L 163 164.5 L 164.5 164 L 166.5 164 L 168 164.5 L 167.5 166 L 169.5 165 L 171 165.5 L 171.5 164 L 175 166 L 174.5 163 L 172.5 163 L 171 162.5 L 172.5 161 Z" />
 <path fill="rgb(145,145,145)" stroke="rgb(145,145,145)" stroke-width="1" d="M 192 161 L 194 161.5 L 192 162.5 L 192 161 Z" />
 <path fill="rgb(145,145,145)" stroke="rgb(145,145,145)" stroke-width="1" d="M 232.5 161 L 234 161.5 L 232.5 162 L 232.5 161 Z" />
 <path fill="rgb(145,145,145)" stroke="rgb(145,145,145)" stroke-width="1" d="M 199.5 163 L 200 165.5 L 199 165.5 L 199.5 163 Z" />
 <path fill="rgb(145,145,145)" stroke="rgb(145,145,145)" stroke-width="1" d="M 203 165 Q 206 164 205 167 L 202.5 168 L 203 166.5 L 203 165 Z" />
 <path fill="rgb(145,145,145)" stroke="rgb(145,145,145)" stroke-width="1" d="M 232.5 165 L 235 166.5 L 233.5 167 L 232.5 165 Z" />
 <path fill="rgb(145,145,145)" stroke="rgb(145,145,145)" stroke-width="1" d="M 341.5 165 L 342.5 167 Q 339.7 167.7 341.5 165 Z" />
 <path fill="rgb(145,145,145)" stroke="rgb(145,145,145)" stroke-width="1" d="M 354.5 188 L 355 190 L 353 189.5 L 354.5 188 Z" />
 <path fill="rgb(145,145,145)" stroke="rgb(145,145,145)" stroke-width="1" d="M 448.5 188 L 449 189.5 L 448 189.5 L 448.5 188 Z" />
 <path fill="rgb(145,145,145)" stroke="rgb(145,145,145)" stroke-width="1" d="M 208.5 190 L 210 190.5 L 208.5 191 L 208.5 190 Z" />
 <path fill="rgb(145,145,145)" stroke="rgb(145,145,145)" stroke-width="1" d="M 207.5 196 L 211 196.5 L 210 197.5 L 209.5 268 L 208 266.5 L 208 197.5 L 207.5 196 Z" />
 <path fill="rgb(145,145,145)" stroke="rgb(145,145,145)" stroke-width="1" d="M 345 215 L 439.5 215 L 440 217 L 437.5 216 L 347.5 216 L 345 217 L 345 215 Z" />
 <path fill="rgb(145,145,145)" stroke="rgb(145,145,145)" stroke-width="1" d="M 343.5 216 L 344 217.5 L 341 221.5 L 341 239.5 L 340 240.5 L 341 243.5 L 341 262.5 L 344.5 267 L 347 267.5 Q 345.7 270.3 344.5 268 L 340 264.5 L 339 261.5 L 339 242.5 L 339.5 241 L 338 240.5 L 339 239.5 L 339 222.5 L 343.5 216 Z" />
 <path fill="rgb(145,145,145)" stroke="rgb(145,145,145)" stroke-width="1" d="M 441.5 216 L 446 221.5 L 446 262.5 L 445 265 Q 442.3 263.9 443 266.5 L 439.5 269 L 438.5 267 Q 443.5 267.5 444 263.5 L 444 220.5 Q 439.8 219.3 441.5 216 Z" />
 <path fill="rgb(145,145,145)" stroke="rgb(145,145,145)" stroke-width="1" d="M 286.5 224 L 288 227.5 L 286.5 231 L 286.5 229 Q 283.9 229.7 285 227 L 287 226.5 L 286.5 224 Z" />
 <path fill="rgb(145,145,145)" stroke="rgb(145,145,145)" stroke-width="1" d="M 289.5 224 L 291 227 L 295 227.5 L 291 229 Q 292.3 233.1 289 232 L 289.5 224 Z M 290.5 227 L 290 228.5 L 291 228.5 L 290.5 227 Z" />
 <path fill="rgb(145,145,145)" stroke="rgb(145,145,145)" stroke-width="1" d="M 294.5 224 L 295 226 L 293 225.5 L 294.5 224 Z" />
 <path fill="rgb(145,145,145)" stroke="rgb(145,145,145)" stroke-width="1" d="M 296 224 L 298 224.5 L 298 232 L 296 231.5 L 296 224 Z" />
 <path fill="rgb(145,145,145)" stroke="rgb(145,145,145)" stroke-width="1" d="M 304.5 224 L 306 227 Q 302.5 228.1 304.5 224 Z" />
 <path fill="rgb(145,145,145)" stroke="rgb(145,145,145)" stroke-width="1" d="M 300.5 225 L 302 225.5 L 299.5 231 L 299 226.5 L 300.5 225 Z" />
 <path fill="rgb(145,145,145)" stroke="rgb(145,145,145)" stroke-width="1" d="M 307.5 225 L 309 225.5 L 307.5 226 L 307.5 225 Z" />
 <path fill="rgb(145,145,145)" stroke="rgb(145,145,145)" stroke-width="1" d="M 310.5 225 L 312 225.5 L 310.5 226 L 310.5 225 Z" />
 <path fill="rgb(145,145,145)" stroke="rgb(145,145,145)" stroke-width="1" d="M 281.5 226 L 283 228.5 L 281 229.5 L 281.5 226 Z" />
 <path fill="rgb(145,145,145)" stroke="rgb(145,145,145)" stroke-width="1" d="M 310.5 227 L 312 227.5 L 310 228 L 308.5 231 L 307 230.5 L 310.5 227 Z" />
 <path fill="rgb(145,145,145)" stroke="rgb(145,145,145)" stroke-width="1" d="M 305.5 228 L 306 230.5 L 304 231.5 L 305.5 228 Z" />
 <path fill="rgb(145,145,145)" stroke="rgb(145,145,145)" stroke-width="1" d="M 283.5 230 L 284 231.5 L 283 231.5 L 283.5 230 Z" />
 <path fill="rgb(145,145,145)" stroke="rgb(145,145,145)" stroke-width="1" d="M 219.5 231 L 219.5 234 Q 217.3 234.8 218 232.5 L 219.5 231 Z" />
 <path fill="rgb(145,145,145)" stroke="rgb(145,145,145)" stroke-width="1" d="M 222.5 231 L 224 233.5 Q 221.2 235.2 225.5 237 L 226.5 235 L 225 234.5 L 226.5 234 L 228.5 234 Q 231.8 232.9 231 235.5 L 232 238.5 L 231 238.5 L 230.5 236 L 229.5 239 Q 228 235.5 226.5 238 L 223.5 237 L 222 237.5 Q 222.8 235.3 220.5 236 L 221.5 234 L 223 233.5 L 222.5 231 Z M 228.5 235 L 228.5 236 L 230 235.5 L 228.5 235 Z" />
 <path fill="rgb(145,145,145)" stroke="rgb(145,145,145)" stroke-width="1" d="M 234.5 231 L 236 231.5 L 234.5 232 L 234.5 231 Z" />
 <path fill="rgb(145,145,145)" stroke="rgb(145,145,145)" stroke-width="1" d="M 243.5 231 L 244 238.5 L 241 238.5 Q 240.5 233 243.5 231 Z" />
 <path fill="rgb(145,145,145)" stroke="rgb(145,145,145)" stroke-width="1" d="M 233.5 233 Q 237.3 231.8 236 235.5 L 237 235.5 L 237.5 233 L 240 238.5 L 239 238.5 L 237.5 236 L 235.5 239 Q 232.1 239.9 234 234.5 L 232 234.5 L 233.5 233 Z" />
 <path fill="rgb(145,145,145)" stroke="rgb(145,145,145)" stroke-width="1" d="M 218.5 236 L 220 238.5 L 218 237.5 L 218.5 236 Z" />
 <path fill="rgb(145,145,145)" stroke="rgb(145,145,145)" stroke-width="1" d="M 388.5 237 L 389 245 L 387 244.5 L 388.5 237 Z" />
 <path fill="rgb(145,145,145)" stroke="rgb(145,145,145)" stroke-width="1" d="M 395.5 237 L 396 244.5 L 395 244.5 L 395.5 237 Z" />
 <path fill="rgb(145,145,145)" stroke="rgb(145,145,145)" stroke-width="1" d="M 400.5 237 L 401 239.5 L 402 243.5 L 400 244.5 Q 401.3 239.8 399 238.5 L 400.5 237 Z" />
 <path fill="rgb(145,145,145)" stroke="rgb(145,145,145)" stroke-width="1" d="M 333.5 240 L 333.5 243 L 328.5 242 L 327.5 243 L 304.5 243 Q 303 245.5 297.5 244 L 296.5 242 L 332.5 241 L 333.5 240 Z" />
 <path fill="rgb(145,145,145)" stroke="rgb(145,145,145)" stroke-width="1" d="M 161.5 268 L 162 269.5 L 161 269.5 L 161.5 268 Z" />
 <path fill="rgb(145,145,145)" stroke="rgb(145,145,145)" stroke-width="1" d="M 256.5 268 L 261 271.5 L 259.5 272 L 256 270 L 256.5 268 Z" />
 <path fill="rgb(145,145,145)" stroke="rgb(145,145,145)" stroke-width="1" d="M 159.5 269 L 160 270.5 L 158 274 L 156 273.5 L 159.5 269 Z" />
 <path fill="rgb(145,145,145)" stroke="rgb(145,145,145)" stroke-width="1" d="M 260.5 273 L 262 273.5 L 260.5 274 L 260.5 273 Z" />
 <path fill="rgb(145,145,145)" stroke="rgb(145,145,145)" stroke-width="1" d="M 207.5 290 L 208 291.5 L 207.5 294 Q 204.8 292.8 207 291.5 L 207.5 290 Z" />
 <path fill="rgb(145,145,145)" stroke="rgb(145,145,145)" stroke-width="1" d="M 210.5 290 L 212 297.5 L 211 297.5 Q 211.8 295.3 209.5 296 L 210 294.5 L 209 291.5 L 210.5 290 Z" />
 <path fill="rgb(145,145,145)" stroke="rgb(145,145,145)" stroke-width="1" d="M 214.5 290 L 215 291.5 L 214 291.5 L 214.5 290 Z" />
 <path fill="rgb(145,145,145)" stroke="rgb(145,145,145)" stroke-width="1" d="M 203.5 291 L 204 292.5 L 203 292.5 L 203.5 291 Z" />
 <path fill="rgb(145,145,145)" stroke="rgb(145,145,145)" stroke-width="1" d="M 203.5 294 L 204 296.5 L 202 297.5 L 203.5 294 Z" />
 <path fill="rgb(145,145,145)" stroke="rgb(145,145,145)" stroke-width="1" d="M 214.5 295 L 216 295.5 L 214 296 L 213.5 298 L 213 296.5 L 214.5 295 Z" />
 <path fill="rgb(145,145,145)" stroke="rgb(145,145,145)" stroke-width="1" d="M 156.5 315 Q 158.8 314.3 158 316.5 L 162.5 320 L 255.5 320 L 260 316.5 Q 259.3 314.3 261.5 315 L 261 316.5 L 257.5 321 L 160.5 321 L 157 317.5 L 156.5 315 Z" />
 <path fill="rgb(24,24,24)" stroke="rgb(24,24,24)" stroke-width="1" d="M 16.5 56 L 17 94.5 L 16 94.5 L 16.5 56 Z" />
 <path fill="rgb(24,24,24)" stroke="rgb(24,24,24)" stroke-width="1" d="M 121.5 56 L 122 94.5 L 121 94.5 L 121.5 56 Z" />
 <path fill="rgb(24,24,24)" stroke="rgb(24,24,24)" stroke-width="1" d="M 401.5 68 L 404 73.5 L 402 73.5 L 401.5 137 L 401 73 L 399 72.5 L 401.5 68 Z" />
 <path fill="rgb(24,24,24)" stroke="rgb(24,24,24)" stroke-width="1" d="M 48.5 69 L 51 69.5 L 48.5 70 L 48.5 69 Z" />
 <path fill="rgb(24,24,24)" stroke="rgb(24,24,24)" stroke-width="1" d="M 100.5 80 L 101 81.5 L 100 81.5 L 100.5 80 Z" />
 <path fill="rgb(24,24,24)" stroke="rgb(24,24,24)" stroke-width="1" d="M 68 104 Q 70.7 102.9 70 105.5 L 72 108.5 L 70.5 108 Q 66.1 109.5 67 106.5 L 68 104 Z" />
 <path fill="rgb(24,24,24)" stroke="rgb(24,24,24)" stroke-width="1" d="M 156.5 137 L 157 189.5 L 156 189.5 L 156.5 137 Z" />
 <path fill="rgb(24,24,24)" stroke="rgb(24,24,24)" stroke-width="1" d="M 261.5 137 L 262 189.5 L 261 189.5 L 261.5 137 Z" />
 <path fill="rgb(24,24,24)" stroke="rgb(24,24,24)" stroke-width="1" d="M 74.5 139 L 78 139.5 L 74.5 140 L 74.5 139 Z" />
 <path fill="rgb(24,24,24)" stroke="rgb(24,24,24)" stroke-width="1" d="M 342.5 160 L 347 163.5 L 342.5 166 L 343 162.5 L 342.5 160 Z" />
 <path fill="rgb(24,24,24)" stroke="rgb(24,24,24)" stroke-width="1" d="M 399.5 160 L 401 160.5 L 399.5 161 L 399.5 160 Z" />
 <path fill="rgb(24,24,24)" stroke="rgb(24,24,24)" stroke-width="1" d="M 404.5 160 L 406 160.5 L 404.5 161 L 404.5 160 Z" />
 <path fill="rgb(24,24,24)" stroke="rgb(24,24,24)" stroke-width="1" d="M 184.5 161 L 185 162.5 L 184 162.5 L 184.5 161 Z" />
 <path fill="rgb(24,24,24)" stroke="rgb(24,24,24)" stroke-width="1" d="M 170.5 163 L 171 164.5 L 170 164.5 L 170.5 163 Z" />
 <path fill="rgb(24,24,24)" stroke="rgb(24,24,24)" stroke-width="1" d="M 184.5 164 L 185 165.5 L 184 165.5 L 184.5 164 Z" />
 <path fill="rgb(24,24,24)" stroke="rgb(24,24,24)" stroke-width="1" d="M 208.5 192 Q 210.8 191.3 210 193.5 L 211 196 L 206 195.5 L 208.5 192 Z" />
 <path fill="rgb(24,24,24)" stroke="rgb(24,24,24)" stroke-width="1" d="M 240.5 235 L 241 237.5 L 240 237.5 L 240.5 235 Z" />
 <path fill="rgb(24,24,24)" stroke="rgb(24,24,24)" stroke-width="1" d="M 334.5 239 L 338 240 L 336.5 243 L 334.5 244 L 334.5 239 Z" />
 <path fill="rgb(24,24,24)" stroke="rgb(24,24,24)" stroke-width="1" d="M 389.5 244 L 391 244.5 L 389.5 245 L 389.5 244 Z" />
 <path fill="rgb(24,24,24)" stroke="rgb(24,24,24)" stroke-width="1" d="M 396.5 244 L 398 244.5 L 396.5 245 L 396.5 244 Z" />
 <path fill="rgb(24,24,24)" stroke="rgb(24,24,24)" stroke-width="1" d="M 156.5 275 L 157 313.5 L 156 313.5 L 156.5 275 Z" />
 <path fill="rgb(24,24,24)" stroke="rgb(24,24,24)" stroke-width="1" d="M 261.5 275 L 262 313.5 L 261 313.5 L 261.5 275 Z" />
 <path fill="rgb(74,74,74)" stroke="rgb(74,74,74)" stroke-width="1" d="M 355.5 14 L 448 14.5 L 355.5 15 L 355.5 14 Z" />
 <path fill="rgb(74,74,74)" stroke="rgb(74,74,74)" stroke-width="1" d="M 376.5 36 L 378 36.5 L 376.5 37 L 376.5 36 Z" />
 <path fill="rgb(74,74,74)" stroke="rgb(74,74,74)" stroke-width="1" d="M 388.5 36 L 389.5 38 L 388.5 36 Z" />
 <path fill="rgb(74,74,74)" stroke="rgb(74,74,74)" stroke-width="1" d="M 399.5 36 L 402 37.5 L 401.5 39 L 401 37 L 399.5 36 Z" />
 <path fill="rgb(74,74,74)" stroke="rgb(74,74,74)" stroke-width="1" d="M 405.5 36 L 408 36.5 L 404.5 38 L 405.5 36 Z" />
 <path fill="rgb(74,74,74)" stroke="rgb(74,74,74)" stroke-width="1" d="M 420 36 L 423 36.5 L 421 37 Q 419.8 40 423.5 39 L 423.5 40 Q 419.3 38.9 421 43 L 424 43.5 L 421.5 44 Q 418.3 42.1 420 36 Z" />
 <path fill="rgb(74,74,74)" stroke="rgb(74,74,74)" stroke-width="1" d="M 427 36 L 429 36.5 L 428 43 L 431 43.5 L 428.5 44 Q 425.3 42.1 427 36 Z" />
 <path fill="rgb(74,74,74)" stroke="rgb(74,74,74)" stroke-width="1" d="M 414.5 37 L 415 43 L 417 43.5 L 415.5 44 Q 412.4 42.4 414.5 37 Z" />
 <path fill="rgb(74,74,74)" stroke="rgb(74,74,74)" stroke-width="1" d="M 375.5 39 L 376 40.5 L 375 40.5 L 375.5 39 Z" />
 <path fill="rgb(74,74,74)" stroke="rgb(74,74,74)" stroke-width="1" d="M 382.5 39 L 383 41.5 L 382 41.5 L 382.5 39 Z" />
 <path fill="rgb(74,74,74)" stroke="rgb(74,74,74)" stroke-width="1" d="M 432.5 40 L 433 41.5 L 432 41.5 L 432.5 40 Z" />
 <path fill="rgb(74,74,74)" stroke="rgb(74,74,74)" stroke-width="1" d="M 387.5 41 L 387.5 44 Q 385.3 44.8 386 42.5 L 387.5 41 Z" />
 <path fill="rgb(74,74,74)" stroke="rgb(74,74,74)" stroke-width="1" d="M 378.5 42 L 377.5 44 L 378.5 42 Z" />
 <path fill="rgb(74,74,74)" stroke="rgb(74,74,74)" stroke-width="1" d="M 398.5 42 L 401 43.5 L 398 44 L 398.5 42 Z" />
 <path fill="rgb(74,74,74)" stroke="rgb(74,74,74)" stroke-width="1" d="M 22.5 49 L 116 49.5 L 22.5 50 L 22.5 49 Z" />
 <path fill="rgb(74,74,74)" stroke="rgb(74,74,74)" stroke-width="1" d="M 54 65 L 59 65.5 L 55 66 L 55 72 L 57.5 72 L 59 71.5 L 55.5 73 L 54 71.5 L 54 65 Z" />
 <path fill="rgb(74,74,74)" stroke="rgb(74,74,74)" stroke-width="1" d="M 66.5 65 L 65 67.5 L 66 70.5 L 64.5 70 L 63 69.5 L 63.5 67 L 66.5 65 Z" />
 <path fill="rgb(74,74,74)" stroke="rgb(74,74,74)" stroke-width="1" d="M 75.5 65 L 78 65.5 L 75.5 66 L 75.5 65 Z" />
 <path fill="rgb(74,74,74)" stroke="rgb(74,74,74)" stroke-width="1" d="M 81.5 65 L 84 66.5 Q 85.1 69.8 82.5 69 L 83 67.5 Q 83.8 65.3 81.5 66 L 81.5 65 Z" />
 <path fill="rgb(74,74,74)" stroke="rgb(74,74,74)" stroke-width="1" d="M 87.5 65 L 90 65.5 L 87 66.5 L 90 68.5 L 88.5 68 L 86.5 69 L 86 66.5 L 87.5 65 Z" />
 <path fill="rgb(74,74,74)" stroke="rgb(74,74,74)" stroke-width="1" d="M 51.5 69 L 52 70.5 L 51 70.5 L 51.5 69 Z" />
 <path fill="rgb(74,74,74)" stroke="rgb(74,74,74)" stroke-width="1" d="M 47.5 70 L 48 71.5 L 47 71.5 L 47.5 70 Z" />
 <path fill="rgb(74,74,74)" stroke="rgb(74,74,74)" stroke-width="1" d="M 69.5 71 L 73 72.5 L 69 73 L 69.5 71 Z" />
 <path fill="rgb(74,74,74)" stroke="rgb(74,74,74)" stroke-width="1" d="M 81.5 72 L 83 72.5 L 81.5 73 L 81.5 72 Z" />
 <path fill="rgb(74,74,74)" stroke="rgb(74,74,74)" stroke-width="1" d="M 87.5 72 L 89 72.5 L 87.5 73 L 87.5 72 Z" />
 <path fill="rgb(74,74,74)" stroke="rgb(74,74,74)" stroke-width="1" d="M 398.5 73 L 401 73.5 L 398.5 74 L 398.5 73 Z" />
 <path fill="rgb(74,74,74)" stroke="rgb(74,74,74)" stroke-width="1" d="M 38.5 78 L 37.5 80 L 38.5 78 Z" />
 <path fill="rgb(74,74,74)" stroke="rgb(74,74,74)" stroke-width="1" d="M 91.5 79 L 92.5 81 Q 89.7 81.7 91.5 79 Z" />
 <path fill="rgb(74,74,74)" stroke="rgb(74,74,74)" stroke-width="1" d="M 49.5 80 L 51 80.5 L 49.5 81 L 49.5 80 Z" />
 <path fill="rgb(74,74,74)" stroke="rgb(74,74,74)" stroke-width="1" d="M 54.5 80 L 57 80.5 L 54 81.5 Q 56.3 82.8 53.5 84 L 53 81.5 L 54.5 80 Z" />
 <path fill="rgb(74,74,74)" stroke="rgb(74,74,74)" stroke-width="1" d="M 62.5 80 L 66 81.5 Q 66.8 83.8 64.5 83 L 64.5 81 Q 61.5 81.5 62.5 80 Z" />
 <path fill="rgb(74,74,74)" stroke="rgb(74,74,74)" stroke-width="1" d="M 67 80 L 69 80.5 L 67.5 85 L 67 80 Z" />
 <path fill="rgb(74,74,74)" stroke="rgb(74,74,74)" stroke-width="1" d="M 71.5 80 L 75 81.5 L 74.5 85 L 74 81 Q 70.7 81.8 71.5 80 Z" />
 <path fill="rgb(74,74,74)" stroke="rgb(74,74,74)" stroke-width="1" d="M 76 80 L 78 80.5 L 76.5 83 L 76 80 Z" />
 <path fill="rgb(74,74,74)" stroke="rgb(74,74,74)" stroke-width="1" d="M 79.5 80 L 83 80.5 L 79.5 81 L 79.5 80 Z" />
 <path fill="rgb(74,74,74)" stroke="rgb(74,74,74)" stroke-width="1" d="M 86.5 80 L 89 80.5 L 86 81.5 L 89 82.5 L 86 83 Q 84.9 85.7 87.5 85 L 87.5 86 L 85 84.5 Q 84.3 80.8 86.5 80 Z" />
 <path fill="rgb(74,74,74)" stroke="rgb(74,74,74)" stroke-width="1" d="M 95.5 80 L 98 81.5 L 97.5 83 L 97 81 L 95 81.5 L 95 83.5 Q 94.3 85.8 96.5 85 L 98 84.5 L 95.5 86 Q 93.3 85.3 94 81.5 L 95.5 80 Z" />
 <path fill="rgb(74,74,74)" stroke="rgb(74,74,74)" stroke-width="1" d="M 36 82 Q 39.8 81 41 83.5 L 39.5 83 L 36.5 84 L 36 82 Z" />
 <path fill="rgb(74,74,74)" stroke="rgb(74,74,74)" stroke-width="1" d="M 61.5 82 L 63 82.5 L 61.5 83 L 61.5 82 Z" />
 <path fill="rgb(74,74,74)" stroke="rgb(74,74,74)" stroke-width="1" d="M 100.5 82 L 101 84.5 L 100 84.5 L 100.5 82 Z" />
 <path fill="rgb(74,74,74)" stroke="rgb(74,74,74)" stroke-width="1" d="M 71.5 84 L 72.5 86 L 71.5 84 Z" />
 <path fill="rgb(74,74,74)" stroke="rgb(74,74,74)" stroke-width="1" d="M 410.5 100 L 413 100.5 L 410 101 L 409.5 103 L 409 101.5 L 410.5 100 Z" />
 <path fill="rgb(74,74,74)" stroke="rgb(74,74,74)" stroke-width="1" d="M 69.5 102 L 68.5 104 L 69.5 102 Z" />
 <path fill="rgb(74,74,74)" stroke="rgb(74,74,74)" stroke-width="1" d="M 66.5 107 L 70.5 108 L 72 107.5 Q 70.6 110.3 66 109 L 66.5 107 Z" />
 <path fill="rgb(74,74,74)" stroke="rgb(74,74,74)" stroke-width="1" d="M 411.5 107 L 413 107.5 L 411.5 108 L 411.5 107 Z" />
 <path fill="rgb(74,74,74)" stroke="rgb(74,74,74)" stroke-width="1" d="M 76.5 135 L 77 137 L 75 136.5 L 76.5 135 Z" />
 <path fill="rgb(74,74,74)" stroke="rgb(74,74,74)" stroke-width="1" d="M 82.5 135 L 86 136.5 L 84.5 136 Q 81.5 136.5 82.5 135 Z" />
 <path fill="rgb(74,74,74)" stroke="rgb(74,74,74)" stroke-width="1" d="M 90.5 135 L 94 136.5 L 92.5 136 L 89.5 137 L 90.5 135 Z" />
 <path fill="rgb(74,74,74)" stroke="rgb(74,74,74)" stroke-width="1" d="M 97.5 135 L 99 135.5 L 96.5 137 L 97.5 135 Z" />
 <path fill="rgb(74,74,74)" stroke="rgb(74,74,74)" stroke-width="1" d="M 99.5 137 L 100 140.5 L 99 140.5 L 99.5 137 Z" />
 <path fill="rgb(74,74,74)" stroke="rgb(74,74,74)" stroke-width="1" d="M 88.5 138 L 89 139.5 L 88 139.5 L 88.5 138 Z" />
 <path fill="rgb(74,74,74)" stroke="rgb(74,74,74)" stroke-width="1" d="M 81.5 141 L 85 142.5 L 81 143 L 81.5 141 Z" />
 <path fill="rgb(74,74,74)" stroke="rgb(74,74,74)" stroke-width="1" d="M 89.5 141 L 92.5 142 L 94 141.5 L 90.5 143 L 89.5 141 Z" />
 <path fill="rgb(74,74,74)" stroke="rgb(74,74,74)" stroke-width="1" d="M 96.5 141 L 97.5 143 L 96.5 141 Z" />
 <path fill="rgb(74,74,74)" stroke="rgb(74,74,74)" stroke-width="1" d="M 184.5 159 L 188 161.5 L 186.5 161 Q 182.5 162 184.5 159 Z" />
 <path fill="rgb(74,74,74)" stroke="rgb(74,74,74)" stroke-width="1" d="M 223.5 159 L 224 162 L 227 162.5 L 224 163 L 223.5 166 L 223.5 159 Z" />
 <path fill="rgb(74,74,74)" stroke="rgb(74,74,74)" stroke-width="1" d="M 168.5 160 L 171 161.5 L 169.5 164 L 167 163.5 L 170 163 Q 171.1 160.3 168.5 161 L 168.5 160 Z" />
 <path fill="rgb(74,74,74)" stroke="rgb(74,74,74)" stroke-width="1" d="M 173.5 160 L 176 160.5 L 173.5 161 L 173.5 160 Z" />
 <path fill="rgb(74,74,74)" stroke="rgb(74,74,74)" stroke-width="1" d="M 179.5 160 L 179 161.5 L 178.5 163 L 178 161.5 L 179.5 160 Z" />
 <path fill="rgb(74,74,74)" stroke="rgb(74,74,74)" stroke-width="1" d="M 196.5 160 L 198 160.5 L 196 161 L 195.5 163 L 195 161.5 L 196.5 160 Z" />
 <path fill="rgb(74,74,74)" stroke="rgb(74,74,74)" stroke-width="1" d="M 199 160 L 202 160.5 L 200 161 L 199.5 163 L 199 160 Z" />
 <path fill="rgb(74,74,74)" stroke="rgb(74,74,74)" stroke-width="1" d="M 233.5 160 L 235 160.5 L 233.5 161 L 233.5 160 Z" />
 <path fill="rgb(74,74,74)" stroke="rgb(74,74,74)" stroke-width="1" d="M 238.5 160 Q 241.8 158.9 241 161.5 L 242 163.5 L 241 163.5 L 239.5 161 L 238.5 160 Z" />
 <path fill="rgb(74,74,74)" stroke="rgb(74,74,74)" stroke-width="1" d="M 401.5 160 L 402 161.5 L 401 161.5 L 401.5 160 Z" />
 <path fill="rgb(74,74,74)" stroke="rgb(74,74,74)" stroke-width="1" d="M 406.5 160 L 407 161.5 L 406 161.5 L 406.5 160 Z" />
 <path fill="rgb(74,74,74)" stroke="rgb(74,74,74)" stroke-width="1" d="M 410.5 160 L 413 161.5 Q 414.3 165.3 410.5 164 L 409 161.5 L 410.5 160 Z M 410 161 Q 409 164 412 163 Q 413 160 410 161 Z" />
 <path fill="rgb(74,74,74)" stroke="rgb(74,74,74)" stroke-width="1" d="M 415.5 160 L 417 160.5 L 415.5 161 L 415.5 160 Z" />
 <path fill="rgb(74,74,74)" stroke="rgb(74,74,74)" stroke-width="1" d="M 205.5 161 L 206 162.5 L 205 162.5 L 205.5 161 Z" />
 <path fill="rgb(74,74,74)" stroke="rgb(74,74,74)" stroke-width="1" d="M 211.5 161 L 214 162.5 L 211 163 L 211.5 161 Z" />
 <path fill="rgb(74,74,74)" stroke="rgb(74,74,74)" stroke-width="1" d="M 342.5 161 L 343 162.5 L 342 163.5 L 343.5 166 L 341.5 164 L 262 163.5 L 342 163 L 342.5 161 Z" />
 <path fill="rgb(74,74,74)" stroke="rgb(74,74,74)" stroke-width="1" d="M 386.5 161 L 391 163.5 L 389.5 163 Q 384.4 164.3 386.5 161 Z" />
 <path fill="rgb(74,74,74)" stroke="rgb(74,74,74)" stroke-width="1" d="M 160.5 162 Q 164.9 160.5 164 163.5 L 162.5 163 Q 159.5 163.5 160.5 162 Z" />
 <path fill="rgb(74,74,74)" stroke="rgb(74,74,74)" stroke-width="1" d="M 189.5 162 L 192.5 163 L 194 162.5 L 194 164 L 189 164 L 189.5 162 Z" />
 <path fill="rgb(74,74,74)" stroke="rgb(74,74,74)" stroke-width="1" d="M 232.5 162 L 233 165 L 236 165.5 L 233.5 166 Q 231 165 232.5 162 Z" />
 <path fill="rgb(74,74,74)" stroke="rgb(74,74,74)" stroke-width="1" d="M 237.5 162 L 238 165 L 241 165.5 L 238.5 166 Q 236 165 237.5 162 Z" />
 <path fill="rgb(74,74,74)" stroke="rgb(74,74,74)" stroke-width="1" d="M 346.5 162 L 349 162.5 Q 349.8 164.8 347.5 164 L 346.5 162 Z" />
 <path fill="rgb(74,74,74)" stroke="rgb(74,74,74)" stroke-width="1" d="M 415.5 162 L 416 165.5 L 415 165.5 L 415.5 162 Z" />
 <path fill="rgb(74,74,74)" stroke="rgb(74,74,74)" stroke-width="1" d="M 69.5 163 L 156 163.5 L 69.5 164 L 69.5 163 Z" />
 <path fill="rgb(74,74,74)" stroke="rgb(74,74,74)" stroke-width="1" d="M 178.5 164 L 180.5 165 L 182 164.5 L 178.5 167 L 178.5 164 Z" />
 <path fill="rgb(74,74,74)" stroke="rgb(74,74,74)" stroke-width="1" d="M 187.5 164 L 186.5 166 L 185 165.5 L 187.5 164 Z" />
 <path fill="rgb(74,74,74)" stroke="rgb(74,74,74)" stroke-width="1" d="M 203.5 164 L 205 164.5 L 203.5 165 L 203.5 164 Z" />
 <path fill="rgb(74,74,74)" stroke="rgb(74,74,74)" stroke-width="1" d="M 253.5 164 L 254 165.5 L 253 165.5 L 253.5 164 Z" />
 <path fill="rgb(74,74,74)" stroke="rgb(74,74,74)" stroke-width="1" d="M 256.5 164 L 257 165.5 L 256 165.5 L 256.5 164 Z" />
 <path fill="rgb(74,74,74)" stroke="rgb(74,74,74)" stroke-width="1" d="M 396.5 164 L 397 166 L 395 165.5 L 396.5 164 Z" />
 <path fill="rgb(74,74,74)" stroke="rgb(74,74,74)" stroke-width="1" d="M 398.5 164 L 399.5 166 Q 396.7 166.7 398.5 164 Z" />
 <path fill="rgb(74,74,74)" stroke="rgb(74,74,74)" stroke-width="1" d="M 167.5 165 L 169 165.5 L 167.5 166 L 167.5 165 Z" />
 <path fill="rgb(74,74,74)" stroke="rgb(74,74,74)" stroke-width="1" d="M 173.5 165 L 175 165.5 L 173.5 166 L 173.5 165 Z" />
 <path fill="rgb(74,74,74)" stroke="rgb(74,74,74)" stroke-width="1" d="M 246.5 165 L 248 165.5 L 246.5 166 L 246.5 165 Z" />
 <path fill="rgb(74,74,74)" stroke="rgb(74,74,74)" stroke-width="1" d="M 403.5 165 L 405 165.5 L 403.5 166 L 403.5 165 Z" />
 <path fill="rgb(74,74,74)" stroke="rgb(74,74,74)" stroke-width="1" d="M 410.5 165 L 412 165.5 L 410.5 166 L 410.5 165 Z" />
 <path fill="rgb(74,74,74)" stroke="rgb(74,74,74)" stroke-width="1" d="M 352.5 188 L 354 188.5 L 352.5 189 L 352.5 188 Z" />
 <path fill="rgb(74,74,74)" stroke="rgb(74,74,74)" stroke-width="1" d="M 157.5 189 L 261 189.5 L 157.5 190 L 157.5 189 Z" />
 <path fill="rgb(74,74,74)" stroke="rgb(74,74,74)" stroke-width="1" d="M 355.5 189 L 448 189.5 L 355.5 190 L 355.5 189 Z" />
 <path fill="rgb(74,74,74)" stroke="rgb(74,74,74)" stroke-width="1" d="M 208.5 191 L 210 191.5 L 208.5 192 L 208.5 191 Z" />
 <path fill="rgb(74,74,74)" stroke="rgb(74,74,74)" stroke-width="1" d="M 211.5 195 L 212 196.5 L 211 196.5 L 211.5 195 Z" />
 <path fill="rgb(74,74,74)" stroke="rgb(74,74,74)" stroke-width="1" d="M 283.5 224 L 286 224.5 L 283 225 L 282.5 227 L 282 225.5 L 283.5 224 Z" />
 <path fill="rgb(74,74,74)" stroke="rgb(74,74,74)" stroke-width="1" d="M 290.5 224 L 294 224.5 L 290.5 225 L 290.5 224 Z" />
 <path fill="rgb(74,74,74)" stroke="rgb(74,74,74)" stroke-width="1" d="M 301.5 224 L 304 224.5 L 301.5 225 L 301.5 224 Z" />
 <path fill="rgb(74,74,74)" stroke="rgb(74,74,74)" stroke-width="1" d="M 308.5 224 L 311 224.5 L 308.5 225 L 308.5 224 Z" />
 <path fill="rgb(74,74,74)" stroke="rgb(74,74,74)" stroke-width="1" d="M 290.5 227 L 291 228.5 L 290 228.5 L 290.5 227 Z" />
 <path fill="rgb(74,74,74)" stroke="rgb(74,74,74)" stroke-width="1" d="M 287.5 230 L 286.5 232 L 284 231.5 L 287.5 230 Z" />
 <path fill="rgb(74,74,74)" stroke="rgb(74,74,74)" stroke-width="1" d="M 300.5 230 L 303.5 231 L 305 230.5 L 301.5 232 L 300.5 230 Z" />
 <path fill="rgb(74,74,74)" stroke="rgb(74,74,74)" stroke-width="1" d="M 220.5 231 L 222 231.5 L 219.5 233 L 220.5 231 Z" />
 <path fill="rgb(74,74,74)" stroke="rgb(74,74,74)" stroke-width="1" d="M 307.5 231 L 311 231.5 L 307.5 232 L 307.5 231 Z" />
 <path fill="rgb(74,74,74)" stroke="rgb(74,74,74)" stroke-width="1" d="M 226.5 233 L 229 233.5 L 226.5 234 L 226.5 233 Z" />
 <path fill="rgb(74,74,74)" stroke="rgb(74,74,74)" stroke-width="1" d="M 231 233 L 233 233.5 L 231.5 236 L 231 233 Z" />
 <path fill="rgb(74,74,74)" stroke="rgb(74,74,74)" stroke-width="1" d="M 238.5 233 Q 241.8 231.9 241 234.5 L 239 235.5 L 239.5 234 L 238.5 233 Z" />
 <path fill="rgb(74,74,74)" stroke="rgb(74,74,74)" stroke-width="1" d="M 219.5 234 L 221 234.5 L 219.5 235 L 219.5 234 Z" />
 <path fill="rgb(74,74,74)" stroke="rgb(74,74,74)" stroke-width="1" d="M 225 235 L 227 235.5 L 225 236.5 L 225 235 Z" />
 <path fill="rgb(74,74,74)" stroke="rgb(74,74,74)" stroke-width="1" d="M 228.5 235 L 230 235.5 L 228.5 236 L 228.5 235 Z" />
 <path fill="rgb(74,74,74)" stroke="rgb(74,74,74)" stroke-width="1" d="M 237.5 236 L 239 238.5 L 237 239 L 237.5 236 Z" />
 <path fill="rgb(74,74,74)" stroke="rgb(74,74,74)" stroke-width="1" d="M 223.5 237 L 222.5 239 L 220 238.5 L 223.5 237 Z" />
 <path fill="rgb(74,74,74)" stroke="rgb(74,74,74)" stroke-width="1" d="M 389 237 L 394 237.5 L 390 238 Q 388.3 242.1 392.5 241 L 392.5 242 Q 389.2 240.9 390 243.5 L 389 243.5 L 389 237 Z" />
 <path fill="rgb(74,74,74)" stroke="rgb(74,74,74)" stroke-width="1" d="M 396 237 Q 400.7 236 402 239.5 L 401.5 243 L 399.5 238 L 397 238 L 397 243.5 L 396 243.5 L 396 237 Z" />
 <path fill="rgb(74,74,74)" stroke="rgb(74,74,74)" stroke-width="1" d="M 226.5 238 L 229 238.5 L 226.5 239 L 226.5 238 Z" />
 <path fill="rgb(74,74,74)" stroke="rgb(74,74,74)" stroke-width="1" d="M 333.5 238 L 334 239.5 L 333 239.5 L 333.5 238 Z" />
 <path fill="rgb(74,74,74)" stroke="rgb(74,74,74)" stroke-width="1" d="M 383.5 238 L 384 244.5 L 383 244.5 L 383.5 238 Z" />
 <path fill="rgb(74,74,74)" stroke="rgb(74,74,74)" stroke-width="1" d="M 340.5 240 L 340.5 243 L 338.5 242 L 337 242.5 L 340.5 240 Z" />
 <path fill="rgb(74,74,74)" stroke="rgb(74,74,74)" stroke-width="1" d="M 333.5 243 L 334 244.5 L 333 244.5 L 333.5 243 Z" />
 <path fill="rgb(74,74,74)" stroke="rgb(74,74,74)" stroke-width="1" d="M 385.5 244 L 387 244.5 L 385.5 245 L 385.5 244 Z" />
 <path fill="rgb(74,74,74)" stroke="rgb(74,74,74)" stroke-width="1" d="M 391.5 244 L 394 244.5 L 391.5 245 L 391.5 244 Z" />
 <path fill="rgb(74,74,74)" stroke="rgb(74,74,74)" stroke-width="1" d="M 398.5 244 L 400 244.5 L 398.5 245 L 398.5 244 Z" />
 <path fill="rgb(74,74,74)" stroke="rgb(74,74,74)" stroke-width="1" d="M 208.5 267 L 209.5 268 L 256 268.5 L 162.5 269 L 162.5 268 L 207.5 268 L 208.5 267 Z" />
 <path fill="rgb(74,74,74)" stroke="rgb(74,74,74)" stroke-width="1" d="M 346.5 268 L 439 268.5 L 346.5 269 L 346.5 268 Z" />
 <path fill="rgb(74,74,74)" stroke="rgb(74,74,74)" stroke-width="1" d="M 202 290 L 207 290.5 L 203 291 L 202.5 297 L 202 290 Z" />
 <path fill="rgb(74,74,74)" stroke="rgb(74,74,74)" stroke-width="1" d="M 211.5 290 L 214 290.5 L 211.5 291 L 211.5 290 Z" />
 <path fill="rgb(74,74,74)" stroke="rgb(74,74,74)" stroke-width="1" d="M 207.5 292 L 206.5 294 L 204 293.5 L 207.5 292 Z" />
 <path fill="rgb(74,74,74)" stroke="rgb(74,74,74)" stroke-width="1" d="M 209.5 292 L 210 294.5 L 209 294.5 L 209.5 292 Z" />
</svg>