<?xml version="1.0" standalone="no"?>
<!DOCTYPE svg PUBLIC "-//W3C//DTD SVG 20010904//EN"
 "http://www.w3.org/TR/2001/REC-SVG-20010904/DTD/svg10.dtd">
<svg version="1.0" xmlns="http://www.w3.org/2000/svg"
 width="1024.000000pt" height="1024.000000pt" viewBox="0 0 1024.000000 1024.000000"
 preserveAspectRatio="xMidYMid meet">

<g transform="translate(0.000000,1024.000000) scale(0.100000,-0.100000)"
fill="#000000" stroke="none">
<path d="M1097 9860 c-148 -37 -248 -160 -255 -312 -6 -116 16 -177 92 -254
59 -59 94 -78 189 -98 27 -6 27 -7 27 -86 l0 -80 -244 0 c-134 0 -251 -3 -260
-6 -9 -3 -16 -15 -16 -25 0 -18 12 -19 260 -19 l260 0 0 -268 0 -267 -41 -50
c-23 -28 -131 -161 -240 -297 -192 -239 -220 -285 -170 -276 9 2 118 129 241
282 124 154 230 281 235 282 6 1 33 -25 61 -59 28 -34 133 -162 233 -285 101
-123 188 -221 194 -219 7 2 13 12 15 23 3 20 -24 54 -315 406 l-163 196 0 266
0 266 268 2 c259 3 267 4 267 23 0 19 -8 20 -267 23 l-268 2 0 79 0 79 46 11
c109 28 194 95 238 190 30 66 30 216 -1 283 -65 140 -238 225 -386 188z m176
-60 c116 -44 179 -132 185 -260 4 -69 1 -80 -30 -140 -74 -142 -226 -195 -377
-129 -100 43 -160 138 -161 255 0 59 5 81 31 132 65 132 217 193 352 142z"/>
<path d="M3911 9612 c-19 -9 -44 -30 -55 -45 -21 -28 -21 -40 -24 -555 -3
-588 -4 -572 67 -619 l34 -23 913 0 914 0 0 -325 0 -325 -950 0 -950 0 0 -176
0 -176 -36 6 c-19 4 -42 10 -50 13 -8 3 10 -41 41 -103 30 -60 55 -112 55
-116 0 -5 -303 -8 -674 -8 l-673 0 -33 -22 c-18 -13 -43 -36 -54 -51 -21 -28
-21 -36 -21 -557 0 -521 0 -529 21 -557 11 -15 36 -38 54 -50 l33 -23 668 0
668 0 403 -426 c222 -235 404 -430 406 -435 2 -4 -20 -11 -48 -15 l-52 -7 71
-33 c39 -18 87 -38 107 -46 32 -11 -48 -14 -554 -18 -580 -5 -591 -5 -619 -26
-15 -11 -38 -36 -51 -54 l-22 -34 2 -625 3 -626 23 -33 c52 -72 -30 -67 1130
-70 l1042 -2 0 -915 0 -914 -45 13 -44 14 54 -109 c30 -60 55 -111 55 -114 0
-3 -442 -5 -982 -5 -1097 0 -1026 4 -1075 -69 l-23 -34 0 -424 c0 -467 -1
-460 62 -505 l33 -23 1987 0 1987 0 27 21 c63 47 69 63 72 215 l4 140 -26 -16
c-25 -17 -26 -20 -26 -131 0 -111 -1 -114 -29 -146 l-29 -33 -1964 -3 c-1462
-2 -1970 1 -1991 9 -58 24 -57 17 -57 467 0 264 4 420 10 433 28 52 -87 49
2029 49 l1961 0 32 -29 33 -29 3 -134 c3 -109 6 -135 19 -146 9 -6 20 -12 25
-12 4 0 8 61 8 135 0 151 -8 182 -59 230 l-32 30 -990 3 c-544 1 -989 4 -989
6 0 2 23 52 50 111 28 59 50 109 50 111 0 2 -12 -1 -26 -6 -14 -6 -34 -10 -45
-10 -18 0 -19 10 -19 280 l0 280 460 0 c253 0 460 -2 460 -5 0 -3 -7 -22 -15
-42 -8 -20 -14 -37 -13 -39 5 -4 228 100 228 107 0 3 -51 30 -112 59 -62 30
-117 56 -121 58 -5 2 -4 -5 2 -16 6 -11 15 -32 21 -46 l10 -26 -460 0 -460 0
0 605 0 605 1028 0 1028 0 44 22 c25 13 55 38 67 57 l23 34 0 622 0 622 -22
33 c-13 18 -36 43 -51 54 -28 20 -40 21 -445 24 l-417 3 95 40 c52 22 104 44
115 49 15 6 5 9 -37 9 -32 1 -58 3 -58 6 0 3 10 16 23 29 12 13 197 209 411
435 l389 411 727 0 726 0 44 23 c83 42 80 20 80 612 0 592 3 570 -81 613 l-44
22 -1505 -2 c-1493 -3 -1505 -3 -1540 -23 -19 -12 -43 -36 -55 -55 -19 -34
-20 -53 -23 -545 l-3 -510 23 -44 c13 -25 36 -54 51 -65 28 -21 41 -21 779
-26 l750 -5 -129 -135 c-70 -75 -245 -259 -388 -411 -143 -151 -264 -277 -270
-279 -5 -3 -17 17 -25 43 -14 44 -30 54 -30 19 0 -8 -14 -59 -31 -113 l-32
-99 -1072 0 -1072 0 -31 104 c-18 57 -32 112 -32 122 0 26 -13 8 -30 -41 l-15
-43 -135 145 c-74 80 -251 267 -392 416 l-257 272 657 5 c635 5 658 6 690 25
18 11 42 34 53 51 18 30 19 55 19 555 0 505 -1 525 -20 557 -11 18 -34 41 -52
52 -32 19 -52 20 -710 20 -373 0 -678 3 -678 8 1 4 25 54 55 112 30 57 53 106
51 107 -2 2 -15 -1 -30 -7 -62 -23 -61 -24 -59 137 l2 148 950 3 951 2 0 350
0 350 915 0 c1009 0 950 -4 997 62 l23 33 3 518 c3 496 2 519 -17 562 -12 27
-33 52 -53 65 -33 20 -44 20 -1883 20 -1742 0 -1852 -1 -1884 -18z m3741 -43
c46 -25 48 -46 48 -574 0 -538 0 -538 -55 -563 -20 -9 -461 -12 -1866 -12
l-1841 0 -29 31 -30 32 3 524 3 525 28 24 28 24 1845 0 c1303 0 1851 -3 1866
-11z m1750 -2459 c69 -20 68 -8 68 -574 0 -370 -3 -512 -12 -531 -26 -58 63
-55 -1560 -55 -1461 0 -1494 0 -1525 20 -21 13 -35 31 -42 57 -14 50 -15 964
-1 1014 14 50 33 63 99 70 105 11 2933 10 2973 -1z m-4139 -21 c15 -11 31 -37
37 -57 8 -25 10 -196 8 -524 l-3 -488 -33 -32 -32 -33 -1355 -3 -1354 -2 -33
29 -33 29 0 522 0 522 33 29 32 29 1354 0 c1350 0 1353 0 1379 -21z m2598
-2257 l29 -32 0 -613 c0 -550 -2 -615 -16 -636 -38 -54 81 -51 -2155 -51
-1896 0 -2074 1 -2105 16 -66 31 -64 10 -64 676 0 541 2 606 16 627 38 53 -83
50 2172 48 l2094 -2 29 -33z"/>
<path d="M4370 9079 l0 -174 94 1 c108 1 138 13 155 67 14 40 2 80 -28 98 -19
12 -19 13 1 40 16 21 19 36 14 63 -10 53 -41 69 -147 74 l-89 4 0 -173z m174
115 c10 -4 16 -18 16 -40 0 -42 -21 -54 -94 -54 l-56 0 0 50 0 50 59 0 c33 0
66 -3 75 -6z m20 -147 c12 -9 17 -23 14 -47 -4 -44 -33 -60 -110 -60 l-58 0 0
60 0 60 68 0 c40 0 75 -5 86 -13z"/>
<path d="M5160 9076 c0 -169 1 -174 20 -169 16 4 20 14 20 52 0 42 12 71 31
71 3 0 22 -26 42 -59 26 -41 44 -60 62 -63 32 -7 31 -3 -6 52 -67 99 -66 97
-18 146 41 42 42 44 19 44 -16 0 -45 -18 -77 -49 l-53 -48 0 99 c0 91 -1 98
-20 98 -19 0 -20 -7 -20 -174z"/>
<path d="M6345 9240 c-3 -5 -26 -76 -51 -157 -24 -81 -47 -156 -50 -165 -3
-11 0 -18 8 -18 10 0 32 57 66 168 29 92 52 171 52 175 0 10 -18 9 -25 -3z"/>
<path d="M6875 9242 c-14 -14 -3 -42 15 -42 14 0 20 7 20 23 0 21 -21 33 -35
19z"/>
<path d="M5900 9185 c0 -29 -4 -35 -21 -35 -12 0 -19 -5 -16 -12 2 -7 12 -12
21 -12 14 2 16 -12 16 -100 0 -111 6 -126 52 -126 22 0 28 5 28 20 0 14 -6 20
-17 18 -16 -3 -18 7 -18 92 0 85 2 95 18 92 10 -2 17 3 17 13 0 8 -9 15 -20
15 -16 0 -20 7 -20 35 0 28 -4 35 -20 35 -16 0 -20 -7 -20 -35z"/>
<path d="M4704 9148 c-18 -8 -44 -46 -44 -63 0 -14 37 -2 48 16 10 16 21 19
54 17 25 -2 45 -10 52 -20 15 -25 0 -36 -64 -48 -65 -12 -91 -35 -92 -80 -2
-61 76 -92 131 -54 22 16 24 16 33 0 11 -20 58 -22 58 -1 0 8 -4 15 -9 15 -5
0 -11 43 -13 96 -3 86 -5 98 -27 115 -26 21 -91 25 -127 7z m112 -140 c-3 -13
-6 -29 -6 -36 0 -7 -16 -20 -35 -28 -43 -18 -75 -5 -75 30 0 29 25 41 114 55
4 0 6 -9 2 -21z"/>
<path d="M4976 9139 c-21 -17 -26 -18 -26 -5 0 9 -8 16 -20 16 -19 0 -20 -7
-20 -120 0 -113 1 -120 20 -120 18 0 20 7 20 76 0 100 17 134 71 134 42 0 49
-17 49 -117 0 -86 1 -93 20 -93 19 0 20 7 20 104 0 101 -1 105 -26 125 -15 12
-39 21 -54 21 -15 0 -39 -9 -54 -21z"/>
<path d="M5456 9139 c-21 -17 -26 -18 -26 -5 0 9 -8 16 -20 16 -19 0 -20 -7
-20 -120 0 -113 1 -120 20 -120 18 0 20 7 20 85 0 96 16 125 68 125 45 0 52
-15 52 -117 0 -86 1 -93 20 -93 19 0 20 7 20 100 0 94 -2 103 -25 125 -30 31
-73 32 -109 4z"/>
<path d="M5679 9145 c-37 -20 -62 -87 -54 -142 9 -63 53 -103 112 -103 37 0
50 5 73 30 55 59 48 173 -13 210 -37 23 -81 25 -118 5z m105 -44 c25 -28 24
-117 -2 -144 -25 -24 -66 -25 -92 -2 -26 24 -28 119 -3 147 21 24 75 23 97 -1z"/>
<path d="M6062 9145 c-48 -35 -68 -129 -40 -190 26 -58 115 -73 167 -29 17 14
31 30 31 35 0 15 -32 10 -52 -8 -40 -36 -118 -6 -118 46 0 14 11 16 81 13 45
-2 85 0 90 5 12 13 -10 99 -31 118 -27 25 -99 30 -128 10z m100 -42 c10 -9 18
-24 18 -35 0 -16 -8 -18 -65 -18 -36 0 -65 2 -65 5 0 4 7 19 15 35 12 24 22
30 47 30 17 0 40 -7 50 -17z"/>
<path d="M6427 9139 c-58 -45 -61 -167 -6 -214 51 -42 125 -29 153 29 14 28
14 31 -1 34 -9 2 -25 -7 -37 -21 -26 -30 -44 -37 -72 -26 -44 16 -56 126 -18
164 24 24 71 19 90 -10 9 -14 25 -25 35 -25 16 0 17 4 7 30 -5 17 -20 37 -31
45 -31 22 -90 19 -120 -6z"/>
<path d="M6662 9144 c-32 -22 -52 -67 -52 -114 0 -113 104 -171 182 -101 31
28 33 33 33 101 0 68 -2 73 -33 101 -37 33 -93 39 -130 13z m112 -46 c18 -25
21 -84 6 -123 -19 -50 -96 -50 -119 1 -21 46 -9 115 23 136 24 16 75 8 90 -14z"/>
<path d="M7036 9139 c-21 -17 -26 -18 -26 -5 0 9 -8 16 -20 16 -19 0 -20 -7
-20 -120 0 -113 1 -120 20 -120 18 0 20 7 20 76 0 100 17 134 71 134 42 0 49
-17 49 -116 0 -83 2 -92 20 -97 19 -5 20 0 20 102 0 99 -2 109 -23 129 -30 28
-76 28 -111 1z"/>
<path d="M6870 9030 c0 -113 1 -120 20 -120 19 0 20 7 20 120 0 113 -1 120
-20 120 -19 0 -20 -7 -20 -120z"/>
<path d="M6735 6786 c-83 -38 -119 -155 -79 -256 50 -124 231 -112 269 18 5
19 3 22 -19 22 -19 0 -26 -5 -26 -19 0 -26 -55 -71 -86 -71 -59 0 -93 36 -109
117 -15 78 42 163 109 163 39 0 86 -33 86 -61 0 -14 7 -19 25 -19 14 0 25 2
25 5 0 21 -33 76 -52 89 -35 23 -107 29 -143 12z"/>
<path d="M7230 6620 c0 -163 1 -170 20 -170 19 0 20 7 20 170 0 163 -1 170
-20 170 -19 0 -20 -7 -20 -170z"/>
<path d="M7372 6694 c-126 -53 -71 -273 62 -249 87 17 121 148 58 225 -23 29
-81 41 -120 24z m86 -44 c30 -29 32 -120 2 -150 -40 -40 -103 -16 -114 45 -18
93 53 159 112 105z"/>
<path d="M7624 6683 c-22 -24 -25 -25 -22 -8 2 12 -3 21 -14 23 -15 3 -17 -11
-20 -122 -3 -125 -3 -126 20 -126 21 0 22 3 22 88 0 73 3 92 18 105 10 10 26
17 35 17 11 0 17 8 17 25 0 33 -24 32 -56 -2z"/>
<path d="M7895 6699 c-36 -10 -55 -34 -55 -69 0 -35 23 -55 84 -71 59 -17 80
-43 52 -65 -31 -22 -72 -17 -94 11 -26 33 -56 34 -47 3 13 -44 41 -61 95 -62
45 -1 55 3 76 27 47 54 24 99 -62 121 -55 14 -75 36 -55 60 20 24 59 19 85 -9
26 -28 62 -35 52 -9 -3 9 -6 20 -6 25 0 27 -80 51 -125 38z"/>
<path d="M8415 6703 c-11 -3 -28 -12 -37 -21 -16 -14 -18 -14 -18 1 0 10 -8
17 -20 17 -19 0 -20 -7 -20 -125 0 -118 1 -125 20 -125 18 0 20 7 20 85 0 78
2 88 25 110 29 30 56 32 78 7 13 -15 17 -39 17 -110 0 -85 1 -92 20 -92 19 0
20 7 20 99 0 90 -2 102 -22 125 -25 27 -52 36 -83 29z"/>
<path d="M8625 6703 c-33 -8 -65 -44 -65 -73 0 -35 23 -55 84 -71 59 -17 80
-43 52 -65 -31 -22 -72 -17 -94 11 -26 33 -56 34 -47 3 14 -45 42 -63 95 -62
60 1 100 31 100 75 0 36 -21 56 -73 69 -74 19 -77 21 -77 39 0 46 69 57 96 16
18 -27 54 -34 54 -11 0 42 -73 82 -125 69z"/>
<path d="M8880 6701 c-60 -14 -90 -56 -90 -126 0 -65 26 -109 74 -125 49 -16
101 2 127 44 26 42 25 121 -1 164 -11 17 -21 32 -22 32 -2 0 -17 4 -33 8 -17
5 -41 6 -55 3z m67 -57 c22 -22 25 -32 21 -75 -6 -58 -30 -89 -69 -89 -65 0
-96 114 -44 165 31 32 59 32 92 -1z"/>
<path d="M9133 6700 c-12 -5 -26 -17 -32 -27 -10 -16 -10 -16 -11 5 0 15 -6
22 -20 22 -19 0 -20 -7 -20 -125 0 -118 1 -125 20 -125 18 0 20 7 20 78 0 91
14 126 53 130 21 3 27 9 27 28 0 26 -4 27 -37 14z"/>
<path d="M6995 6670 c-36 -38 -46 -119 -20 -169 32 -64 127 -77 175 -26 31 33
40 127 16 173 -21 40 -44 52 -98 52 -36 0 -50 -6 -73 -30z m120 -25 c37 -36
32 -130 -9 -157 -21 -15 -63 -8 -82 13 -14 15 -19 36 -19 76 0 45 4 58 24 74
31 26 57 24 86 -6z"/>
<path d="M8103 6678 c-48 -53 -58 -129 -24 -184 21 -35 78 -60 115 -50 31 8
76 44 76 62 0 20 -17 18 -47 -6 -34 -27 -69 -25 -98 5 -46 46 -35 55 65 55 97
0 96 -1 84 59 -11 53 -46 81 -102 81 -38 0 -53 -5 -69 -22z m112 -33 c39 -38
32 -45 -44 -45 -65 0 -69 1 -64 20 6 24 40 50 66 50 10 0 29 -11 42 -25z"/>
<path d="M3193 6779 c-54 -27 -83 -83 -83 -163 0 -125 80 -196 189 -166 42 11
83 54 94 98 9 37 -35 29 -53 -11 -21 -45 -58 -63 -106 -52 -46 12 -72 46 -80
107 -14 104 50 183 133 162 29 -7 42 -17 53 -41 10 -23 22 -33 38 -33 22 0 22
1 7 36 -8 20 -15 38 -15 41 0 9 -86 43 -110 43 -14 0 -44 -9 -67 -21z"/>
<path d="M3785 6702 c-11 -2 -28 -11 -37 -20 -16 -14 -18 -14 -18 1 0 10 -8
17 -20 17 -19 0 -20 -7 -20 -125 0 -118 1 -125 20 -125 18 0 20 7 20 84 0 69
4 88 21 110 11 14 28 26 38 26 34 0 41 -21 41 -122 0 -91 1 -98 20 -98 18 0
20 7 20 84 0 69 4 88 21 110 11 14 28 26 38 26 34 0 41 -21 41 -122 0 -91 1
-98 20 -98 19 0 20 7 20 108 0 93 -3 111 -18 125 -26 24 -88 22 -109 -3 -16
-18 -17 -19 -30 -1 -14 21 -38 29 -68 23z"/>
<path d="M4385 6685 c-23 -22 -25 -23 -25 -5 0 13 -7 20 -20 20 -19 0 -20 -7
-20 -125 0 -118 1 -125 20 -125 18 0 20 7 20 83 0 93 15 127 56 127 19 0 24 5
24 25 0 32 -23 33 -55 0z"/>
<path d="M3482 6693 c-7 -3 -19 -18 -28 -34 -13 -27 -13 -30 2 -36 11 -4 23 2
36 20 23 31 67 36 93 11 29 -30 14 -46 -53 -60 -79 -16 -92 -27 -92 -75 0 -67
53 -94 119 -62 37 19 39 19 50 1 6 -10 18 -18 26 -18 19 0 33 32 17 38 -8 2
-12 31 -12 83 0 77 -10 115 -34 131 -12 9 -104 9 -124 1z m118 -143 c0 -35
-45 -72 -83 -68 -25 2 -33 8 -35 27 -5 29 7 41 50 51 56 13 68 12 68 -10z"/>
<path d="M4095 6670 c-36 -38 -46 -119 -21 -168 22 -42 68 -66 113 -57 52 9
111 75 68 75 -8 0 -24 -9 -35 -20 -29 -29 -74 -26 -99 6 -38 48 -30 54 69 54
98 0 97 -1 79 63 -15 55 -44 77 -99 77 -38 0 -51 -5 -75 -30z m112 -15 c11 -8
23 -24 26 -35 5 -19 1 -20 -63 -20 -64 0 -68 1 -63 20 6 23 40 50 63 50 9 0
25 -7 37 -15z"/>
<path d="M4495 6675 c-14 -13 -25 -29 -25 -35 0 -16 33 -26 38 -12 15 47 82
57 108 17 9 -14 14 -29 10 -33 -4 -3 -35 -12 -68 -19 -34 -7 -68 -19 -76 -27
-18 -18 -20 -80 -3 -100 22 -27 76 -31 114 -8 33 19 34 19 45 1 7 -11 19 -19
27 -19 19 0 32 29 18 39 -6 3 -12 45 -14 92 -5 111 -18 129 -96 129 -44 0 -58
-5 -78 -25z m131 -132 c-14 -56 -93 -86 -115 -44 -14 25 6 51 49 61 65 15 73
13 66 -17z"/>
<path d="M4370 4491 l0 -171 26 0 c25 0 25 0 20 70 l-5 70 68 0 c82 0 93 -10
101 -84 5 -47 7 -51 33 -54 26 -3 27 -2 18 17 -6 11 -11 37 -11 59 0 25 -8 49
-21 66 -17 22 -18 27 -5 32 19 7 35 54 29 87 -3 14 -16 36 -30 49 -22 20 -36
23 -124 26 l-99 4 0 -171z m192 112 c22 -20 23 -61 1 -85 -12 -14 -31 -18 -82
-18 l-66 0 2 57 c1 32 2 59 2 61 1 1 29 2 63 2 43 0 67 -5 80 -17z"/>
<path d="M5400 4490 c0 -163 1 -170 20 -170 12 0 20 7 20 17 0 15 2 15 19 -1
52 -47 133 -9 151 70 28 118 -60 214 -142 154 l-30 -22 4 61 c3 58 2 61 -19
61 -23 0 -23 0 -23 -170z m150 30 c15 -15 20 -33 20 -75 0 -42 -5 -60 -20 -75
-36 -36 -82 -20 -100 35 -29 89 43 172 100 115z"/>
<path d="M6590 4490 c0 -163 1 -170 20 -170 18 0 20 7 20 70 l0 70 74 0 c55 0
79 4 95 18 30 23 42 81 26 119 -22 51 -49 63 -147 63 l-88 0 0 -170z m182 113
c22 -20 23 -61 1 -85 -12 -14 -31 -18 -80 -18 l-63 0 0 60 0 60 62 0 c43 0 67
-5 80 -17z"/>
<path d="M6880 4635 c0 -18 5 -25 20 -25 15 0 20 7 20 25 0 18 -5 25 -20 25
-15 0 -20 -7 -20 -25z"/>
<path d="M4720 4567 c-13 -7 -30 -24 -37 -37 -11 -21 -10 -26 3 -28 9 -2 25 6
35 17 24 25 71 28 94 5 29 -29 14 -48 -45 -57 -77 -11 -100 -28 -100 -77 0
-22 7 -45 16 -54 23 -23 84 -24 118 -2 16 10 23 9 38 -6 9 -9 24 -15 33 -12
17 7 21 34 5 34 -6 0 -10 33 -10 80 0 43 -5 90 -11 103 -20 44 -88 60 -139 34z
m106 -154 c-12 -48 -56 -74 -100 -57 -19 7 -21 47 -3 62 12 10 45 18 86 21 20
1 22 -2 17 -26z"/>
<path d="M4960 4568 c-13 -7 -31 -25 -39 -40 -25 -44 -4 -72 73 -98 36 -12 68
-26 71 -30 9 -14 -32 -50 -56 -50 -29 0 -59 18 -59 35 0 8 -9 15 -20 15 -22 0
-26 -20 -10 -50 13 -25 70 -40 113 -30 47 10 53 15 65 49 15 43 -4 73 -58 89
-72 21 -90 31 -90 47 0 39 93 44 105 5 8 -25 45 -27 45 -2 0 48 -90 86 -140
60z"/>
<path d="M5223 4568 c-13 -6 -23 -15 -23 -20 0 -4 -5 -8 -11 -8 -6 0 -9 7 -5
15 4 10 -1 15 -14 15 -19 0 -20 -8 -20 -170 0 -163 1 -170 20 -170 18 0 20 7
20 62 0 57 1 60 18 46 27 -23 49 -28 81 -17 55 19 83 98 62 176 -19 68 -72 98
-128 71z m72 -48 c22 -25 30 -98 13 -130 -37 -69 -118 -37 -118 47 0 44 13 82
34 95 20 14 53 8 71 -12z"/>
<path d="M5704 4562 c-41 -26 -58 -69 -52 -137 5 -62 25 -90 73 -104 43 -12
79 -4 110 25 46 42 18 63 -32 24 -14 -11 -33 -20 -43 -20 -26 0 -70 39 -70 61
0 17 8 19 90 19 l91 0 -7 38 c-4 20 -10 44 -14 52 -27 53 -97 73 -146 42z m96
-42 c38 -38 27 -50 -45 -50 -36 0 -65 4 -65 9 0 4 9 20 21 35 25 31 61 34 89
6z"/>
<path d="M5980 4560 c-24 -24 -30 -25 -30 -5 0 8 -7 15 -15 15 -13 0 -15 -21
-15 -125 0 -118 1 -125 20 -125 18 0 20 7 20 86 0 101 9 124 50 124 25 0 30 4
30 25 0 31 -31 34 -60 5z"/>
<path d="M6125 4555 c-23 -22 -25 -23 -25 -5 0 13 -7 20 -20 20 -19 0 -20 -7
-20 -125 0 -118 1 -125 20 -125 18 0 20 7 20 83 0 93 15 127 56 127 19 0 24 5
24 25 0 32 -23 33 -55 0z"/>
<path d="M6244 4446 c40 -114 43 -125 30 -155 -11 -26 -18 -31 -34 -26 -16 5
-20 2 -20 -14 0 -16 6 -21 28 -21 16 0 36 8 44 18 9 9 38 78 66 152 28 74 53
143 57 153 6 13 2 17 -17 17 -21 0 -27 -10 -53 -90 -17 -49 -33 -90 -36 -90
-3 0 -18 41 -34 90 -25 79 -32 90 -52 90 -23 0 -22 -1 21 -124z"/>
<path d="M6880 4445 c0 -118 1 -125 20 -125 19 0 20 7 20 125 0 118 -1 125
-20 125 -19 0 -20 -7 -20 -125z"/>
<path d="M4850 3931 l0 -171 25 0 c24 0 25 2 25 70 l0 70 71 0 c65 0 73 2 100
29 38 39 40 97 5 138 -23 27 -29 28 -125 31 l-101 4 0 -171z m190 109 c11 -11
20 -29 20 -40 0 -39 -35 -60 -100 -60 l-60 0 0 60 0 60 60 0 c47 0 64 -4 80
-20z"/>
<path d="M5140 4075 c0 -18 5 -25 20 -25 15 0 20 7 20 25 0 18 -5 25 -20 25
-15 0 -20 -7 -20 -25z"/>
<path d="M5904 4086 c-28 -13 -43 -35 -59 -93 -6 -21 -3 -23 28 -23 32 0 35 3
41 34 10 53 63 59 85 10 15 -33 2 -55 -54 -94 -64 -44 -92 -77 -103 -121 l-10
-39 124 0 124 0 0 25 c0 25 -1 25 -85 25 -80 0 -84 1 -74 18 6 10 37 35 69 55
68 44 88 80 74 134 -16 64 -96 98 -160 69z"/>
<path d="M6110 4089 c0 -5 14 -65 31 -132 52 -210 47 -197 74 -197 26 0 28 5
76 193 27 100 23 104 70 -73 32 -118 33 -120 61 -120 20 0 28 5 28 18 0 9 18
82 40 162 22 80 40 148 40 153 0 4 -10 7 -23 7 -21 0 -25 -10 -51 -117 -15
-65 -30 -127 -33 -138 -5 -18 -25 39 -74 218 -8 29 -15 37 -33 37 -22 0 -26
-10 -56 -117 -18 -65 -36 -124 -40 -132 -4 -8 -18 34 -34 105 -15 65 -29 125
-31 132 -5 15 -45 16 -45 1z"/>
<path d="M5544 4012 c-12 -1 -34 -16 -49 -32 -36 -38 -46 -120 -21 -169 38
-72 138 -79 183 -12 46 69 20 192 -44 207 -15 3 -32 7 -38 8 -5 1 -20 0 -31
-2z m71 -57 c37 -36 32 -130 -9 -157 -21 -14 -63 -8 -81 12 -10 11 -20 41 -23
69 -4 43 -1 53 21 75 33 33 61 33 92 1z"/>
<path d="M5266 3979 c-32 -38 -40 -67 -33 -127 4 -36 12 -53 37 -75 28 -25 39
-28 72 -24 44 6 63 19 83 58 13 25 13 27 -5 32 -14 4 -23 -2 -32 -21 -23 -47
-87 -42 -108 8 -17 42 -7 110 20 132 32 26 56 22 81 -11 23 -32 56 -35 51 -5
-6 35 -49 64 -97 64 -36 0 -47 -5 -69 -31z"/>
<path d="M5140 3880 c0 -113 1 -120 20 -120 19 0 20 7 20 120 0 113 -1 120
-20 120 -19 0 -20 -7 -20 -120z"/>
<path d="M3590 9110 c1 -3 7 -16 15 -30 8 -14 14 -31 15 -37 0 -10 -177 -13
-854 -13 -735 0 -855 -2 -866 -15 -6 -8 -9 -19 -5 -25 4 -7 281 -10 870 -10
l864 0 -19 -46 c-11 -25 -20 -47 -20 -48 0 -2 33 13 73 32 39 19 91 43 115 53
23 10 42 22 42 26 0 4 -52 33 -115 63 -63 30 -115 53 -115 50z"/>
<path d="M735 7406 c-60 -163 -61 -164 -38 -169 19 -4 25 3 42 47 l19 51 63 0
64 0 14 -47 c12 -39 19 -48 38 -48 13 0 23 2 23 5 0 5 -94 279 -105 308 -4 10
-18 17 -34 17 -25 0 -29 -9 -86 -164z m116 27 l18 -53 -49 0 -48 0 19 53 c34
90 31 84 37 67 3 -8 13 -39 23 -67z"/>
<path d="M1258 7552 c-12 -2 -18 -13 -18 -33 0 -19 -5 -29 -15 -29 -8 0 -15
-9 -15 -20 0 -13 5 -18 15 -14 13 5 15 -10 15 -98 0 -113 6 -128 52 -128 22 0
28 5 28 20 0 14 -6 20 -17 18 -16 -3 -18 8 -21 96 -3 95 -2 98 18 93 15 -4 20
0 20 14 0 12 -7 19 -19 19 -15 0 -21 8 -23 33 -2 25 -7 32 -20 29z"/>
<path d="M1693 7489 c-12 -4 -26 -16 -32 -26 -10 -16 -10 -16 -11 5 0 15 -6
22 -20 22 -19 0 -20 -7 -20 -125 0 -118 1 -125 20 -125 18 0 20 7 20 83 0 93
15 127 56 127 17 0 24 5 24 19 0 25 -10 31 -37 20z"/>
<path d="M1037 7479 c-64 -37 -62 -204 2 -239 39 -20 91 -12 122 19 16 16 29
37 29 45 0 25 -36 18 -48 -9 -16 -34 -74 -36 -96 -3 -25 35 -21 111 8 145 21
24 27 26 52 18 16 -6 33 -20 39 -33 10 -22 45 -31 45 -11 0 16 -21 53 -39 66
-19 15 -89 16 -114 2z"/>
<path d="M1400 7477 c-36 -28 -50 -62 -50 -120 0 -54 3 -62 34 -93 27 -27 42
-34 74 -34 74 0 120 65 109 157 -7 65 -46 103 -106 103 -25 0 -53 -6 -61 -13z
m97 -32 c38 -27 42 -124 6 -160 -8 -8 -30 -15 -48 -15 -44 0 -65 29 -65 93 0
77 55 119 107 82z"/>
<path d="M6991 2820 c-18 -4 -50 -24 -70 -44 l-36 -36 -3 -498 -3 -498 23 -34
c13 -19 39 -43 58 -54 35 -21 44 -21 1195 -22 638 -1 1194 2 1236 6 86 9 116
25 148 81 20 36 21 50 21 506 0 466 0 469 -22 513 -13 24 -36 53 -51 64 -28
21 -34 21 -1245 23 -669 0 -1232 -3 -1251 -7z m2486 -73 l28 -27 3 -475 c3
-529 4 -523 -63 -551 -51 -21 -2399 -21 -2449 0 -68 29 -66 9 -66 533 0 351 3
479 12 499 26 56 -27 54 1290 51 l1218 -2 27 -28z"/>
<path d="M7710 2442 c-46 -23 -80 -89 -80 -157 0 -111 67 -179 171 -173 99 7
149 65 149 175 0 108 -57 173 -154 173 -29 0 -66 -8 -86 -18z m141 -38 c54
-27 76 -121 44 -188 -22 -45 -67 -70 -117 -63 -106 14 -143 154 -63 234 38 38
85 44 136 17z"/>
<path d="M8010 2295 c0 -91 0 -167 0 -171 0 -3 47 -6 105 -7 103 -2 105 -2
105 21 0 21 -4 22 -85 22 l-85 0 0 150 c0 143 -1 150 -20 150 -19 0 -20 -7
-20 -165z"/>
<path d="M8260 2288 l0 -173 120 3 c110 3 120 5 120 22 0 18 -8 19 -100 17
l-100 -2 0 58 0 57 95 0 c88 0 95 1 95 20 0 19 -7 20 -95 20 l-95 0 0 56 0 55
98 -2 c92 -2 97 -1 100 20 3 20 0 21 -117 21 l-121 0 0 -172z"/>
<path d="M8560 2285 l0 -175 93 6 c107 7 131 19 158 77 26 58 24 132 -3 187
-31 61 -71 80 -170 80 l-78 0 0 -175z m196 100 c39 -53 35 -159 -7 -201 -18
-18 -40 -25 -87 -30 l-62 -7 0 134 0 134 71 -5 c55 -4 74 -10 85 -25z"/>
<path d="M860 2802 c-19 -9 -45 -32 -57 -51 l-23 -34 0 -484 c0 -537 -2 -517
67 -570 l36 -28 1536 -3 c1055 -2 1547 0 1572 8 21 6 52 27 73 50 l36 40 0
494 0 493 -23 34 c-12 19 -38 42 -57 51 -33 17 -129 18 -1580 18 -1451 0
-1547 -1 -1580 -18z m3161 -61 l29 -29 0 -481 0 -481 -29 -32 -29 -33 -1534
-3 c-1137 -2 -1540 1 -1561 9 -15 7 -37 23 -47 37 -19 24 -20 43 -20 501 0
515 -1 509 54 531 11 5 715 9 1564 9 l1544 1 29 -29z"/>
<path d="M1450 2290 l0 -170 96 0 c92 0 97 1 125 29 40 40 41 100 3 130 -25
20 -26 22 -10 39 18 21 21 73 6 102 -14 26 -63 40 -146 40 l-74 0 0 -170z
m178 108 c19 -16 14 -55 -10 -72 -14 -10 -44 -16 -75 -16 l-53 0 0 53 0 52 62
-3 c35 -2 69 -9 76 -14z m13 -138 c26 -14 25 -62 -2 -86 -14 -12 -40 -19 -85
-22 l-64 -4 0 61 0 61 66 0 c36 0 74 -5 85 -10z"/>
<path d="M2550 2399 c0 -60 0 -60 -22 -45 -57 40 -132 4 -149 -71 -27 -121 64
-216 145 -152 21 17 26 18 26 5 0 -9 9 -16 20 -16 20 0 20 5 18 167 -3 149 -5
166 -20 169 -15 2 -18 -6 -18 -57z m-46 -70 c69 -32 51 -179 -22 -179 -44 0
-62 26 -62 91 0 50 3 60 26 78 31 25 27 24 58 10z"/>
<path d="M2640 2288 c0 -161 1 -168 20 -168 11 0 20 5 20 11 0 5 10 3 22 -5
34 -24 74 -20 110 13 32 28 33 32 33 104 0 66 -3 79 -24 101 -29 30 -84 35
-119 10 -22 -15 -22 -15 -22 43 0 52 -2 59 -20 59 -19 0 -20 -7 -20 -168z
m145 27 c28 -27 34 -92 12 -135 -16 -31 -61 -39 -88 -14 -40 36 -31 146 15
164 31 13 35 12 61 -15z"/>
<path d="M3720 2398 c0 -59 0 -59 -22 -44 -33 24 -82 20 -115 -8 -26 -23 -28
-29 -28 -106 0 -77 2 -83 28 -106 34 -29 76 -31 111 -3 21 17 26 18 26 5 0 -9
8 -16 20 -16 19 0 20 7 20 164 0 155 -1 164 -20 169 -18 5 -20 0 -20 -55z
m-47 -67 c48 -18 60 -119 20 -163 -23 -25 -68 -23 -87 4 -10 13 -16 44 -16 74
0 45 4 56 26 73 31 24 26 23 57 12z"/>
<path d="M1740 2244 c0 -117 1 -124 20 -124 18 0 20 7 20 85 0 72 3 88 20 105
11 11 29 20 40 20 13 0 20 7 20 20 0 28 -44 27 -64 -2 -15 -21 -16 -22 -16 -2
0 13 -7 20 -20 21 -19 2 -20 -4 -20 -123z"/>
<path d="M1916 2344 c-14 -15 -30 -43 -36 -63 -12 -45 -12 -47 1 -94 24 -88
160 -104 197 -23 10 23 9 26 -6 26 -10 0 -25 -9 -35 -20 -34 -41 -109 -18
-119 35 -3 19 3 20 85 23 l87 3 0 30 c0 37 -24 85 -49 99 -38 20 -96 12 -125
-16z m109 -29 c43 -42 34 -55 -40 -55 -58 0 -65 2 -65 19 0 21 44 61 67 61 8
0 25 -11 38 -25z"/>
<path d="M2165 2345 c-14 -13 -25 -31 -25 -40 0 -22 37 -19 43 5 12 44 107 33
107 -13 0 -21 -7 -25 -62 -35 -68 -13 -98 -36 -98 -79 0 -31 42 -73 74 -73 32
0 76 20 76 34 0 6 9 0 19 -13 10 -14 25 -22 37 -19 23 4 32 38 10 38 -13 0
-16 15 -16 88 0 116 -11 132 -86 132 -45 0 -59 -4 -79 -25z m125 -132 c0 -40
-27 -63 -72 -63 -72 0 -63 57 13 77 61 16 59 16 59 -14z"/>
<path d="M2920 2342 c-38 -38 -48 -102 -25 -160 27 -66 91 -90 154 -57 66 33
75 171 16 223 -40 34 -108 31 -145 -6z m114 -23 c22 -17 26 -28 26 -73 0 -67
-20 -96 -65 -96 -45 0 -67 32 -67 97 0 39 5 52 27 70 32 28 45 29 79 2z"/>
<path d="M3175 2345 c-14 -13 -25 -31 -25 -40 0 -22 37 -19 45 4 7 24 56 36
84 21 12 -6 21 -21 21 -34 0 -20 -7 -24 -62 -34 -68 -13 -98 -36 -98 -79 0
-31 42 -73 74 -73 32 0 76 20 76 34 0 6 9 0 19 -13 20 -26 54 -25 59 2 2 10
-2 16 -10 15 -10 -2 -14 21 -18 95 -6 115 -15 127 -92 127 -39 0 -54 -5 -73
-25z m125 -132 c0 -35 -27 -63 -61 -63 -40 0 -59 10 -59 30 0 30 31 46 113 59
4 0 7 -11 7 -26z"/>
<path d="M3410 2245 c0 -118 1 -125 20 -125 18 0 20 7 20 85 0 72 3 88 20 105
11 11 29 20 40 20 13 0 20 7 20 20 0 28 -44 27 -64 -2 l-16 -22 0 22 c0 15 -6
22 -20 22 -19 0 -20 -7 -20 -125z"/>
<path d="M4080 921 c0 -164 1 -171 20 -171 18 0 20 8 22 138 l3 137 45 -135
c38 -113 49 -136 67 -138 20 -3 26 10 65 132 24 75 45 136 48 136 3 0 4 -61 2
-135 -3 -131 -3 -135 17 -135 20 0 21 5 21 170 l0 170 -30 0 c-29 0 -30 -2
-72 -135 -24 -74 -46 -135 -50 -135 -3 0 -26 60 -50 133 -44 130 -45 132 -76
135 l-32 3 0 -170z"/>
<path d="M4513 1070 c-41 -24 -63 -68 -70 -135 -7 -64 8 -113 46 -149 52 -50
146 -53 196 -6 l23 22 4 -24 c2 -12 9 -23 17 -23 11 0 14 18 13 85 l0 85 -71
3 c-66 3 -71 1 -71 -18 0 -17 6 -20 50 -20 46 0 50 -2 50 -24 0 -14 -11 -38
-24 -53 -21 -24 -32 -28 -75 -28 -42 0 -55 5 -78 27 -22 23 -28 38 -31 91 -3
46 0 73 12 95 18 34 62 62 98 62 31 0 88 -36 88 -55 0 -9 9 -15 26 -15 14 0
24 3 22 8 -24 49 -36 63 -63 77 -46 21 -123 19 -162 -5z"/>
<path d="M5355 1078 c-33 -17 -45 -40 -45 -80 0 -51 23 -71 106 -92 81 -21 94
-29 94 -66 0 -44 -45 -67 -106 -55 -27 5 -39 14 -51 41 -21 44 -59 49 -49 7
10 -40 60 -83 99 -84 89 -3 130 15 147 66 22 67 -15 110 -110 130 -88 18 -119
66 -65 101 44 29 125 5 125 -37 0 -14 7 -19 25 -19 14 0 25 3 25 6 0 21 -35
73 -56 83 -31 14 -113 14 -139 -1z"/>
<path d="M4863 1073 c-37 -7 -73 -59 -73 -104 0 -51 13 -75 50 -94 36 -19 57
-19 94 0 15 8 30 15 31 15 2 0 -2 -18 -7 -41 -13 -48 -46 -74 -84 -65 -14 4
-28 16 -31 26 -3 13 -14 20 -29 20 -27 0 -24 -21 9 -57 16 -18 31 -23 67 -23
48 0 73 17 99 67 17 33 14 168 -5 204 -13 27 -69 62 -91 58 -4 -1 -18 -4 -30
-6z m77 -53 c43 -43 11 -120 -49 -120 -55 0 -82 79 -41 120 11 11 31 20 45 20
14 0 34 -9 45 -20z"/>
<path d="M5109 1065 c-39 -21 -59 -73 -59 -148 0 -111 34 -167 102 -167 54 0
76 15 99 63 33 74 21 193 -25 236 -30 28 -83 36 -117 16z m81 -35 c56 -30 52
-216 -6 -242 -32 -15 -71 3 -85 39 -17 45 -7 167 15 192 21 23 47 27 76 11z"/>
<path d="M7470 1035 c0 -24 -5 -35 -15 -35 -8 0 -15 -7 -15 -15 0 -8 7 -15 15
-15 12 0 15 -18 15 -98 0 -107 6 -122 52 -122 33 0 39 25 8 33 -18 5 -20 14
-20 96 0 84 1 91 20 91 11 0 20 7 20 15 0 8 -9 15 -20 15 -16 0 -20 7 -20 35
0 28 -4 35 -20 35 -16 0 -20 -7 -20 -35z"/>
<path d="M5763 1000 c-46 -19 -59 -90 -20 -114 12 -8 33 -17 47 -21 58 -15 80
-28 80 -46 0 -19 -34 -39 -66 -39 -8 0 -26 11 -40 25 -32 32 -58 34 -49 3 11
-39 43 -58 97 -58 39 0 54 5 73 25 45 45 28 99 -38 115 -67 17 -87 28 -87 49
0 35 70 43 97 11 23 -27 53 -27 46 0 -13 48 -83 73 -140 50z"/>
<path d="M5998 992 c-54 -33 -75 -130 -43 -192 20 -38 43 -50 100 -50 35 0 51
6 70 25 14 13 25 29 25 35 0 17 -29 11 -50 -10 -27 -27 -66 -25 -95 5 -46 46
-35 55 65 55 l90 0 0 28 c0 91 -90 149 -162 104z m101 -48 c12 -15 21 -31 21
-35 0 -5 -31 -9 -70 -9 -62 0 -69 2 -63 18 20 57 77 70 112 26z"/>
<path d="M6260 990 c-16 -16 -20 -17 -20 -5 0 8 -9 15 -20 15 -19 0 -20 -7
-20 -125 0 -118 1 -125 20 -125 18 0 20 7 20 88 0 96 12 122 58 122 17 0 22 6
22 25 0 31 -31 34 -60 5z"/>
<path d="M6622 990 c-38 -23 -52 -54 -52 -116 0 -51 21 -98 49 -114 35 -18
105 -12 130 11 62 58 52 187 -18 223 -40 21 -69 20 -109 -4z m108 -47 c18 -23
21 -37 17 -77 -7 -80 -63 -111 -112 -61 -33 32 -35 110 -5 143 29 31 73 29
100 -5z"/>
<path d="M6892 988 c-19 -19 -22 -20 -22 -5 0 10 -8 17 -20 17 -19 0 -20 -7
-20 -125 0 -118 1 -125 20 -125 18 0 20 7 20 88 0 97 14 132 54 132 39 0 46
-18 46 -122 0 -91 1 -98 20 -98 18 0 20 7 20 88 0 97 14 132 54 132 39 0 46
-18 46 -122 0 -91 1 -98 20 -98 19 0 20 7 20 104 0 89 -3 107 -21 130 -25 32
-66 34 -101 6 -25 -19 -26 -19 -43 0 -24 26 -65 25 -93 -2z"/>
<path d="M7248 994 c-74 -40 -79 -176 -8 -231 19 -15 94 -17 121 -3 29 16 49
64 49 117 0 103 -81 162 -162 117z m102 -51 c44 -56 10 -163 -52 -163 -35 0
-68 44 -68 93 0 87 73 129 120 70z"/>
<path d="M7644 1000 c-12 -4 -31 -21 -43 -36 -40 -51 -22 -176 28 -204 11 -5
39 -10 63 -10 69 0 108 47 108 128 0 95 -76 155 -156 122z m96 -57 c18 -23 21
-37 17 -77 -7 -80 -63 -111 -112 -61 -33 32 -36 114 -5 145 29 29 74 26 100
-7z"/>
<path d="M7900 988 c-17 -18 -20 -19 -20 -5 0 10 -8 17 -20 17 -19 0 -20 -7
-20 -125 0 -118 1 -125 20 -125 18 0 20 7 20 83 0 93 15 127 56 127 19 0 24 5
24 25 0 32 -31 34 -60 3z"/>
<path d="M8024 998 c-33 -15 -49 -53 -38 -86 7 -22 21 -31 74 -48 51 -16 66
-26 68 -42 7 -45 -94 -56 -105 -12 -7 25 -43 27 -43 2 0 -10 9 -28 20 -40 31
-33 118 -31 150 2 25 28 29 68 10 91 -7 9 -40 23 -73 32 -32 9 -61 23 -64 30
-16 40 75 61 99 23 13 -20 48 -28 48 -11 0 54 -86 89 -146 59z"/>
<path d="M6366 903 c20 -54 40 -111 46 -126 7 -20 16 -27 30 -25 16 2 30 29
64 122 24 66 44 121 44 123 0 2 -10 3 -22 3 -20 0 -27 -12 -52 -95 -17 -52
-33 -92 -37 -88 -4 5 -19 47 -34 96 -25 77 -31 87 -51 87 l-24 0 36 -97z"/>
</g>
</svg>
